<?xml version="1.0" encoding="UTF-8"?>
<svg width="812px" height="616px" viewBox="0 0 812 616" version="1.1" xmlns="http://www.w3.org/2000/svg" xmlns:xlink="http://www.w3.org/1999/xlink">
    <!-- Generator: Sketch 52.5 (67469) - http://www.bohemiancoding.com/sketch -->
    <title>Group 18</title>
    <desc>Created with Sketch.</desc>
    <defs>
        <polygon id="path-1" points="146 0 812 0 812 524 0.614035088 0"></polygon>
        <filter x="-0.1%" y="-0.1%" width="100.1%" height="100.4%" filterUnits="objectBoundingBox" id="filter-2">
            <feOffset dx="0" dy="1" in="SourceAlpha" result="shadowOffsetOuter1"></feOffset>
            <feColorMatrix values="0 0 0 0 0.901960784   0 0 0 0 0.917647059   0 0 0 0 0.933333333  0 0 0 1 0" type="matrix" in="shadowOffsetOuter1"></feColorMatrix>
        </filter>
        <polygon id="path-3" points="145.385965 0 811.385965 0 811.385965 524 1.44131101e-12 0"></polygon>
        <filter x="-0.1%" y="-0.1%" width="100.1%" height="100.4%" filterUnits="objectBoundingBox" id="filter-5">
            <feOffset dx="0" dy="1" in="SourceAlpha" result="shadowOffsetOuter1"></feOffset>
            <feComposite in="shadowOffsetOuter1" in2="SourceAlpha" operator="out" result="shadowOffsetOuter1"></feComposite>
            <feColorMatrix values="0 0 0 0 0.901960784   0 0 0 0 0.917647059   0 0 0 0 0.933333333  0 0 0 1 0" type="matrix" in="shadowOffsetOuter1"></feColorMatrix>
        </filter>
    </defs>
    <g id="Page-12" stroke="none" stroke-width="1" fill="none" fill-rule="evenodd">
        <g id="Home" transform="translate(-459.000000, 0.000000)">
            <g id="Group-18" transform="translate(459.000000, -1.000000)">
                <polygon id="Rectangle" fill-opacity="0.0304857337" fill="#0042FF" points="149 1 815 1 815 618.480469 3.61403509 1"></polygon>
                <g id="Group-7" transform="translate(3.000000, 1.000000)">
                    <g id="Rectangle">
                        <use fill="black" fill-opacity="1" filter="url(#filter-2)" xlink:href="#path-1"></use>
                        <use fill="#0042FF" fill-rule="evenodd" xlink:href="#path-1"></use>
                    </g>
                </g>
                <g id="Group-25" opacity="0.0961914062">
                    <mask id="mask-4" fill="white">
                        <use xlink:href="#path-3"></use>
                    </mask>
                    <g id="Mask">
                        <use fill="black" fill-opacity="1" filter="url(#filter-5)" xlink:href="#path-3"></use>
                        <use fill-opacity="0" fill="#0042FF" fill-rule="evenodd" xlink:href="#path-3"></use>
                    </g>
                    <g mask="url(#mask-4)" fill="#FFFFFF" id="Fill-1">
                        <g transform="translate(-417.000000, -321.000000)">
                            <path d="M327.34289,588.767865 C297.949862,588.767865 270.414331,575.693749 245.457005,549.902012 L237.566359,541.749096 L253.213912,525.272764 L261.111988,533.43343 C281.893661,554.916211 304.176191,565.944348 327.862989,565.580102 C368.601607,565.308855 400.164191,532.325192 400.483681,531.984195 L408.255447,523.738279 L424.118469,539.912364 L416.376423,548.18928 C414.845845,549.832263 378.29774,588.31837 328.227059,588.767865 C327.937289,588.767865 327.64009,588.767865 327.34289,588.767865" transform="translate(330.842414, 556.253072) scale(1, -1) translate(-330.842414, -556.253072) "></path>
                            <path d="M384.858956,442.201183 C355.465928,442.201183 327.930397,429.127067 302.973071,403.33533 L295.082425,395.182414 L310.729978,378.706082 L318.628054,386.866749 C339.409727,408.349529 361.692257,419.377667 385.379055,419.01342 C426.117673,418.742173 457.680257,385.75851 457.999747,385.417513 L465.771513,377.171598 L481.634535,393.345682 L473.892489,401.622598 C472.361911,403.265581 435.813806,441.751688 385.743125,442.201183 C385.453355,442.201183 385.156156,442.201183 384.858956,442.201183"></path>
                            <path d="M468.882426,512.733273 C439.489399,512.733273 411.953867,499.659156 386.996542,473.86742 L379.105896,465.714503 L394.753448,449.238171 L402.651524,457.398838 C423.433197,478.881618 445.715728,489.909756 469.402526,489.545509 C510.141143,489.274262 541.703727,456.290599 542.023217,455.949603 L549.794983,447.703687 L565.658005,463.877772 L557.915959,472.154687 C556.385381,473.79767 519.837276,512.283777 469.766595,512.733273 C469.476825,512.733273 469.179626,512.733273 468.882426,512.733273" transform="translate(472.381950, 480.218480) scale(1, -1) translate(-472.381950, -480.218480) "></path>
                            <path d="M533.900588,363.665453 C504.50756,363.665453 476.972029,350.591336 452.014703,324.7996 L444.124057,316.646683 L459.771609,300.170351 L467.669685,308.331018 C488.451358,329.813799 510.733889,340.841936 534.420687,340.47769 C575.159305,340.206442 606.721889,307.222779 607.041378,306.881783 L614.813145,298.635867 L630.676167,314.809952 L622.93412,323.086867 C621.403543,324.729851 584.855438,363.215957 534.784756,363.665453 C534.494987,363.665453 534.197787,363.665453 533.900588,363.665453"></path>
                            <path d="M617.924058,434.197542 C588.53103,434.197542 560.995499,421.123426 536.038173,395.331689 L528.147527,387.178772 L543.79508,370.702441 L551.693156,378.863107 C572.474829,400.345888 594.757359,411.374025 618.444157,411.009779 C659.182775,410.738532 690.745359,377.754869 691.064849,377.413872 L698.836615,369.167956 L714.699637,385.342041 L706.95759,393.618957 C705.427013,395.26194 668.878908,433.748047 618.808227,434.197542 C618.518457,434.197542 618.221258,434.197542 617.924058,434.197542" transform="translate(621.423582, 401.682749) scale(1, -1) translate(-621.423582, -401.682749) "></path>
                            <path d="M327.34289,811.36914 C297.949862,811.36914 270.414331,798.295023 245.457005,772.503287 L237.566359,764.35037 L253.213912,747.874038 L261.111988,756.034705 C281.893661,777.517485 304.176191,788.545623 327.862989,788.181377 C368.601607,787.910129 400.164191,754.926466 400.483681,754.58547 L408.255447,746.339554 L424.118469,762.513639 L416.376423,770.790554 C414.845845,772.433537 378.29774,810.919644 328.227059,811.36914 C327.937289,811.36914 327.64009,811.36914 327.34289,811.36914" transform="translate(330.842414, 778.854347) scale(1, -1) translate(-330.842414, -778.854347) "></path>
                            <path d="M384.858956,664.802458 C355.465928,664.802458 327.930397,651.728341 302.973071,625.936605 L295.082425,617.783688 L310.729978,601.307356 L318.628054,609.468023 C339.409727,630.950804 361.692257,641.978941 385.379055,641.614695 C426.117673,641.343448 457.680257,608.359784 457.999747,608.018788 L465.771513,599.772872 L481.634535,615.946957 L473.892489,624.223872 C472.361911,625.866856 435.813806,664.352962 385.743125,664.802458 C385.453355,664.802458 385.156156,664.802458 384.858956,664.802458"></path>
                            <path d="M468.882426,735.334547 C439.489399,735.334547 411.953867,722.260431 386.996542,696.468694 L379.105896,688.315777 L394.753448,671.839446 L402.651524,680.000112 C423.433197,701.482893 445.715728,712.51103 469.402526,712.146784 C510.141143,711.875537 541.703727,678.891874 542.023217,678.550877 L549.794983,670.304961 L565.658005,686.479046 L557.915959,694.755962 C556.385381,696.398945 519.837276,734.885052 469.766595,735.334547 C469.476825,735.334547 469.179626,735.334547 468.882426,735.334547" transform="translate(472.381950, 702.819754) scale(1, -1) translate(-472.381950, -702.819754) "></path>
                            <path d="M533.900588,586.266727 C504.50756,586.266727 476.972029,573.192611 452.014703,547.400874 L444.124057,539.247958 L459.771609,522.771626 L467.669685,530.932293 C488.451358,552.415073 510.733889,563.44321 534.420687,563.078964 C575.159305,562.807717 606.721889,529.824054 607.041378,529.483057 L614.813145,521.237142 L630.676167,537.411226 L622.93412,545.688142 C621.403543,547.331125 584.855438,585.817232 534.784756,586.266727 C534.494987,586.266727 534.197787,586.266727 533.900588,586.266727"></path>
                            <path d="M617.924058,656.798817 C588.53103,656.798817 560.995499,643.7247 536.038173,617.932964 L528.147527,609.780047 L543.79508,593.303715 L551.693156,601.464382 C572.474829,622.947162 594.757359,633.9753 618.444157,633.611053 C659.182775,633.339806 690.745359,600.356143 691.064849,600.015147 L698.836615,591.769231 L714.699637,607.943316 L706.95759,616.220231 C705.427013,617.863214 668.878908,656.349321 618.808227,656.798817 C618.518457,656.798817 618.221258,656.798817 617.924058,656.798817" transform="translate(621.423582, 624.284024) scale(1, -1) translate(-621.423582, -624.284024) "></path>
                            <path d="M694.945573,510.232135 C665.552545,510.232135 638.017013,497.158018 613.059688,471.366282 L605.169042,463.213365 L620.816594,446.737033 L628.71467,454.8977 C649.496343,476.38048 671.778874,487.408618 695.465672,487.044372 C736.20429,486.773124 767.766874,453.789461 768.086363,453.448465 L775.858129,445.202549 L791.721151,461.376634 L783.979105,469.653549 C782.448528,471.296532 745.900422,509.782639 695.829741,510.232135 C695.539972,510.232135 695.242772,510.232135 694.945573,510.232135"></path>
                            <path d="M778.969043,580.764224 C749.576015,580.764224 722.040484,567.690107 697.083158,541.898371 L689.192512,533.745454 L704.840064,517.269122 L712.73814,525.429789 C733.519813,546.91257 755.802344,557.940707 779.489142,557.576461 C820.22776,557.305214 851.790344,524.32155 852.109833,523.980554 L859.8816,515.734638 L875.744621,531.908723 L868.002575,540.185638 C866.471998,541.828622 829.923893,580.314729 779.853211,580.764224 C779.563442,580.764224 779.266242,580.764224 778.969043,580.764224" transform="translate(782.468567, 548.249431) scale(1, -1) translate(-782.468567, -548.249431) "></path>
                            <path d="M848.488462,442.201183 C819.095434,442.201183 791.559903,429.127067 766.602577,403.33533 L758.711931,395.182414 L774.359483,378.706082 L782.257559,386.866749 C803.039232,408.349529 825.321763,419.377667 849.008561,419.01342 C889.747179,418.742173 921.309763,385.75851 921.629252,385.417513 L929.401018,377.171598 L945.26404,393.345682 L937.521994,401.622598 C935.991417,403.265581 899.443311,441.751688 849.37263,442.201183 C849.082861,442.201183 848.785661,442.201183 848.488462,442.201183"></path>
                            <path d="M932.511932,512.733273 C903.118904,512.733273 875.583373,499.659156 850.626047,473.86742 L842.735401,465.714503 L858.382953,449.238171 L866.281029,457.398838 C887.062702,478.881618 909.345233,489.909756 933.032031,489.545509 C973.770649,489.274262 1005.33323,456.290599 1005.65272,455.949603 L1013.42449,447.703687 L1029.28751,463.877772 L1021.54546,472.154687 C1020.01489,473.79767 983.466782,512.283777 933.3961,512.733273 C933.106331,512.733273 932.809131,512.733273 932.511932,512.733273" transform="translate(936.011456, 480.218480) scale(1, -1) translate(-936.011456, -480.218480) "></path>
                            <path d="M778.969043,358.162949 C749.576015,358.162949 722.040484,345.088833 697.083158,319.297096 L689.192512,311.14418 L704.840064,294.667848 L712.73814,302.828515 C733.519813,324.311295 755.802344,335.339433 779.489142,334.975186 C820.22776,334.703939 851.790344,301.720276 852.109833,301.379279 L859.8816,293.133364 L875.744621,309.307448 L868.002575,317.584364 C866.471998,319.227347 829.923893,357.713454 779.853211,358.162949 C779.563442,358.162949 779.266242,358.162949 778.969043,358.162949" transform="translate(782.468567, 325.648157) scale(1, -1) translate(-782.468567, -325.648157) "></path>
                            <path d="M990.027998,366.166591 C960.63497,366.166591 933.099439,353.092474 908.142113,327.300738 L900.251467,319.147821 L915.899019,302.671489 L923.797095,310.832156 C944.578768,332.314937 966.861299,343.343074 990.548097,342.978828 C1031.28671,342.70758 1062.8493,309.723917 1063.16879,309.382921 L1070.94055,301.137005 L1086.80358,317.31109 L1079.06153,325.588005 C1077.53095,327.230988 1040.98285,365.717095 990.912166,366.166591 C990.622397,366.166591 990.325197,366.166591 990.027998,366.166591"></path>
                            <path d="M1074.05147,436.69868 C1044.65844,436.69868 1017.12291,423.624564 992.165583,397.832827 L984.274937,389.67991 L999.922489,373.203579 L1007.82057,381.364245 C1028.60224,402.847026 1050.88477,413.875163 1074.57157,413.510917 C1115.31019,413.23967 1146.87277,380.256007 1147.19226,379.91501 L1154.96402,371.669094 L1170.82705,387.843179 L1163.085,396.120094 C1161.55442,397.763078 1125.00632,436.249185 1074.93564,436.69868 C1074.64587,436.69868 1074.34867,436.69868 1074.05147,436.69868" transform="translate(1077.550992, 404.183887) scale(1, -1) translate(-1077.550992, -404.183887) "></path>
                            <path d="M1223.0931,358.162949 C1193.70007,358.162949 1166.16454,345.088833 1141.20721,319.297096 L1133.31657,311.14418 L1148.96412,294.667848 L1156.8622,302.828515 C1177.64387,324.311295 1199.9264,335.339433 1223.6132,334.975186 C1264.35182,334.703939 1295.9144,301.720276 1296.23389,301.379279 L1304.00566,293.133364 L1319.86868,309.307448 L1312.12663,317.584364 C1310.59605,319.227347 1274.04795,357.713454 1223.97727,358.162949 C1223.6875,358.162949 1223.3903,358.162949 1223.0931,358.162949" transform="translate(1226.592624, 325.648157) scale(1, -1) translate(-1226.592624, -325.648157) "></path>
                            <path d="M552.405757,805.866636 C523.012729,805.866636 495.477198,792.79252 470.519872,767.000783 L462.629226,758.847867 L478.276778,742.371535 L486.174854,750.532201 C506.956528,772.014982 529.239058,783.043119 552.925856,782.678873 C593.664474,782.407626 625.227058,749.423963 625.546547,749.082966 L633.318314,740.837051 L649.181336,757.011135 L641.439289,765.288051 C639.908712,766.931034 603.360607,805.417141 553.289925,805.866636 C553.000156,805.866636 552.702956,805.866636 552.405757,805.866636"></path>
                            <path d="M636.429227,876.398726 C607.036199,876.398726 579.500668,863.324609 554.543342,837.532873 L546.652696,829.379956 L562.300249,812.903624 L570.198325,821.064291 C590.979998,842.547071 613.262528,853.575209 636.949326,853.210962 C677.687944,852.939715 709.250528,819.956052 709.570018,819.615056 L717.341784,811.36914 L733.204806,827.543225 L725.46276,835.82014 C723.932182,837.463123 687.384077,875.94923 637.313396,876.398726 C637.023626,876.398726 636.726427,876.398726 636.429227,876.398726" transform="translate(639.928751, 843.883933) scale(1, -1) translate(-639.928751, -843.883933) "></path>
                            <path d="M693.945293,729.832044 C664.552265,729.832044 637.016734,716.757927 612.059408,690.966191 L604.168762,682.813274 L619.816315,666.336942 L627.714391,674.497609 C648.496064,695.980389 670.778594,707.008527 694.465392,706.644281 C735.20401,706.373033 766.766594,673.38937 767.086084,673.048374 L774.85785,664.802458 L790.720872,680.976543 L782.978825,689.253458 C781.448248,690.896441 744.900143,729.382548 694.829462,729.832044 C694.539692,729.832044 694.242493,729.832044 693.945293,729.832044"></path>
                            <path d="M777.968763,800.364133 C748.575735,800.364133 721.040204,787.290016 696.082878,761.49828 L688.192232,753.345363 L703.839785,736.869031 L711.737861,745.029698 C732.519534,766.512479 754.802064,777.540616 778.488863,777.17637 C819.22748,776.905123 850.790064,743.921459 851.109554,743.580463 L858.88132,735.334547 L874.744342,751.508632 L867.002296,759.785547 C865.471718,761.428531 828.923613,799.914637 778.852932,800.364133 C778.563162,800.364133 778.265963,800.364133 777.968763,800.364133" transform="translate(781.468287, 767.849340) scale(1, -1) translate(-781.468287, -767.849340) "></path>
                            <path d="M842.986925,651.296313 C813.593897,651.296313 786.058366,638.222197 761.10104,612.43046 L753.210394,604.277543 L768.857946,587.801212 L776.756022,595.961878 C797.537695,617.444659 819.820226,628.472796 843.507024,628.10855 C884.245642,627.837303 915.808226,594.85364 916.127715,594.512643 L923.899482,586.266727 L939.762503,602.440812 L932.020457,610.717728 C930.48988,612.360711 893.941775,650.846818 843.871093,651.296313 C843.581324,651.296313 843.284124,651.296313 842.986925,651.296313"></path>
                            <path d="M927.010395,721.828402 C897.617367,721.828402 870.081836,708.754286 845.12451,682.962549 L837.233864,674.809633 L852.881416,658.333301 L860.779492,666.493968 C881.561166,687.976748 903.843696,699.004885 927.530494,698.640639 C968.269112,698.369392 999.831696,665.385729 1000.15119,665.044732 L1007.92295,656.798817 L1023.78597,672.972901 L1016.04393,681.249817 C1014.51335,682.8928 977.965245,721.378907 927.894564,721.828402 C927.604794,721.828402 927.307595,721.828402 927.010395,721.828402" transform="translate(930.509919, 689.313609) scale(1, -1) translate(-930.509919, -689.313609) "></path>
                            <path d="M398.862868,873.897588 C369.46984,873.897588 341.934309,860.823471 316.976983,835.031735 L309.086337,826.878818 L324.733889,810.402486 L332.631965,818.563153 C353.413638,840.045933 375.696169,851.074071 399.382967,850.709824 C440.121585,850.438577 471.684169,817.454914 472.003658,817.113918 L479.775425,808.868002 L495.638446,825.042087 L487.8964,833.319002 C486.365823,834.961985 449.817718,873.448092 399.747036,873.897588 C399.457267,873.897588 399.160067,873.897588 398.862868,873.897588"></path>
                            <path d="M482.886338,944.429677 C453.49331,944.429677 425.957779,931.35556 401.000453,905.563824 L393.109807,897.410907 L408.757359,880.934575 L416.655435,889.095242 C437.437109,910.578023 459.719639,921.60616 483.406437,921.241914 C524.145055,920.970666 555.707639,887.987003 556.027129,887.646007 L563.798895,879.400091 L579.661917,895.574176 L571.91987,903.851091 C570.389293,905.494075 533.841188,943.980181 483.770507,944.429677 C483.480737,944.429677 483.183538,944.429677 482.886338,944.429677" transform="translate(486.385862, 911.914884) scale(1, -1) translate(-486.385862, -911.914884) "></path>
                            <path d="M693.945293,952.433318 C664.552265,952.433318 637.016734,939.359202 612.059408,913.567465 L604.168762,905.414548 L619.816315,888.938217 L627.714391,897.098883 C648.496064,918.581664 670.778594,929.609801 694.465392,929.245555 C735.20401,928.974308 766.766594,895.990645 767.086084,895.649648 L774.85785,887.403732 L790.720872,903.577817 L782.978825,911.854733 C781.448248,913.497716 744.900143,951.983823 694.829462,952.433318 C694.539692,952.433318 694.242493,952.433318 693.945293,952.433318"></path>
                            <path d="M842.986925,873.897588 C813.593897,873.897588 786.058366,860.823471 761.10104,835.031735 L753.210394,826.878818 L768.857946,810.402486 L776.756022,818.563153 C797.537695,840.045933 819.820226,851.074071 843.507024,850.709824 C884.245642,850.438577 915.808226,817.454914 916.127715,817.113918 L923.899482,808.868002 L939.762503,825.042087 L932.020457,833.319002 C930.48988,834.961985 893.941775,873.448092 843.871093,873.897588 C843.581324,873.897588 843.284124,873.897588 842.986925,873.897588"></path>
                            <path d="M927.010395,944.429677 C897.617367,944.429677 870.081836,931.35556 845.12451,905.563824 L837.233864,897.410907 L852.881416,880.934575 L860.779492,889.095242 C881.561166,910.578023 903.843696,921.60616 927.530494,921.241914 C968.269112,920.970666 999.831696,887.987003 1000.15119,887.646007 L1007.92295,879.400091 L1023.78597,895.574176 L1016.04393,903.851091 C1014.51335,905.494075 977.965245,943.980181 927.894564,944.429677 C927.604794,944.429677 927.307595,944.429677 927.010395,944.429677" transform="translate(930.509919, 911.914884) scale(1, -1) translate(-930.509919, -911.914884) "></path>
                            <path d="M1004.03191,797.862995 C974.638882,797.862995 947.10335,784.788879 922.146025,758.997142 L914.255379,750.844225 L929.902931,734.367894 L937.801007,742.52856 C958.58268,764.011341 980.865211,775.039478 1004.55201,774.675232 C1045.29063,774.403985 1076.85321,741.420321 1077.1727,741.079325 L1084.94447,732.833409 L1100.80749,749.007494 L1093.06544,757.284409 C1091.53486,758.927393 1054.98676,797.4135 1004.91608,797.862995 C1004.62631,797.862995 1004.32911,797.862995 1004.03191,797.862995"></path>
                            <path d="M1088.05538,868.395084 C1058.66235,868.395084 1031.12682,855.320968 1006.16949,829.529231 L998.278849,821.376314 L1013.9264,804.899983 L1021.82448,813.060649 C1042.60615,834.54343 1064.88868,845.571567 1088.57548,845.207321 C1129.3141,844.936074 1160.87668,811.952411 1161.19617,811.611414 L1168.96794,803.365498 L1184.83096,819.539583 L1177.08891,827.816499 C1175.55833,829.459482 1139.01023,867.945589 1088.93955,868.395084 C1088.64978,868.395084 1088.35258,868.395084 1088.05538,868.395084" transform="translate(1091.554904, 835.880291) scale(1, -1) translate(-1091.554904, -835.880291) "></path>
                            <path d="M1157.5748,507.230769 C1128.18177,507.230769 1100.64624,494.156653 1075.68891,468.364916 L1067.79827,460.211999 L1083.44582,443.735668 L1091.3439,451.896334 C1112.12557,473.379115 1134.4081,484.407252 1158.0949,484.043006 C1198.83352,483.771759 1230.3961,450.788096 1230.71559,450.447099 L1238.48736,442.201183 L1254.35038,458.375268 L1246.60833,466.652184 C1245.07775,468.295167 1208.52965,506.781274 1158.45897,507.230769 C1158.1692,507.230769 1157.872,507.230769 1157.5748,507.230769"></path>
                            <path d="M1241.59827,577.762858 C1212.20524,577.762858 1184.66971,564.688742 1159.71238,538.897005 L1151.82174,530.744089 L1167.46929,514.267757 L1175.36737,522.428424 C1196.14904,543.911204 1218.43157,554.939342 1242.11837,554.575095 C1282.85699,554.303848 1314.41957,521.320185 1314.73906,520.979188 L1322.51083,512.733273 L1338.37385,528.907357 L1330.6318,537.184273 C1329.10122,538.827256 1292.55312,577.313363 1242.48244,577.762858 C1242.19267,577.762858 1241.89547,577.762858 1241.59827,577.762858" transform="translate(1245.097793, 545.248066) scale(1, -1) translate(-1245.097793, -545.248066) "></path>
                            <path d="M1299.11433,431.196177 C1269.72131,431.196177 1242.18578,418.12206 1217.22845,392.330324 L1209.3378,384.177407 L1224.98536,367.701075 L1232.88343,375.861742 C1253.66511,397.344522 1275.94764,408.37266 1299.63443,408.008413 C1340.37305,407.737166 1371.93564,374.753503 1372.25513,374.412507 L1380.02689,366.166591 L1395.88991,382.340676 L1388.14787,390.617591 C1386.61729,392.260574 1350.06918,430.746681 1299.9985,431.196177 C1299.70873,431.196177 1299.41153,431.196177 1299.11433,431.196177"></path>
                            <path d="M1157.5748,729.832044 C1128.18177,729.832044 1100.64624,716.757927 1075.68891,690.966191 L1067.79827,682.813274 L1083.44582,666.336942 L1091.3439,674.497609 C1112.12557,695.980389 1134.4081,707.008527 1158.0949,706.644281 C1198.83352,706.373033 1230.3961,673.38937 1230.71559,673.048374 L1238.48736,664.802458 L1254.35038,680.976543 L1246.60833,689.253458 C1245.07775,690.896441 1208.52965,729.382548 1158.45897,729.832044 C1158.1692,729.832044 1157.872,729.832044 1157.5748,729.832044"></path>
                            <path d="M1241.59827,800.364133 C1212.20524,800.364133 1184.66971,787.290016 1159.71238,761.49828 L1151.82174,753.345363 L1167.46929,736.869031 L1175.36737,745.029698 C1196.14904,766.512479 1218.43157,777.540616 1242.11837,777.17637 C1282.85699,776.905123 1314.41957,743.921459 1314.73906,743.580463 L1322.51083,735.334547 L1338.37385,751.508632 L1330.6318,759.785547 C1329.10122,761.428531 1292.55312,799.914637 1242.48244,800.364133 C1242.19267,800.364133 1241.89547,800.364133 1241.59827,800.364133" transform="translate(1245.097793, 767.849340) scale(1, -1) translate(-1245.097793, -767.849340) "></path>
                            <path d="M1004.03191,575.261721 C974.638882,575.261721 947.10335,562.187604 922.146025,536.395867 L914.255379,528.242951 L929.902931,511.766619 L937.801007,519.927286 C958.58268,541.410066 980.865211,552.438204 1004.55201,552.073957 C1045.29063,551.80271 1076.85321,518.819047 1077.1727,518.478051 L1084.94447,510.232135 L1100.80749,526.40622 L1093.06544,534.683135 C1091.53486,536.326118 1054.98676,574.812225 1004.91608,575.261721 C1004.62631,575.261721 1004.32911,575.261721 1004.03191,575.261721"></path>
                            <path d="M1088.05538,645.79381 C1058.66235,645.79381 1031.12682,632.719693 1006.16949,606.927957 L998.278849,598.77504 L1013.9264,582.298708 L1021.82448,590.459375 C1042.60615,611.942155 1064.88868,622.970293 1088.57548,622.606047 C1129.3141,622.334799 1160.87668,589.351136 1161.19617,589.01014 L1168.96794,580.764224 L1184.83096,596.938309 L1177.08891,605.215224 C1175.55833,606.858207 1139.01023,645.344314 1088.93955,645.79381 C1088.64978,645.79381 1088.35258,645.79381 1088.05538,645.79381" transform="translate(1091.554904, 613.279017) scale(1, -1) translate(-1091.554904, -613.279017) "></path>
                            <path d="M1299.11433,653.797451 C1269.72131,653.797451 1242.18578,640.723335 1217.22845,614.931598 L1209.3378,606.778681 L1224.98536,590.30235 L1232.88343,598.463016 C1253.66511,619.945797 1275.94764,630.973934 1299.63443,630.609688 C1340.37305,630.338441 1371.93564,597.354778 1372.25513,597.013781 L1380.02689,588.767865 L1395.88991,604.94195 L1388.14787,613.218866 C1386.61729,614.861849 1350.06918,653.347956 1299.9985,653.797451 C1299.70873,653.797451 1299.41153,653.797451 1299.11433,653.797451"></path>
                        </g>
                    </g>
                </g>
            </g>
        </g>
    </g>
</svg>