<?xml version="1.0" encoding="UTF-8"?>
<svg width="1068px" height="648px" viewBox="0 0 1068 648" version="1.1" xmlns="http://www.w3.org/2000/svg" xmlns:xlink="http://www.w3.org/1999/xlink">
    <!-- Generator: Sketch 64 (93537) - https://sketch.com -->
    <title>Group 22</title>
    <desc>Created with Sketch.</desc>
    <defs>
        <path d="M8,0 L624.8,0 C629.218278,-8.11624501e-16 632.8,3.581722 632.8,8 L632.8,37.6 L632.8,37.6 L0,37.6 L0,8 C-5.41083001e-16,3.581722 3.581722,8.11624501e-16 8,0 Z" id="path-1"></path>
        <filter x="-0.1%" y="-1.3%" width="100.2%" height="105.3%" filterUnits="objectBoundingBox" id="filter-2">
            <feOffset dx="0" dy="1" in="SourceAlpha" result="shadowOffsetOuter1"></feOffset>
            <feColorMatrix values="0 0 0 0 0.705882353   0 0 0 0 0.733333333   0 0 0 0 0.776470588  0 0 0 1 0" type="matrix" in="shadowOffsetOuter1"></feColorMatrix>
        </filter>
        <path d="M106.925734,1.64 L111.878,6.12 L216.88,6.12 C217.984569,6.12 218.88,7.0154305 218.88,8.12 L218.88,127 C218.88,128.104569 217.984569,129 216.88,129 L2,129 C0.8954305,129 1.3527075e-16,128.104569 0,127 L0,8.12 C-3.57315355e-16,7.0154305 0.8954305,6.12 2,6.12 L102.435,6.12 L106.925734,1.64 Z" id="path-3"></path>
        <filter x="-11.4%" y="-15.7%" width="122.8%" height="139.3%" filterUnits="objectBoundingBox" id="filter-4">
            <feOffset dx="0" dy="5" in="SourceAlpha" result="shadowOffsetOuter1"></feOffset>
            <feGaussianBlur stdDeviation="7.5" in="shadowOffsetOuter1" result="shadowBlurOuter1"></feGaussianBlur>
            <feComposite in="shadowBlurOuter1" in2="SourceAlpha" operator="out" result="shadowBlurOuter1"></feComposite>
            <feColorMatrix values="0 0 0 0 0   0 0 0 0 0   0 0 0 0 0  0 0 0 0.173978365 0" type="matrix" in="shadowBlurOuter1"></feColorMatrix>
        </filter>
        <filter x="-36.4%" y="-36.4%" width="172.7%" height="172.7%" filterUnits="objectBoundingBox" id="filter-5">
            <feOffset dx="0" dy="2" in="SourceAlpha" result="shadowOffsetOuter1"></feOffset>
            <feGaussianBlur stdDeviation="1" in="shadowOffsetOuter1" result="shadowBlurOuter1"></feGaussianBlur>
            <feColorMatrix values="0 0 0 0 0   0 0 0 0 0   0 0 0 0 0  0 0 0 0.286741395 0" type="matrix" in="shadowBlurOuter1" result="shadowMatrixOuter1"></feColorMatrix>
            <feMerge>
                <feMergeNode in="shadowMatrixOuter1"></feMergeNode>
                <feMergeNode in="SourceGraphic"></feMergeNode>
            </feMerge>
        </filter>
    </defs>
    <g id="Marketing-2.0" stroke="none" stroke-width="1" fill="none" fill-rule="evenodd">
        <g id="Home" transform="translate(-101.000000, -456.000000)">
            <g id="Group-22" transform="translate(101.000000, 456.000000)">
                <rect id="Rectangle" fill="#FFFFFF" x="0" y="0" width="1068" height="648"></rect>
                <g id="Group-21" transform="translate(94.000000, 29.000000)">
                    <rect id="Rectangle" fill-opacity="0.051791958" fill="#000000" x="0" y="336" width="744" height="10" rx="5"></rect>
                    <ellipse id="Oval" fill-opacity="0.11328125" fill="#000000" cx="811" cy="336" rx="71" ry="5"></ellipse>
                    <ellipse id="Oval" fill-opacity="0.0388986014" fill="#000000" cx="423" cy="584" rx="122" ry="5"></ellipse>
                    <g id="Group-9" transform="translate(107.000000, 0.000000)">
                        <g id="Group-8">
                            <rect id="Rectangle" stroke="#B4BBC6" stroke-width="0.8" fill="#FFFFFF" x="-0.4" y="-0.4" width="633.6" height="341.6" rx="8"></rect>
                            <g id="Group-7">
                                <g id="Rectangle">
                                    <use fill="black" fill-opacity="1" filter="url(#filter-2)" xlink:href="#path-1"></use>
                                    <use fill="#FFFFFF" fill-rule="evenodd" xlink:href="#path-1"></use>
                                </g>
                                <rect id="Rectangle" fill="#F1F3F4" x="49.6" y="6.8" width="508.8" height="24" rx="12"></rect>
                                <path d="M69.052,22 L69.7592,19.296 C69.8285333,19.0533333 69.8909333,18.8124 69.9464,18.5732 C70.0018667,18.334 70.0573333,18.0861333 70.1128,17.8296 L70.1128,17.8296 L70.1544,17.8296 C70.2168,18.0861333 70.274,18.3322667 70.326,18.568 C70.378,18.8037333 70.4352,19.0429333 70.4976,19.2856 L70.4976,19.2856 L71.2256,22 L72.2656,22 L73.6176,16.9456 L72.8064,16.9456 L72.068,19.868 C72.0125333,20.1106667 71.9605333,20.3464 71.912,20.5752 C71.8634667,20.804 71.8114667,21.0362667 71.756,21.272 L71.756,21.272 L71.7144,21.272 C71.6589333,21.0362667 71.6017333,20.804 71.5428,20.5752 C71.4838667,20.3464 71.4232,20.1106667 71.3608,19.868 L71.3608,19.868 L70.5704,16.9456 L69.7384,16.9456 L68.9584,19.868 C68.896,20.1037333 68.8370667,20.3377333 68.7816,20.57 C68.7261333,20.8022667 68.6706667,21.0362667 68.6152,21.272 L68.6152,21.272 L68.5736,21.272 C68.5250667,21.0362667 68.4765333,20.804 68.428,20.5752 C68.3794667,20.3464 68.3274667,20.1106667 68.272,19.868 L68.272,19.868 L67.5232,16.9456 L66.6496,16.9456 L68.0536,22 L69.052,22 Z M76.5192,22 L77.2264,19.296 C77.2957333,19.0533333 77.3581333,18.8124 77.4136,18.5732 C77.4690667,18.334 77.5245333,18.0861333 77.58,17.8296 L77.58,17.8296 L77.6216,17.8296 C77.684,18.0861333 77.7412,18.3322667 77.7932,18.568 C77.8452,18.8037333 77.9024,19.0429333 77.9648,19.2856 L77.9648,19.2856 L78.6928,22 L79.7328,22 L81.0848,16.9456 L80.2736,16.9456 L79.5352,19.868 C79.4797333,20.1106667 79.4277333,20.3464 79.3792,20.5752 C79.3306667,20.804 79.2786667,21.0362667 79.2232,21.272 L79.2232,21.272 L79.1816,21.272 C79.1261333,21.0362667 79.0689333,20.804 79.01,20.5752 C78.9510667,20.3464 78.8904,20.1106667 78.828,19.868 L78.828,19.868 L78.0376,16.9456 L77.2056,16.9456 L76.4256,19.868 C76.3632,20.1037333 76.3042667,20.3377333 76.2488,20.57 C76.1933333,20.8022667 76.1378667,21.0362667 76.0824,21.272 L76.0824,21.272 L76.0408,21.272 C75.9922667,21.0362667 75.9437333,20.804 75.8952,20.5752 C75.8466667,20.3464 75.7946667,20.1106667 75.7392,19.868 L75.7392,19.868 L74.9904,16.9456 L74.1168,16.9456 L75.5208,22 L76.5192,22 Z M83.9864,22 L84.6936,19.296 C84.7629333,19.0533333 84.8253333,18.8124 84.8808,18.5732 C84.9362667,18.334 84.9917333,18.0861333 85.0472,17.8296 L85.0472,17.8296 L85.0888,17.8296 C85.1512,18.0861333 85.2084,18.3322667 85.2604,18.568 C85.3124,18.8037333 85.3696,19.0429333 85.432,19.2856 L85.432,19.2856 L86.16,22 L87.2,22 L88.552,16.9456 L87.7408,16.9456 L87.0024,19.868 C86.9469333,20.1106667 86.8949333,20.3464 86.8464,20.5752 C86.7978667,20.804 86.7458667,21.0362667 86.6904,21.272 L86.6904,21.272 L86.6488,21.272 C86.5933333,21.0362667 86.5361333,20.804 86.4772,20.5752 C86.4182667,20.3464 86.3576,20.1106667 86.2952,19.868 L86.2952,19.868 L85.5048,16.9456 L84.6728,16.9456 L83.8928,19.868 C83.8304,20.1037333 83.7714667,20.3377333 83.716,20.57 C83.6605333,20.8022667 83.6050667,21.0362667 83.5496,21.272 L83.5496,21.272 L83.508,21.272 C83.4594667,21.0362667 83.4109333,20.804 83.3624,20.5752 C83.3138667,20.3464 83.2618667,20.1106667 83.2064,19.868 L83.2064,19.868 L82.4576,16.9456 L81.584,16.9456 L82.988,22 L83.9864,22 Z M90.1016,22.1248 C90.268,22.1248 90.4118667,22.0641333 90.5332,21.9428 C90.6545333,21.8214667 90.7152,21.6672 90.7152,21.48 C90.7152,21.2789333 90.6545333,21.1177333 90.5332,20.9964 C90.4118667,20.8750667 90.268,20.8144 90.1016,20.8144 C89.9282667,20.8144 89.7809333,20.8750667 89.6596,20.9964 C89.5382667,21.1177333 89.4776,21.2789333 89.4776,21.48 C89.4776,21.6672 89.5382667,21.8214667 89.6596,21.9428 C89.7809333,22.0641333 89.9282667,22.1248 90.1016,22.1248 Z M92.3272,24.1736 C92.5837333,24.1736 92.8090667,24.1285333 93.0032,24.0384 C93.1973333,23.9482667 93.3706667,23.8252 93.5232,23.6692 C93.6757333,23.5132 93.8074667,23.3277333 93.9184,23.1128 C94.0293333,22.8978667 94.1298667,22.6656 94.22,22.416 L94.22,22.416 L96.1232,16.9456 L95.2912,16.9456 L94.3864,19.7432 C94.3170667,19.9650667 94.2477333,20.2008 94.1784,20.4504 C94.1090667,20.7 94.0362667,20.9392 93.96,21.168 L93.96,21.168 L93.9184,21.168 C93.8421333,20.9322667 93.7606667,20.6913333 93.674,20.4452 C93.5873333,20.1990667 93.5058667,19.9650667 93.4296,19.7432 L93.4296,19.7432 L92.4,16.9456 L91.516,16.9456 L93.544,22.0104 L93.4296,22.3848 C93.3256,22.6968 93.1817333,22.9550667 92.998,23.1596 C92.8142667,23.3641333 92.5768,23.4664 92.2856,23.4664 C92.2232,23.4664 92.1573333,23.4577333 92.088,23.4404 C92.0186667,23.4230667 91.9562667,23.4074667 91.9008,23.3936 L91.9008,23.3936 L91.7344,24.0696 C91.8176,24.1042667 91.9077333,24.1302667 92.0048,24.1476 C92.1018667,24.1649333 92.2093333,24.1736 92.3272,24.1736 Z M99.0664,22.1248 C99.3784,22.1248 99.6748,22.0658667 99.9556,21.948 C100.2364,21.8301333 100.484267,21.6585333 100.6992,21.4332 C100.914133,21.2078667 101.085733,20.9305333 101.214,20.6012 C101.342267,20.2718667 101.4064,19.8992 101.4064,19.4832 C101.4064,19.0602667 101.342267,18.6841333 101.214,18.3548 C101.085733,18.0254667 100.914133,17.7464 100.6992,17.5176 C100.484267,17.2888 100.2364,17.1154667 99.9556,16.9976 C99.6748,16.8797333 99.3784,16.8208 99.0664,16.8208 C98.7544,16.8208 98.458,16.8797333 98.1772,16.9976 C97.8964,17.1154667 97.6485333,17.2888 97.4336,17.5176 C97.2186667,17.7464 97.0470667,18.0254667 96.9188,18.3548 C96.7905333,18.6841333 96.7264,19.0602667 96.7264,19.4832 C96.7264,19.8992 96.7905333,20.2718667 96.9188,20.6012 C97.0470667,20.9305333 97.2186667,21.2078667 97.4336,21.4332 C97.6485333,21.6585333 97.8964,21.8301333 98.1772,21.948 C98.458,22.0658667 98.7544,22.1248 99.0664,22.1248 Z M99.0664,21.4176 C98.8514667,21.4176 98.6538667,21.3708 98.4736,21.2772 C98.2933333,21.1836 98.1390667,21.0518667 98.0108,20.882 C97.8825333,20.7121333 97.7837333,20.5093333 97.7144,20.2736 C97.6450667,20.0378667 97.6104,19.7744 97.6104,19.4832 C97.6104,19.192 97.6450667,18.9268 97.7144,18.6876 C97.7837333,18.4484 97.8825333,18.2421333 98.0108,18.0688 C98.1390667,17.8954667 98.2933333,17.762 98.4736,17.6684 C98.6538667,17.5748 98.8514667,17.528 99.0664,17.528 C99.2813333,17.528 99.4789333,17.5748 99.6592,17.6684 C99.8394667,17.762 99.9937333,17.8954667 100.122,18.0688 C100.250267,18.2421333 100.349067,18.4484 100.4184,18.6876 C100.487733,18.9268 100.5224,19.192 100.5224,19.4832 C100.5224,19.7744 100.487733,20.0378667 100.4184,20.2736 C100.349067,20.5093333 100.250267,20.7121333 100.122,20.882 C99.9937333,21.0518667 99.8394667,21.1836 99.6592,21.2772 C99.4789333,21.3708 99.2813333,21.4176 99.0664,21.4176 Z M104.2144,22.1248 C104.568,22.1248 104.8748,22.0416 105.1348,21.8752 C105.3948,21.7088 105.642667,21.4869333 105.8784,21.2096 L105.8784,21.2096 L105.9096,21.2096 L105.9824,22 L106.6896,22 L106.6896,16.9456 L105.8368,16.9456 L105.8368,20.5336 C105.594133,20.8317333 105.372267,21.0484 105.1712,21.1836 C104.970133,21.3188 104.737867,21.3864 104.4744,21.3864 C104.1416,21.3864 103.900667,21.2806667 103.7516,21.0692 C103.602533,20.8577333 103.528,20.5128 103.528,20.0344 L103.528,20.0344 L103.528,16.9456 L102.6648,16.9456 L102.6648,20.1488 C102.6648,20.8005333 102.787867,21.2928 103.034,21.6256 C103.280133,21.9584 103.6736,22.1248 104.2144,22.1248 Z M109.248,22 L109.248,18.7552 C109.421333,18.3253333 109.624133,18.0237333 109.8564,17.8504 C110.088667,17.6770667 110.312267,17.5904 110.5272,17.5904 C110.6312,17.5904 110.717867,17.5973333 110.7872,17.6112 C110.856533,17.6250667 110.9328,17.6458667 111.016,17.6736 L111.016,17.6736 L111.1824,16.9248 C111.022933,16.8554667 110.842667,16.8208 110.6416,16.8208 C110.3504,16.8208 110.081733,16.9144 109.8356,17.1016 C109.589467,17.2888 109.379733,17.5418667 109.2064,17.8608 L109.2064,17.8608 L109.1752,17.8608 L109.1024,16.9456 L108.3952,16.9456 L108.3952,22 L109.248,22 Z M113.8032,22 L114.5104,19.296 C114.579733,19.0533333 114.642133,18.8124 114.6976,18.5732 C114.753067,18.334 114.808533,18.0861333 114.864,17.8296 L114.864,17.8296 L114.9056,17.8296 C114.968,18.0861333 115.0252,18.3322667 115.0772,18.568 C115.1292,18.8037333 115.1864,19.0429333 115.2488,19.2856 L115.2488,19.2856 L115.9768,22 L117.0168,22 L118.3688,16.9456 L117.5576,16.9456 L116.8192,19.868 C116.763733,20.1106667 116.711733,20.3464 116.6632,20.5752 C116.614667,20.804 116.562667,21.0362667 116.5072,21.272 L116.5072,21.272 L116.4656,21.272 C116.410133,21.0362667 116.352933,20.804 116.294,20.5752 C116.235067,20.3464 116.1744,20.1106667 116.112,19.868 L116.112,19.868 L115.3216,16.9456 L114.4896,16.9456 L113.7096,19.868 C113.6472,20.1037333 113.588267,20.3377333 113.5328,20.57 C113.477333,20.8022667 113.421867,21.0362667 113.3664,21.272 L113.3664,21.272 L113.3248,21.272 C113.276267,21.0362667 113.227733,20.804 113.1792,20.5752 C113.130667,20.3464 113.078667,20.1106667 113.0232,19.868 L113.0232,19.868 L112.2744,16.9456 L111.4008,16.9456 L112.8048,22 L113.8032,22 Z M121.52,22.1248 C121.866667,22.1248 122.1752,22.0728 122.4456,21.9688 C122.716,21.8648 122.962133,21.7434667 123.184,21.6048 L123.184,21.6048 L122.8824,21.0432 C122.6952,21.1610667 122.499333,21.2564 122.2948,21.3292 C122.090267,21.402 121.866667,21.4384 121.624,21.4384 C121.138667,21.4384 120.7452,21.2789333 120.4436,20.96 C120.142,20.6410667 119.973867,20.2077333 119.9392,19.66 L119.9392,19.66 L123.3504,19.66 C123.3712,19.5352 123.3816,19.3792 123.3816,19.192 C123.3816,18.8314667 123.336533,18.5056 123.2464,18.2144 C123.156267,17.9232 123.026267,17.6736 122.8564,17.4656 C122.686533,17.2576 122.475067,17.0981333 122.222,16.9872 C121.968933,16.8762667 121.682933,16.8208 121.364,16.8208 C121.0728,16.8208 120.792,16.8814667 120.5216,17.0028 C120.2512,17.1241333 120.010267,17.2992 119.7988,17.528 C119.587333,17.7568 119.417467,18.0358667 119.2892,18.3652 C119.160933,18.6945333 119.0968,19.0672 119.0968,19.4832 C119.0968,19.8992 119.1592,20.2701333 119.284,20.596 C119.4088,20.9218667 119.5804,21.1974667 119.7988,21.4228 C120.0172,21.6481333 120.273733,21.8214667 120.5684,21.9428 C120.863067,22.0641333 121.180267,22.1248 121.52,22.1248 Z M122.6328,19.0984 L119.9288,19.0984 C119.956533,18.8418667 120.013733,18.6148 120.1004,18.4172 C120.187067,18.2196 120.296267,18.0532 120.428,17.918 C120.559733,17.7828 120.707067,17.6788 120.87,17.606 C121.032933,17.5332 121.204533,17.4968 121.3848,17.4968 C121.78,17.4968 122.0868,17.6337333 122.3052,17.9076 C122.5236,18.1814667 122.6328,18.5784 122.6328,19.0984 L122.6328,19.0984 Z M126.8656,22.1248 C127.1568,22.1248 127.434133,22.0641333 127.6976,21.9428 C127.961067,21.8214667 128.193333,21.6429333 128.3944,21.4072 C128.595467,21.1714667 128.754933,20.8837333 128.8728,20.544 C128.990667,20.2042667 129.0496,19.8194667 129.0496,19.3896 C129.0496,19.0013333 129.006267,18.6494667 128.9196,18.334 C128.832933,18.0185333 128.704667,17.7481333 128.5348,17.5228 C128.364933,17.2974667 128.1552,17.1241333 127.9056,17.0028 C127.656,16.8814667 127.368267,16.8208 127.0424,16.8208 C126.758133,16.8208 126.4808,16.8884 126.2104,17.0236 C125.94,17.1588 125.6904,17.3269333 125.4616,17.528 L125.4616,17.528 L125.4824,16.6128 L125.4824,14.5952 L124.6296,14.5952 L124.6296,22 L125.316,22 L125.3888,21.5008 L125.42,21.5008 C125.641867,21.7018667 125.879333,21.8561333 126.1324,21.9636 C126.385467,22.0710667 126.629867,22.1248 126.8656,22.1248 Z M126.72,21.4072 C126.5536,21.4072 126.3612,21.3673333 126.1428,21.2876 C125.9244,21.2078667 125.704267,21.0709333 125.4824,20.8768 L125.4824,20.8768 L125.4824,18.2248 C125.974667,17.7672 126.425333,17.5384 126.8344,17.5384 C127.070133,17.5384 127.272933,17.5834667 127.4428,17.6736 C127.612667,17.7637333 127.751333,17.8902667 127.8588,18.0532 C127.966267,18.2161333 128.044267,18.412 128.0928,18.6408 C128.141333,18.8696 128.1656,19.1226667 128.1656,19.4 C128.1656,19.712 128.1292,19.9928 128.0564,20.2424 C127.9836,20.492 127.883067,20.7017333 127.7548,20.8716 C127.626533,21.0414667 127.474,21.1732 127.2972,21.2668 C127.1204,21.3604 126.928,21.4072 126.72,21.4072 Z M131.7224,22.1248 C132.020533,22.1248 132.285733,22.0849333 132.518,22.0052 C132.750267,21.9254667 132.9444,21.8162667 133.1004,21.6776 C133.2564,21.5389333 133.374267,21.3794667 133.454,21.1992 C133.533733,21.0189333 133.5736,20.8248 133.5736,20.6168 C133.5736,20.3810667 133.5268,20.18 133.4332,20.0136 C133.3396,19.8472 133.22,19.7068 133.0744,19.5924 C132.9288,19.478 132.764133,19.3826667 132.5804,19.3064 C132.396667,19.2301333 132.214667,19.1573333 132.0344,19.088 C131.8888,19.0325333 131.7484,18.9788 131.6132,18.9268 C131.478,18.8748 131.3584,18.8158667 131.2544,18.75 C131.1504,18.6841333 131.0672,18.6078667 131.0048,18.5212 C130.9424,18.4345333 130.9112,18.3322667 130.9112,18.2144 C130.9112,18.0202667 130.985733,17.8504 131.1348,17.7048 C131.283867,17.5592 131.517867,17.4864 131.8368,17.4864 C132.058667,17.4864 132.2632,17.528 132.4504,17.6112 C132.6376,17.6944 132.817867,17.8018667 132.9912,17.9336 L132.9912,17.9336 L133.3968,17.3928 C133.202667,17.2333333 132.972133,17.0981333 132.7052,16.9872 C132.438267,16.8762667 132.145333,16.8208 131.8264,16.8208 C131.556,16.8208 131.313333,16.8572 131.0984,16.93 C130.883467,17.0028 130.701467,17.1033333 130.5524,17.2316 C130.403333,17.3598667 130.288933,17.5124 130.2092,17.6892 C130.129467,17.866 130.0896,18.0549333 130.0896,18.256 C130.0896,18.4709333 130.134667,18.6546667 130.2248,18.8072 C130.314933,18.9597333 130.431067,19.0932 130.5732,19.2076 C130.715333,19.322 130.876533,19.4190667 131.0568,19.4988 C131.237067,19.5785333 131.417333,19.6496 131.5976,19.712 L131.5976,19.712 L132.0136,19.8784 C132.152267,19.9338667 132.275333,19.998 132.3828,20.0708 C132.490267,20.1436 132.578667,20.2285333 132.648,20.3256 C132.717333,20.4226667 132.752,20.5370667 132.752,20.6688 C132.752,20.8906667 132.6688,21.0778667 132.5024,21.2304 C132.336,21.3829333 132.0864,21.4592 131.7536,21.4592 C131.448533,21.4592 131.179867,21.4037333 130.9476,21.2928 C130.715333,21.1818667 130.488267,21.0362667 130.2664,20.856 L130.2664,20.856 L129.84,21.428 C130.082667,21.6290667 130.366933,21.7954667 130.6928,21.9272 C131.018667,22.0589333 131.361867,22.1248 131.7224,22.1248 Z M135.196,15.9056 C135.3624,15.9056 135.5028,15.8536 135.6172,15.7496 C135.7316,15.6456 135.7888,15.5138667 135.7888,15.3544 C135.7888,15.188 135.7316,15.0545333 135.6172,14.954 C135.5028,14.8534667 135.3624,14.8032 135.196,14.8032 C135.0296,14.8032 134.8892,14.8534667 134.7748,14.954 C134.6604,15.0545333 134.6032,15.188 134.6032,15.3544 C134.6032,15.5138667 134.6604,15.6456 134.7748,15.7496 C134.8892,15.8536 135.0296,15.9056 135.196,15.9056 Z M135.612,22 L135.612,16.9456 L134.7592,16.9456 L134.7592,22 L135.612,22 Z M138.9088,22.1248 C139.068267,22.1248 139.229467,22.1057333 139.3924,22.0676 C139.555333,22.0294667 139.706133,21.9861333 139.8448,21.9376 L139.8448,21.9376 L139.6784,21.2928 C139.5952,21.3274667 139.5016,21.3586667 139.3976,21.3864 C139.2936,21.4141333 139.196533,21.428 139.1064,21.428 C138.8152,21.428 138.6124,21.3430667 138.498,21.1732 C138.3836,21.0033333 138.3264,20.7624 138.3264,20.4504 L138.3264,20.4504 L138.3264,17.6424 L139.6888,17.6424 L139.6888,16.9456 L138.3264,16.9456 L138.3264,15.5312 L137.6088,15.5312 L137.5048,16.9456 L136.7144,16.9976 L136.7144,17.6424 L137.4632,17.6424 L137.4632,20.44 C137.4632,20.6896 137.487467,20.9184 137.536,21.1264 C137.584533,21.3344 137.666,21.5112 137.7804,21.6568 C137.8948,21.8024 138.043867,21.9168 138.2276,22 C138.411333,22.0832 138.6384,22.1248 138.9088,22.1248 Z M142.8816,22.1248 C143.228267,22.1248 143.5368,22.0728 143.8072,21.9688 C144.0776,21.8648 144.323733,21.7434667 144.5456,21.6048 L144.5456,21.6048 L144.244,21.0432 C144.0568,21.1610667 143.860933,21.2564 143.6564,21.3292 C143.451867,21.402 143.228267,21.4384 142.9856,21.4384 C142.500267,21.4384 142.1068,21.2789333 141.8052,20.96 C141.5036,20.6410667 141.335467,20.2077333 141.3008,19.66 L141.3008,19.66 L144.712,19.66 C144.7328,19.5352 144.7432,19.3792 144.7432,19.192 C144.7432,18.8314667 144.698133,18.5056 144.608,18.2144 C144.517867,17.9232 144.387867,17.6736 144.218,17.4656 C144.048133,17.2576 143.836667,17.0981333 143.5836,16.9872 C143.330533,16.8762667 143.044533,16.8208 142.7256,16.8208 C142.4344,16.8208 142.1536,16.8814667 141.8832,17.0028 C141.6128,17.1241333 141.371867,17.2992 141.1604,17.528 C140.948933,17.7568 140.779067,18.0358667 140.6508,18.3652 C140.522533,18.6945333 140.4584,19.0672 140.4584,19.4832 C140.4584,19.8992 140.5208,20.2701333 140.6456,20.596 C140.7704,20.9218667 140.942,21.1974667 141.1604,21.4228 C141.3788,21.6481333 141.635333,21.8214667 141.93,21.9428 C142.224667,22.0641333 142.541867,22.1248 142.8816,22.1248 Z M143.9944,19.0984 L141.2904,19.0984 C141.318133,18.8418667 141.375333,18.6148 141.462,18.4172 C141.548667,18.2196 141.657867,18.0532 141.7896,17.918 C141.921333,17.7828 142.068667,17.6788 142.2316,17.606 C142.394533,17.5332 142.566133,17.4968 142.7464,17.4968 C143.1416,17.4968 143.4484,17.6337333 143.6668,17.9076 C143.8852,18.1814667 143.9944,18.5784 143.9944,19.0984 L143.9944,19.0984 Z M146.4384,22.1248 C146.6048,22.1248 146.748667,22.0641333 146.87,21.9428 C146.991333,21.8214667 147.052,21.6672 147.052,21.48 C147.052,21.2789333 146.991333,21.1177333 146.87,20.9964 C146.748667,20.8750667 146.6048,20.8144 146.4384,20.8144 C146.265067,20.8144 146.117733,20.8750667 145.9964,20.9964 C145.875067,21.1177333 145.8144,21.2789333 145.8144,21.48 C145.8144,21.6672 145.875067,21.8214667 145.9964,21.9428 C146.117733,22.0641333 146.265067,22.1248 146.4384,22.1248 Z M150.5776,22.1248 C150.882667,22.1248 151.1756,22.0658667 151.4564,21.948 C151.7372,21.8301333 151.992,21.6706667 152.2208,21.4696 L152.2208,21.4696 L151.836,20.908 C151.683467,21.0466667 151.5084,21.1662667 151.3108,21.2668 C151.1132,21.3673333 150.893067,21.4176 150.6504,21.4176 C150.4216,21.4176 150.210133,21.3708 150.016,21.2772 C149.821867,21.1836 149.6572,21.0518667 149.522,20.882 C149.3868,20.7121333 149.281067,20.5093333 149.2048,20.2736 C149.128533,20.0378667 149.0904,19.7744 149.0904,19.4832 C149.0904,19.192 149.130267,18.9268 149.21,18.6876 C149.289733,18.4484 149.398933,18.2421333 149.5376,18.0688 C149.676267,17.8954667 149.842667,17.762 150.0368,17.6684 C150.230933,17.5748 150.4424,17.528 150.6712,17.528 C150.872267,17.528 151.054267,17.5696 151.2172,17.6528 C151.380133,17.736 151.537867,17.8434667 151.6904,17.9752 L151.6904,17.9752 L152.1168,17.424 C151.943467,17.2645333 151.7372,17.1241333 151.498,17.0028 C151.2588,16.8814667 150.9728,16.8208 150.64,16.8208 C150.314133,16.8208 150.003867,16.8797333 149.7092,16.9976 C149.414533,17.1154667 149.156267,17.2888 148.9344,17.5176 C148.712533,17.7464 148.535733,18.0254667 148.404,18.3548 C148.272267,18.6841333 148.2064,19.0602667 148.2064,19.4832 C148.2064,19.8992 148.267067,20.2718667 148.3884,20.6012 C148.509733,20.9305333 148.676133,21.2078667 148.8876,21.4332 C149.099067,21.6585333 149.3504,21.8301333 149.6416,21.948 C149.9328,22.0658667 150.2448,22.1248 150.5776,22.1248 Z M155.2888,22.1248 C155.6008,22.1248 155.8972,22.0658667 156.178,21.948 C156.4588,21.8301333 156.706667,21.6585333 156.9216,21.4332 C157.136533,21.2078667 157.308133,20.9305333 157.4364,20.6012 C157.564667,20.2718667 157.6288,19.8992 157.6288,19.4832 C157.6288,19.0602667 157.564667,18.6841333 157.4364,18.3548 C157.308133,18.0254667 157.136533,17.7464 156.9216,17.5176 C156.706667,17.2888 156.4588,17.1154667 156.178,16.9976 C155.8972,16.8797333 155.6008,16.8208 155.2888,16.8208 C154.9768,16.8208 154.6804,16.8797333 154.3996,16.9976 C154.1188,17.1154667 153.870933,17.2888 153.656,17.5176 C153.441067,17.7464 153.269467,18.0254667 153.1412,18.3548 C153.012933,18.6841333 152.9488,19.0602667 152.9488,19.4832 C152.9488,19.8992 153.012933,20.2718667 153.1412,20.6012 C153.269467,20.9305333 153.441067,21.2078667 153.656,21.4332 C153.870933,21.6585333 154.1188,21.8301333 154.3996,21.948 C154.6804,22.0658667 154.9768,22.1248 155.2888,22.1248 Z M155.2888,21.4176 C155.073867,21.4176 154.876267,21.3708 154.696,21.2772 C154.515733,21.1836 154.361467,21.0518667 154.2332,20.882 C154.104933,20.7121333 154.006133,20.5093333 153.9368,20.2736 C153.867467,20.0378667 153.8328,19.7744 153.8328,19.4832 C153.8328,19.192 153.867467,18.9268 153.9368,18.6876 C154.006133,18.4484 154.104933,18.2421333 154.2332,18.0688 C154.361467,17.8954667 154.515733,17.762 154.696,17.6684 C154.876267,17.5748 155.073867,17.528 155.2888,17.528 C155.503733,17.528 155.701333,17.5748 155.8816,17.6684 C156.061867,17.762 156.216133,17.8954667 156.3444,18.0688 C156.472667,18.2421333 156.571467,18.4484 156.6408,18.6876 C156.710133,18.9268 156.7448,19.192 156.7448,19.4832 C156.7448,19.7744 156.710133,20.0378667 156.6408,20.2736 C156.571467,20.5093333 156.472667,20.7121333 156.3444,20.882 C156.216133,21.0518667 156.061867,21.1836 155.8816,21.2772 C155.701333,21.3708 155.503733,21.4176 155.2888,21.4176 Z M159.8128,22 L159.8128,18.3392 C160.277333,17.8192 160.700267,17.5592 161.0816,17.5592 C161.407467,17.5592 161.646667,17.6649333 161.7992,17.8764 C161.951733,18.0878667 162.028,18.4328 162.028,18.9112 L162.028,18.9112 L162.028,22 L162.8808,22 L162.8808,18.3392 C163.345333,17.8192 163.768267,17.5592 164.1496,17.5592 C164.468533,17.5592 164.704267,17.6649333 164.8568,17.8764 C165.009333,18.0878667 165.0856,18.4328 165.0856,18.9112 L165.0856,18.9112 L165.0856,22 L165.9384,22 L165.9384,18.7968 C165.9384,18.1450667 165.811867,17.6528 165.5588,17.32 C165.305733,16.9872 164.9192,16.8208 164.3992,16.8208 C164.0872,16.8208 163.797733,16.9092 163.5308,17.086 C163.263867,17.2628 162.998667,17.4968 162.7352,17.788 C162.6312,17.4829333 162.47,17.2454667 162.2516,17.0756 C162.0332,16.9057333 161.729867,16.8208 161.3416,16.8208 C161.036533,16.8208 160.754,16.9022667 160.494,17.0652 C160.234,17.2281333 159.993067,17.4309333 159.7712,17.6736 L159.7712,17.6736 L159.74,17.6736 L159.6672,16.9456 L158.96,16.9456 L158.96,22 L159.8128,22 Z" id="www.yourwebsite.com" fill="#1F2024" fill-rule="nonzero"></path>
                                <g id="Group-15" transform="translate(601.400000, 13.800000)">
                                    <g id="Group-14" fill="#AEB3B9">
                                        <rect id="Rectangle" x="0.2" y="0.6" width="11.2" height="2.66666667" rx="1.28"></rect>
                                        <rect id="Rectangle" x="0.2" y="4.86666667" width="11.2" height="2.66666667" rx="1.28"></rect>
                                        <rect id="Rectangle" x="0.2" y="9.13333333" width="11.2" height="2.66666667" rx="1.28"></rect>
                                    </g>
                                    <g id="Group-13" transform="translate(0.200000, 0.600000)"></g>
                                </g>
                                <g id="Group-4" transform="translate(11.200000, 16.800000)" fill="#F1F3F4">
                                    <circle id="Oval" cx="24.4" cy="3.6" r="3.6"></circle>
                                    <circle id="Oval" cx="14" cy="3.6" r="3.6"></circle>
                                    <circle id="Oval" cx="3.6" cy="3.6" r="3.6"></circle>
                                </g>
                            </g>
                        </g>
                        <rect id="Rectangle" fill="#F1F3F4" x="16.8" y="50.4" width="81.6" height="27.2"></rect>
                        <g id="Group-5" transform="translate(20.800000, 247.200000)" fill="#F1F3F4">
                            <rect id="Rectangle" x="0" y="0" width="183.2" height="93.6"></rect>
                            <rect id="Rectangle" x="204" y="0" width="183.2" height="93.6"></rect>
                            <rect id="Rectangle" x="408" y="0" width="183.2" height="93.6"></rect>
                        </g>
                        <rect id="Rectangle" fill="#F1F3F4" x="286.4" y="128" width="81.6" height="12"></rect>
                        <rect id="Rectangle" fill="#F1F3F4" x="242.4" y="158.4" width="169.6" height="12"></rect>
                        <rect id="Rectangle" fill="#F1F3F4" x="437.6" y="60" width="81.6" height="8"></rect>
                        <rect id="Rectangle" fill="#F1F3F4" x="529.6" y="60" width="81.6" height="8"></rect>
                    </g>
                    <g id="Group-26" transform="translate(456.000000, 154.000000)">
                        <polygon id="Path-9" fill="#000000" points="63.8844558 263.283158 70.9764288 341.434529 67.4304423 416.098783 52.6185613 416.098783 48.674344 341.434529 43.1579803 310.280175 17.7785518 416.098783 0.840464105 418.043766 14.373389 263.283158"></polygon>
                        <path d="M32.0674468,178.683158 C12.4494584,179.327084 2.6404641,184.535695 2.6404641,194.30899 C2.6404641,204.082284 6.40913409,227.8444 13.9464741,265.595337 C45.0049082,272.357007 61.2344976,272.357007 62.6352422,265.595337 C64.7363591,255.452832 58.6516814,228.88407 60.6434618,223.0356 C62.6352422,217.18713 70.1897734,178.683158 58.1390377,178.683158 C50.1052139,178.683158 41.4146836,178.683158 32.0674468,178.683158 Z" id="Path-5" fill="#0042FF"></path>
                        <path d="M46.5197308,179.279796 C43.4204635,174.992078 42.6071871,172.905822 44.0799016,173.021028 C48.8836714,173.396813 51.4435056,172.682702 51.7594042,170.878695 C52.2205726,168.245094 52.2205726,167.070056 51.7594042,167.35358 L54.7607637,159.801124 C57.5498915,160.277351 58.2471735,159.286074 56.8526096,156.827293 C55.4580456,154.368513 54.7607637,150.814104 54.7607637,146.164067 C54.2033616,136.935052 48.198878,131.632909 36.7473129,130.257639 C25.2957477,128.882368 19.0267981,135.637074 17.9404641,150.521756 C19.6209054,160.559699 20.9835875,165.57867 22.0285105,165.57867 C23.0734335,165.57867 23.0734335,170.028475 22.0285105,178.928085 C33.5504274,184.294344 41.7141675,184.294344 46.5197308,178.928085" id="Path-3" fill="#D4A181"></path>
                        <path d="M49.6661936,140.386143 C41.2227313,144.490573 28.937237,138.998925 28.0784551,140.690767 C24.8450404,147.060748 26.9874453,160.674625 19.5305207,166.455187 C15.0809455,169.90447 13.9086422,161.477883 13.7919856,160.571383 C13.2149468,156.087406 12.7826153,151.533934 13.1167085,147.025342 C13.4941106,141.932294 15.6472245,137.061609 15.9120213,131.961467 C16.022266,129.838088 13.1133932,127.628507 14.2181057,125.811779 C15.1387936,124.297684 17.9120719,126.732398 19.5305207,126.010752 C21.097427,125.312088 21.0485171,121.882391 22.7598773,122.00311 C26.2734025,122.250953 28.6448097,126.349696 32.1239551,126.899089 C34.1105794,127.212798 35.6200425,123.941756 37.5904424,124.34501 C42.3091544,125.310723 46.0667556,128.991768 50.5791824,130.676063 C62.0954089,134.974575 67.2682117,132.02046 52.1841762,139.840287 L49.6661936,140.386143 Z" id="Path-22" fill="#000000" transform="translate(37.257628, 144.640022) rotate(-11.000000) translate(-37.257628, -144.640022) "></path>
                        <polygon id="Path-6" fill="#0042FF" points="61.1257287 207.716259 75.7792173 218.683324 75.7792173 238.62441 55.2521399 226.985312"></polygon>
                        <polygon id="Path-7" fill="#D4A181" points="75.7792173 218.683324 110.310872 201.903444 112.549423 217.212823 75.7792173 238.62441"></polygon>
                        <g id="Group-17" transform="translate(166.448958, 152.415372) rotate(-30.000000) translate(-166.448958, -152.415372) translate(69.948958, 98.415372)">
                            <g id="Group-12" transform="translate(0.619040, 0.036637)">
                                <rect id="Rectangle" stroke="#D0D0D0" stroke-width="0.72" fill="#FFFFFF" x="0.36" y="0.36" width="190.98" height="105.48" rx="5.4"></rect>
                                <g id="Group-11" transform="translate(9.000000, 18.009890)">
                                    <circle id="Oval" fill="#89D2DC" cx="13.3056" cy="13.3056" r="13.3056"></circle>
                                    <text id="AL" font-family="SourceSansPro-Black, Source Sans Pro" font-size="12.7008" font-weight="700" fill="#FFFFFF">
                                        <tspan x="6.048" y="16.8384">AL</tspan>
                                    </text>
                                </g>
                            </g>
                            <rect id="Rectangle" fill="#A6B3BB" x="43.8804883" y="26.5188513" width="72" height="8.1"></rect>
                            <rect id="Rectangle" fill="#DDE2E9" x="44.1204828" y="46.1939456" width="104.4" height="5.4"></rect>
                            <rect id="Rectangle" fill="#DDE2E9" x="44.3486515" y="60.0954828" width="130.5" height="5.4"></rect>
                            <rect id="Rectangle" fill="#DDE2E9" x="44.2840344" y="74.6074029" width="130.5" height="5.4"></rect>
                        </g>
                        <path d="M43.0739793,205.043866 C57.4712844,202.096644 70.5929366,196.93821 77.196501,186.042988 C79.4098226,182.391228 79.4773458,176.887184 84.0578148,173.89931 C84.5182637,173.598956 84.9875979,174.751964 85.5829419,174.656797 L84.123462,178.909695 C85.6817849,178.660592 96.6590677,170.491792 102.59614,172.790513 C106.813096,174.423238 105.478209,182.890892 102.141298,184.73597 C99.0997171,186.41775 94.7898812,186.492296 91.8440519,188.268547 C80.8334233,194.907644 70.0755351,209.833086 62.2195415,216.495541 C47.7040632,228.805724 29.7101517,221.869632 39.7552745,205.82436 L43.0739793,205.043866 Z" id="Path-8" fill="#D4A181" transform="translate(71.040464, 197.583158) rotate(-10.000000) translate(-71.040464, -197.583158) "></path>
                        <polygon id="Path-10" fill="#D2D2D2" points="67.4304423 416.098783 87.8551472 432.298783 52.0102655 432.298783 52.0102655 416.098783"></polygon>
                        <polygon id="Path-11" fill="#D2D2D2" points="18.6785518 415.198783 39.522679 428.698783 0.235355732 428.698783 0.235355732 417.86203"></polygon>
                        <g id="Group-24" transform="translate(222.535356, 0.000000)">
                            <path d="M82.747271,54.1988073 C81.2273491,46.9158971 78.3564019,42.4258581 74.1344292,40.7286901 C70.9627495,47.5475378 64.9139702,48.074735 55.9880913,42.3102819 L53.5425347,44.3075964 L50.4487847,37.9728796 C40.8230034,28.2079381 38.4165581,20.3776159 43.2294487,14.4819128 C50.4487847,5.63835807 52.1455132,-0.520138023 69.5034722,4.50456901 C73.854937,6.58435416 76.7538628,14.5659657 78.2002495,28.4494036 L89.02398,34.6743444 L82.747271,54.1988073 Z" id="Path-15" fill="#745A4C"></path>
                            <path d="M144.914493,74.4378963 L89.3510794,32.4 L78.4169588,51.4690838 L78.4169588,66.9683295 L70.5150248,89.2127863 L21.0230034,112.146504 L21.0230034,119.753642 C53.8922791,112.632683 73.0235975,106.366633 78.4169588,100.95549 C83.8103201,95.5443473 88.3904191,90.178126 92.1572557,84.8568259 L126.637146,97.732388 L144.914493,74.4378963 Z" id="Path-14" fill="#FFAA00"></path>
                            <path d="M143.962769,72.9 C158.442668,90.6585139 160.127945,108.680757 149.0186,126.966729 C137.909254,145.252702 133.022717,154.380824 134.358988,154.351097 L169.564065,144.691794 L173.78656,170.884066 L119.030937,182.625551 C107.198633,178.519907 103.197705,169.095089 107.028152,154.351097 C110.858599,139.607106 115.456309,121.548417 120.821284,100.175032 L143.962769,72.9 Z" id="Path-13" fill="#3D2F39"></path>
                            <path d="M75.9664694,11.497549 C58.0009691,-13.8382281 36.6131968,8.07159431 42.8185202,25.7815334 C49.270922,44.1966318 60.7673506,18.3908857 60.8818015,18.2501857 C61.7068732,17.2358853 63.7323659,17.0571166 64.7823874,17.8362209 C67.6380383,19.9550821 68.700281,23.9291804 71.4963523,26.1260646 C72.9656409,27.2804906 75.2340745,26.6730852 76.955239,27.4004787 C77.972835,27.8305321 78.442438,29.2258432 79.5093405,29.5124904 C81.123119,29.946068 82.9553886,30.0154582 84.5217429,29.4333888 C85.9910574,28.8873802 87.3109703,27.7125434 88.0593405,26.3352443 C88.8719628,24.8396959 89.7577079,22.797076 88.9382468,21.3052638 C86.4792777,16.8287611 81.274748,14.9278073 77.0317038,12.931924 L75.9664694,11.497549 Z" id="Path-16" fill="#252525"></path>
                            <path d="M119.396973,156.34664 L125.343915,181.703874 L77.6439152,181.703874 C81.1064523,175.251227 85.1335112,172.024903 89.725092,172.024903 C94.3166727,172.024903 100.212813,172.024903 107.413513,172.024903 L107.413513,163.710224 L119.396973,156.34664 Z" id="Path-17" fill="#000000"></path>
                            <polygon id="Path-18" fill="#000000" points="170.36339 151.35757 179.682002 151.35757 179.682002 179.59345 166.287422 181.703874 170.36339 175.172974"></polygon>
                            <path d="M100.960868,128.552297 L131.615261,157.901176 L100.960868,168.7 L64.5053916,126.515261 C59.8979531,114.970281 66.8078061,107.158981 85.2349506,103.081363 C103.662095,99.0037438 123.496174,88.8766229 144.737187,72.7 C159.381483,99.4536115 160.493548,114.641855 148.073383,118.264731 C135.653218,121.887606 119.949047,125.316795 100.960868,128.552297 Z" id="Path-12" fill="#83667B"></path>
                            <path d="M21.7731803,111.990456 C18.0812844,112.089656 14.352033,111.751864 10.6974924,112.288057 C7.51823065,112.754517 -4.27682495,118.068126 1.63248169,124.22574 C7.59658407,130.440452 9.2153183,121.403886 13.1417374,119.379303 C14.9242925,118.460162 26.7897111,125.779772 22.4532183,112.601718 L21.7731803,111.990456 Z" id="Path-19" fill="#745A4C"></path>
                        </g>
                    </g>
                    <g id="Group-3" opacity="0.375488281" transform="translate(112.000000, 93.000000)" fill="#0042FF">
                        <circle id="Oval" fill-opacity="0.223147946" cx="35.5" cy="35.5" r="35.5"></circle>
                        <circle id="Oval" cx="35.5" cy="35.5" r="20.5"></circle>
                    </g>
                    <g id="Group-16" transform="translate(42.000000, 117.000000)">
                        <g id="Group-20">
                            <g id="Group-10">
                                <g id="Group-11" transform="translate(0.000000, 25.240000)">
                                    <g id="Combined-Shape">
                                        <use fill="black" fill-opacity="1" filter="url(#filter-4)" xlink:href="#path-3"></use>
                                        <path stroke="#D0D0D0" stroke-width="0.64" d="M106.93651,2.08125792 L102.567324,6.44 L2,6.44 C1.53608081,6.44 1.11608081,6.62804041 0.812060608,6.93206061 C0.508040405,7.23608081 0.32,7.65608081 0.32,8.12 L0.32,127 C0.32,127.463919 0.508040405,127.883919 0.812060608,128.187939 C1.11608081,128.49196 1.53608081,128.68 2,128.68 L216.88,128.68 C217.343919,128.68 217.763919,128.49196 218.067939,128.187939 C218.37196,127.883919 218.56,127.463919 218.56,127 L218.56,8.12 C218.56,7.65608081 218.37196,7.23608081 218.067939,6.93206061 C217.763919,6.62804041 217.343919,6.44 216.88,6.44 L111.754735,6.44 L106.93651,2.08125792 Z" stroke-linejoin="square" fill="#FFFFFF" fill-rule="evenodd"></path>
                                    </g>
                                    <text id="attachment" font-family="MaterialIcons-Regular, Material Icons" font-size="14.08" font-weight="normal" fill="#7F8FA4">
                                        <tspan x="135.68" y="113.56">attachment</tspan>
                                    </text>
                                    <g id="Group-42" transform="translate(82.900000, 7.760000) scale(1, -1) rotate(90.000000) translate(-82.900000, -7.760000) translate(75.900000, -3.740000)">
                                        <g id="Group-7" transform="translate(6.720000, 11.200000) scale(-1, 1) translate(-6.720000, -11.200000) "></g>
                                    </g>
                                    <g id="Group-9" transform="translate(158.080000, 95.720000)">
                                        <g id="Dynamic-group">
                                            <rect id="BG" fill="#0042FF" x="0" y="0" width="47.36" height="21.12" rx="2.56"></rect>
                                            <text id="8:16" font-family="SourceSansPro-Bold, Source Sans Pro" font-size="7.68" font-weight="bold" fill="#FFFFFF">
                                                <tspan x="9.1328" y="13.76">Add note</tspan>
                                            </text>
                                        </g>
                                    </g>
                                </g>
                                <g id="Group-12" filter="url(#filter-5)" transform="translate(94.720000, 0.000000)" fill="#26C164">
                                    <circle id="Oval-2" cx="10.88" cy="10.88" r="10.88"></circle>
                                </g>
                            </g>
                        </g>
                        <rect id="Rectangle" fill="#DDE2E9" x="21.76" y="58.24" width="73.6" height="8.96"></rect>
                        <rect id="Rectangle" fill="#DDE2E9" x="21.76" y="72.96" width="106.88" height="8.96"></rect>
                    </g>
                    <g id="Group-19" transform="translate(678.000000, 8.000000)">
                        <g id="Group-18">
                            <circle id="Oval" stroke="#0042FF" stroke-width="1.728" fill-opacity="0" fill="#FFFFFF" cx="10.2" cy="10.2" r="10.2"></circle>
                            <g id="Group-6" transform="translate(4.000000, 4.000000)">
                                <g id="Group" transform="translate(0.250000, 0.250000)"></g>
                            </g>
                        </g>
                        <path d="M10.3858232,16.15 C8.37694161,16.15 6.49501155,15.238579 4.78929027,13.4405891 L4.25,12.8722341 L5.31944002,11.7236384 L5.85923809,12.2925337 C7.27957225,13.7901382 8.80248327,14.5589302 10.4213697,14.5335379 C13.2056715,14.5146288 15.3628326,12.2152763 15.3846682,12.1915048 L15.9158336,11.6166667 L17,12.7441922 L16.4708659,13.3211914 C16.3662578,13.4357268 13.8683587,16.1186648 10.4462522,16.15 C10.4264477,16.15 10.4061355,16.15 10.3858232,16.15" id="Fill-1" fill="#0042FF"></path>
                        <polygon id="Fill-4" fill="#0042FF" points="10.09375 11.6166667 10.09375 6.37839721 10.09375 4.25 8.5 4.25 8.5 6.37839721 8.5 11.6166667"></polygon>
                        <polygon id="Fill-6" fill="#0042FF" points="12.75 11.6166667 12.75 6.37839721 12.75 4.25 11.15625 4.25 11.15625 6.37839721 11.15625 11.6166667"></polygon>
                    </g>
                </g>
            </g>
        </g>
    </g>
</svg>