<?xml version="1.0" encoding="UTF-8"?>
<svg width="470px" height="156px" viewBox="0 0 470 156" version="1.1" xmlns="http://www.w3.org/2000/svg" xmlns:xlink="http://www.w3.org/1999/xlink">
    <!-- Generator: Sketch 52.5 (67469) - http://www.bohemiancoding.com/sketch -->
    <title>Group 26</title>
    <desc>Created with Sketch.</desc>
    <g id="Page-12" stroke="none" stroke-width="1" fill="none" fill-rule="evenodd">
        <g id="Group-26">
            <rect id="Rectangle" fill="#0042FF" x="0" y="0" width="470" height="156"></rect>
            <path d="M153.314264,146.236904 C125.101562,146.236904 98.6717648,133.724253 74.7166413,109.040137 L67.1428571,101.237345 L82.1620563,85.4685862 L89.7429721,93.2787948 C109.690123,113.839002 131.077862,124.393538 153.813478,124.044935 C192.91617,123.785336 223.211306,92.2181492 223.517966,91.8917967 L230.977644,84 L246.203661,99.4794922 L238.772509,107.400957 C237.303395,108.973383 202.222938,145.806712 154.162927,146.236904 C153.884794,146.236904 153.599529,146.236904 153.314264,146.236904" id="Fill-1" fill="#FFFFFF" opacity="0.0831938244"></path>
            <path d="M86.1714071,71.8369042 C57.9587044,71.8369042 31.5289076,59.3242529 7.57378419,34.6401369 L0,26.8373454 L15.0191992,11.0685862 L22.600115,18.8787948 C42.547266,39.439002 63.9350049,49.9935383 86.6706207,49.6449345 C125.773313,49.385336 156.068449,17.8181492 156.375109,17.4917967 L163.834787,9.6 L179.060804,25.0794922 L171.629652,33.0009573 C170.160537,34.573383 135.080081,71.4067123 87.0200703,71.8369042 C86.741937,71.8369042 86.456672,71.8369042 86.1714071,71.8369042" id="Fill-1" fill="#FFFFFF" opacity="0.0831938244" transform="translate(89.530402, 40.718452) scale(1, -1) translate(-89.530402, -40.718452) "></path>
            <path d="M295.992836,71.8369042 C267.780133,71.8369042 241.350336,59.3242529 217.395213,34.6401369 L209.821429,26.8373454 L224.840628,11.0685862 L232.421544,18.8787948 C252.368695,39.439002 273.756434,49.9935383 296.492049,49.6449345 C335.594741,49.385336 365.889878,17.8181492 366.196538,17.4917967 L373.656216,9.6 L388.882232,25.0794922 L381.45108,33.0009573 C379.981966,34.573383 344.90151,71.4067123 296.841499,71.8369042 C296.563366,71.8369042 296.278101,71.8369042 295.992836,71.8369042" id="Fill-1" fill="#FFFFFF" opacity="0.0831938244"></path>
            <path d="M376.324468,146.236904 C348.111766,146.236904 321.681969,133.724253 297.726845,109.040137 L290.153061,101.237345 L305.17226,85.4685862 L312.753176,93.2787948 C332.700327,113.839002 354.088066,124.393538 376.823682,124.044935 C415.926374,123.785336 446.221511,92.2181492 446.52817,91.8917967 L453.987849,84 L469.213865,99.4794922 L461.782713,107.400957 C460.313599,108.973383 425.233142,145.806712 377.173132,146.236904 C376.894998,146.236904 376.609733,146.236904 376.324468,146.236904" id="Fill-1" fill="#FFFFFF" opacity="0.0831938244" transform="translate(379.683463, 115.118452) scale(1, -1) translate(-379.683463, -115.118452) "></path>
        </g>
    </g>
</svg>