<?xml version="1.0" encoding="UTF-8"?>
<svg width="1125px" height="200px" viewBox="0 0 1125 200" version="1.1" xmlns="http://www.w3.org/2000/svg" xmlns:xlink="http://www.w3.org/1999/xlink">
    <!-- Generator: Sketch 53 (72520) - https://sketchapp.com -->
    <title>Group 11</title>
    <desc>Created with Sketch.</desc>
    <g id="Products" stroke="none" stroke-width="1" fill="none" fill-rule="evenodd">
        <g id="Group-11">
            <rect id="Rectangle" fill="#0042FF" x="0" y="0" width="1125" height="200"></rect>
            <g id="Group-10" transform="translate(5.000000, 15.000000)" fill="#FFFFFF" fill-opacity="0.17">
                <g id="Group-9">
                    <g id="Group-5">
                        <path d="M89.776531,65.0295858 C60.383503,65.0295858 32.8479718,51.9554693 7.89064602,26.1637328 L0,18.010816 L15.6475523,1.53448433 L23.5456283,9.69515098 C44.3273015,31.1779316 66.609832,42.2060689 90.29663,41.8418226 C131.035248,41.5705754 162.597832,8.58691229 162.917321,8.24591578 L170.689088,0 L186.55211,16.1740848 L178.810063,24.4510003 C177.279486,26.0939835 140.731381,64.5800904 90.6606994,65.0295858 C90.3709299,65.0295858 90.0737304,65.0295858 89.776531,65.0295858" id="Fill-1" transform="translate(93.276055, 32.514793) scale(1, -1) translate(-93.276055, -32.514793) "></path>
                        <path d="M182.776531,169.029586 C153.383503,169.029586 125.847972,155.955469 100.890646,130.163733 L93,122.010816 L108.647552,105.534484 L116.545628,113.695151 C137.327301,135.177932 159.609832,146.206069 183.29663,145.841823 C224.035248,145.570575 255.597832,112.586912 255.917321,112.245916 L263.689088,104 L279.55211,120.174085 L271.810063,128.451 C270.279486,130.093983 233.731381,168.58009 183.660699,169.029586 C183.37093,169.029586 183.07373,169.029586 182.776531,169.029586" id="Fill-1"></path>
                    </g>
                    <g id="Group-5" transform="translate(280.000000, 0.000000)">
                        <path d="M89.776531,65.0295858 C60.383503,65.0295858 32.8479718,51.9554693 7.89064602,26.1637328 L0,18.010816 L15.6475523,1.53448433 L23.5456283,9.69515098 C44.3273015,31.1779316 66.609832,42.2060689 90.29663,41.8418226 C131.035248,41.5705754 162.597832,8.58691229 162.917321,8.24591578 L170.689088,0 L186.55211,16.1740848 L178.810063,24.4510003 C177.279486,26.0939835 140.731381,64.5800904 90.6606994,65.0295858 C90.3709299,65.0295858 90.0737304,65.0295858 89.776531,65.0295858" id="Fill-1" transform="translate(93.276055, 32.514793) scale(1, -1) translate(-93.276055, -32.514793) "></path>
                        <path d="M182.776531,169.029586 C153.383503,169.029586 125.847972,155.955469 100.890646,130.163733 L93,122.010816 L108.647552,105.534484 L116.545628,113.695151 C137.327301,135.177932 159.609832,146.206069 183.29663,145.841823 C224.035248,145.570575 255.597832,112.586912 255.917321,112.245916 L263.689088,104 L279.55211,120.174085 L271.810063,128.451 C270.279486,130.093983 233.731381,168.58009 183.660699,169.029586 C183.37093,169.029586 183.07373,169.029586 182.776531,169.029586" id="Fill-1"></path>
                    </g>
                </g>
                <g id="Group-9" transform="translate(560.000000, 0.000000)">
                    <g id="Group-5">
                        <path d="M89.776531,65.0295858 C60.383503,65.0295858 32.8479718,51.9554693 7.89064602,26.1637328 L0,18.010816 L15.6475523,1.53448433 L23.5456283,9.69515098 C44.3273015,31.1779316 66.609832,42.2060689 90.29663,41.8418226 C131.035248,41.5705754 162.597832,8.58691229 162.917321,8.24591578 L170.689088,0 L186.55211,16.1740848 L178.810063,24.4510003 C177.279486,26.0939835 140.731381,64.5800904 90.6606994,65.0295858 C90.3709299,65.0295858 90.0737304,65.0295858 89.776531,65.0295858" id="Fill-1" transform="translate(93.276055, 32.514793) scale(1, -1) translate(-93.276055, -32.514793) "></path>
                        <path d="M182.776531,169.029586 C153.383503,169.029586 125.847972,155.955469 100.890646,130.163733 L93,122.010816 L108.647552,105.534484 L116.545628,113.695151 C137.327301,135.177932 159.609832,146.206069 183.29663,145.841823 C224.035248,145.570575 255.597832,112.586912 255.917321,112.245916 L263.689088,104 L279.55211,120.174085 L271.810063,128.451 C270.279486,130.093983 233.731381,168.58009 183.660699,169.029586 C183.37093,169.029586 183.07373,169.029586 182.776531,169.029586" id="Fill-1"></path>
                    </g>
                    <g id="Group-5" transform="translate(280.000000, 0.000000)">
                        <path d="M89.776531,65.0295858 C60.383503,65.0295858 32.8479718,51.9554693 7.89064602,26.1637328 L0,18.010816 L15.6475523,1.53448433 L23.5456283,9.69515098 C44.3273015,31.1779316 66.609832,42.2060689 90.29663,41.8418226 C131.035248,41.5705754 162.597832,8.58691229 162.917321,8.24591578 L170.689088,0 L186.55211,16.1740848 L178.810063,24.4510003 C177.279486,26.0939835 140.731381,64.5800904 90.6606994,65.0295858 C90.3709299,65.0295858 90.0737304,65.0295858 89.776531,65.0295858" id="Fill-1" transform="translate(93.276055, 32.514793) scale(1, -1) translate(-93.276055, -32.514793) "></path>
                        <path d="M182.776531,169.029586 C153.383503,169.029586 125.847972,155.955469 100.890646,130.163733 L93,122.010816 L108.647552,105.534484 L116.545628,113.695151 C137.327301,135.177932 159.609832,146.206069 183.29663,145.841823 C224.035248,145.570575 255.597832,112.586912 255.917321,112.245916 L263.689088,104 L279.55211,120.174085 L271.810063,128.451 C270.279486,130.093983 233.731381,168.58009 183.660699,169.029586 C183.37093,169.029586 183.07373,169.029586 182.776531,169.029586" id="Fill-1"></path>
                    </g>
                </g>
            </g>
        </g>
    </g>
</svg>