<?xml version="1.0" encoding="UTF-8"?>
<svg width="98px" height="16px" viewBox="0 0 98 16" version="1.1" xmlns="http://www.w3.org/2000/svg" xmlns:xlink="http://www.w3.org/1999/xlink">
    <title>Group 16</title>
    <g id="Marketing-2.0" stroke="none" stroke-width="1" fill="none" fill-rule="evenodd">
        <g id="Home" transform="translate(-171.000000, -787.000000)" fill="#FFAA00" fill-rule="nonzero">
            <g id="Group-16" transform="translate(171.000000, 787.000000)">
                <polygon id="s" points="13.584375 15.946875 12.20625 10.040625 16.77375 6.06375 10.749375 5.551875 8.386875 0 6.024375 5.551875 0 6.06375 4.5675 10.040625 3.189375 15.946875 8.386875 12.796875"></polygon>
                <polygon id="s" points="33.49125 15.946875 32.113125 10.040625 36.680625 6.06375 30.65625 5.551875 28.29375 0 25.93125 5.551875 19.906875 6.06375 24.474375 10.040625 23.09625 15.946875 28.29375 12.796875"></polygon>
                <polygon id="s" points="53.65125 15.946875 52.273125 10.040625 56.840625 6.06375 50.81625 5.551875 48.45375 0 46.09125 5.551875 40.066875 6.06375 44.634375 10.040625 43.25625 15.946875 48.45375 12.796875"></polygon>
                <polygon id="s" points="73.81125 15.946875 72.433125 10.040625 77.000625 6.06375 70.97625 5.551875 68.61375 0 66.25125 5.551875 60.226875 6.06375 64.794375 10.040625 63.41625 15.946875 68.61375 12.796875"></polygon>
                <polygon id="s" points="93.97125 15.946875 92.593125 10.040625 97.160625 6.06375 91.13625 5.551875 88.77375 0 86.41125 5.551875 80.386875 6.06375 84.954375 10.040625 83.57625 15.946875 88.77375 12.796875"></polygon>
            </g>
        </g>
    </g>
</svg>