<?xml version="1.0" encoding="UTF-8"?>
<svg width="21px" height="21px" viewBox="0 0 21 21" version="1.1" xmlns="http://www.w3.org/2000/svg" xmlns:xlink="http://www.w3.org/1999/xlink">
    <!-- Generator: Sketch 55.2 (78181) - https://sketchapp.com -->
    <title>chrome</title>
    <desc>Created with Sketch.</desc>
    <g id="Product" stroke="none" stroke-width="1" fill="none" fill-rule="evenodd">
        <g id="project-zero---added" transform="translate(-368.000000, -514.000000)" fill="#FFFFFF" fill-rule="nonzero">
            <g id="Group-10" transform="translate(344.000000, 356.000000)">
                <g id="Group-11" transform="translate(14.000000, 151.000000)">
                    <g id="Group-8" transform="translate(10.000000, 7.000000)">
                        <g id="chrome">
                            <path d="M6.39130435,10.5000721 C6.39130435,12.7656509 8.23449325,14.6086957 10.5001442,14.6086957 C12.7656509,14.6086957 14.6086957,12.7655788 14.6086957,10.5000721 C14.6086957,8.23449325 12.7656509,6.39130435 10.5001442,6.39130435 C8.23449325,6.39130435 6.39130435,8.23449325 6.39130435,10.5000721 Z" id="XMLID_17_"></path>
                            <path d="M19.151326,5.19429522 C19.1819736,5.14179364 19.1814214,5.07732627 19.1497384,5.02536248 C18.2334164,3.52237871 16.9293745,2.26341638 15.3786333,1.38460312 C13.780333,0.478766006 11.9524518,0 10.0928185,0 C6.87447475,0 3.8751509,1.40658522 1.86386723,3.85910139 C1.81948342,3.91314912 1.81368523,3.98810336 1.84923369,4.04799952 L4.81252589,9.04640537 C4.84358765,9.09883972 4.90087935,9.13043478 4.96189845,9.13043478 C4.96962938,9.13043478 4.97749836,9.12989699 4.98529832,9.12888864 C5.05473861,9.11967902 5.11154713,9.07047139 5.12907977,9.00439066 C5.71338604,6.79952598 7.75455803,5.25963649 10.0928185,5.25963649 C10.2379115,5.25963649 10.3877672,5.26608995 10.5383823,5.27859353 C10.5432831,5.27906409 10.548253,5.27926577 10.5531539,5.27926577 L19.0013322,5.27926577 C19.0633867,5.27926577 19.1206784,5.24686402 19.151326,5.19429522 Z" id="XMLID_18_"></path>
                            <path d="M11.8341358,15.6355526 C11.7921499,15.5806158 11.7217002,15.5570128 11.6552395,15.5756216 C11.218681,15.6986308 10.7663017,15.7609564 10.310542,15.7609564 C8.37412077,15.7609564 6.58941666,14.61173 5.76369437,12.8332274 C5.76166607,12.8288488 5.75943494,12.8246071 5.75706858,12.8203654 L1.61662537,5.56377896 C1.58647126,5.51075774 1.53062531,5.47826087 1.47024948,5.47826087 C1.46997904,5.47826087 1.46964099,5.47826087 1.46937055,5.47826087 C1.40865667,5.47860294 1.35274311,5.51178396 1.32299466,5.56528408 C0.457517623,7.11931887 0,8.8881751 0,10.6806343 C0,13.1952083 0.896510075,15.6241274 2.52435872,17.5199609 C4.13604855,19.396912 6.35487718,20.6321354 8.77227671,20.9981528 C8.78066037,20.9994527 8.78904402,21 8.79736006,21 C8.85705979,21 8.91317618,20.9678452 8.94366834,20.9144819 L11.8469141,15.8259501 C11.8812601,15.7657454 11.8761893,15.6904895 11.8341358,15.6355526 Z" id="XMLID_19_"></path>
                            <path d="M20.0833696,6.39130435 L13.9386223,6.39130435 C13.8660066,6.39130435 13.8006095,6.43413529 13.7732357,6.49960048 C13.7457904,6.56506567 13.7617287,6.64028099 13.813546,6.6897281 C14.841673,7.67184518 15.4078754,8.98268108 15.4078754,10.3808503 C15.4078754,11.439297 15.0801041,12.4579075 14.4599402,13.3266444 C14.4570813,13.3306838 14.4544368,13.3347927 14.4519353,13.339041 L10.0674043,20.7388357 C10.0353133,20.7930186 10.0355277,20.859807 10.0679046,20.9138506 C10.0999956,20.9672674 10.1587457,21 10.2221415,21 C10.2227848,21 10.2234995,21 10.2241428,21 C13.1094738,20.9686603 15.8170535,19.850111 17.8480064,17.8505674 C19.8806031,15.8493523 21,13.1965498 21,10.3808503 C21,9.04250511 20.7475603,7.73744966 20.2496853,6.50182908 C20.2228118,6.43511031 20.156843,6.39130435 20.0833696,6.39130435 Z" id="XMLID_20_"></path>
                        </g>
                    </g>
                </g>
            </g>
        </g>
    </g>
</svg>