<?xml version="1.0" encoding="UTF-8"?>
<svg width="155px" height="52px" viewBox="0 0 155 52" version="1.1" xmlns="http://www.w3.org/2000/svg" xmlns:xlink="http://www.w3.org/1999/xlink">
    <!-- Generator: Sketch 52.5 (67469) - http://www.bohemiancoding.com/sketch -->
    <title>Group</title>
    <desc>Created with Sketch.</desc>
    <g id="Page-12" stroke="none" stroke-width="1" fill="none" fill-rule="evenodd">
        <g id="Marketing-home" transform="translate(-108.000000, -29.000000)" fill="#0042FF">
            <g id="Group" transform="translate(108.000000, 29.000000)">
                <path d="M28.8331586,8 L20.7288827,18.710302 C16.8483048,15.4586973 12.9699406,11.8661475 9.09379005,8 L0,8 L0.86112082,8.89866358 C7.89397647,16.2373987 14.962251,22.5869725 22.0504486,28 L24.8994524,24.4432285 L31.1309565,16.6751552 L38,8 L28.8331586,8 Z" id="Fill-1"></path>
                <path d="M147.048886,8 C145.410674,10.188709 142.230228,14.1709435 137.699511,18.7502961 L130.463889,8 L122.521501,8 L132.861221,23.3622187 C121.963069,33.1397552 105.764175,43.7489143 85.7042461,45.2905645 C67.3719668,46.6997631 48.7299322,40.3616265 30.0660838,26.4650612 L26,31.6089617 C44.1555879,45.1667983 62.4333328,52 80.6303668,52 C82.49108,52 84.3517933,51.9283458 86.2103252,51.7872088 C127.54739,48.6061982 152.751002,11.3807738 153.802425,9.79786814 L155,8 L147.048886,8 Z" id="Fill-3"></path>
                <path d="M46.2084435,18.9147 C46.2084435,18.0548763 46.3375581,17.2450953 46.6001641,16.4853568 C46.8627701,15.7256184 47.2413604,15.0591413 47.7381235,14.4836508 C48.2348865,13.910435 48.8345035,13.4600512 49.5369746,13.1302246 C50.241634,12.8003981 51.0491474,12.6343475 51.9595149,12.6343475 C52.8414334,12.6343475 53.6358165,12.8072221 54.3382876,13.1506966 C55.042947,13.4964458 55.6556944,13.9604777 56.1809064,14.5496162 C56.70393,15.13648 57.1044041,15.8097811 57.3801404,16.5695195 C57.6536883,17.3315326 57.7937449,18.139039 57.7937449,19.0011373 L57.7937449,19.0875746 C57.7937449,19.9473984 57.6624419,20.7571794 57.3998359,21.5169178 C57.1372299,22.2766562 56.7586396,22.9431334 56.2640649,23.5163492 C55.7651135,24.089565 55.1676849,24.5422235 54.4630254,24.87205 C53.7605544,25.2018766 52.9530409,25.3656525 52.0426735,25.3656525 C51.1870156,25.3656525 50.401386,25.1950526 49.6835962,24.8493034 C48.9658065,24.5058288 48.346494,24.0395223 47.821282,23.4526585 C47.2982584,22.86352 46.8955959,22.1902189 46.6198596,21.4304805 C46.3463117,20.6707421 46.2084435,19.860961 46.2084435,19.0011373 L46.2084435,18.9147 Z M40.9125558,14.3335229 C40.3041853,15.7824851 40,17.3383566 40,19.0011373 L40,19.0875746 C40,20.7503554 40.3041853,22.3062269 40.9125558,23.7529144 C41.5165496,25.2018766 42.3525121,26.4620415 43.4160664,27.5379585 C44.4774323,28.6138755 45.7379411,29.4600512 47.2019695,30.0764856 C48.6616212,30.6929201 50.2481991,31 51.9595149,31 C53.6970913,31 55.2967995,30.6838214 56.7586396,30.053739 C58.2204796,29.4236565 59.489742,28.5638328 60.5664266,27.4742678 C61.6431112,26.3847029 62.4834504,25.1154393 63.0896325,23.6664771 C63.6980031,22.2197896 64,20.6639181 64,19.0011373 L64,18.9147 C64,17.2519192 63.6980031,15.6960478 63.0896325,14.2470856 C62.4834504,12.8003981 61.6496763,11.5379585 60.586122,10.4620415 C59.6363636,9.49985783 58.5027811,8.75149275 57.2335187,8.15780495 C57.0825203,8.0872903 56.9555941,7.98947967 56.8002188,7.92578902 C55.3383788,7.30935456 53.7518009,7 52.0426735,7 C50.3050971,7 48.7053889,7.31617856 47.2413604,7.94626102 C47.1034923,8.007677 46.9896964,8.0941143 46.856205,8.15780495 C45.5650588,8.76741541 44.4095924,9.54080182 43.4335734,10.5257322 C42.3590772,11.6175718 41.5165496,12.8868354 40.9125558,14.3335229 Z" id="Fill-6"></path>
                <polygon id="Fill-8" points="78 31 78 8.95660364 78 0 72 0 72 8.95660364 72 31"></polygon>
                <polygon id="Fill-10" points="91 31 91 8.95660364 91 0 85 0 85 8.95660364 85 31"></polygon>
                <path d="M105.485671,13.5806085 C106.271192,12.6912141 107.301659,12.2476543 108.579186,12.2476543 C109.856712,12.2476543 110.880845,12.6980381 111.653695,13.6010805 C112.426546,14.5063975 112.903771,15.6892238 113.091704,17.1495593 L103.946305,17.1495593 C104.187029,15.6596531 104.698039,14.4700028 105.485671,13.5806085 M98.7770739,14.3539949 C98.2597285,15.8166051 98,17.3656525 98,18.9988627 L98,19.0853 C98,20.8345181 98.2766214,22.4404322 98.8383107,23.9030424 C99.3957768,25.3656525 100.174962,26.6280921 101.173756,27.6880864 C102.170437,28.7480808 103.355053,29.5669605 104.72549,30.1401763 C106.098039,30.7133921 107.582504,31 109.178884,31 C111.121569,31 112.81086,30.6201308 114.248869,29.8603924 C115.686878,29.100654 116.909502,28.0474837 117.923077,26.6986068 L114.449472,23.3866932 C113.59638,24.2192209 112.770739,24.8197327 111.972549,25.1927779 C111.174359,25.5658231 110.270588,25.7523457 109.259125,25.7523457 C107.901357,25.7523457 106.763198,25.3724765 105.842534,24.6127381 C104.926094,23.8529997 104.32006,22.7270401 104.028658,21.2371339 L118.92187,21.2371339 C118.94721,20.9209554 118.966214,20.6206995 118.980995,20.3340916 C118.993665,20.0474837 119,19.7745237 119,19.5152118 C119,17.8820017 118.793062,16.3124822 118.381297,14.8066534 C117.969532,13.3008246 117.329713,11.9678703 116.466063,10.8055161 C115.644646,9.70457777 114.609955,8.83338072 113.395777,8.15780495 C113.328205,8.12141029 113.277526,8.06681831 113.212066,8.03269832 C111.907089,7.34347455 110.363499,7 108.579186,7 C107.035596,7 105.610256,7.31617856 104.307391,7.94626102 C104.184917,8.00540233 104.08356,8.0941143 103.965309,8.15780495 C102.81448,8.76741541 101.796682,9.54080182 100.954148,10.5257322 C100.020814,11.6175718 99.2965309,12.8913847 98.7770739,14.3539949" id="Fill-12"></path>
            </g>
        </g>
    </g>
</svg>