<?xml version="1.0" encoding="UTF-8"?>
<svg width="293px" height="42px" viewBox="0 0 293 42" version="1.1" xmlns="http://www.w3.org/2000/svg" xmlns:xlink="http://www.w3.org/1999/xlink">
    <title>Group 2</title>
    <g id="AppSumo" stroke="none" stroke-width="1" fill="none" fill-rule="evenodd">
        <g id="Billing---basic-plan" transform="translate(-451.000000, -162.000000)">
            <g id="Group-2" transform="translate(451.000000, 162.000000)">
                <g id="Group" transform="translate(0.000000, 3.000000)" fill="#0042FF">
                    <path d="M19.5512972,5.35272727 L14.0559191,12.2322464 C11.4245622,10.1436519 8.79470635,7.83605927 6.16635154,5.35272727 L0,5.35272727 L0.583912062,5.9299634 C5.35277741,10.6438331 10.1456597,14.7223376 14.9520515,18.1992727 L16.8839148,15.9146614 L21.1093967,10.9250161 L25.7671837,5.35272727 L19.5512972,5.35272727 Z" id="Fill-1"></path>
                    <path d="M99.7896499,5.35272727 C98.6716283,6.84379887 96.5010883,9.55672081 93.4090364,12.6764331 L88.4709834,5.35272727 L83.0505882,5.35272727 L90.1070763,15.818334 C82.6694783,22.4793413 71.6143135,29.7068967 57.924131,30.7571555 C45.4130073,31.7171808 32.6904867,27.3992859 19.953079,17.9321647 L17.1781224,21.4364788 C29.5686606,30.672839 42.0425666,35.328 54.4613902,35.328 C55.7312603,35.328 57.0011305,35.2791852 58.2695119,35.1830347 C86.4805774,33.0159515 103.681139,7.65590037 104.398698,6.57753609 L105.216,5.35272727 L99.7896499,5.35272727 Z" id="Fill-3"></path>
                    <path d="M31.0068086,13.3247447 C31.0068086,12.7494445 31.0934472,12.2076274 31.2696612,11.6992933 C31.4458751,11.1909592 31.699917,10.7450255 32.0332551,10.35997 C32.3665932,9.97643653 32.7689485,9.67508879 33.2403209,9.45440484 C33.7131617,9.23372089 34.2550198,9.12261793 34.8658949,9.12261793 C35.4576802,9.12261793 35.9907275,9.23828676 36.4620999,9.46810246 C36.9349408,9.69944012 37.3461067,10.0099196 37.6985347,10.4041068 C38.0494942,10.796772 38.3182206,11.2472717 38.5032452,11.7556058 C38.6868015,12.2654618 38.7807823,12.805757 38.7807823,13.3825792 L38.7807823,13.4404136 C38.7807823,14.0157138 38.6926753,14.557531 38.5164613,15.065865 C38.3402473,15.5741991 38.0862055,16.0201329 37.7543358,16.4036663 C37.4195292,16.7871998 37.0186424,17.0900695 36.5458016,17.3107535 C36.0744292,17.5314374 35.5325711,17.6410184 34.921696,17.6410184 C34.3475321,17.6410184 33.8203586,17.5268716 33.338707,17.2955339 C32.8570555,17.0657182 32.4414842,16.7537168 32.0890562,16.3610515 C31.7380967,15.9668643 31.4679019,15.5163647 31.2828772,15.0080306 C31.099321,14.4996965 31.0068086,13.9578794 31.0068086,13.3825792 L31.0068086,13.3247447 Z M27.4531599,10.2595208 C27.0449309,11.2290082 26.8408163,12.2700277 26.8408163,13.3825792 L26.8408163,13.4404136 C26.8408163,14.5529651 27.0449309,15.5939845 27.4531599,16.56195 C27.8584521,17.5314374 28.4193999,18.3746023 29.1330666,19.0944886 C29.8452648,19.8143749 30.6910919,20.3805433 31.6734849,20.792994 C32.6529409,21.2054447 33.7175671,21.4109091 34.8658949,21.4109091 C36.0318441,21.4109091 37.105281,21.1993569 38.0862055,20.7777744 C39.06713,20.356192 39.9188309,19.7808918 40.6413083,19.0518738 C41.3637856,18.3228557 41.9276704,17.473603 42.334431,16.5041156 C42.74266,15.5361501 42.9453061,14.4951307 42.9453061,13.3825792 L42.9453061,13.3247447 C42.9453061,12.2121932 42.74266,11.1711738 42.334431,10.2016864 C41.9276704,9.23372089 41.368191,8.38903404 40.6545243,7.66914778 C40.0172171,7.02535942 39.25656,6.52463515 38.4048591,6.12740404 C38.3035361,6.08022333 38.218366,6.01477912 38.114106,5.97216429 C37.1331815,5.5597136 36.0685554,5.35272727 34.921696,5.35272727 C33.7557468,5.35272727 32.6823099,5.56427947 31.699917,5.98586192 C31.6074046,6.02695479 31.5310452,6.08478921 31.4414698,6.12740404 C30.5750844,6.53528886 29.7997428,7.05275467 29.1448142,7.71176261 C28.4238053,8.44230258 27.8584521,9.2915553 27.4531599,10.2595208 L27.4531599,10.2595208 Z" id="Fill-6"></path>
                    <polygon id="Fill-8" points="52.608 21.4109091 52.608 6.18609762 52.608 0 48.3134694 0 48.3134694 6.18609762 48.3134694 21.4109091"></polygon>
                    <polygon id="Fill-10" points="62.2706939 21.4109091 62.2706939 6.18609762 62.2706939 0 57.9761633 0 57.9761633 6.18609762 57.9761633 21.4109091"></polygon>
                    <path d="M71.5404242,9.75575258 C72.0625044,9.16066689 72.7473838,8.86388503 73.5964658,8.86388503 C74.4455478,8.86388503 75.1262169,9.16523277 75.6398764,9.7694502 C76.153536,10.3751896 76.4707137,11.1666079 76.59562,12.1437051 L70.5173154,12.1437051 C70.6773077,11.1468224 71.0169405,10.3508383 71.5404242,9.75575258 M67.0816909,10.2732184 C66.7378478,11.2518376 66.5652245,12.2882912 66.5652245,13.3810572 L66.5652245,13.4388916 C66.5652245,14.6092775 66.7490753,15.6837801 67.1223907,16.6623993 C67.4928992,17.6410184 68.0107691,18.4857053 68.6745969,19.1949378 C69.3370212,19.9041704 70.1243518,20.4520754 71.0351853,20.8356089 C71.9474222,21.2191423 72.9340415,21.4109091 73.9950431,21.4109091 C75.2862092,21.4109091 76.4089623,21.1567421 77.3647059,20.648408 C78.3204495,20.1400739 79.133042,19.4354072 79.8066939,18.532886 L77.4980328,16.3169147 C76.9310425,16.8739515 76.3822969,17.2757484 75.8517961,17.5253496 C75.3212952,17.7749508 74.7206223,17.8997513 74.0483739,17.8997513 C73.1459611,17.8997513 72.3895062,17.6455843 71.7776058,17.1372502 C71.1685122,16.6289162 70.7657245,15.8755468 70.5720496,14.8786642 L80.4705216,14.8786642 C80.4873629,14.6671119 80.4999939,14.4662135 80.509818,14.2744467 C80.5182387,14.08268 80.522449,13.900045 80.522449,13.7265417 C80.522449,12.6337757 80.3849117,11.5836245 80.1112407,10.5760881 C79.8375696,9.56855171 79.4123269,8.67668416 78.8383193,7.89896348 C78.2923806,7.16233567 77.6046944,6.57942565 76.7977156,6.12740404 C76.7528054,6.10305271 76.7191228,6.06652571 76.6756162,6.04369633 C75.8082894,5.58254297 74.7823737,5.35272727 73.5964658,5.35272727 C72.5705501,5.35272727 71.6232272,5.56427947 70.7573039,5.98586192 C70.6759043,6.02543283 70.6085391,6.08478921 70.5299464,6.12740404 C69.7650708,6.53528886 69.0886121,7.05275467 68.528639,7.71176261 C67.9083179,8.44230258 67.4269375,9.29459922 67.0816909,10.2732184" id="Fill-12"></path>
                </g>
                <polygon id="+" fill="#7F8FA4" fill-rule="nonzero" points="139.288 29.94 139.288 23.82 145.204 23.82 145.204 19.74 139.288 19.74 139.288 13.62 135.072 13.62 135.072 19.74 129.156 19.74 129.156 23.82 135.072 23.82 135.072 29.94"></polygon>
                <g id="appsumo-logo" transform="translate(168.000000, 11.000000)" fill="#231F20" fill-rule="nonzero">
                    <path d="M78.9,12.6 C78.9,15.9 77.4,15.9 76.6,15.9 C75.9,15.9 74.3,15.9 74.3,12.6 L74.3,3.4 L70.5,3.4 L70.5,13.2 C70.5,17 73,19.6 76.6,19.6 C80.2,19.6 82.7,17 82.7,13.2 L82.7,3.4 L78.9,3.4 L78.9,12.6 Z" id="Path"></path>
                    <path d="M116.4,3 C111.7,3 107.9,6.8 107.9,11.5 C107.9,16.2 111.6,20 116.4,20 C121.2,20 124.9,16.3 124.9,11.5 C124.9,6.8 121.1,3 116.4,3 Z M116.4,16.1 C113.9,16.1 111.8,14 111.8,11.5 C111.8,8.9 113.8,6.9 116.4,6.9 C119,6.9 121,8.9 121,11.5 C121,14 119,16.1 116.4,16.1 Z" id="Shape"></path>
                    <path d="M8.7,0.8 L0.2,19.5 L4.5,19.5 L6.1,15.9 L11.3,15.9 L12.9,19.5 L17.2,19.5 L8.7,0.8 Z M7.1,12.7 L8.7,8.8 L10.3,12.7 L7.1,12.7 Z" id="Shape"></path>
                    <path d="M27.2,3.5 L21,3.5 L21,19.2 L24.9,19.2 L24.9,14.7 L27,14.7 C30.9,14.7 33.3,12.5 33.3,9.1 L33.3,9.1 C33.3,5.6 31,3.5 27.2,3.5 Z M29.3,9.2 C29.3,10.5 28.4,11.3 26.9,11.3 L24.9,11.3 L24.9,7 L26.9,7 C28.5,7 29.3,7.8 29.3,9.2 L29.3,9.2 Z" id="Shape"></path>
                    <path d="M43.4,3.5 L37.2,3.5 L37.2,19.2 L41.1,19.2 L41.1,14.7 L43.2,14.7 C47.1,14.7 49.5,12.5 49.5,9.1 L49.5,9.1 C49.4,5.6 47.1,3.5 43.4,3.5 Z M45.5,9.2 C45.5,10.5 44.6,11.3 43.1,11.3 L41.1,11.3 L41.1,7 L43.1,7 C44.6,7 45.5,7.8 45.5,9.2 L45.5,9.2 Z" id="Shape"></path>
                    <path d="M61,8.5 C57.9,7.7 57.3,7.3 57.3,6.3 L57.3,6.2 C57.3,5.3 58.1,4.8 59.5,4.8 C60.9,4.8 62.4,5.4 64.1,6.5 L64.2,6.6 L66.4,3.4 L66.3,3.3 C64.4,1.8 62.1,1 59.6,1 C55.8,1 53.2,3.3 53.2,6.5 L53.2,6.6 C53.2,10.4 55.8,11.3 59.2,12.2 C62.2,13 62.7,13.5 62.7,14.3 L62.7,14.4 C62.7,15.4 61.8,15.9 60.3,15.9 C58.5,15.9 56.8,15.2 55.1,13.8 L55,13.7 L52.5,16.7 L52.6,16.8 C54.7,18.7 57.4,19.7 60.3,19.7 C64.4,19.7 67,17.5 67,14 L67,14 C66.8,10.7 64.5,9.4 61,8.5 Z" id="Path"></path>
                    <polygon id="Path" points="95.7 20.1 91 12.1 89.6 19.5 86.2 19.5 89.7 3 95.9 13.4 101.8 3 105.3 19.5 101.7 19.5 100.3 12.2"></polygon>
                </g>
            </g>
        </g>
    </g>
</svg>