<?xml version="1.0" encoding="UTF-8"?>
<svg width="113px" height="38px" viewBox="0 0 113 38" version="1.1" xmlns="http://www.w3.org/2000/svg" xmlns:xlink="http://www.w3.org/1999/xlink">
    <title>Combined Shape</title>
    <g id="Widget-2.0" stroke="none" stroke-width="1" fill="none" fill-rule="evenodd">
        <path d="M95.1123835,5.84615385 L100.387386,13.7021395 C103.690424,10.3556895 106.009072,7.44559507 107.203382,5.84615385 L107.203382,5.84615385 L113,5.84615385 L112.126929,7.15998056 C111.360408,8.31671931 92.9861617,35.5199141 62.850108,37.8444988 C61.4951783,37.9476373 60.1386583,38 58.7821384,38 C45.5159136,38 32.1908479,33.0065064 18.9548387,23.0988566 L18.9548387,23.0988566 L21.919145,19.3398524 C35.5256925,29.4950348 49.1163371,34.12675 62.48116,33.096951 C77.1054951,31.9703605 88.9150115,24.2175134 96.8601156,17.0723906 L96.8601156,17.0723906 L89.3221265,5.84615385 L95.1123835,5.84615385 Z M37.9407878,5.11538462 C39.1867968,5.11538462 40.3434632,5.34145141 41.4091918,5.79192275 C41.5224653,5.83846591 41.6149987,5.90994291 41.7250814,5.96147285 C42.6504146,6.39532162 43.4768328,6.9422038 44.1692373,7.64533803 C44.9446027,8.43158505 45.5524509,9.35413705 45.9943773,10.4113318 C46.437899,11.4701888 46.6580645,12.6071718 46.6580645,13.8222808 L46.6580645,13.8222808 L46.6580645,13.8854465 C46.6580645,15.1005555 46.437899,16.2375385 45.9943773,17.2947333 C45.5524509,18.3535903 44.9398165,19.281129 44.1548787,20.0773496 C43.3699409,20.8735701 42.4446077,21.5019028 41.3788792,21.9623477 C40.3131506,22.4227926 39.1469117,22.6538462 37.8801625,22.6538462 C36.6325581,22.6538462 35.4758916,22.4294416 34.4117584,21.9789703 C33.3444345,21.5284989 32.4254829,20.9101398 31.6517129,20.1238927 C30.8763475,19.3376457 30.2669039,18.416756 29.826573,17.357899 C29.3830512,16.3007043 29.1612903,15.1637213 29.1612903,13.9486122 L29.1612903,13.9486122 L29.1612903,13.8854465 C29.1612903,12.6703375 29.3830512,11.5333545 29.826573,10.4744975 C30.2669039,9.41730277 30.8811337,8.489764 31.6644761,7.69188119 C32.3760254,6.97212441 33.2183977,6.40695742 34.1596849,5.96147285 C34.2570044,5.91492968 34.3399654,5.85176396 34.4404757,5.80688305 C35.5077996,5.34643818 36.6740385,5.11538462 37.9407878,5.11538462 Z M56.8645161,3.55271368e-15 L56.8645161,22.6538462 L52.4903226,22.6538462 L52.4903226,3.55271368e-15 L56.8645161,3.55271368e-15 Z M66.3419355,3.55271368e-15 L66.3419355,22.6538462 L61.9677419,22.6538462 L61.9677419,3.55271368e-15 L66.3419355,3.55271368e-15 Z M79.1577288,5.11538462 C80.4585511,5.11538462 81.5838778,5.36638525 82.5352484,5.87004877 C82.5829709,5.89498261 82.6199173,5.93487675 82.6691792,5.96147285 C83.5543541,6.45516284 84.3086771,7.09180683 84.9075172,7.89633866 C85.5371459,8.74575141 86.0035946,9.71983334 86.3037844,10.8202467 C86.6039741,11.9206601 86.7548387,13.0676166 86.7548387,14.2611163 C86.7548387,14.4506135 86.7502204,14.6500842 86.7409838,14.8595284 C86.7302078,15.0689727 86.7163528,15.2883905 86.6978796,15.519444 L86.6978796,15.519444 L75.8402472,15.519444 C76.0526891,16.6082216 76.4945069,17.4310383 77.1626215,17.9862317 C77.833815,18.5414252 78.6635703,18.8190219 79.6534268,18.8190219 C80.3908159,18.8190219 81.049694,18.6827169 81.6316003,18.410107 C82.2135065,18.137497 82.8154255,17.6986614 83.4373571,17.0902758 L83.4373571,17.0902758 L85.969727,19.5105203 C85.2307984,20.4962381 84.3394658,21.2658625 83.2911108,21.821056 C82.2427558,22.3762494 81.0112081,22.6538462 79.5949282,22.6538462 C78.4311157,22.6538462 77.3488931,22.4444019 76.3482606,22.0255134 C75.3491675,21.606625 74.4855447,21.0082129 73.7589315,20.2336016 C73.030779,19.4589904 72.4627276,18.5364384 72.0563168,17.4676079 C71.6468272,16.3987774 71.4451613,15.2252247 71.4451613,13.94695 L71.4451613,13.94695 L71.4451613,13.8837843 C71.4451613,12.6902846 71.6345118,11.5582883 72.0116732,10.4894578 C72.3903742,9.42062728 72.9184002,8.489764 73.5988303,7.69188119 C74.2130648,6.97212441 74.9550723,6.40695742 75.7940641,5.96147285 C75.8802725,5.91492968 75.9541653,5.8501017 76.0434525,5.80688305 C76.9932837,5.34643818 78.0324021,5.11538462 79.1577288,5.11538462 Z M6.62966629,5.84615385 C9.45550507,8.6714155 12.2829577,11.2967403 15.1120241,13.672913 L15.1120241,13.672913 L21.0203027,5.84615385 L27.7032258,5.84615385 L22.6954715,12.1856903 L18.152504,17.8623593 L16.0754883,20.4615385 C10.9079636,16.5058645 5.75496349,11.8657914 0.627784856,6.50286954 L0.627784856,6.50286954 L3.55271368e-15,5.84615385 Z M37.8801625,9.23279237 C37.2164752,9.23279237 36.6277719,9.35413705 36.1140524,9.59516415 C35.6019284,9.83619125 35.1647882,10.1653179 34.8026319,10.5842064 C34.4404757,11.0047571 34.1644711,11.4917981 33.9730229,12.0469915 C33.7815746,12.602185 33.6874459,13.1939481 33.6874459,13.8222808 L33.6874459,13.8222808 L33.6874459,13.8854465 C33.6874459,14.5137792 33.7879562,15.1055423 33.9873815,15.6607358 C34.1884022,16.2159292 34.4819561,16.707957 34.8632572,17.1384812 C35.2461537,17.5673432 35.6976525,17.9081057 36.2209444,18.1591063 C36.7442362,18.4117692 37.3169856,18.5364384 37.9407878,18.5364384 C38.604475,18.5364384 39.1931784,18.416756 39.7053024,18.1757289 C40.2190219,17.9347018 40.6545666,17.6039129 41.0183183,17.1850244 C41.3788792,16.7661359 41.6548837,16.2790949 41.846332,15.7239015 C42.0377802,15.168708 42.1335043,14.5769449 42.1335043,13.9486122 L42.1335043,13.9486122 L42.1335043,13.8854465 C42.1335043,13.2554515 42.0313986,12.6653507 41.8319733,12.108495 C41.6309527,11.5533015 41.3389941,11.0612738 40.957693,10.6324118 C40.5747965,10.2018875 40.128084,9.86278734 39.6143645,9.61012445 C39.1022404,9.35912382 38.5231095,9.23279237 37.8801625,9.23279237 Z M79.1577288,8.95020888 C78.2263708,8.95020888 77.4751267,9.27434877 76.9024571,9.92429081 C76.3282479,10.5742328 75.9557048,11.4435927 75.7802092,12.5323702 L75.7802092,12.5323702 L82.4475006,12.5323702 C82.3104909,11.465202 81.9625787,10.6008289 81.3991456,9.93925111 C80.8357125,9.27933554 80.0890868,8.95020888 79.1577288,8.95020888 Z" id="Combined-Shape" fill="#0042FF"></path>
    </g>
</svg>