<?xml version="1.0" encoding="UTF-8"?>
<svg width="527px" height="330px" viewBox="0 0 527 330" version="1.1" xmlns="http://www.w3.org/2000/svg" xmlns:xlink="http://www.w3.org/1999/xlink">
    <title>extension-step1</title>
    <g id="Marketing-2.0" stroke="none" stroke-width="1" fill="none" fill-rule="evenodd">
        <g id="Home" transform="translate(-642.000000, -432.000000)">
            <g id="extension-step1" transform="translate(642.000000, 432.000000)">
                <rect id="Rectangle" fill="#0042FF" x="0" y="0" width="527" height="329"></rect>
                <g id="Group-15" transform="translate(0.000000, 52.000000)">
                    <g id="Group-14">
                        <path d="M473.2,1.625 L0.325,1.625 L0.325,46.475 L480.675,46.475 L480.675,9.1 C480.675,7.03583575 479.838332,5.16708575 478.485623,3.81437681 C477.132914,2.46166787 475.264164,1.625 473.2,1.625 Z" id="Rectangle" stroke="#C5D0DE" stroke-width="0.65" fill="#E6EAEE"></path>
                        <rect id="Rectangle" fill="#FAFBFC" x="0" y="46.5" width="481" height="231.4"></rect>
                        <path d="M0,10.4 L385.45,10.4 C392.988687,10.4 399.1,16.5113132 399.1,24.05 C399.1,31.5886868 392.988687,37.7 385.45,37.7 L0,37.7 L0,37.7 L0,10.4 Z" id="Rectangle" fill="#FFFFFF"></path>
                        <path d="M6.88339844,32.3287109 C7.54355469,32.3287109 8.06787109,32.1230469 8.45634766,31.7117187 C8.84482422,31.3003906 9.14316406,30.8179687 9.35136719,30.2644531 L9.35136719,30.2644531 L12.8171875,20.7582031 L11.1490234,20.7582031 L9.12285156,26.9814453 L9.07714844,26.9814453 L8.81054688,25.9455078 L7.07382813,20.7582031 L5.39804688,20.7582031 L8.46015625,28.8324219 L8.10214844,29.6931641 C7.96503906,30.0384766 7.79492188,30.3533203 7.59179688,30.6376953 C7.38867188,30.9220703 7.12714844,31.0642578 6.80722656,31.0642578 C6.75136719,31.0642578 6.61806641,31.0566406 6.40732422,31.0414063 C6.19658203,31.0261719 6.10644531,31.0210937 6.13691406,31.0261719 L6.13691406,31.0261719 L5.98457031,32.2068359 C6.08613281,32.2322266 6.23085938,32.2588867 6.41875,32.2868164 C6.60664063,32.3147461 6.76152344,32.3287109 6.88339844,32.3287109 Z M17.4789063,29.1599609 C18.6164063,29.1599609 19.5152344,28.7689453 20.1753906,27.9869141 C20.8355469,27.2048828 21.165625,26.1994141 21.165625,24.9705078 L21.165625,24.9705078 L21.165625,24.8029297 C21.165625,23.5791016 20.8342773,22.5736328 20.171582,21.7865234 C19.5088867,20.9994141 18.60625,20.6058594 17.4636719,20.6058594 C16.33125,20.6058594 15.4349609,21.0006836 14.7748047,21.790332 C14.1146484,22.5799805 13.7845703,23.5841797 13.7845703,24.8029297 L13.7845703,24.8029297 L13.7845703,24.9705078 C13.7845703,26.1943359 14.115918,27.1985352 14.7786133,27.9831055 C15.4413086,28.7676758 16.3414062,29.1599609 17.4789063,29.1599609 Z M17.4789063,27.9869141 C16.7527344,27.9869141 16.2055664,27.7025391 15.8374023,27.1337891 C15.4692383,26.5650391 15.2851562,25.8439453 15.2851562,24.9705078 L15.2851562,24.9705078 L15.2851562,24.8029297 C15.2851562,23.9396484 15.4692383,23.2210938 15.8374023,22.6472656 C16.2055664,22.0734375 16.7476562,21.7865234 17.4636719,21.7865234 C18.1847656,21.7865234 18.7319336,22.0734375 19.1051758,22.6472656 C19.478418,23.2210938 19.6650391,23.9396484 19.6650391,24.8029297 L19.6650391,24.8029297 L19.6650391,24.9705078 C19.6650391,25.8439453 19.4796875,26.5650391 19.1089844,27.1337891 C18.7382812,27.7025391 18.1949219,27.9869141 17.4789063,27.9869141 Z M25.8273437,29.1599609 C26.3605469,29.1599609 26.8302734,29.040625 27.2365234,28.8019531 C27.6427734,28.5632812 27.9753906,28.2230469 28.234375,27.78125 L28.234375,27.78125 L28.3333984,29 L29.6816406,29 L29.6816406,20.7582031 L28.1810547,20.7582031 L28.1810547,26.6996094 C28.0033203,27.0957031 27.7405273,27.4016602 27.3926758,27.6174805 C27.0448242,27.8333008 26.6042969,27.9412109 26.0710937,27.9412109 C25.5226563,27.9412109 25.1189453,27.7761719 24.8599609,27.4460937 C24.6009766,27.1160156 24.4714844,26.5117188 24.4714844,25.6332031 L24.4714844,25.6332031 L24.4714844,20.7582031 L22.9708984,20.7582031 L22.9708984,25.6179687 C22.9708984,26.8316406 23.2222656,27.7253906 23.725,28.2992188 C24.2277344,28.8730469 24.9285156,29.1599609 25.8273437,29.1599609 Z M33.3683594,29 L33.3683594,23.1119141 C33.515625,22.7716797 33.7250977,22.5076172 33.9967773,22.3197266 C34.268457,22.1318359 34.6023438,22.0378906 34.9984375,22.0378906 L34.9984375,22.0378906 L35.7677734,22.0835937 L35.9734375,20.6896484 C35.9074219,20.6693359 35.8236328,20.650293 35.7220703,20.6325195 C35.6205078,20.6147461 35.5138672,20.6058594 35.4021484,20.6058594 C34.9552734,20.6058594 34.5604492,20.7251953 34.2176758,20.9638672 C33.8749023,21.2025391 33.5867188,21.5351562 33.353125,21.9617187 L33.353125,21.9617187 L33.2083984,20.7582031 L31.8677734,20.7582031 L31.8677734,29 L33.3683594,29 Z M40.0714844,29 L41.640625,23.9802734 L41.9681641,22.5863281 L42.0138672,22.5787109 L42.3566406,23.9802734 L43.9486328,29 L45.1597656,29 L47.5515625,20.7582031 L46.0585938,20.7582031 L44.7636719,25.9988281 L44.5427734,27.1109375 L44.4970703,27.1109375 L44.2609375,25.9988281 L42.6080078,20.7582031 L41.4044922,20.7582031 L39.7591797,25.9988281 L39.5458984,26.9966797 L39.5001953,26.9966797 L39.325,25.9988281 L37.9615234,20.7582031 L36.4685547,20.7582031 L38.8603516,29 L40.0714844,29 Z M52.4417969,29.1599609 C53.1273438,29.1599609 53.7113281,29.0634766 54.19375,28.8705078 C54.6761719,28.6775391 55.0646484,28.4363281 55.3591797,28.146875 L55.3591797,28.146875 L54.7726563,27.171875 C54.4933594,27.4257812 54.1620117,27.6250977 53.7786133,27.7698242 C53.3952148,27.9145508 52.9496094,27.9869141 52.4417969,27.9869141 C51.7460938,27.9869141 51.2052734,27.7317383 50.8193359,27.2213867 C50.4333984,26.7110352 50.2328125,26.0597656 50.2175781,25.2675781 L50.2175781,25.2675781 L50.2404297,25.2294922 L55.5876953,25.2294922 L55.5876953,24.2925781 C55.5876953,23.1753906 55.3033203,22.2816406 54.7345703,21.6113281 C54.1658203,20.9410156 53.3253906,20.6058594 52.2132813,20.6058594 C51.2585938,20.6058594 50.4321289,20.9956055 49.7338867,21.7750977 C49.0356445,22.5545898 48.6865234,23.5308594 48.6865234,24.7039062 L48.6865234,24.7039062 L48.6865234,25.0390625 C48.6865234,26.2578125 49.0254883,27.2493164 49.703418,28.0135742 C50.3813477,28.777832 51.2941406,29.1599609 52.4417969,29.1599609 Z M54.0871094,24.0564453 L50.2861328,24.0564453 L50.2708984,24.0183594 C50.3521484,23.3785156 50.5705078,22.846582 50.9259766,22.4225586 C51.2814453,21.9985352 51.7105469,21.7865234 52.2132813,21.7865234 C52.8328125,21.7865234 53.3,21.9845703 53.6148438,22.3806641 C53.9296875,22.7767578 54.0871094,23.2693359 54.0871094,23.8583984 L54.0871094,23.8583984 L54.0871094,24.0564453 Z M61.0949219,29.1599609 C62.0953125,29.1599609 62.8811523,28.7956055 63.4524414,28.0668945 C64.0237305,27.3381836 64.309375,26.3796875 64.309375,25.1914062 L64.309375,25.1914062 L64.309375,25.0314453 C64.309375,23.7060547 64.025,22.6371094 63.45625,21.8246094 C62.8875,21.0121094 62.0953125,20.6058594 61.0796875,20.6058594 C60.5667969,20.6058594 60.1186523,20.7023438 59.7352539,20.8953125 C59.3518555,21.0882812 59.0306641,21.3675781 58.7716797,21.7332031 L58.7716797,21.7332031 L58.7716797,17.1171875 L57.2710938,17.1171875 L57.2710938,29 L58.4974609,29 L58.6802734,27.9107422 C58.9443359,28.3220703 59.2769531,28.6331055 59.678125,28.8438477 C60.0792969,29.0545898 60.5515625,29.1599609 61.0949219,29.1599609 Z M60.7140625,27.9412109 C60.2367188,27.9412109 59.8418945,27.8269531 59.5295898,27.5984375 C59.2172852,27.3699219 58.9646484,27.0525391 58.7716797,26.6462891 L58.7716797,26.6462891 L58.7716797,23.0738281 C58.9595703,22.6929687 59.212207,22.3895508 59.5295898,22.1635742 C59.8469727,21.9375977 60.2367188,21.8246094 60.6988281,21.8246094 C61.4097656,21.8246094 61.9391602,22.1229492 62.2870117,22.7196289 C62.6348633,23.3163086 62.8087891,24.0869141 62.8087891,25.0314453 L62.8087891,25.0314453 L62.8087891,25.1914062 C62.8087891,26.0191406 62.6361328,26.684375 62.2908203,27.1871094 C61.9455078,27.6898438 61.4199219,27.9412109 60.7140625,27.9412109 Z M69.2224609,29.1599609 C70.1771484,29.1599609 70.950293,28.9339844 71.5418945,28.4820312 C72.1334961,28.0300781 72.4292969,27.4384766 72.4292969,26.7072266 C72.4292969,26.0623047 72.1753906,25.5481445 71.6675781,25.1647461 C71.1597656,24.7813477 70.3853516,24.4779297 69.3443359,24.2544922 C68.6435547,24.1072266 68.1789063,23.9396484 67.9503906,23.7517578 C67.721875,23.5638672 67.6076172,23.3074219 67.6076172,22.9824219 C67.6076172,22.6523438 67.7371094,22.3705078 67.9960938,22.1369141 C68.2550781,21.9033203 68.6511719,21.7865234 69.184375,21.7865234 C69.6820312,21.7865234 70.0819336,21.9299805 70.384082,22.2168945 C70.6862305,22.5038086 70.8373047,22.8275391 70.8373047,23.1880859 L70.8373047,23.1880859 L72.2693359,23.1880859 L72.2845703,23.1423828 C72.3099609,22.4365234 72.0395508,21.8373047 71.4733398,21.3447266 C70.9071289,20.8521484 70.1441406,20.6058594 69.184375,20.6058594 C68.2703125,20.6058594 67.5289063,20.8419922 66.9601563,21.3142578 C66.3914063,21.7865234 66.1070313,22.3578125 66.1070313,23.028125 C66.1070313,23.6730469 66.359668,24.1821289 66.8649414,24.5553711 C67.3702148,24.9286133 68.1230469,25.2244141 69.1234375,25.4427734 C69.8242188,25.6001953 70.300293,25.7855469 70.5516602,25.9988281 C70.8030273,26.2121094 70.9287109,26.4837891 70.9287109,26.8138672 C70.9287109,27.1642578 70.7776367,27.4473633 70.4754883,27.6631836 C70.1733398,27.8790039 69.7556641,27.9869141 69.2224609,27.9869141 C68.7248047,27.9869141 68.290625,27.8637695 67.9199219,27.6174805 C67.5492187,27.3711914 67.3511719,26.9814453 67.3257813,26.4482422 L67.3257813,26.4482422 L65.89375,26.4482422 L65.8785156,26.4939453 C65.8480469,27.2048828 66.1349609,27.8269531 66.7392578,28.3601562 C67.3435547,28.8933594 68.1712891,29.1599609 69.2224609,29.1599609 Z M75.9179688,18.6482422 L75.9179688,17.1171875 L74.4173828,17.1171875 L74.4173828,18.6482422 L75.9179688,18.6482422 Z M75.9179688,29 L75.9179688,20.7582031 L74.4173828,20.7582031 L74.4173828,29 L75.9179688,29 Z M80.7015625,29.1599609 C80.9199219,29.1599609 81.1370117,29.1307617 81.352832,29.0723633 C81.5686523,29.0139648 81.7324219,28.9390625 81.8441406,28.8476562 L81.8441406,28.8476562 L81.6460938,27.8193359 C81.5648438,27.8498047 81.472168,27.8751953 81.3680664,27.8955078 C81.2639648,27.9158203 81.16875,27.9259766 81.0824219,27.9259766 C80.8183594,27.9259766 80.6063477,27.8472656 80.4463867,27.6898438 C80.2864258,27.5324219 80.2064453,27.2607422 80.2064453,26.8748047 L80.2064453,26.8748047 L80.2064453,21.8703125 L81.7679688,21.8703125 L81.7679688,20.7582031 L80.2064453,20.7582031 L80.2064453,18.7701172 L78.7058594,18.7701172 L78.7058594,20.7582031 L77.3957031,20.7582031 L77.3957031,21.8703125 L78.7058594,21.8703125 L78.7058594,26.8748047 C78.7058594,27.6619141 78.8861328,28.2395508 79.2466797,28.6077148 C79.6072266,28.9758789 80.0921875,29.1599609 80.7015625,29.1599609 Z M87.0390625,29.1599609 C87.7246094,29.1599609 88.3085938,29.0634766 88.7910156,28.8705078 C89.2734375,28.6775391 89.6619141,28.4363281 89.9564453,28.146875 L89.9564453,28.146875 L89.3699219,27.171875 C89.090625,27.4257812 88.7592773,27.6250977 88.3758789,27.7698242 C87.9924805,27.9145508 87.546875,27.9869141 87.0390625,27.9869141 C86.3433594,27.9869141 85.8025391,27.7317383 85.4166016,27.2213867 C85.0306641,26.7110352 84.8300781,26.0597656 84.8148438,25.2675781 L84.8148438,25.2675781 L84.8376953,25.2294922 L90.1849609,25.2294922 L90.1849609,24.2925781 C90.1849609,23.1753906 89.9005859,22.2816406 89.3318359,21.6113281 C88.7630859,20.9410156 87.9226563,20.6058594 86.8105469,20.6058594 C85.8558594,20.6058594 85.0293945,20.9956055 84.3311523,21.7750977 C83.6329102,22.5545898 83.2837891,23.5308594 83.2837891,24.7039062 L83.2837891,24.7039062 L83.2837891,25.0390625 C83.2837891,26.2578125 83.6227539,27.2493164 84.3006836,28.0135742 C84.9786133,28.777832 85.8914063,29.1599609 87.0390625,29.1599609 Z M88.684375,24.0564453 L84.8833984,24.0564453 L84.8681641,24.0183594 C84.9494141,23.3785156 85.1677734,22.846582 85.5232422,22.4225586 C85.8787109,21.9985352 86.3078125,21.7865234 86.8105469,21.7865234 C87.4300781,21.7865234 87.8972656,21.9845703 88.2121094,22.3806641 C88.5269531,22.7767578 88.684375,23.2693359 88.684375,23.8583984 L88.684375,23.8583984 L88.684375,24.0564453 Z M93.5060547,29 L93.5060547,27.4613281 L92.0054688,27.4613281 L92.0054688,29 L93.5060547,29 Z M99.3941406,29.1599609 C100.267578,29.1599609 101.033105,28.8844727 101.690723,28.3334961 C102.34834,27.7825195 102.664453,27.1515625 102.639062,26.440625 L102.639062,26.440625 L102.623828,26.3949219 L101.275586,26.3949219 C101.275586,26.8417969 101.086426,27.2188477 100.708105,27.5260742 C100.329785,27.8333008 99.8917969,27.9869141 99.3941406,27.9869141 C98.6019531,27.9869141 98.0382812,27.7063477 97.703125,27.1452148 C97.3679687,26.584082 97.2003906,25.8820312 97.2003906,25.0390625 L97.2003906,25.0390625 L97.2003906,24.7191406 C97.2003906,23.8964844 97.3692383,23.2020508 97.7069336,22.6358398 C98.0446289,22.0696289 98.6070312,21.7865234 99.3941406,21.7865234 C99.9375,21.7865234 100.386914,21.9629883 100.742383,22.315918 C101.097852,22.6688477 101.275586,23.0966797 101.275586,23.5994141 L101.275586,23.5994141 L102.631445,23.5994141 L102.64668,23.5537109 C102.666992,22.7259766 102.371191,22.0277344 101.759277,21.4589844 C101.147363,20.8902344 100.358984,20.6058594 99.3941406,20.6058594 C98.2007812,20.6058594 97.2854492,20.9981445 96.6481445,21.7827148 C96.0108398,22.5672852 95.6921875,23.5460937 95.6921875,24.7191406 L95.6921875,24.7191406 L95.6921875,25.0390625 C95.6921875,26.2222656 96.0095703,27.2048828 96.6443359,27.9869141 C97.2791016,28.7689453 98.1957031,29.1599609 99.3941406,29.1599609 Z M107.666406,29.1599609 C108.803906,29.1599609 109.702734,28.7689453 110.362891,27.9869141 C111.023047,27.2048828 111.353125,26.1994141 111.353125,24.9705078 L111.353125,24.9705078 L111.353125,24.8029297 C111.353125,23.5791016 111.021777,22.5736328 110.359082,21.7865234 C109.696387,20.9994141 108.79375,20.6058594 107.651172,20.6058594 C106.51875,20.6058594 105.622461,21.0006836 104.962305,21.790332 C104.302148,22.5799805 103.97207,23.5841797 103.97207,24.8029297 L103.97207,24.8029297 L103.97207,24.9705078 C103.97207,26.1943359 104.303418,27.1985352 104.966113,27.9831055 C105.628809,28.7676758 106.528906,29.1599609 107.666406,29.1599609 Z M107.666406,27.9869141 C106.940234,27.9869141 106.393066,27.7025391 106.024902,27.1337891 C105.656738,26.5650391 105.472656,25.8439453 105.472656,24.9705078 L105.472656,24.9705078 L105.472656,24.8029297 C105.472656,23.9396484 105.656738,23.2210938 106.024902,22.6472656 C106.393066,22.0734375 106.935156,21.7865234 107.651172,21.7865234 C108.372266,21.7865234 108.919434,22.0734375 109.292676,22.6472656 C109.665918,23.2210938 109.852539,23.9396484 109.852539,24.8029297 L109.852539,24.8029297 L109.852539,24.9705078 C109.852539,25.8439453 109.667187,26.5650391 109.296484,27.1337891 C108.925781,27.7025391 108.382422,27.9869141 107.666406,27.9869141 Z M114.689453,29 L114.689453,22.8986328 C114.846875,22.5583984 115.072852,22.2943359 115.367383,22.1064453 C115.661914,21.9185547 116.037695,21.8246094 116.494727,21.8246094 C117.033008,21.8246094 117.445605,22.0036133 117.73252,22.3616211 C118.019434,22.7196289 118.162891,23.2845703 118.162891,24.0564453 L118.162891,24.0564453 L118.162891,29 L119.671094,29 L119.671094,23.7060547 C119.726953,23.1626953 119.913574,22.7132813 120.230957,22.3578125 C120.54834,22.0023438 120.963477,21.8246094 121.476367,21.8246094 C122.029883,21.8246094 122.446289,21.993457 122.725586,22.3311523 C123.004883,22.6688477 123.144531,23.2439453 123.144531,24.0564453 L123.144531,24.0564453 L123.144531,29 L124.645117,29 L124.645117,24.0716797 C124.645117,22.9138672 124.401367,22.0467773 123.913867,21.4704102 C123.426367,20.894043 122.763672,20.6058594 121.925781,20.6058594 C121.357031,20.6058594 120.859375,20.7429687 120.432812,21.0171875 C120.00625,21.2914062 119.663477,21.6621094 119.404492,22.1292969 C119.206445,21.6214844 118.910645,21.240625 118.51709,20.9867188 C118.123535,20.7328125 117.652539,20.6058594 117.104102,20.6058594 C116.555664,20.6058594 116.074512,20.7137695 115.660645,20.9295898 C115.246777,21.1454102 114.905273,21.4488281 114.636133,21.8398438 L114.636133,21.8398438 L114.529492,20.7582031 L113.188867,20.7582031 L113.188867,29 L114.689453,29 Z" id="yourwebsite.com" fill="#3C3845" fill-rule="nonzero"></path>
                        <circle id="Oval" stroke="#0042FF" stroke-width="1.872" fill-opacity="0" fill="#FFFFFF" cx="419.25" cy="24.05" r="11.05"></circle>
                        <path d="M419.451309,30.4958333 C417.27502,30.4958333 415.236263,29.5084606 413.388398,27.5606382 L412.804167,26.9449203 L413.962727,25.7006083 L414.547508,26.3169115 C416.086203,27.9393164 417.736024,28.7721744 419.489817,28.7446661 C422.506144,28.7241812 424.843069,26.233216 424.866724,26.2074635 L425.442153,25.5847222 L426.616667,26.8062082 L426.043438,27.4312906 C425.930113,27.5553707 423.224055,30.4618869 419.516773,30.4958333 C419.495318,30.4958333 419.473313,30.4958333 419.451309,30.4958333" id="Fill-1" fill="#0042FF"></path>
                        <polygon id="Fill-4" fill="#0042FF" points="419.134896 25.5847222 419.134896 19.9099303 419.134896 17.6041667 417.408333 17.6041667 417.408333 19.9099303 417.408333 25.5847222"></polygon>
                        <polygon id="Fill-6" fill="#0042FF" points="422.0125 25.5847222 422.0125 19.9099303 422.0125 17.6041667 420.285937 17.6041667 420.285937 19.9099303 420.285937 25.5847222"></polygon>
                        <rect id="Rectangle" fill="#AEB3B9" x="444.6" y="15.6" width="18.2" height="4.33333333" rx="2.08"></rect>
                        <rect id="Rectangle" fill="#AEB3B9" x="444.6" y="22.5333333" width="18.2" height="4.33333333" rx="2.08"></rect>
                        <rect id="Rectangle" fill="#AEB3B9" x="444.6" y="29.4666667" width="18.2" height="4.33333333" rx="2.08"></rect>
                        <ellipse id="Oval" stroke="#0042FF" stroke-width="5.2" fill-opacity="0" fill="#D8D8D8" cx="419.25" cy="25.35" rx="25.35" ry="24.7"></ellipse>
                    </g>
                    <g id="Group-6" transform="translate(412.200000, 17.000000)">
                        <g id="Group" transform="translate(0.604167, 0.604167)"></g>
                    </g>
                    <g id="Group-13" transform="translate(444.600000, 15.600000)"></g>
                </g>
            </g>
        </g>
    </g>
</svg>