<svg xmlns="http://www.w3.org/2000/svg" viewBox="4296.892 371.592 25 18.932">
  <defs>
    <style>
      .cls-1 {
        fill: #ffbc00;
      }
    </style>
  </defs>
  <g id="Group_431" data-name="Group 431" transform="translate(4296.892 371.592)">
    <path id="Path_914" data-name="Path 914" class="cls-1" d="M22.729,28.781,4,30.84a1.51,1.51,0,0,1-1.13-2.511C6.308,24.412,13.489,15.9,20.143,15.9a7.263,7.263,0,0,1,3.892,1.13c4.118,2.586,2.837,7.231,1.657,9.817A3.3,3.3,0,0,1,22.729,28.781Z" transform="translate(-1.853 -11.908)"/>
    <path id="Path_915" data-name="Path 915" class="cls-1" d="M18.221,1.984h0C11.14,1.984,4.135,9.742.193,14.237a1.485,1.485,0,0,1,.151-1.808C3.783,8.512,10.964,0,17.618,0A7.263,7.263,0,0,1,21.51,1.13a5.982,5.982,0,0,1,2.41,2.787,7.11,7.11,0,0,0-.7-.5,9.377,9.377,0,0,0-5-1.431" transform="translate(0.045)"/>
  </g>
</svg>
