<svg xmlns="http://www.w3.org/2000/svg" viewBox="0 0 1176 153"><defs><linearGradient id="a" x1="91.87%" x2="28.26%" y1="40.33%" y2="81.66%"><stop offset="18%" stop-color="#0052CC"/><stop offset="100%" stop-color="#2684FF"/></linearGradient><linearGradient id="b" x1="3878%" x2="5439%" y1="2561.07%" y2="1905.37%"><stop offset="18%" stop-color="#0052CC"/><stop offset="100%" stop-color="#2684FF"/></linearGradient></defs><g fill="none"><path fill="#253858" d="M220.06 18.12H236v80.93c0 21.44-9.39 36.23-31.38 36.23-6.5.1-12.97-.92-19.13-3.02v-15.5a44.7 44.7 0 0 0 16.47 3.02c13.48 0 18.13-8.05 18.13-19.67l-.04-82zm45-6.22a9.95 9.95 0 0 1 10.64 10.63 10.63 10.63 0 0 1-21.27 0 9.94 9.94 0 0 1 10.63-10.63zm-7.79 34.02h15.24v88.58h-15.24V45.92zm38.26-.02h14.88v15.58c5.14-10.45 14.1-17.9 31.38-16.83v14.88c-19.5-2.01-31.38 3.9-31.38 22.67v52.34h-14.88V45.9zm117.66 72.63c-5.68 11.7-16.31 17.72-29.94 17.72-23.56 0-35.44-20.01-35.44-46.06 0-24.98 12.4-46.06 37.2-46.06 12.94 0 22.86 5.84 28.2 17.35V45.9h15.24v88.58h-15.24l-.02-15.95zm-25.88 3.55c13.66 0 25.88-8.68 25.88-28.35v-7.16c0-19.67-11.16-28.35-24.16-28.35-17.2 0-26.06 11.33-26.06 31.89.08 21.34 8.58 31.97 24.36 31.97h-.02zm131.32 14.17c-22.52 0-32.97-4.43-42-9.04v-16.28c10.8 5.67 27.46 9.74 42.86 9.74 17.54 0 24.17-6.9 24.17-17.2 0-10.28-6.39-15.76-28.54-21.07-26.17-6.38-37.91-15.42-37.91-34.55 0-18.12 13.81-31.52 40.93-31.52 16.84 0 27.65 4.02 35.63 8.5v15.94a71.54 71.54 0 0 0-36.25-8.86c-15.24 0-24.28 5.31-24.28 15.94 0 9.57 7.45 14.36 27.99 19.49 24.62 6.2 38.46 14.1 38.46 35.07-.12 20.2-12.17 33.84-41.06 33.84zm54.4-46.24c0-26.58 15.6-45.88 42.18-45.88s41.82 19.3 41.82 45.88c0 26.57-15.43 46.3-41.82 46.3-26.4 0-42.17-19.73-42.17-46.3zm14.89 0c0 16.83 8.34 32.07 27.29 32.07 18.94 0 26.94-15.24 26.94-32.07s-8.16-31.63-26.94-31.63c-18.8 0-27.21 14.8-27.21 31.63h-.08zM695.83 45.9h22.86V60h-22.86v74.48h-14.88V59.99h-14.42V45.9h14.36v-9.66c0-16.47 9.22-27.64 28.2-27.64 3.47-.02 6.92.45 10.26 1.4v14.1c-3.15-.6-6.35-.9-9.56-.89-9.39 0-14.1 5.5-14.1 13.47l.14 9.22zm74.43 73.7c3.22-.1 6.43-.51 9.56-1.25v14.7c-3.33.95-6.8 1.43-10.26 1.4-18.97 0-28.2-11.14-28.2-27.63V60.07h-14.41V45.98h14.35V27.12h14.88V45.9h23.56V60h-23.56v46.5c.08 7.79 4.7 13.1 14.08 13.1z"/><polygon fill="#253858" points="784.094 45.9 800.928 45.9 826.442 121.011 852.298 45.9 866.837 45.9 892.713 121.011 918.247 45.9 935.081 45.9 902.479 134.479 882.987 134.479 867.743 91.619 859.688 64.341 851.633 91.619 836.188 134.479 816.696 134.479"/><path fill="#253858" d="M1004.7 118.53c-5.68 11.7-16.32 17.72-29.95 17.72-23.56 0-35.44-20.01-35.44-46.06 0-24.98 12.4-46.06 37.21-46.06 12.93 0 22.86 5.84 28.2 17.35V45.9h15.24v88.58h-15.25l-.02-15.95zm-25.88 3.55c13.65 0 25.87-8.68 25.87-28.35v-7.16c0-19.67-11.15-28.35-24.16-28.35-17.12.16-26.04 11.42-26.04 31.97 0 21.26 8.56 31.89 24.35 31.89h-.02zm64.16-76.18h14.88v15.58c5.13-10.45 14.1-17.9 31.37-16.83v14.88c-19.5-2.01-31.37 3.9-31.37 22.67v52.34h-14.88V45.9zm99.93 90.35c-33.14 0-47.66-19.12-47.66-46.3 0-26.76 14.88-45.88 41.83-45.88 27.28 0 38.26 18.96 38.26 45.88v6.9h-64.66c2.13 15.06 11.88 24.8 32.78 24.8 9.2 0 18.31-1.62 26.94-4.79v14.1c-7.27 3.92-18.44 5.3-27.49 5.3zm-32.42-52.34h49.4c-.89-16.47-8.34-25.87-23.56-25.87-16.09-.08-24.24 10.4-25.84 25.77v.1z"/><path fill="#2684FF" d="M145.8 72L80.14 6.35 73.78 0 24.37 49.4 1.77 72a6.04 6.04 0 0 0 0 8.53l45.15 45.13 26.86 26.86 49.42-49.4.76-.77 21.83-21.82a6.04 6.04 0 0 0 0-8.54zM73.77 98.8L51.23 76.27 73.78 53.7l22.56 22.55L73.78 98.8z"/><path fill="url(#a)" d="M73.78 53.71A37.96 37.96 0 0 1 73.62.18L24.27 49.5l26.86 26.86L73.78 53.7z"/><path fill="url(#b)" d="M96.4 76.2L73.78 98.8a37.96 37.96 0 0 1 0 53.72l49.48-49.47L96.4 76.2z"/></g></svg>