<?xml version="1.0" encoding="UTF-8"?>
<svg width="452px" height="397px" viewBox="0 0 452 397" version="1.1" xmlns="http://www.w3.org/2000/svg" xmlns:xlink="http://www.w3.org/1999/xlink">
    <!-- Generator: Sketch 53 (72520) - https://sketchapp.com -->
    <title>Group 12</title>
    <desc>Created with Sketch.</desc>
    <defs>
        <linearGradient x1="50%" y1="0%" x2="50%" y2="100%" id="linearGradient-1">
            <stop stop-color="#0042FF" offset="0%"></stop>
            <stop stop-color="#00ADFF" offset="100%"></stop>
        </linearGradient>
        <rect id="path-2" x="0" y="0" width="450" height="395"></rect>
        <filter x="-0.4%" y="-0.3%" width="100.9%" height="101.0%" filterUnits="objectBoundingBox" id="filter-4">
            <feOffset dx="0" dy="1" in="SourceAlpha" result="shadowOffsetOuter1"></feOffset>
            <feGaussianBlur stdDeviation="0.5" in="shadowOffsetOuter1" result="shadowBlurOuter1"></feGaussianBlur>
            <feColorMatrix values="0 0 0 0 0   0 0 0 0 0   0 0 0 0 0  0 0 0 0.0617357337 0" type="matrix" in="shadowBlurOuter1"></feColorMatrix>
        </filter>
        <linearGradient x1="50%" y1="0%" x2="50%" y2="100%" id="linearGradient-5">
            <stop stop-color="#0042FF" offset="0%"></stop>
            <stop stop-color="#00ADFF" offset="100%"></stop>
        </linearGradient>
        <filter x="-1.0%" y="-7.8%" width="102.0%" height="116.6%" filterUnits="objectBoundingBox" id="filter-6">
            <feOffset dx="0" dy="2" in="SourceAlpha" result="shadowOffsetOuter1"></feOffset>
            <feGaussianBlur stdDeviation="1" in="shadowOffsetOuter1" result="shadowBlurOuter1"></feGaussianBlur>
            <feComposite in="shadowBlurOuter1" in2="SourceAlpha" operator="out" result="shadowBlurOuter1"></feComposite>
            <feColorMatrix values="0 0 0 0 0   0 0 0 0 0   0 0 0 0 0  0 0 0 0.0617357337 0" type="matrix" in="shadowBlurOuter1" result="shadowMatrixOuter1"></feColorMatrix>
            <feMerge>
                <feMergeNode in="shadowMatrixOuter1"></feMergeNode>
                <feMergeNode in="SourceGraphic"></feMergeNode>
            </feMerge>
        </filter>
        <filter x="-1.0%" y="-7.8%" width="102.0%" height="116.6%" filterUnits="objectBoundingBox" id="filter-7">
            <feOffset dx="0" dy="2" in="SourceAlpha" result="shadowOffsetOuter1"></feOffset>
            <feGaussianBlur stdDeviation="1" in="shadowOffsetOuter1" result="shadowBlurOuter1"></feGaussianBlur>
            <feComposite in="shadowBlurOuter1" in2="SourceAlpha" operator="out" result="shadowBlurOuter1"></feComposite>
            <feColorMatrix values="0 0 0 0 0   0 0 0 0 0   0 0 0 0 0  0 0 0 0.0617357337 0" type="matrix" in="shadowBlurOuter1" result="shadowMatrixOuter1"></feColorMatrix>
            <feMerge>
                <feMergeNode in="shadowMatrixOuter1"></feMergeNode>
                <feMergeNode in="SourceGraphic"></feMergeNode>
            </feMerge>
        </filter>
        <filter x="-1.0%" y="-7.8%" width="102.0%" height="116.6%" filterUnits="objectBoundingBox" id="filter-8">
            <feOffset dx="0" dy="2" in="SourceAlpha" result="shadowOffsetOuter1"></feOffset>
            <feGaussianBlur stdDeviation="1" in="shadowOffsetOuter1" result="shadowBlurOuter1"></feGaussianBlur>
            <feComposite in="shadowBlurOuter1" in2="SourceAlpha" operator="out" result="shadowBlurOuter1"></feComposite>
            <feColorMatrix values="0 0 0 0 0   0 0 0 0 0   0 0 0 0 0  0 0 0 0.0617357337 0" type="matrix" in="shadowBlurOuter1" result="shadowMatrixOuter1"></feColorMatrix>
            <feMerge>
                <feMergeNode in="shadowMatrixOuter1"></feMergeNode>
                <feMergeNode in="SourceGraphic"></feMergeNode>
            </feMerge>
        </filter>
        <filter x="-1.0%" y="-7.8%" width="102.0%" height="116.6%" filterUnits="objectBoundingBox" id="filter-9">
            <feOffset dx="0" dy="2" in="SourceAlpha" result="shadowOffsetOuter1"></feOffset>
            <feGaussianBlur stdDeviation="1" in="shadowOffsetOuter1" result="shadowBlurOuter1"></feGaussianBlur>
            <feComposite in="shadowBlurOuter1" in2="SourceAlpha" operator="out" result="shadowBlurOuter1"></feComposite>
            <feColorMatrix values="0 0 0 0 0   0 0 0 0 0   0 0 0 0 0  0 0 0 0.0617357337 0" type="matrix" in="shadowBlurOuter1" result="shadowMatrixOuter1"></feColorMatrix>
            <feMerge>
                <feMergeNode in="shadowMatrixOuter1"></feMergeNode>
                <feMergeNode in="SourceGraphic"></feMergeNode>
            </feMerge>
        </filter>
    </defs>
    <g id="Products" stroke="none" stroke-width="1" fill="none" fill-rule="evenodd">
        <g id="Group-12" transform="translate(1.000000, 0.000000)">
            <mask id="mask-3" fill="white">
                <use xlink:href="#path-2"></use>
            </mask>
            <g id="Mask">
                <use fill="black" fill-opacity="1" filter="url(#filter-4)" xlink:href="#path-2"></use>
                <use fill="url(#linearGradient-1)" fill-rule="evenodd" xlink:href="#path-2"></use>
            </g>
            <g opacity="0.0651506696" mask="url(#mask-3)" id="Group-10">
                <g transform="translate(-243.000000, -109.000000)">
                    <g filter="url(#filter-6)" transform="translate(74.336735, 117.640919)">
                        <g id="Group-9">
                            <g id="Group-5"></g>
                            <g id="Group-5" transform="translate(167.857143, 0.000000)" fill="#FFFFFF">
                                <path d="M53.8201142,39.0313276 C36.1992939,39.0313276 19.6920239,31.1841283 4.73036177,15.7037018 L0,10.8102497 L9.38054792,0.921010948 L14.1153639,5.81911463 C26.5737649,18.7132679 39.9319146,25.3324526 54.1319083,25.1138288 C78.554294,24.9510239 97.4757411,5.15394005 97.6672718,4.94927095 L102.326366,0 L111.836086,9.70782752 L107.194808,14.6757047 C106.277243,15.6618377 84.3670267,38.7615365 54.3501642,39.0313276 C54.1764503,39.0313276 53.9982823,39.0313276 53.8201142,39.0313276" id="Fill-1" transform="translate(55.918043, 19.515664) scale(1, -1) translate(-55.918043, -19.515664) "></path>
                                <path d="M109.572665,101.453039 C91.9518449,101.453039 75.4445749,93.6058402 60.4829128,78.1254137 L55.752551,73.2319616 L65.1330989,63.3427228 L69.8679149,68.2408265 C82.3263159,81.1349798 95.6844656,87.7541645 109.884459,87.5355407 C134.306845,87.3727358 153.228292,67.575652 153.419823,67.3709829 L158.078917,62.4217119 L167.588637,72.1295394 L162.947359,77.0974166 C162.029794,78.0835496 140.119578,101.183248 110.102715,101.453039 C109.929001,101.453039 109.750833,101.453039 109.572665,101.453039" id="Fill-1"></path>
                            </g>
                        </g>
                        <g id="Group-9" transform="translate(335.714286, 0.000000)" fill="#FFFFFF">
                            <g id="Group-5">
                                <path d="M53.8201142,39.0313276 C36.1992939,39.0313276 19.6920239,31.1841283 4.73036177,15.7037018 L0,10.8102497 L9.38054792,0.921010948 L14.1153639,5.81911463 C26.5737649,18.7132679 39.9319146,25.3324526 54.1319083,25.1138288 C78.554294,24.9510239 97.4757411,5.15394005 97.6672718,4.94927095 L102.326366,0 L111.836086,9.70782752 L107.194808,14.6757047 C106.277243,15.6618377 84.3670267,38.7615365 54.3501642,39.0313276 C54.1764503,39.0313276 53.9982823,39.0313276 53.8201142,39.0313276" id="Fill-1" transform="translate(55.918043, 19.515664) scale(1, -1) translate(-55.918043, -19.515664) "></path>
                                <path d="M109.572665,101.453039 C91.9518449,101.453039 75.4445749,93.6058402 60.4829128,78.1254137 L55.752551,73.2319616 L65.1330989,63.3427228 L69.8679149,68.2408265 C82.3263159,81.1349798 95.6844656,87.7541645 109.884459,87.5355407 C134.306845,87.3727358 153.228292,67.575652 153.419823,67.3709829 L158.078917,62.4217119 L167.588637,72.1295394 L162.947359,77.0974166 C162.029794,78.0835496 140.119578,101.183248 110.102715,101.453039 C109.929001,101.453039 109.750833,101.453039 109.572665,101.453039" id="Fill-1"></path>
                            </g>
                            <g id="Group-5" transform="translate(167.857143, 0.000000)">
                                <path d="M53.8201142,39.0313276 C36.1992939,39.0313276 19.6920239,31.1841283 4.73036177,15.7037018 L0,10.8102497 L9.38054792,0.921010948 L14.1153639,5.81911463 C26.5737649,18.7132679 39.9319146,25.3324526 54.1319083,25.1138288 C78.554294,24.9510239 97.4757411,5.15394005 97.6672718,4.94927095 L102.326366,0 L111.836086,9.70782752 L107.194808,14.6757047 C106.277243,15.6618377 84.3670267,38.7615365 54.3501642,39.0313276 C54.1764503,39.0313276 53.9982823,39.0313276 53.8201142,39.0313276" id="Fill-1" transform="translate(55.918043, 19.515664) scale(1, -1) translate(-55.918043, -19.515664) "></path>
                                <path d="M109.572665,101.453039 C91.9518449,101.453039 75.4445749,93.6058402 60.4829128,78.1254137 L55.752551,73.2319616 L65.1330989,63.3427228 L69.8679149,68.2408265 C82.3263159,81.1349798 95.6844656,87.7541645 109.884459,87.5355407 C134.306845,87.3727358 153.228292,67.575652 153.419823,67.3709829 L158.078917,62.4217119 L167.588637,72.1295394 L162.947359,77.0974166 C162.029794,78.0835496 140.119578,101.183248 110.102715,101.453039 C109.929001,101.453039 109.750833,101.453039 109.572665,101.453039" id="Fill-1"></path>
                            </g>
                        </g>
                    </g>
                    <g filter="url(#filter-7)" transform="translate(44.362245, 236.482255)">
                        <g id="Group-9" fill="#FFFFFF">
                            <g id="Group-5" transform="translate(167.857143, 0.000000)">
                                <path d="M53.8201142,39.0313276 C36.1992939,39.0313276 19.6920239,31.1841283 4.73036177,15.7037018 L0,10.8102497 L9.38054792,0.921010948 L14.1153639,5.81911463 C26.5737649,18.7132679 39.9319146,25.3324526 54.1319083,25.1138288 C78.554294,24.9510239 97.4757411,5.15394005 97.6672718,4.94927095 L102.326366,0 L111.836086,9.70782752 L107.194808,14.6757047 C106.277243,15.6618377 84.3670267,38.7615365 54.3501642,39.0313276 C54.1764503,39.0313276 53.9982823,39.0313276 53.8201142,39.0313276" id="Fill-1" transform="translate(55.918043, 19.515664) scale(1, -1) translate(-55.918043, -19.515664) "></path>
                                <path d="M109.572665,101.453039 C91.9518449,101.453039 75.4445749,93.6058402 60.4829128,78.1254137 L55.752551,73.2319616 L65.1330989,63.3427228 L69.8679149,68.2408265 C82.3263159,81.1349798 95.6844656,87.7541645 109.884459,87.5355407 C134.306845,87.3727358 153.228292,67.575652 153.419823,67.3709829 L158.078917,62.4217119 L167.588637,72.1295394 L162.947359,77.0974166 C162.029794,78.0835496 140.119578,101.183248 110.102715,101.453039 C109.929001,101.453039 109.750833,101.453039 109.572665,101.453039" id="Fill-1"></path>
                            </g>
                        </g>
                        <g id="Group-9" transform="translate(335.714286, 0.000000)" fill="#FFFFFF">
                            <g id="Group-5">
                                <path d="M53.8201142,39.0313276 C36.1992939,39.0313276 19.6920239,31.1841283 4.73036177,15.7037018 L0,10.8102497 L9.38054792,0.921010948 L14.1153639,5.81911463 C26.5737649,18.7132679 39.9319146,25.3324526 54.1319083,25.1138288 C78.554294,24.9510239 97.4757411,5.15394005 97.6672718,4.94927095 L102.326366,0 L111.836086,9.70782752 L107.194808,14.6757047 C106.277243,15.6618377 84.3670267,38.7615365 54.3501642,39.0313276 C54.1764503,39.0313276 53.9982823,39.0313276 53.8201142,39.0313276" id="Fill-1" transform="translate(55.918043, 19.515664) scale(1, -1) translate(-55.918043, -19.515664) "></path>
                                <path d="M109.572665,101.453039 C91.9518449,101.453039 75.4445749,93.6058402 60.4829128,78.1254137 L55.752551,73.2319616 L65.1330989,63.3427228 L69.8679149,68.2408265 C82.3263159,81.1349798 95.6844656,87.7541645 109.884459,87.5355407 C134.306845,87.3727358 153.228292,67.575652 153.419823,67.3709829 L158.078917,62.4217119 L167.588637,72.1295394 L162.947359,77.0974166 C162.029794,78.0835496 140.119578,101.183248 110.102715,101.453039 C109.929001,101.453039 109.750833,101.453039 109.572665,101.453039" id="Fill-1"></path>
                            </g>
                            <g id="Group-5" transform="translate(167.857143, 0.000000)">
                                <path d="M53.8201142,39.0313276 C36.1992939,39.0313276 19.6920239,31.1841283 4.73036177,15.7037018 L0,10.8102497 L9.38054792,0.921010948 L14.1153639,5.81911463 C26.5737649,18.7132679 39.9319146,25.3324526 54.1319083,25.1138288 C78.554294,24.9510239 97.4757411,5.15394005 97.6672718,4.94927095 L102.326366,0 L111.836086,9.70782752 L107.194808,14.6757047 C106.277243,15.6618377 84.3670267,38.7615365 54.3501642,39.0313276 C54.1764503,39.0313276 53.9982823,39.0313276 53.8201142,39.0313276" id="Fill-1" transform="translate(55.918043, 19.515664) scale(1, -1) translate(-55.918043, -19.515664) "></path>
                                <path d="M109.572665,101.453039 C91.9518449,101.453039 75.4445749,93.6058402 60.4829128,78.1254137 L55.752551,73.2319616 L65.1330989,63.3427228 L69.8679149,68.2408265 C82.3263159,81.1349798 95.6844656,87.7541645 109.884459,87.5355407 C134.306845,87.3727358 153.228292,67.575652 153.419823,67.3709829 L158.078917,62.4217119 L167.588637,72.1295394 L162.947359,77.0974166 C162.029794,78.0835496 140.119578,101.183248 110.102715,101.453039 C109.929001,101.453039 109.750833,101.453039 109.572665,101.453039" id="Fill-1"></path>
                            </g>
                        </g>
                    </g>
                    <g filter="url(#filter-8)" transform="translate(0.000000, 472.964509)">
                        <g id="Group-9" fill="#FFFFFF">
                            <g id="Group-5" transform="translate(167.857143, 0.000000)">
                                <path d="M53.8201142,39.0313276 C36.1992939,39.0313276 19.6920239,31.1841283 4.73036177,15.7037018 L0,10.8102497 L9.38054792,0.921010948 L14.1153639,5.81911463 C26.5737649,18.7132679 39.9319146,25.3324526 54.1319083,25.1138288 C78.554294,24.9510239 97.4757411,5.15394005 97.6672718,4.94927095 L102.326366,0 L111.836086,9.70782752 L107.194808,14.6757047 C106.277243,15.6618377 84.3670267,38.7615365 54.3501642,39.0313276 C54.1764503,39.0313276 53.9982823,39.0313276 53.8201142,39.0313276" id="Fill-1" transform="translate(55.918043, 19.515664) scale(1, -1) translate(-55.918043, -19.515664) "></path>
                            </g>
                        </g>
                        <g id="Group-9" transform="translate(335.714286, 0.000000)" fill="#FFFFFF">
                            <g id="Group-5">
                                <path d="M53.8201142,39.0313276 C36.1992939,39.0313276 19.6920239,31.1841283 4.73036177,15.7037018 L0,10.8102497 L9.38054792,0.921010948 L14.1153639,5.81911463 C26.5737649,18.7132679 39.9319146,25.3324526 54.1319083,25.1138288 C78.554294,24.9510239 97.4757411,5.15394005 97.6672718,4.94927095 L102.326366,0 L111.836086,9.70782752 L107.194808,14.6757047 C106.277243,15.6618377 84.3670267,38.7615365 54.3501642,39.0313276 C54.1764503,39.0313276 53.9982823,39.0313276 53.8201142,39.0313276" id="Fill-1" transform="translate(55.918043, 19.515664) scale(1, -1) translate(-55.918043, -19.515664) "></path>
                            </g>
                            <g id="Group-5" transform="translate(167.857143, 0.000000)">
                                <path d="M53.8201142,39.0313276 C36.1992939,39.0313276 19.6920239,31.1841283 4.73036177,15.7037018 L0,10.8102497 L9.38054792,0.921010948 L14.1153639,5.81911463 C26.5737649,18.7132679 39.9319146,25.3324526 54.1319083,25.1138288 C78.554294,24.9510239 97.4757411,5.15394005 97.6672718,4.94927095 L102.326366,0 L111.836086,9.70782752 L107.194808,14.6757047 C106.277243,15.6618377 84.3670267,38.7615365 54.3501642,39.0313276 C54.1764503,39.0313276 53.9982823,39.0313276 53.8201142,39.0313276" id="Fill-1" transform="translate(55.918043, 19.515664) scale(1, -1) translate(-55.918043, -19.515664) "></path>
                                <path d="M221.677257,39.0313276 C204.056437,39.0313276 187.549167,31.1841283 172.587505,15.7037018 L167.857143,10.8102497 L177.237691,0.921010948 L181.972507,5.81911463 C194.430908,18.7132679 207.789057,25.3324526 221.989051,25.1138288 C246.411437,24.9510239 265.332884,5.15394005 265.524415,4.94927095 L270.183509,4.26325641e-14 L279.693229,9.70782752 L275.051951,14.6757047 C274.134386,15.6618377 252.22417,38.7615365 222.207307,39.0313276 C222.033593,39.0313276 221.855425,39.0313276 221.677257,39.0313276" id="Fill-1" transform="translate(223.775186, 19.515664) scale(1, -1) translate(-223.775186, -19.515664) "></path>
                            </g>
                        </g>
                    </g>
                    <g filter="url(#filter-9)" transform="translate(17.984694, 354.123173)">
                        <g id="Group-9" fill="#FFFFFF">
                            <g id="Group-5" transform="translate(167.857143, 0.000000)">
                                <path d="M53.8201142,39.0313276 C36.1992939,39.0313276 19.6920239,31.1841283 4.73036177,15.7037018 L0,10.8102497 L9.38054792,0.921010948 L14.1153639,5.81911463 C26.5737649,18.7132679 39.9319146,25.3324526 54.1319083,25.1138288 C78.554294,24.9510239 97.4757411,5.15394005 97.6672718,4.94927095 L102.326366,0 L111.836086,9.70782752 L107.194808,14.6757047 C106.277243,15.6618377 84.3670267,38.7615365 54.3501642,39.0313276 C54.1764503,39.0313276 53.9982823,39.0313276 53.8201142,39.0313276" id="Fill-1" transform="translate(55.918043, 19.515664) scale(1, -1) translate(-55.918043, -19.515664) "></path>
                                <path d="M109.572665,101.453039 C91.9518449,101.453039 75.4445749,93.6058402 60.4829128,78.1254137 L55.752551,73.2319616 L65.1330989,63.3427228 L69.8679149,68.2408265 C82.3263159,81.1349798 95.6844656,87.7541645 109.884459,87.5355407 C134.306845,87.3727358 153.228292,67.575652 153.419823,67.3709829 L158.078917,62.4217119 L167.588637,72.1295394 L162.947359,77.0974166 C162.029794,78.0835496 140.119578,101.183248 110.102715,101.453039 C109.929001,101.453039 109.750833,101.453039 109.572665,101.453039" id="Fill-1"></path>
                            </g>
                        </g>
                        <g id="Group-9" transform="translate(335.714286, 0.000000)" fill="#FFFFFF">
                            <g id="Group-5">
                                <path d="M53.8201142,39.0313276 C36.1992939,39.0313276 19.6920239,31.1841283 4.73036177,15.7037018 L0,10.8102497 L9.38054792,0.921010948 L14.1153639,5.81911463 C26.5737649,18.7132679 39.9319146,25.3324526 54.1319083,25.1138288 C78.554294,24.9510239 97.4757411,5.15394005 97.6672718,4.94927095 L102.326366,0 L111.836086,9.70782752 L107.194808,14.6757047 C106.277243,15.6618377 84.3670267,38.7615365 54.3501642,39.0313276 C54.1764503,39.0313276 53.9982823,39.0313276 53.8201142,39.0313276" id="Fill-1" transform="translate(55.918043, 19.515664) scale(1, -1) translate(-55.918043, -19.515664) "></path>
                                <path d="M109.572665,101.453039 C91.9518449,101.453039 75.4445749,93.6058402 60.4829128,78.1254137 L55.752551,73.2319616 L65.1330989,63.3427228 L69.8679149,68.2408265 C82.3263159,81.1349798 95.6844656,87.7541645 109.884459,87.5355407 C134.306845,87.3727358 153.228292,67.575652 153.419823,67.3709829 L158.078917,62.4217119 L167.588637,72.1295394 L162.947359,77.0974166 C162.029794,78.0835496 140.119578,101.183248 110.102715,101.453039 C109.929001,101.453039 109.750833,101.453039 109.572665,101.453039" id="Fill-1"></path>
                            </g>
                            <g id="Group-5" transform="translate(167.857143, 0.000000)">
                                <path d="M53.8201142,39.0313276 C36.1992939,39.0313276 19.6920239,31.1841283 4.73036177,15.7037018 L0,10.8102497 L9.38054792,0.921010948 L14.1153639,5.81911463 C26.5737649,18.7132679 39.9319146,25.3324526 54.1319083,25.1138288 C78.554294,24.9510239 97.4757411,5.15394005 97.6672718,4.94927095 L102.326366,0 L111.836086,9.70782752 L107.194808,14.6757047 C106.277243,15.6618377 84.3670267,38.7615365 54.3501642,39.0313276 C54.1764503,39.0313276 53.9982823,39.0313276 53.8201142,39.0313276" id="Fill-1" transform="translate(55.918043, 19.515664) scale(1, -1) translate(-55.918043, -19.515664) "></path>
                                <path d="M109.572665,101.453039 C91.9518449,101.453039 75.4445749,93.6058402 60.4829128,78.1254137 L55.752551,73.2319616 L65.1330989,63.3427228 L69.8679149,68.2408265 C82.3263159,81.1349798 95.6844656,87.7541645 109.884459,87.5355407 C134.306845,87.3727358 153.228292,67.575652 153.419823,67.3709829 L158.078917,62.4217119 L167.588637,72.1295394 L162.947359,77.0974166 C162.029794,78.0835496 140.119578,101.183248 110.102715,101.453039 C109.929001,101.453039 109.750833,101.453039 109.572665,101.453039" id="Fill-1"></path>
                                <path d="M221.677257,39.0313276 C204.056437,39.0313276 187.549167,31.1841283 172.587505,15.7037018 L167.857143,10.8102497 L177.237691,0.921010948 L181.972507,5.81911463 C194.430908,18.7132679 207.789057,25.3324526 221.989051,25.1138288 C246.411437,24.9510239 265.332884,5.15394005 265.524415,4.94927095 L270.183509,4.26325641e-14 L279.693229,9.70782752 L275.051951,14.6757047 C274.134386,15.6618377 252.22417,38.7615365 222.207307,39.0313276 C222.033593,39.0313276 221.855425,39.0313276 221.677257,39.0313276" id="Fill-1" transform="translate(223.775186, 19.515664) scale(1, -1) translate(-223.775186, -19.515664) "></path>
                            </g>
                        </g>
                    </g>
                </g>
            </g>
        </g>
    </g>
</svg>