<?xml version="1.0" encoding="UTF-8"?>
<svg width="1131px" height="618px" viewBox="0 0 1131 618" version="1.1" xmlns="http://www.w3.org/2000/svg" xmlns:xlink="http://www.w3.org/1999/xlink">
    <title>Group 25</title>
    <defs>
        <path d="M10.752,0 L839.7312,0 C845.669366,-1.09082333e-15 850.4832,4.81383437 850.4832,10.752 L850.4832,50.5344 L850.4832,50.5344 L0,50.5344 L0,10.752 C-7.27215553e-16,4.81383437 4.81383437,2.86718017e-15 10.752,0 Z" id="path-1"></path>
        <filter x="-0.1%" y="-1.0%" width="100.1%" height="104.0%" filterUnits="objectBoundingBox" id="filter-2">
            <feOffset dx="0" dy="1" in="SourceAlpha" result="shadowOffsetOuter1"></feOffset>
            <feColorMatrix values="0 0 0 0 0.705882353   0 0 0 0 0.733333333   0 0 0 0 0.776470588  0 0 0 1 0" type="matrix" in="shadowOffsetOuter1"></feColorMatrix>
        </filter>
        <path d="M143.708187,2.20416 L150.364,8.22516 L291.48672,8.22528 C292.971261,8.22528 294.17472,9.42873859 294.17472,10.91328 L294.17472,170.688 C294.17472,172.172541 292.971261,173.376 291.48672,173.376 L2.688,173.376 C1.20345859,173.376 3.56975771e-15,172.172541 0,170.688 L0,10.91328 C-6.25893098e-16,9.42873859 1.20345859,8.22528 2.688,8.22528 L137.672,8.22516 L143.708187,2.20416 Z" id="path-3"></path>
        <filter x="-11.4%" y="-15.5%" width="122.8%" height="139.1%" filterUnits="objectBoundingBox" id="filter-4">
            <feOffset dx="0" dy="7" in="SourceAlpha" result="shadowOffsetOuter1"></feOffset>
            <feGaussianBlur stdDeviation="10" in="shadowOffsetOuter1" result="shadowBlurOuter1"></feGaussianBlur>
            <feComposite in="shadowBlurOuter1" in2="SourceAlpha" operator="out" result="shadowBlurOuter1"></feComposite>
            <feColorMatrix values="0 0 0 0 0   0 0 0 0 0   0 0 0 0 0  0 0 0 0.173978365 0" type="matrix" in="shadowBlurOuter1"></feColorMatrix>
        </filter>
        <filter x="-21.3%" y="-21.3%" width="142.7%" height="142.7%" filterUnits="objectBoundingBox" id="filter-5">
            <feOffset dx="0" dy="4" in="SourceAlpha" result="shadowOffsetOuter1"></feOffset>
            <feGaussianBlur stdDeviation="2" in="shadowOffsetOuter1" result="shadowBlurOuter1"></feGaussianBlur>
            <feColorMatrix values="0 0 0 0 0   0 0 0 0 0   0 0 0 0 0  0 0 0 0.286741395 0" type="matrix" in="shadowBlurOuter1" result="shadowMatrixOuter1"></feColorMatrix>
            <feMerge>
                <feMergeNode in="shadowMatrixOuter1"></feMergeNode>
                <feMergeNode in="SourceGraphic"></feMergeNode>
            </feMerge>
        </filter>
        <path d="M143.708187,2.20416 L150.364,8.22516 L291.48672,8.22528 C292.971261,8.22528 294.17472,9.42873859 294.17472,10.91328 L294.17472,170.688 C294.17472,172.172541 292.971261,173.376 291.48672,173.376 L2.688,173.376 C1.20345859,173.376 3.56975771e-15,172.172541 0,170.688 L0,10.91328 C-6.25893098e-16,9.42873859 1.20345859,8.22528 2.688,8.22528 L137.672,8.22516 L143.708187,2.20416 Z" id="path-6"></path>
        <filter x="-11.4%" y="-15.5%" width="122.8%" height="139.1%" filterUnits="objectBoundingBox" id="filter-7">
            <feOffset dx="0" dy="7" in="SourceAlpha" result="shadowOffsetOuter1"></feOffset>
            <feGaussianBlur stdDeviation="10" in="shadowOffsetOuter1" result="shadowBlurOuter1"></feGaussianBlur>
            <feComposite in="shadowBlurOuter1" in2="SourceAlpha" operator="out" result="shadowBlurOuter1"></feComposite>
            <feColorMatrix values="0 0 0 0 0   0 0 0 0 0   0 0 0 0 0  0 0 0 0.173978365 0" type="matrix" in="shadowBlurOuter1"></feColorMatrix>
        </filter>
        <filter x="-21.3%" y="-21.3%" width="142.7%" height="142.7%" filterUnits="objectBoundingBox" id="filter-8">
            <feOffset dx="0" dy="4" in="SourceAlpha" result="shadowOffsetOuter1"></feOffset>
            <feGaussianBlur stdDeviation="2" in="shadowOffsetOuter1" result="shadowBlurOuter1"></feGaussianBlur>
            <feColorMatrix values="0 0 0 0 0   0 0 0 0 0   0 0 0 0 0  0 0 0 0.286741395 0" type="matrix" in="shadowBlurOuter1" result="shadowMatrixOuter1"></feColorMatrix>
            <feMerge>
                <feMergeNode in="shadowMatrixOuter1"></feMergeNode>
                <feMergeNode in="SourceGraphic"></feMergeNode>
            </feMerge>
        </filter>
    </defs>
    <g id="Ads" stroke="none" stroke-width="1" fill="none" fill-rule="evenodd">
        <g id="Group-25" transform="translate(0.000000, 10.000000)">
            <g id="Group-9" transform="translate(124.480000, 0.000000)">
                <g id="Group-8">
                    <rect id="Rectangle" stroke="#E0E6E9" stroke-width="9.072" fill="#FFFFFF" x="-4.536" y="-4.536" width="859.5552" height="560.112" rx="10.752"></rect>
                    <g id="Group-7">
                        <g id="Rectangle">
                            <use fill="black" fill-opacity="1" filter="url(#filter-2)" xlink:href="#path-1"></use>
                            <use fill="#FFFFFF" fill-rule="evenodd" xlink:href="#path-1"></use>
                        </g>
                        <rect id="Rectangle" fill="#F6F6F6" x="66.6624" y="9.1392" width="683.8272" height="32.256" rx="16.128"></rect>
                        <path d="M92.805888,29.568 L93.7563648,25.933824 C93.8495488,25.60768 93.9334144,25.2838656 94.0079616,24.9623808 C94.0825088,24.640896 94.157056,24.3077632 94.2316032,23.9629824 L94.2316032,23.9629824 L94.2875136,23.9629824 C94.3713792,24.3077632 94.448256,24.6385664 94.518144,24.955392 C94.588032,25.2722176 94.6649088,25.5937024 94.7487744,25.9198464 L94.7487744,25.9198464 L95.7272064,29.568 L97.1249664,29.568 L98.9420544,22.7748864 L97.8518016,22.7748864 L96.859392,26.702592 C96.7848448,27.028736 96.7149568,27.3455616 96.649728,27.6530688 C96.5844992,27.960576 96.5146112,28.2727424 96.440064,28.589568 L96.440064,28.589568 L96.3841536,28.589568 C96.3096064,28.2727424 96.2327296,27.960576 96.1535232,27.6530688 C96.0743168,27.3455616 95.9927808,27.028736 95.9089152,26.702592 L95.9089152,26.702592 L94.8466176,22.7748864 L93.7284096,22.7748864 L92.6800896,26.702592 C92.596224,27.0194176 92.5170176,27.3339136 92.4424704,27.64608 C92.3679232,27.9582464 92.293376,28.2727424 92.2188288,28.589568 L92.2188288,28.589568 L92.1629184,28.589568 C92.0976896,28.2727424 92.0324608,27.960576 91.967232,27.6530688 C91.9020032,27.3455616 91.8321152,27.028736 91.757568,26.702592 L91.757568,26.702592 L90.7511808,22.7748864 L89.5770624,22.7748864 L91.4640384,29.568 L92.805888,29.568 Z M102.841805,29.568 L103.792282,25.933824 C103.885466,25.60768 103.969331,25.2838656 104.043878,24.9623808 C104.118426,24.640896 104.192973,24.3077632 104.26752,23.9629824 L104.26752,23.9629824 L104.32343,23.9629824 C104.407296,24.3077632 104.484173,24.6385664 104.554061,24.955392 C104.623949,25.2722176 104.700826,25.5937024 104.784691,25.9198464 L104.784691,25.9198464 L105.763123,29.568 L107.160883,29.568 L108.977971,22.7748864 L107.887718,22.7748864 L106.895309,26.702592 C106.820762,27.028736 106.750874,27.3455616 106.685645,27.6530688 C106.620416,27.960576 106.550528,28.2727424 106.475981,28.589568 L106.475981,28.589568 L106.42007,28.589568 C106.345523,28.2727424 106.268646,27.960576 106.18944,27.6530688 C106.110234,27.3455616 106.028698,27.028736 105.944832,26.702592 L105.944832,26.702592 L104.882534,22.7748864 L103.764326,22.7748864 L102.716006,26.702592 C102.632141,27.0194176 102.552934,27.3339136 102.478387,27.64608 C102.40384,27.9582464 102.329293,28.2727424 102.254746,28.589568 L102.254746,28.589568 L102.198835,28.589568 C102.133606,28.2727424 102.068378,27.960576 102.003149,27.6530688 C101.93792,27.3455616 101.868032,27.028736 101.793485,26.702592 L101.793485,26.702592 L100.787098,22.7748864 L99.6129792,22.7748864 L101.499955,29.568 L102.841805,29.568 Z M112.877722,29.568 L113.828198,25.933824 C113.921382,25.60768 114.005248,25.2838656 114.079795,24.9623808 C114.154342,24.640896 114.22889,24.3077632 114.303437,23.9629824 L114.303437,23.9629824 L114.359347,23.9629824 C114.443213,24.3077632 114.52009,24.6385664 114.589978,24.955392 C114.659866,25.2722176 114.736742,25.5937024 114.820608,25.9198464 L114.820608,25.9198464 L115.79904,29.568 L117.1968,29.568 L119.013888,22.7748864 L117.923635,22.7748864 L116.931226,26.702592 C116.856678,27.028736 116.78679,27.3455616 116.721562,27.6530688 C116.656333,27.960576 116.586445,28.2727424 116.511898,28.589568 L116.511898,28.589568 L116.455987,28.589568 C116.38144,28.2727424 116.304563,27.960576 116.225357,27.6530688 C116.14615,27.3455616 116.064614,27.028736 115.980749,26.702592 L115.980749,26.702592 L114.918451,22.7748864 L113.800243,22.7748864 L112.751923,26.702592 C112.668058,27.0194176 112.588851,27.3339136 112.514304,27.64608 C112.439757,27.9582464 112.36521,28.2727424 112.290662,28.589568 L112.290662,28.589568 L112.234752,28.589568 C112.169523,28.2727424 112.104294,27.960576 112.039066,27.6530688 C111.973837,27.3455616 111.903949,27.028736 111.829402,26.702592 L111.829402,26.702592 L110.823014,22.7748864 L109.648896,22.7748864 L111.535872,29.568 L112.877722,29.568 Z M121.09655,29.7357312 C121.320192,29.7357312 121.513549,29.6541952 121.676621,29.4911232 C121.839693,29.3280512 121.921229,29.1207168 121.921229,28.86912 C121.921229,28.5988864 121.839693,28.3822336 121.676621,28.2191616 C121.513549,28.0560896 121.320192,27.9745536 121.09655,27.9745536 C120.86359,27.9745536 120.665574,28.0560896 120.502502,28.2191616 C120.33943,28.3822336 120.257894,28.5988864 120.257894,28.86912 C120.257894,29.1207168 120.33943,29.3280512 120.502502,29.4911232 C120.665574,29.6541952 120.86359,29.7357312 121.09655,29.7357312 Z M124.087757,32.4893184 C124.432538,32.4893184 124.735386,32.4287488 124.996301,32.3076096 C125.257216,32.1864704 125.490176,32.0210688 125.695181,31.8114048 C125.900186,31.6017408 126.077235,31.3524736 126.22633,31.0636032 C126.375424,30.7747328 126.510541,30.4625664 126.63168,30.127104 L126.63168,30.127104 L129.189581,22.7748864 L128.071373,22.7748864 L126.855322,26.5348608 C126.762138,26.8330496 126.668954,27.1498752 126.57577,27.4853376 C126.482586,27.8208 126.384742,28.1422848 126.28224,28.449792 L126.28224,28.449792 L126.22633,28.449792 C126.123827,28.1329664 126.014336,27.809152 125.897856,27.4783488 C125.781376,27.1475456 125.671885,26.8330496 125.569382,26.5348608 L125.569382,26.5348608 L124.1856,22.7748864 L122.997504,22.7748864 L125.723136,29.5819776 L125.569382,30.0851712 C125.429606,30.5044992 125.23625,30.8516096 124.989312,31.1265024 C124.742374,31.4013952 124.423219,31.5388416 124.031846,31.5388416 C123.947981,31.5388416 123.859456,31.5271936 123.766272,31.5038976 C123.673088,31.4806016 123.589222,31.4596352 123.514675,31.4409984 L123.514675,31.4409984 L123.291034,32.3495424 C123.402854,32.3961344 123.523994,32.4310784 123.654451,32.4543744 C123.784909,32.4776704 123.929344,32.4893184 124.087757,32.4893184 Z M133.145242,29.7357312 C133.56457,29.7357312 133.962931,29.6565248 134.340326,29.498112 C134.717722,29.3396992 135.050854,29.1090688 135.339725,28.8062208 C135.628595,28.5033728 135.859226,28.1306368 136.031616,27.6880128 C136.204006,27.2453888 136.290202,26.7445248 136.290202,26.1854208 C136.290202,25.6169984 136.204006,25.1114752 136.031616,24.6688512 C135.859226,24.2262272 135.628595,23.8511616 135.339725,23.5436544 C135.050854,23.2361472 134.717722,23.0031872 134.340326,22.8447744 C133.962931,22.6863616 133.56457,22.6071552 133.145242,22.6071552 C132.725914,22.6071552 132.327552,22.6863616 131.950157,22.8447744 C131.572762,23.0031872 131.239629,23.2361472 130.950758,23.5436544 C130.661888,23.8511616 130.431258,24.2262272 130.258867,24.6688512 C130.086477,25.1114752 130.000282,25.6169984 130.000282,26.1854208 C130.000282,26.7445248 130.086477,27.2453888 130.258867,27.6880128 C130.431258,28.1306368 130.661888,28.5033728 130.950758,28.8062208 C131.239629,29.1090688 131.572762,29.3396992 131.950157,29.498112 C132.327552,29.6565248 132.725914,29.7357312 133.145242,29.7357312 Z M133.145242,28.7852544 C132.856371,28.7852544 132.590797,28.7223552 132.348518,28.5965568 C132.10624,28.4707584 131.898906,28.2937088 131.726515,28.065408 C131.554125,27.8371072 131.421338,27.564544 131.328154,27.2477184 C131.23497,26.9308928 131.188378,26.5767936 131.188378,26.1854208 C131.188378,25.794048 131.23497,25.4376192 131.328154,25.1161344 C131.421338,24.7946496 131.554125,24.5174272 131.726515,24.2844672 C131.898906,24.0515072 132.10624,23.872128 132.348518,23.7463296 C132.590797,23.6205312 132.856371,23.557632 133.145242,23.557632 C133.434112,23.557632 133.699686,23.6205312 133.941965,23.7463296 C134.184243,23.872128 134.391578,24.0515072 134.563968,24.2844672 C134.736358,24.5174272 134.869146,24.7946496 134.96233,25.1161344 C135.055514,25.4376192 135.102106,25.794048 135.102106,26.1854208 C135.102106,26.5767936 135.055514,26.9308928 134.96233,27.2477184 C134.869146,27.564544 134.736358,27.8371072 134.563968,28.065408 C134.391578,28.2937088 134.184243,28.4707584 133.941965,28.5965568 C133.699686,28.7223552 133.434112,28.7852544 133.145242,28.7852544 Z M140.064154,29.7357312 C140.539392,29.7357312 140.951731,29.6239104 141.301171,29.4002688 C141.650611,29.1766272 141.983744,28.8784384 142.30057,28.5057024 L142.30057,28.5057024 L142.342502,28.5057024 L142.440346,29.568 L143.390822,29.568 L143.390822,22.7748864 L142.244659,22.7748864 L142.244659,27.5971584 C141.918515,27.9978496 141.620326,28.2890496 141.350093,28.4707584 C141.079859,28.6524672 140.767693,28.7433216 140.413594,28.7433216 C139.96631,28.7433216 139.642496,28.601216 139.44215,28.3170048 C139.241805,28.0327936 139.141632,27.5692032 139.141632,26.9262336 L139.141632,26.9262336 L139.141632,22.7748864 L137.981491,22.7748864 L137.981491,27.0799872 C137.981491,27.9559168 138.146893,28.6175232 138.477696,29.0648064 C138.808499,29.5120896 139.337318,29.7357312 140.064154,29.7357312 Z M146.829312,29.568 L146.829312,25.2069888 C147.062272,24.629248 147.334835,24.2238976 147.647002,23.9909376 C147.959168,23.7579776 148.259686,23.6414976 148.548557,23.6414976 C148.688333,23.6414976 148.804813,23.650816 148.897997,23.6694528 C148.991181,23.6880896 149.093683,23.7160448 149.205504,23.7533184 L149.205504,23.7533184 L149.429146,22.7469312 C149.214822,22.6537472 148.972544,22.6071552 148.70231,22.6071552 C148.310938,22.6071552 147.94985,22.7329536 147.619046,22.9845504 C147.288243,23.2361472 147.006362,23.5762688 146.773402,24.0049152 L146.773402,24.0049152 L146.731469,24.0049152 L146.633626,22.7748864 L145.683149,22.7748864 L145.683149,29.568 L146.829312,29.568 Z M152.951501,29.568 L153.901978,25.933824 C153.995162,25.60768 154.079027,25.2838656 154.153574,24.9623808 C154.228122,24.640896 154.302669,24.3077632 154.377216,23.9629824 L154.377216,23.9629824 L154.433126,23.9629824 C154.516992,24.3077632 154.593869,24.6385664 154.663757,24.955392 C154.733645,25.2722176 154.810522,25.5937024 154.894387,25.9198464 L154.894387,25.9198464 L155.872819,29.568 L157.270579,29.568 L159.087667,22.7748864 L157.997414,22.7748864 L157.005005,26.702592 C156.930458,27.028736 156.86057,27.3455616 156.795341,27.6530688 C156.730112,27.960576 156.660224,28.2727424 156.585677,28.589568 L156.585677,28.589568 L156.529766,28.589568 C156.455219,28.2727424 156.378342,27.960576 156.299136,27.6530688 C156.21993,27.3455616 156.138394,27.028736 156.054528,26.702592 L156.054528,26.702592 L154.99223,22.7748864 L153.874022,22.7748864 L152.825702,26.702592 C152.741837,27.0194176 152.66263,27.3339136 152.588083,27.64608 C152.513536,27.9582464 152.438989,28.2727424 152.364442,28.589568 L152.364442,28.589568 L152.308531,28.589568 C152.243302,28.2727424 152.178074,27.960576 152.112845,27.6530688 C152.047616,27.3455616 151.977728,27.028736 151.903181,26.702592 L151.903181,26.702592 L150.896794,22.7748864 L149.722675,22.7748864 L151.609651,29.568 L152.951501,29.568 Z M163.32288,29.7357312 C163.7888,29.7357312 164.203469,29.6658432 164.566886,29.5260672 C164.930304,29.3862912 165.261107,29.2232192 165.559296,29.0368512 L165.559296,29.0368512 L165.153946,28.2820608 C164.902349,28.4404736 164.639104,28.5686016 164.364211,28.6664448 C164.089318,28.764288 163.7888,28.8132096 163.462656,28.8132096 C162.810368,28.8132096 162.281549,28.5988864 161.876198,28.17024 C161.470848,27.7415936 161.244877,27.1591936 161.198285,26.42304 L161.198285,26.42304 L165.782938,26.42304 C165.810893,26.2553088 165.82487,26.0456448 165.82487,25.794048 C165.82487,25.3094912 165.764301,24.8715264 165.643162,24.4801536 C165.522022,24.0887808 165.347302,23.7533184 165.119002,23.4737664 C164.890701,23.1942144 164.60649,22.9798912 164.266368,22.8307968 C163.926246,22.6817024 163.541862,22.6071552 163.113216,22.6071552 C162.721843,22.6071552 162.344448,22.6886912 161.98103,22.8517632 C161.617613,23.0148352 161.293798,23.2501248 161.009587,23.557632 C160.725376,23.8651392 160.497075,24.2402048 160.324685,24.6828288 C160.152294,25.1254528 160.066099,25.6263168 160.066099,26.1854208 C160.066099,26.7445248 160.149965,27.2430592 160.317696,27.681024 C160.485427,28.1189888 160.716058,28.4893952 161.009587,28.7922432 C161.303117,29.0950912 161.647898,29.3280512 162.04393,29.4911232 C162.439962,29.6541952 162.866278,29.7357312 163.32288,29.7357312 Z M164.818483,25.6682496 L161.184307,25.6682496 C161.221581,25.3234688 161.298458,25.0182912 161.414938,24.7527168 C161.531418,24.4871424 161.678182,24.2635008 161.855232,24.081792 C162.032282,23.9000832 162.230298,23.7603072 162.44928,23.662464 C162.668262,23.5646208 162.898893,23.5156992 163.141171,23.5156992 C163.67232,23.5156992 164.084659,23.6997376 164.378189,24.0678144 C164.671718,24.4358912 164.818483,24.9693696 164.818483,25.6682496 L164.818483,25.6682496 Z M170.507366,29.7357312 C170.898739,29.7357312 171.271475,29.6541952 171.625574,29.4911232 C171.979674,29.3280512 172.29184,29.0881024 172.562074,28.7712768 C172.832307,28.4544512 173.04663,28.0677376 173.205043,27.611136 C173.363456,27.1545344 173.442662,26.6373632 173.442662,26.0596224 C173.442662,25.537792 173.384422,25.0648832 173.267942,24.640896 C173.151462,24.2169088 172.979072,23.8534912 172.750771,23.5506432 C172.52247,23.2477952 172.240589,23.0148352 171.905126,22.8517632 C171.569664,22.6886912 171.18295,22.6071552 170.744986,22.6071552 C170.362931,22.6071552 169.990195,22.6980096 169.626778,22.8797184 C169.26336,23.0614272 168.927898,23.2873984 168.62039,23.557632 L168.62039,23.557632 L168.648346,22.3276032 L168.648346,19.6159488 L167.502182,19.6159488 L167.502182,29.568 L168.424704,29.568 L168.522547,28.8970752 L168.56448,28.8970752 C168.862669,29.1673088 169.181824,29.3746432 169.521946,29.5190784 C169.862067,29.6635136 170.190541,29.7357312 170.507366,29.7357312 Z M170.31168,28.7712768 C170.088038,28.7712768 169.829453,28.717696 169.535923,28.6105344 C169.242394,28.5033728 168.946534,28.3193344 168.648346,28.0584192 L168.648346,28.0584192 L168.648346,24.4941312 C169.309952,23.8791168 169.915648,23.5716096 170.465434,23.5716096 C170.782259,23.5716096 171.054822,23.6321792 171.283123,23.7533184 C171.511424,23.8744576 171.697792,24.0445184 171.842227,24.2635008 C171.986662,24.4824832 172.091494,24.745728 172.156723,25.0532352 C172.221952,25.3607424 172.254566,25.700864 172.254566,26.0736 C172.254566,26.492928 172.205645,26.8703232 172.107802,27.2057856 C172.009958,27.541248 171.874842,27.8231296 171.702451,28.0514304 C171.530061,28.2797312 171.325056,28.4567808 171.087437,28.5825792 C170.849818,28.7083776 170.591232,28.7712768 170.31168,28.7712768 Z M177.034906,29.7357312 C177.435597,29.7357312 177.792026,29.6821504 178.104192,29.5749888 C178.416358,29.4678272 178.677274,29.3210624 178.886938,29.1346944 C179.096602,28.9483264 179.255014,28.7340032 179.362176,28.4917248 C179.469338,28.2494464 179.522918,27.9885312 179.522918,27.7089792 C179.522918,27.3921536 179.460019,27.12192 179.334221,26.8982784 C179.208422,26.6746368 179.04768,26.4859392 178.851994,26.3321856 C178.656307,26.178432 178.434995,26.050304 178.188058,25.9478016 C177.94112,25.8452992 177.696512,25.747456 177.454234,25.654272 C177.258547,25.5797248 177.06985,25.5075072 176.888141,25.4376192 C176.706432,25.3677312 176.54569,25.2885248 176.405914,25.2 C176.266138,25.1114752 176.154317,25.0089728 176.070451,24.8924928 C175.986586,24.7760128 175.944653,24.6385664 175.944653,24.4801536 C175.944653,24.2192384 176.044826,23.9909376 176.245171,23.7952512 C176.445517,23.5995648 176.760013,23.5017216 177.188659,23.5017216 C177.486848,23.5017216 177.761741,23.557632 178.013338,23.6694528 C178.264934,23.7812736 178.507213,23.9257088 178.740173,24.1027584 L178.740173,24.1027584 L179.285299,23.3759232 C179.024384,23.1616 178.714547,22.9798912 178.355789,22.8307968 C177.99703,22.6817024 177.603328,22.6071552 177.174682,22.6071552 C176.811264,22.6071552 176.48512,22.6560768 176.19625,22.75392 C175.907379,22.8517632 175.662771,22.98688 175.462426,23.1592704 C175.26208,23.3316608 175.108326,23.5366656 175.001165,23.7742848 C174.894003,24.011904 174.840422,24.2658304 174.840422,24.536064 C174.840422,24.8249344 174.900992,25.071872 175.022131,25.2768768 C175.14327,25.4818816 175.299354,25.6612608 175.490381,25.8150144 C175.681408,25.968768 175.898061,26.0992256 176.140339,26.2063872 C176.382618,26.3135488 176.624896,26.4090624 176.867174,26.492928 L176.867174,26.492928 L177.426278,26.7165696 C177.612646,26.7911168 177.778048,26.877312 177.922483,26.9751552 C178.066918,27.0729984 178.185728,27.1871488 178.278912,27.3176064 C178.372096,27.448064 178.418688,27.6018176 178.418688,27.7788672 C178.418688,28.077056 178.306867,28.3286528 178.083226,28.5336576 C177.859584,28.7386624 177.524122,28.8411648 177.076838,28.8411648 C176.666829,28.8411648 176.305741,28.7666176 175.993574,28.6175232 C175.681408,28.4684288 175.37623,28.2727424 175.078042,28.030464 L175.078042,28.030464 L174.50496,28.799232 C174.831104,29.0694656 175.213158,29.2931072 175.651123,29.4701568 C176.089088,29.6472064 176.550349,29.7357312 177.034906,29.7357312 Z M181.703424,21.3771264 C181.927066,21.3771264 182.115763,21.3072384 182.269517,21.1674624 C182.42327,21.0276864 182.500147,20.8506368 182.500147,20.6363136 C182.500147,20.412672 182.42327,20.2332928 182.269517,20.098176 C182.115763,19.9630592 181.927066,19.8955008 181.703424,19.8955008 C181.479782,19.8955008 181.291085,19.9630592 181.137331,20.098176 C180.983578,20.2332928 180.906701,20.412672 180.906701,20.6363136 C180.906701,20.8506368 180.983578,21.0276864 181.137331,21.1674624 C181.291085,21.3072384 181.479782,21.3771264 181.703424,21.3771264 Z M182.262528,29.568 L182.262528,22.7748864 L181.116365,22.7748864 L181.116365,29.568 L182.262528,29.568 Z M186.693427,29.7357312 C186.90775,29.7357312 187.124403,29.7101056 187.343386,29.6588544 C187.562368,29.6076032 187.765043,29.5493632 187.951411,29.4841344 L187.951411,29.4841344 L187.72777,28.6175232 C187.615949,28.6641152 187.49015,28.706048 187.350374,28.7433216 C187.210598,28.7805952 187.080141,28.799232 186.959002,28.799232 C186.567629,28.799232 186.295066,28.6850816 186.141312,28.4567808 C185.987558,28.22848 185.910682,27.9046656 185.910682,27.4853376 L185.910682,27.4853376 L185.910682,23.7113856 L187.741747,23.7113856 L187.741747,22.7748864 L185.910682,22.7748864 L185.910682,20.8739328 L184.946227,20.8739328 L184.806451,22.7748864 L183.744154,22.8447744 L183.744154,23.7113856 L184.750541,23.7113856 L184.750541,27.47136 C184.750541,27.8068224 184.783155,28.1143296 184.848384,28.3938816 C184.913613,28.6734336 185.023104,28.9110528 185.176858,29.1067392 C185.330611,29.3024256 185.530957,29.4561792 185.777894,29.568 C186.024832,29.6798208 186.33001,29.7357312 186.693427,29.7357312 Z M192.03287,29.7357312 C192.49879,29.7357312 192.913459,29.6658432 193.276877,29.5260672 C193.640294,29.3862912 193.971098,29.2232192 194.269286,29.0368512 L194.269286,29.0368512 L193.863936,28.2820608 C193.612339,28.4404736 193.349094,28.5686016 193.074202,28.6664448 C192.799309,28.764288 192.49879,28.8132096 192.172646,28.8132096 C191.520358,28.8132096 190.991539,28.5988864 190.586189,28.17024 C190.180838,27.7415936 189.954867,27.1591936 189.908275,26.42304 L189.908275,26.42304 L194.492928,26.42304 C194.520883,26.2553088 194.534861,26.0456448 194.534861,25.794048 C194.534861,25.3094912 194.474291,24.8715264 194.353152,24.4801536 C194.232013,24.0887808 194.057293,23.7533184 193.828992,23.4737664 C193.600691,23.1942144 193.31648,22.9798912 192.976358,22.8307968 C192.636237,22.6817024 192.251853,22.6071552 191.823206,22.6071552 C191.431834,22.6071552 191.054438,22.6886912 190.691021,22.8517632 C190.327603,23.0148352 190.003789,23.2501248 189.719578,23.557632 C189.435366,23.8651392 189.207066,24.2402048 189.034675,24.6828288 C188.862285,25.1254528 188.77609,25.6263168 188.77609,26.1854208 C188.77609,26.7445248 188.859955,27.2430592 189.027686,27.681024 C189.195418,28.1189888 189.426048,28.4893952 189.719578,28.7922432 C190.013107,29.0950912 190.357888,29.3280512 190.75392,29.4911232 C191.149952,29.6541952 191.576269,29.7357312 192.03287,29.7357312 Z M193.528474,25.6682496 L189.894298,25.6682496 C189.931571,25.3234688 190.008448,25.0182912 190.124928,24.7527168 C190.241408,24.4871424 190.388173,24.2635008 190.565222,24.081792 C190.742272,23.9000832 190.940288,23.7603072 191.15927,23.662464 C191.378253,23.5646208 191.608883,23.5156992 191.851162,23.5156992 C192.38231,23.5156992 192.79465,23.6997376 193.088179,24.0678144 C193.381709,24.4358912 193.528474,24.9693696 193.528474,25.6682496 L193.528474,25.6682496 Z M196.81321,29.7357312 C197.036851,29.7357312 197.230208,29.6541952 197.39328,29.4911232 C197.556352,29.3280512 197.637888,29.1207168 197.637888,28.86912 C197.637888,28.5988864 197.556352,28.3822336 197.39328,28.2191616 C197.230208,28.0560896 197.036851,27.9745536 196.81321,27.9745536 C196.58025,27.9745536 196.382234,28.0560896 196.219162,28.2191616 C196.05609,28.3822336 195.974554,28.5988864 195.974554,28.86912 C195.974554,29.1207168 196.05609,29.3280512 196.219162,29.4911232 C196.382234,29.6541952 196.58025,29.7357312 196.81321,29.7357312 Z M202.376294,29.7357312 C202.786304,29.7357312 203.180006,29.6565248 203.557402,29.498112 C203.934797,29.3396992 204.277248,29.125376 204.584755,28.8551424 L204.584755,28.8551424 L204.067584,28.100352 C203.862579,28.28672 203.62729,28.4474624 203.361715,28.5825792 C203.096141,28.717696 202.800282,28.7852544 202.474138,28.7852544 C202.16663,28.7852544 201.882419,28.7223552 201.621504,28.5965568 C201.360589,28.4707584 201.139277,28.2937088 200.957568,28.065408 C200.775859,27.8371072 200.633754,27.564544 200.531251,27.2477184 C200.428749,26.9308928 200.377498,26.5767936 200.377498,26.1854208 C200.377498,25.794048 200.431078,25.4376192 200.53824,25.1161344 C200.645402,24.7946496 200.792166,24.5174272 200.978534,24.2844672 C201.164902,24.0515072 201.388544,23.872128 201.649459,23.7463296 C201.910374,23.6205312 202.194586,23.557632 202.502093,23.557632 C202.772326,23.557632 203.016934,23.6135424 203.235917,23.7253632 C203.454899,23.837184 203.666893,23.9816192 203.871898,24.1586688 L203.871898,24.1586688 L204.444979,23.417856 C204.212019,23.2035328 203.934797,23.0148352 203.613312,22.8517632 C203.291827,22.6886912 202.907443,22.6071552 202.46016,22.6071552 C202.022195,22.6071552 201.605197,22.6863616 201.209165,22.8447744 C200.813133,23.0031872 200.466022,23.2361472 200.167834,23.5436544 C199.869645,23.8511616 199.632026,24.2262272 199.454976,24.6688512 C199.277926,25.1114752 199.189402,25.6169984 199.189402,26.1854208 C199.189402,26.7445248 199.270938,27.2453888 199.43401,27.6880128 C199.597082,28.1306368 199.820723,28.5033728 200.104934,28.8062208 C200.389146,29.1090688 200.726938,29.3396992 201.11831,29.498112 C201.509683,29.6565248 201.929011,29.7357312 202.376294,29.7357312 Z M208.708147,29.7357312 C209.127475,29.7357312 209.525837,29.6565248 209.903232,29.498112 C210.280627,29.3396992 210.61376,29.1090688 210.90263,28.8062208 C211.191501,28.5033728 211.422131,28.1306368 211.594522,27.6880128 C211.766912,27.2453888 211.853107,26.7445248 211.853107,26.1854208 C211.853107,25.6169984 211.766912,25.1114752 211.594522,24.6688512 C211.422131,24.2262272 211.191501,23.8511616 210.90263,23.5436544 C210.61376,23.2361472 210.280627,23.0031872 209.903232,22.8447744 C209.525837,22.6863616 209.127475,22.6071552 208.708147,22.6071552 C208.288819,22.6071552 207.890458,22.6863616 207.513062,22.8447744 C207.135667,23.0031872 206.802534,23.2361472 206.513664,23.5436544 C206.224794,23.8511616 205.994163,24.2262272 205.821773,24.6688512 C205.649382,25.1114752 205.563187,25.6169984 205.563187,26.1854208 C205.563187,26.7445248 205.649382,27.2453888 205.821773,27.6880128 C205.994163,28.1306368 206.224794,28.5033728 206.513664,28.8062208 C206.802534,29.1090688 207.135667,29.3396992 207.513062,29.498112 C207.890458,29.6565248 208.288819,29.7357312 208.708147,29.7357312 Z M208.708147,28.7852544 C208.419277,28.7852544 208.153702,28.7223552 207.911424,28.5965568 C207.669146,28.4707584 207.461811,28.2937088 207.289421,28.065408 C207.11703,27.8371072 206.984243,27.564544 206.891059,27.2477184 C206.797875,26.9308928 206.751283,26.5767936 206.751283,26.1854208 C206.751283,25.794048 206.797875,25.4376192 206.891059,25.1161344 C206.984243,24.7946496 207.11703,24.5174272 207.289421,24.2844672 C207.461811,24.0515072 207.669146,23.872128 207.911424,23.7463296 C208.153702,23.6205312 208.419277,23.557632 208.708147,23.557632 C208.997018,23.557632 209.262592,23.6205312 209.50487,23.7463296 C209.747149,23.872128 209.954483,24.0515072 210.126874,24.2844672 C210.299264,24.5174272 210.432051,24.7946496 210.525235,25.1161344 C210.618419,25.4376192 210.665011,25.794048 210.665011,26.1854208 C210.665011,26.5767936 210.618419,26.9308928 210.525235,27.2477184 C210.432051,27.564544 210.299264,27.8371072 210.126874,28.065408 C209.954483,28.2937088 209.747149,28.4707584 209.50487,28.5965568 C209.262592,28.7223552 208.997018,28.7852544 208.708147,28.7852544 Z M214.788403,29.568 L214.788403,24.6478848 C215.412736,23.9490048 215.981158,23.5995648 216.49367,23.5995648 C216.931635,23.5995648 217.25312,23.7416704 217.458125,24.0258816 C217.66313,24.3100928 217.765632,24.7736832 217.765632,25.4166528 L217.765632,25.4166528 L217.765632,29.568 L218.911795,29.568 L218.911795,24.6478848 C219.536128,23.9490048 220.10455,23.5995648 220.617062,23.5995648 C221.045709,23.5995648 221.362534,23.7416704 221.567539,24.0258816 C221.772544,24.3100928 221.875046,24.7736832 221.875046,25.4166528 L221.875046,25.4166528 L221.875046,29.568 L223.02121,29.568 L223.02121,25.2628992 C223.02121,24.3869696 222.851149,23.7253632 222.511027,23.27808 C222.170906,22.8307968 221.651405,22.6071552 220.952525,22.6071552 C220.533197,22.6071552 220.144154,22.7259648 219.785395,22.963584 C219.426637,23.2012032 219.070208,23.5156992 218.716109,23.907072 C218.576333,23.4970624 218.35968,23.1779072 218.06615,22.9496064 C217.772621,22.7213056 217.364941,22.6071552 216.84311,22.6071552 C216.433101,22.6071552 216.053376,22.7166464 215.703936,22.9356288 C215.354496,23.1546112 215.030682,23.4271744 214.732493,23.7533184 L214.732493,23.7533184 L214.69056,23.7533184 L214.592717,22.7748864 L213.64224,22.7748864 L213.64224,29.568 L214.788403,29.568 Z" id="www.yourwebsite.com" fill="#1F2024" fill-rule="nonzero"></path>
                        <g id="Group-15" transform="translate(808.281600, 18.547200)">
                            <g id="Group-14" fill="#AEB3B9">
                                <rect id="Rectangle" x="0.2688" y="0.8064" width="15.0528" height="3.584" rx="1.72032"></rect>
                                <rect id="Rectangle" x="0.2688" y="6.5408" width="15.0528" height="3.584" rx="1.72032"></rect>
                                <rect id="Rectangle" x="0.2688" y="12.2752" width="15.0528" height="3.584" rx="1.72032"></rect>
                            </g>
                            <g id="Group-13" transform="translate(0.268800, 0.806400)"></g>
                        </g>
                        <g id="Group-4" transform="translate(15.052800, 22.579200)" fill="#F1F3F4">
                            <circle id="Oval" cx="32.7936" cy="4.8384" r="4.8384"></circle>
                            <circle id="Oval" cx="18.816" cy="4.8384" r="4.8384"></circle>
                            <circle id="Oval" cx="4.8384" cy="4.8384" r="4.8384"></circle>
                        </g>
                    </g>
                </g>
                <g id="Group-17" transform="translate(21.840000, 67.200000)" fill="#ECF4F7">
                    <rect id="Rectangle" x="0.7392" y="0.5376" width="151" height="36.5568"></rect>
                    <rect id="Rectangle" x="6.1152" y="265.0368" width="246.2208" height="186.48"></rect>
                    <rect id="Rectangle" x="280.2912" y="265.0368" width="246.2208" height="186.48"></rect>
                    <rect id="Rectangle" x="554.4672" y="265.0368" width="246.2208" height="186.48"></rect>
                    <rect id="Rectangle" x="363.0816" y="104.832" width="109.6704" height="16.128"></rect>
                    <rect id="Rectangle" x="303.9456" y="145.6896" width="227.9424" height="16.128"></rect>
                    <rect id="Rectangle" x="566.2944" y="13.44" width="109.6704" height="10.752"></rect>
                    <rect id="Rectangle" x="689.9424" y="13.44" width="109.6704" height="10.752"></rect>
                </g>
                <g id="Group-5" transform="translate(27.955200, 332.236800)"></g>
            </g>
            <g id="Group-22" transform="translate(612.640000, 286.600000)">
                <polygon id="Path-25" fill="#FFAA00" transform="translate(295.415391, 88.620652) rotate(-15.000000) translate(-295.415391, -88.620652) " points="347.495391 86.3526518 272.339838 72.5900918 243.335391 72.5900918 246.778753 86.3526518 277.182346 81.5344118 347.495391 104.651212"></polygon>
                <g id="Group-16">
                    <g id="Group-20" transform="translate(0.000000, 0.000000)">
                        <g id="Group-10" transform="translate(0.000000, 0.000000)">
                            <g id="Group-11" transform="translate(0.000000, 56.442560)">
                                <g id="Combined-Shape">
                                    <use fill="black" fill-opacity="1" filter="url(#filter-4)" xlink:href="#path-3"></use>
                                    <path stroke="#D0D0D0" stroke-width="0.86016" d="M143.722652,2.79719119 L150.198334,8.65523986 L291.48672,8.65536 C292.110227,8.65536 292.674707,8.9080863 293.083311,9.31668946 C293.491914,9.72529261 293.74464,10.2897726 293.74464,10.91328 L293.74464,10.91328 L293.74464,170.688 C293.74464,171.311507 293.491914,171.875987 293.083311,172.284591 C292.674707,172.693194 292.110227,172.94592 291.48672,172.94592 L291.48672,172.94592 L2.688,172.94592 C2.06449261,172.94592 1.50001261,172.693194 1.09140946,172.284591 C0.682806304,171.875987 0.43008,171.311507 0.43008,170.688 L0.43008,170.688 L0.43008,10.91328 C0.43008,10.2897726 0.682806304,9.72529261 1.09140946,9.31668946 C1.50001261,8.9080863 2.06449261,8.65536 2.68800038,8.65536 L2.68800038,8.65536 L137.849828,8.65523984 L143.722652,2.79719119 Z" stroke-linejoin="square" fill="#FFFFFF" fill-rule="evenodd"></path>
                                </g>
                                <path d="M195.7704,148.07776 L195.7704,146.48848 L188.26752,146.48848 C187.50368,146.48848 186.85072,146.2236 186.30864,145.69384 C185.76656,145.16408 185.49552,144.51728 185.49552,143.75344 C185.49552,142.9896 185.76656,142.33664 186.30864,141.79456 C186.85072,141.25248 187.50368,140.98144 188.26752,140.98144 L188.26752,140.98144 L196.54656,140.98144 C196.96544,140.98144 197.33504,141.1416 197.65536,141.46192 C197.97568,141.78224 198.13584,142.15184 198.13584,142.57072 C198.13584,142.9896 197.97568,143.35304 197.65536,143.66104 C197.33504,143.96904 196.96544,144.12304 196.54656,144.12304 L196.54656,144.12304 L189.78288,144.12304 C189.56112,144.12304 189.45024,143.99368 189.45024,143.73496 C189.45024,143.47624 189.56112,143.34688 189.78288,143.34688 L189.78288,143.34688 L195.7704,143.34688 L195.7704,141.7576 L189.8568,141.7576 C189.31472,141.7576 188.84656,141.95472 188.45232,142.34896 C188.05808,142.7432 187.86096,143.21136 187.86096,143.75344 C187.86096,144.29552 188.05808,144.75752 188.45232,145.13944 C188.84656,145.52136 189.31472,145.71232 189.8568,145.71232 L189.8568,145.71232 L196.54656,145.71232 C197.40896,145.71232 198.14816,145.40432 198.76416,144.78832 C199.38016,144.17232 199.68816,143.43312 199.68816,142.57072 C199.68816,141.70832 199.38016,140.96296 198.76416,140.33464 C198.14816,139.70632 197.40896,139.39216 196.54656,139.39216 L196.54656,139.39216 L188.26752,139.39216 C187.06016,139.39216 186.0376,139.8172 185.19984,140.66728 C184.36208,141.51736 183.9432,142.54608 183.9432,143.75344 C183.9432,144.9608 184.36208,145.98336 185.19984,146.82112 C186.0376,147.65888 187.06016,148.07776 188.26752,148.07776 L188.26752,148.07776 L195.7704,148.07776 Z" id="a" fill="#7F8FA4" fill-rule="nonzero"></path>
                                <g id="Group-42" transform="translate(111.373600, 10.337440) scale(1, -1) rotate(90.000000) translate(-111.373600, -10.337440) translate(101.873600, -5.162560)">
                                    <g id="Group-7" transform="translate(9.031680, 15.052800) scale(-1, 1) translate(-9.031680, -15.052800) "></g>
                                </g>
                                <g id="Dynamic-group" transform="translate(212.459520, 128.647680)">
                                    <rect id="BG" fill="#0042FF" x="0" y="0" width="63.65184" height="28.38528" rx="3.44064"></rect>
                                    <path d="M13.7608397,17.74144 L14.1737165,16.1415424 L16.2277786,16.1415424 L16.6406554,17.74144 L18.2508749,17.74144 L16.1452032,11.0115482 L14.3182234,11.0115482 L12.2125517,17.74144 L13.7608397,17.74144 Z M15.918121,14.9545216 L14.4833741,14.9545216 L14.6485248,14.3352064 C14.7448627,13.9980237 14.8360397,13.6419174 14.9220557,13.2668877 C15.0080717,12.8918579 15.0923674,12.5254298 15.1749427,12.1676032 L15.1749427,12.1676032 L15.2162304,12.1676032 C15.305687,12.5185485 15.3951437,12.8832563 15.4846003,13.2617267 C15.574057,13.6401971 15.6669542,13.9980237 15.7632922,14.3352064 L15.7632922,14.3352064 L15.918121,14.9545216 Z M20.686848,17.865303 C20.9345741,17.865303 21.1788595,17.8050918 21.4197043,17.6846694 C21.6605491,17.564247 21.8704282,17.4145792 22.0493414,17.2356659 L22.0493414,17.2356659 L22.0906291,17.2356659 L22.1938483,17.74144 L23.4324787,17.74144 L23.4324787,10.5057741 L21.9151565,10.5057741 L21.9151565,12.2501786 L21.977088,13.0346445 C21.7981747,12.8694938 21.6158208,12.7387494 21.4300262,12.6424115 C21.2442317,12.5460736 21.0068275,12.4979046 20.7178138,12.4979046 C20.4494438,12.4979046 20.1862349,12.5598362 19.9281869,12.6836992 C19.6701389,12.8075622 19.4430566,12.9847552 19.2469402,13.2152781 C19.0508237,13.445801 18.8925542,13.7262131 18.7721318,14.0565146 C18.6517094,14.386816 18.5914982,14.7618458 18.5914982,15.1816038 C18.5914982,15.6013619 18.6413875,15.9763917 18.7411661,16.3066931 C18.8409446,16.6369946 18.9820109,16.9174067 19.1643648,17.1479296 C19.3467187,17.3784525 19.5669197,17.5556454 19.8249677,17.6795085 C20.0830157,17.8033715 20.3703091,17.865303 20.686848,17.865303 Z M21.079081,16.6266726 C20.7831859,16.6266726 20.5543834,16.5096909 20.3926733,16.2757274 C20.2309632,16.0417638 20.1501082,15.6701747 20.1501082,15.16096 C20.1501082,14.6723891 20.2430054,14.3128422 20.4288,14.0823194 C20.6145946,13.8517965 20.8279142,13.736535 21.068759,13.736535 C21.2063846,13.736535 21.3474509,13.7606195 21.4919578,13.8087885 C21.6364646,13.8569574 21.7775309,13.9429734 21.9151565,14.0668365 L21.9151565,14.0668365 L21.9151565,16.1621862 C21.7912934,16.3342182 21.6622694,16.4546406 21.5280845,16.5234534 C21.3938995,16.5922662 21.2442317,16.6266726 21.079081,16.6266726 Z M26.6013082,17.865303 C26.8490342,17.865303 27.0933197,17.8050918 27.3341645,17.6846694 C27.5750093,17.564247 27.7848883,17.4145792 27.9638016,17.2356659 L27.9638016,17.2356659 L28.0050893,17.2356659 L28.1083085,17.74144 L29.3469389,17.74144 L29.3469389,10.5057741 L27.8296166,10.5057741 L27.8296166,12.2501786 L27.8915482,13.0346445 C27.7126349,12.8694938 27.530281,12.7387494 27.3444864,12.6424115 C27.1586918,12.5460736 26.9212877,12.4979046 26.6322739,12.4979046 C26.363904,12.4979046 26.100695,12.5598362 25.842647,12.6836992 C25.584599,12.8075622 25.3575168,12.9847552 25.1614003,13.2152781 C24.9652838,13.445801 24.8070144,13.7262131 24.686592,14.0565146 C24.5661696,14.386816 24.5059584,14.7618458 24.5059584,15.1816038 C24.5059584,15.6013619 24.5558477,15.9763917 24.6556262,16.3066931 C24.7554048,16.6369946 24.896471,16.9174067 25.078825,17.1479296 C25.2611789,17.3784525 25.4813798,17.5556454 25.7394278,17.6795085 C25.9974758,17.8033715 26.2847693,17.865303 26.6013082,17.865303 Z M26.9935411,16.6266726 C26.6976461,16.6266726 26.4688435,16.5096909 26.3071334,16.2757274 C26.1454234,16.0417638 26.0645683,15.6701747 26.0645683,15.16096 C26.0645683,14.6723891 26.1574656,14.3128422 26.3432602,14.0823194 C26.5290547,13.8517965 26.7423744,13.736535 26.9832192,13.736535 C27.1208448,13.736535 27.261911,13.7606195 27.4064179,13.8087885 C27.5509248,13.8569574 27.691991,13.9429734 27.8296166,14.0668365 L27.8296166,14.0668365 L27.8296166,16.1621862 C27.7057536,16.3342182 27.5767296,16.4546406 27.4425446,16.5234534 C27.3083597,16.5922662 27.1586918,16.6266726 26.9935411,16.6266726 Z M34.3530701,17.74144 L34.3530701,14.2835968 C34.5182208,14.1253274 34.669609,14.0031846 34.8072346,13.9171686 C34.9448602,13.8311526 35.1100109,13.7881446 35.3026867,13.7881446 C35.5228877,13.7881446 35.6828774,13.8569574 35.782656,13.994583 C35.8824346,14.1322086 35.9323238,14.386816 35.9323238,14.7584051 L35.9323238,14.7584051 L35.9323238,17.74144 L37.4496461,17.74144 L37.4496461,14.5622886 C37.4496461,13.9154483 37.3240627,13.4096742 37.072896,13.0449664 C36.8217293,12.6802586 36.4174541,12.4979046 35.8600704,12.4979046 C35.5091251,12.4979046 35.2029082,12.575319 34.9414195,12.7301478 C34.6799309,12.8849766 34.4390861,13.0656102 34.2188851,13.2720486 L34.2188851,13.2720486 L34.1775974,13.2720486 L34.0743782,12.6217677 L32.8357478,12.6217677 L32.8357478,17.74144 L34.3530701,17.74144 Z M40.938455,17.865303 C41.2618752,17.865303 41.5732531,17.8050918 41.8725888,17.6846694 C42.1719245,17.564247 42.4368538,17.3904947 42.6673766,17.1634125 C42.8978995,16.9363302 43.0819738,16.6559181 43.2195994,16.322176 C43.357225,15.9884339 43.4260378,15.6082432 43.4260378,15.1816038 C43.4260378,14.7549645 43.357225,14.3747738 43.2195994,14.0410317 C43.0819738,13.7072896 42.8978995,13.4268774 42.6673766,13.1997952 C42.4368538,12.972713 42.1719245,12.7989606 41.8725888,12.6785382 C41.5732531,12.5581158 41.2618752,12.4979046 40.938455,12.4979046 C40.6150349,12.4979046 40.3019366,12.5581158 39.9991603,12.6785382 C39.696384,12.7989606 39.4297344,12.972713 39.1992115,13.1997952 C38.9686886,13.4268774 38.7846144,13.7072896 38.6469888,14.0410317 C38.5093632,14.3747738 38.4405504,14.7549645 38.4405504,15.1816038 C38.4405504,15.6082432 38.5093632,15.9884339 38.6469888,16.322176 C38.7846144,16.6559181 38.9686886,16.9363302 39.1992115,17.1634125 C39.4297344,17.3904947 39.696384,17.564247 39.9991603,17.6846694 C40.3019366,17.8050918 40.6150349,17.865303 40.938455,17.865303 Z M40.938455,16.6369946 C40.6219162,16.6369946 40.3862323,16.5062502 40.2314035,16.2447616 C40.0765747,15.983273 39.9991603,15.628887 39.9991603,15.1816038 C39.9991603,14.7343206 40.0765747,14.3799347 40.2314035,14.1184461 C40.3862323,13.8569574 40.6219162,13.7262131 40.938455,13.7262131 C41.2481126,13.7262131 41.4820762,13.8569574 41.6403456,14.1184461 C41.798615,14.3799347 41.8777498,14.7343206 41.8777498,15.1816038 C41.8777498,15.628887 41.798615,15.983273 41.6403456,16.2447616 C41.4820762,16.5062502 41.2481126,16.6369946 40.938455,16.6369946 Z M46.4400384,17.865303 C46.6877645,17.865303 46.9045248,17.8446592 47.0903194,17.8033715 C47.2761139,17.7620838 47.437824,17.7207962 47.5754496,17.6795085 L47.5754496,17.6795085 L47.3380454,16.575063 C47.2692326,16.6025882 47.1918182,16.6266726 47.1058022,16.6473165 C47.0197862,16.6679603 46.9354906,16.6782822 46.8529152,16.6782822 C46.6533581,16.6782822 46.4933683,16.6146304 46.3729459,16.4873267 C46.2525235,16.360023 46.1923123,16.1518643 46.1923123,15.8628506 L46.1923123,15.8628506 L46.1923123,13.8087885 L47.4206208,13.8087885 L47.4206208,12.6217677 L46.1923123,12.6217677 L46.1923123,11.2592742 L44.9330381,11.2592742 L44.7575654,12.6217677 L43.9730995,12.6836992 L43.9730995,13.8087885 L44.6749901,13.8087885 L44.6749901,15.8834944 C44.6749901,16.1793894 44.7076762,16.4494797 44.7730483,16.6937651 C44.8384205,16.9380506 44.9416397,17.1462093 45.0827059,17.3182413 C45.2237722,17.4902733 45.4061261,17.6244582 45.6297677,17.7207962 C45.8534093,17.8171341 46.1234995,17.865303 46.4400384,17.865303 Z M50.7133133,17.865303 C51.0229709,17.865303 51.3377894,17.8136934 51.657769,17.7104742 C51.9777485,17.607255 52.2684826,17.4661888 52.5299712,17.2872755 L52.5299712,17.2872755 L52.0241971,16.3686246 C51.652608,16.5957069 51.2844595,16.709248 50.9197517,16.709248 C50.5756877,16.709248 50.2849536,16.6215117 50.0475494,16.446039 C49.8101453,16.2705664 49.6570368,15.9867136 49.588224,15.5944806 L49.588224,15.5944806 L52.6538342,15.5944806 C52.6675968,15.5325491 52.6813594,15.4448128 52.6951219,15.3312717 C52.7088845,15.2177306 52.7157658,15.0921472 52.7157658,14.9545216 C52.7157658,14.6035763 52.6710374,14.2784358 52.5815808,13.9791002 C52.4921242,13.6797645 52.3562189,13.4199962 52.173865,13.1997952 C51.991511,12.9795942 51.7644288,12.8075622 51.4926182,12.6836992 C51.2208077,12.5598362 50.9025485,12.4979046 50.5378406,12.4979046 C50.228183,12.4979046 49.9288474,12.5598362 49.6398336,12.6836992 C49.3508198,12.8075622 49.0944922,12.9847552 48.8708506,13.2152781 C48.647209,13.445801 48.4665754,13.7279334 48.3289498,14.0616755 C48.1913242,14.3954176 48.1225114,14.768727 48.1225114,15.1816038 C48.1225114,15.6082432 48.1878835,15.9867136 48.3186278,16.317015 C48.4493722,16.6473165 48.6317261,16.9277286 48.8656896,17.1582515 C49.0996531,17.3887744 49.3749043,17.564247 49.6914432,17.6846694 C50.0079821,17.8050918 50.3486054,17.865303 50.7133133,17.865303 Z M51.4255258,14.6551859 L49.5779021,14.6551859 C49.6329523,14.3111219 49.7516544,14.0582349 49.9340083,13.8965248 C50.1163622,13.7348147 50.3279616,13.6539597 50.5688064,13.6539597 C50.878464,13.6539597 51.098665,13.746857 51.2294093,13.9326515 C51.3601536,14.1184461 51.4255258,14.3592909 51.4255258,14.6551859 L51.4255258,14.6551859 Z" id="Addnote" fill="#FFFFFF" fill-rule="nonzero"></path>
                                </g>
                            </g>
                            <g id="Group-12" filter="url(#filter-5)" transform="translate(104.783680, 0.000000)" fill="#26C164">
                                <circle id="Oval-2" cx="37.14272" cy="37.14272" r="14.62272"></circle>
                                <circle id="Oval-2" fill-opacity="0.088013549" cx="37.14272" cy="37.14272" r="36.96"></circle>
                            </g>
                        </g>
                    </g>
                    <rect id="Rectangle" fill="#DDE2E9" x="29.24544" y="100.79456" width="98.9184" height="12.04224"></rect>
                    <rect id="Rectangle" fill="#DDE2E9" x="29.24544" y="120.57824" width="143.64672" height="12.04224"></rect>
                </g>
                <g id="Group-24" transform="translate(275.520000, 35.280000)">
                    <g id="Group-21" transform="translate(96.982855, 45.689826) rotate(20.000000) translate(-96.982855, -45.689826) translate(63.982855, 9.189826)">
                        <path d="M56.3462156,72.843197 C54.3034406,63.0549657 50.4448875,57.0203532 44.7705563,54.7393595 C40.5078188,63.9038907 32.3782594,64.6124439 20.3818781,56.8650189 L17.09505,59.5494095 L12.93705,51.0355501 C-1.15960574e-13,37.9114689 -3.2342625,27.3875157 3.2342625,19.4636907 C12.93705,7.57795325 15.2174531,-0.699065503 38.54655,6.05414075 C44.3949188,8.849372 48.291075,19.5766579 50.2350188,38.2359985 L64.7821125,46.6023189 L56.3462156,72.843197 Z" id="Path-15" fill="#F8C1A4"></path>
                        <path d="M47.2328183,15.4527059 C23.0871859,-18.5985786 -5.65798013,10.8482228 2.68197457,34.6503809 C11.3540025,59.4002732 26.8052026,24.7173504 26.9590246,24.5282496 C28.067921,23.1650299 30.7901832,22.9247647 32.2014121,23.9718809 C36.0394068,26.8196304 37.4670611,32.1608184 41.2249808,35.1134309 C43.1997048,36.6649793 46.2484796,35.8486265 48.5617246,36.8262434 C49.9293736,37.4042352 50.5605201,39.2795333 51.9944371,39.6647871 C54.1633553,40.2475154 56.6259257,40.3407758 58.7311058,39.5584746 C60.7058646,38.824639 62.4798275,37.2456583 63.4856371,35.3945684 C64.5778014,33.3845513 65.7682428,30.6392701 64.6668871,28.6342746 C61.3620326,22.6178549 54.3671447,20.062973 48.6644933,17.3805059 L47.2328183,15.4527059 Z" id="Path-16" fill="#252525"></path>
                    </g>
                    <path d="M194.765078,119.204533 L120.087851,62.7056 L105.392393,88.3344486 L105.392393,109.165435 L94.7721933,139.061985 L28.2549166,169.884901 L28.2549166,180.108895 C72.4312231,170.538326 98.1437151,162.116754 105.392393,154.844178 C112.64107,147.571603 118.796723,140.359401 123.859352,133.207574 L170.200325,150.51233 L194.765078,119.204533 Z" id="Path-14" fill="#FFAA00"></path>
                    <path d="M193.485961,117.1376 C212.946946,141.005043 215.211958,165.226937 200.280998,189.803284 C185.350037,214.379631 178.782531,226.647828 180.57848,226.607875 L227.894103,213.625772 L233.569137,248.828185 L159.977579,264.608741 C144.074963,259.090755 138.697715,246.4238 143.845836,226.607875 C148.993957,206.79195 155.17328,182.521073 162.383806,153.795243 L193.485961,117.1376 Z" id="Path-13" fill="#B29191"></path>
                    <path d="M160.469532,229.289884 L168.462222,263.370007 L104.353422,263.370007 C109.007072,254.697649 114.419439,250.36147 120.590524,250.36147 C126.761608,250.36147 134.686021,250.36147 144.363761,250.36147 L144.363761,239.186541 L160.469532,229.289884 Z" id="Path-17" fill="#000000"></path>
                    <polygon id="Path-18" fill="#000000" points="228.968397 222.584574 241.492611 222.584574 241.492611 260.533596 223.490296 263.370007 228.968397 254.592477"></polygon>
                    <path d="M135.691406,191.934287 L176.890911,231.379181 L135.691406,245.8928 L86.6952463,189.19651 C80.5028489,173.680057 89.7896914,163.181671 114.555774,157.701351 C139.321856,152.221032 165.978858,138.610181 194.52678,116.8688 C214.208713,152.825654 215.703329,173.238653 199.010627,178.107798 C182.317926,182.976943 161.211519,187.585773 135.691406,191.934287 Z" id="Path-12" fill="#DCC0C0"></path>
                    <path d="M29.2631544,169.675173 C24.3012462,169.808498 19.2891323,169.354506 14.3774298,170.075149 C10.104502,170.702071 -5.74805273,177.843561 2.19405539,186.119395 C10.209809,194.471968 12.3853878,182.326823 17.6624951,179.605783 C20.0582491,178.370458 36.0053717,188.208013 30.1771254,170.496709 L29.2631544,169.675173 Z" id="Path-19" fill="#F8C1A4"></path>
                </g>
            </g>
            <g id="Group-32" transform="translate(0.000000, 79.480000)">
                <polygon id="Path-7" fill="#D4A181" transform="translate(154.069579, 222.920000) rotate(-36.000000) translate(-154.069579, -222.920000) " points="129.36 221.762988 175.770544 209.48 178.779157 220.686571 129.36 236.36"></polygon>
                <path d="M73.0114805,202.76 C83.3521693,236.612702 90.6454751,253.539054 94.8913979,253.539054 C101.260282,253.539054 141.682137,232.656664 141.682137,215.502052 C151.840829,223.925653 158.184131,228.95893 160.712042,230.601883 C129.843888,263.151063 111.641754,278.670906 106.10564,277.161413 C97.8014672,274.897174 65.7301303,274.495786 63.2453478,262.389455 C61.5888262,254.318568 57.8670436,239.67989 52.08,218.47342 L73.0114805,202.76 Z" id="Path-35" fill="#ADB9C6"></path>
                <polygon id="Path-32" fill="#156B9D" points="98.5808748 316.719561 127.437853 508.239561 107.886532 506.944799 93.5810607 451.26583 43.68 316.719561"></polygon>
                <g id="Group-31" transform="translate(40.399992, 138.920000)">
                    <path d="M34.2545195,51.0448532 C43.9968225,51.0448532 43.68,40.7975757 43.68,26.88 C43.68,12.9624243 35.782303,1.68 26.04,1.68 C16.297697,1.68 8.4,12.9624243 8.4,26.88 C8.4,40.7975757 24.5122166,51.0448532 34.2545195,51.0448532 Z" id="Oval" fill="#8F5539"></path>
                    <path d="M10.9435815,35.0288043 C11.3074785,49.6500649 10.4914395,58.3922967 8.4954644,61.2554997 C6.49948931,64.1187027 13.6708449,64.5402526 30.0095312,62.5201495 L21.2708447,39.5238611 L10.9435815,35.0288043 Z" id="Path-27" fill="#8F5539"></path>
                    <path d="M20.9603798,23.3023299 C22.9528065,16.1597706 28.3102687,12.588491 37.0327663,12.588491 C50.1165128,12.588491 40.5718246,-1.33217236 30.7661022,0.103937948 C20.9603798,1.54004826 -1.44140699e-12,0.405977022 -1.44140699e-12,22.1991952 C-1.44140699e-12,36.7280074 4.12081425,41.290887 12.3624428,35.887834 C11.4354696,28.1762874 12.2740888,23.7736764 14.8783004,22.6800011 C17.4825121,21.5863257 19.5098719,21.7937687 20.9603798,23.3023299 Z" id="Path-28" fill="#000000"></path>
                    <path d="M18.780296,20.8549171 C17.5266928,38.9057821 20.1980192,49.1881721 26.7942752,51.7020871 C33.3905311,54.2160021 38.7449859,53.6828189 42.8576397,50.1025376 C44.2149361,47.3701536 43.2070135,45.8024992 39.8338717,45.3995742 C36.46073,44.9966492 38.6292969,42.7564105 46.3395726,38.6788583 C47.7827356,36.425294 46.8509173,35.5914704 43.5441176,36.1773873 C38.5839181,37.0562628 30.8264392,44.5958092 28.0682535,39.2824639 C25.3100677,33.9691186 24.1575876,19.3465381 24.1575876,17.3360831 C24.1575876,15.9957798 22.365157,17.1687244 18.780296,20.8549171 Z" id="Path-29" fill="#000000"></path>
                </g>
                <path d="M46.6845385,200.562061 C61.9639291,194.846365 70.7819601,194.846365 73.1386312,200.562061 C76.673638,209.135605 79.8841001,241.72849 87.3972706,254.185607 C92.4060509,262.490351 98.7043592,283.506912 106.292196,317.235289 L36.96,317.235289 L46.6845385,200.562061 Z" id="Path-30" fill="#E4E3E3"></path>
                <g id="Group-16" transform="translate(278.500017, 139.562990) rotate(-10.000000) translate(-278.500017, -139.562990) translate(131.000017, 24.062990)">
                    <g id="Group-20" transform="translate(0.000000, 0.000000)">
                        <g id="Group-10" transform="translate(0.000000, 0.000000)">
                            <g id="Group-11" transform="translate(0.000000, 56.442560)">
                                <g id="Combined-Shape">
                                    <use fill="black" fill-opacity="1" filter="url(#filter-7)" xlink:href="#path-6"></use>
                                    <path stroke="#D0D0D0" stroke-width="0.86016" d="M143.722652,2.79719119 L150.198334,8.65523986 L291.48672,8.65536 C292.110227,8.65536 292.674707,8.9080863 293.083311,9.31668946 C293.491914,9.72529261 293.74464,10.2897726 293.74464,10.91328 L293.74464,10.91328 L293.74464,170.688 C293.74464,171.311507 293.491914,171.875987 293.083311,172.284591 C292.674707,172.693194 292.110227,172.94592 291.48672,172.94592 L291.48672,172.94592 L2.688,172.94592 C2.06449261,172.94592 1.50001261,172.693194 1.09140946,172.284591 C0.682806304,171.875987 0.43008,171.311507 0.43008,170.688 L0.43008,170.688 L0.43008,10.91328 C0.43008,10.2897726 0.682806304,9.72529261 1.09140946,9.31668946 C1.50001261,8.9080863 2.06449261,8.65536 2.68800038,8.65536 L2.68800038,8.65536 L137.849828,8.65523984 L143.722652,2.79719119 Z" stroke-linejoin="square" fill="#FFFFFF" fill-rule="evenodd"></path>
                                </g>
                                <path d="M195.7704,148.07776 L195.7704,146.48848 L188.26752,146.48848 C187.50368,146.48848 186.85072,146.2236 186.30864,145.69384 C185.76656,145.16408 185.49552,144.51728 185.49552,143.75344 C185.49552,142.9896 185.76656,142.33664 186.30864,141.79456 C186.85072,141.25248 187.50368,140.98144 188.26752,140.98144 L188.26752,140.98144 L196.54656,140.98144 C196.96544,140.98144 197.33504,141.1416 197.65536,141.46192 C197.97568,141.78224 198.13584,142.15184 198.13584,142.57072 C198.13584,142.9896 197.97568,143.35304 197.65536,143.66104 C197.33504,143.96904 196.96544,144.12304 196.54656,144.12304 L196.54656,144.12304 L189.78288,144.12304 C189.56112,144.12304 189.45024,143.99368 189.45024,143.73496 C189.45024,143.47624 189.56112,143.34688 189.78288,143.34688 L189.78288,143.34688 L195.7704,143.34688 L195.7704,141.7576 L189.8568,141.7576 C189.31472,141.7576 188.84656,141.95472 188.45232,142.34896 C188.05808,142.7432 187.86096,143.21136 187.86096,143.75344 C187.86096,144.29552 188.05808,144.75752 188.45232,145.13944 C188.84656,145.52136 189.31472,145.71232 189.8568,145.71232 L189.8568,145.71232 L196.54656,145.71232 C197.40896,145.71232 198.14816,145.40432 198.76416,144.78832 C199.38016,144.17232 199.68816,143.43312 199.68816,142.57072 C199.68816,141.70832 199.38016,140.96296 198.76416,140.33464 C198.14816,139.70632 197.40896,139.39216 196.54656,139.39216 L196.54656,139.39216 L188.26752,139.39216 C187.06016,139.39216 186.0376,139.8172 185.19984,140.66728 C184.36208,141.51736 183.9432,142.54608 183.9432,143.75344 C183.9432,144.9608 184.36208,145.98336 185.19984,146.82112 C186.0376,147.65888 187.06016,148.07776 188.26752,148.07776 L188.26752,148.07776 L195.7704,148.07776 Z" id="a" fill="#7F8FA4" fill-rule="nonzero"></path>
                                <g id="Group-42" transform="translate(111.373600, 10.337440) scale(1, -1) rotate(90.000000) translate(-111.373600, -10.337440) translate(101.873600, -5.162560)">
                                    <g id="Group-7" transform="translate(9.031680, 15.052800) scale(-1, 1) translate(-9.031680, -15.052800) "></g>
                                </g>
                                <g id="Dynamic-group" transform="translate(212.459520, 128.647680)">
                                    <rect id="BG" fill="#0042FF" x="0" y="0" width="63.65184" height="28.38528" rx="3.44064"></rect>
                                    <path d="M13.7608397,17.74144 L14.1737165,16.1415424 L16.2277786,16.1415424 L16.6406554,17.74144 L18.2508749,17.74144 L16.1452032,11.0115482 L14.3182234,11.0115482 L12.2125517,17.74144 L13.7608397,17.74144 Z M15.918121,14.9545216 L14.4833741,14.9545216 L14.6485248,14.3352064 C14.7448627,13.9980237 14.8360397,13.6419174 14.9220557,13.2668877 C15.0080717,12.8918579 15.0923674,12.5254298 15.1749427,12.1676032 L15.1749427,12.1676032 L15.2162304,12.1676032 C15.305687,12.5185485 15.3951437,12.8832563 15.4846003,13.2617267 C15.574057,13.6401971 15.6669542,13.9980237 15.7632922,14.3352064 L15.7632922,14.3352064 L15.918121,14.9545216 Z M20.686848,17.865303 C20.9345741,17.865303 21.1788595,17.8050918 21.4197043,17.6846694 C21.6605491,17.564247 21.8704282,17.4145792 22.0493414,17.2356659 L22.0493414,17.2356659 L22.0906291,17.2356659 L22.1938483,17.74144 L23.4324787,17.74144 L23.4324787,10.5057741 L21.9151565,10.5057741 L21.9151565,12.2501786 L21.977088,13.0346445 C21.7981747,12.8694938 21.6158208,12.7387494 21.4300262,12.6424115 C21.2442317,12.5460736 21.0068275,12.4979046 20.7178138,12.4979046 C20.4494438,12.4979046 20.1862349,12.5598362 19.9281869,12.6836992 C19.6701389,12.8075622 19.4430566,12.9847552 19.2469402,13.2152781 C19.0508237,13.445801 18.8925542,13.7262131 18.7721318,14.0565146 C18.6517094,14.386816 18.5914982,14.7618458 18.5914982,15.1816038 C18.5914982,15.6013619 18.6413875,15.9763917 18.7411661,16.3066931 C18.8409446,16.6369946 18.9820109,16.9174067 19.1643648,17.1479296 C19.3467187,17.3784525 19.5669197,17.5556454 19.8249677,17.6795085 C20.0830157,17.8033715 20.3703091,17.865303 20.686848,17.865303 Z M21.079081,16.6266726 C20.7831859,16.6266726 20.5543834,16.5096909 20.3926733,16.2757274 C20.2309632,16.0417638 20.1501082,15.6701747 20.1501082,15.16096 C20.1501082,14.6723891 20.2430054,14.3128422 20.4288,14.0823194 C20.6145946,13.8517965 20.8279142,13.736535 21.068759,13.736535 C21.2063846,13.736535 21.3474509,13.7606195 21.4919578,13.8087885 C21.6364646,13.8569574 21.7775309,13.9429734 21.9151565,14.0668365 L21.9151565,14.0668365 L21.9151565,16.1621862 C21.7912934,16.3342182 21.6622694,16.4546406 21.5280845,16.5234534 C21.3938995,16.5922662 21.2442317,16.6266726 21.079081,16.6266726 Z M26.6013082,17.865303 C26.8490342,17.865303 27.0933197,17.8050918 27.3341645,17.6846694 C27.5750093,17.564247 27.7848883,17.4145792 27.9638016,17.2356659 L27.9638016,17.2356659 L28.0050893,17.2356659 L28.1083085,17.74144 L29.3469389,17.74144 L29.3469389,10.5057741 L27.8296166,10.5057741 L27.8296166,12.2501786 L27.8915482,13.0346445 C27.7126349,12.8694938 27.530281,12.7387494 27.3444864,12.6424115 C27.1586918,12.5460736 26.9212877,12.4979046 26.6322739,12.4979046 C26.363904,12.4979046 26.100695,12.5598362 25.842647,12.6836992 C25.584599,12.8075622 25.3575168,12.9847552 25.1614003,13.2152781 C24.9652838,13.445801 24.8070144,13.7262131 24.686592,14.0565146 C24.5661696,14.386816 24.5059584,14.7618458 24.5059584,15.1816038 C24.5059584,15.6013619 24.5558477,15.9763917 24.6556262,16.3066931 C24.7554048,16.6369946 24.896471,16.9174067 25.078825,17.1479296 C25.2611789,17.3784525 25.4813798,17.5556454 25.7394278,17.6795085 C25.9974758,17.8033715 26.2847693,17.865303 26.6013082,17.865303 Z M26.9935411,16.6266726 C26.6976461,16.6266726 26.4688435,16.5096909 26.3071334,16.2757274 C26.1454234,16.0417638 26.0645683,15.6701747 26.0645683,15.16096 C26.0645683,14.6723891 26.1574656,14.3128422 26.3432602,14.0823194 C26.5290547,13.8517965 26.7423744,13.736535 26.9832192,13.736535 C27.1208448,13.736535 27.261911,13.7606195 27.4064179,13.8087885 C27.5509248,13.8569574 27.691991,13.9429734 27.8296166,14.0668365 L27.8296166,14.0668365 L27.8296166,16.1621862 C27.7057536,16.3342182 27.5767296,16.4546406 27.4425446,16.5234534 C27.3083597,16.5922662 27.1586918,16.6266726 26.9935411,16.6266726 Z M34.3530701,17.74144 L34.3530701,14.2835968 C34.5182208,14.1253274 34.669609,14.0031846 34.8072346,13.9171686 C34.9448602,13.8311526 35.1100109,13.7881446 35.3026867,13.7881446 C35.5228877,13.7881446 35.6828774,13.8569574 35.782656,13.994583 C35.8824346,14.1322086 35.9323238,14.386816 35.9323238,14.7584051 L35.9323238,14.7584051 L35.9323238,17.74144 L37.4496461,17.74144 L37.4496461,14.5622886 C37.4496461,13.9154483 37.3240627,13.4096742 37.072896,13.0449664 C36.8217293,12.6802586 36.4174541,12.4979046 35.8600704,12.4979046 C35.5091251,12.4979046 35.2029082,12.575319 34.9414195,12.7301478 C34.6799309,12.8849766 34.4390861,13.0656102 34.2188851,13.2720486 L34.2188851,13.2720486 L34.1775974,13.2720486 L34.0743782,12.6217677 L32.8357478,12.6217677 L32.8357478,17.74144 L34.3530701,17.74144 Z M40.938455,17.865303 C41.2618752,17.865303 41.5732531,17.8050918 41.8725888,17.6846694 C42.1719245,17.564247 42.4368538,17.3904947 42.6673766,17.1634125 C42.8978995,16.9363302 43.0819738,16.6559181 43.2195994,16.322176 C43.357225,15.9884339 43.4260378,15.6082432 43.4260378,15.1816038 C43.4260378,14.7549645 43.357225,14.3747738 43.2195994,14.0410317 C43.0819738,13.7072896 42.8978995,13.4268774 42.6673766,13.1997952 C42.4368538,12.972713 42.1719245,12.7989606 41.8725888,12.6785382 C41.5732531,12.5581158 41.2618752,12.4979046 40.938455,12.4979046 C40.6150349,12.4979046 40.3019366,12.5581158 39.9991603,12.6785382 C39.696384,12.7989606 39.4297344,12.972713 39.1992115,13.1997952 C38.9686886,13.4268774 38.7846144,13.7072896 38.6469888,14.0410317 C38.5093632,14.3747738 38.4405504,14.7549645 38.4405504,15.1816038 C38.4405504,15.6082432 38.5093632,15.9884339 38.6469888,16.322176 C38.7846144,16.6559181 38.9686886,16.9363302 39.1992115,17.1634125 C39.4297344,17.3904947 39.696384,17.564247 39.9991603,17.6846694 C40.3019366,17.8050918 40.6150349,17.865303 40.938455,17.865303 Z M40.938455,16.6369946 C40.6219162,16.6369946 40.3862323,16.5062502 40.2314035,16.2447616 C40.0765747,15.983273 39.9991603,15.628887 39.9991603,15.1816038 C39.9991603,14.7343206 40.0765747,14.3799347 40.2314035,14.1184461 C40.3862323,13.8569574 40.6219162,13.7262131 40.938455,13.7262131 C41.2481126,13.7262131 41.4820762,13.8569574 41.6403456,14.1184461 C41.798615,14.3799347 41.8777498,14.7343206 41.8777498,15.1816038 C41.8777498,15.628887 41.798615,15.983273 41.6403456,16.2447616 C41.4820762,16.5062502 41.2481126,16.6369946 40.938455,16.6369946 Z M46.4400384,17.865303 C46.6877645,17.865303 46.9045248,17.8446592 47.0903194,17.8033715 C47.2761139,17.7620838 47.437824,17.7207962 47.5754496,17.6795085 L47.5754496,17.6795085 L47.3380454,16.575063 C47.2692326,16.6025882 47.1918182,16.6266726 47.1058022,16.6473165 C47.0197862,16.6679603 46.9354906,16.6782822 46.8529152,16.6782822 C46.6533581,16.6782822 46.4933683,16.6146304 46.3729459,16.4873267 C46.2525235,16.360023 46.1923123,16.1518643 46.1923123,15.8628506 L46.1923123,15.8628506 L46.1923123,13.8087885 L47.4206208,13.8087885 L47.4206208,12.6217677 L46.1923123,12.6217677 L46.1923123,11.2592742 L44.9330381,11.2592742 L44.7575654,12.6217677 L43.9730995,12.6836992 L43.9730995,13.8087885 L44.6749901,13.8087885 L44.6749901,15.8834944 C44.6749901,16.1793894 44.7076762,16.4494797 44.7730483,16.6937651 C44.8384205,16.9380506 44.9416397,17.1462093 45.0827059,17.3182413 C45.2237722,17.4902733 45.4061261,17.6244582 45.6297677,17.7207962 C45.8534093,17.8171341 46.1234995,17.865303 46.4400384,17.865303 Z M50.7133133,17.865303 C51.0229709,17.865303 51.3377894,17.8136934 51.657769,17.7104742 C51.9777485,17.607255 52.2684826,17.4661888 52.5299712,17.2872755 L52.5299712,17.2872755 L52.0241971,16.3686246 C51.652608,16.5957069 51.2844595,16.709248 50.9197517,16.709248 C50.5756877,16.709248 50.2849536,16.6215117 50.0475494,16.446039 C49.8101453,16.2705664 49.6570368,15.9867136 49.588224,15.5944806 L49.588224,15.5944806 L52.6538342,15.5944806 C52.6675968,15.5325491 52.6813594,15.4448128 52.6951219,15.3312717 C52.7088845,15.2177306 52.7157658,15.0921472 52.7157658,14.9545216 C52.7157658,14.6035763 52.6710374,14.2784358 52.5815808,13.9791002 C52.4921242,13.6797645 52.3562189,13.4199962 52.173865,13.1997952 C51.991511,12.9795942 51.7644288,12.8075622 51.4926182,12.6836992 C51.2208077,12.5598362 50.9025485,12.4979046 50.5378406,12.4979046 C50.228183,12.4979046 49.9288474,12.5598362 49.6398336,12.6836992 C49.3508198,12.8075622 49.0944922,12.9847552 48.8708506,13.2152781 C48.647209,13.445801 48.4665754,13.7279334 48.3289498,14.0616755 C48.1913242,14.3954176 48.1225114,14.768727 48.1225114,15.1816038 C48.1225114,15.6082432 48.1878835,15.9867136 48.3186278,16.317015 C48.4493722,16.6473165 48.6317261,16.9277286 48.8656896,17.1582515 C49.0996531,17.3887744 49.3749043,17.564247 49.6914432,17.6846694 C50.0079821,17.8050918 50.3486054,17.865303 50.7133133,17.865303 Z M51.4255258,14.6551859 L49.5779021,14.6551859 C49.6329523,14.3111219 49.7516544,14.0582349 49.9340083,13.8965248 C50.1163622,13.7348147 50.3279616,13.6539597 50.5688064,13.6539597 C50.878464,13.6539597 51.098665,13.746857 51.2294093,13.9326515 C51.3601536,14.1184461 51.4255258,14.3592909 51.4255258,14.6551859 L51.4255258,14.6551859 Z" id="Addnote" fill="#FFFFFF" fill-rule="nonzero"></path>
                                </g>
                            </g>
                            <g id="Group-12" filter="url(#filter-8)" transform="translate(104.783680, 0.000000)" fill="#26C164">
                                <circle id="Oval-2" cx="37.14272" cy="37.14272" r="14.62272"></circle>
                                <circle id="Oval-2" fill-opacity="0.088013549" cx="37.14272" cy="37.14272" r="36.96"></circle>
                            </g>
                        </g>
                    </g>
                    <rect id="Rectangle" fill="#DDE2E9" x="29.24544" y="100.79456" width="98.9184" height="12.04224"></rect>
                    <rect id="Rectangle" fill="#DDE2E9" x="29.24544" y="120.57824" width="143.64672" height="12.04224"></rect>
                </g>
                <polyline id="Path-31" fill="#1B7CB5" points="96.9048681 316.239561 64.2585212 410.327373 20.2772035 507.759561 1.68 507.759561 34.4328438 410.327373 39.2355599 316.239561 102.48 316.239561"></polyline>
                <path d="M77.2578444,215.77547 C96.6078225,212.435285 114.243323,206.589059 123.118514,194.241141 C126.093218,190.10248 126.183969,183.864564 132.340119,180.478306 C132.958963,180.137905 133.589748,181.444648 134.38989,181.336791 L132.428349,186.156742 C134.522735,185.874425 149.276203,176.616452 157.255628,179.221669 C162.923217,181.072091 161.129129,190.668766 156.64432,192.759854 C152.556436,194.665871 146.764017,194.750357 142.804822,196.763442 C128.006537,204.287751 113.547935,221.203252 102.98948,228.754034 C83.4806771,242.705575 59.2968601,234.844671 72.7975051,216.66003 L77.2578444,215.77547 Z" id="Path-8" fill="#8F5539" transform="translate(114.844800, 207.320000) rotate(-10.000000) translate(-114.844800, -207.320000) "></path>
                <path d="M55.44,233.93599 C80.5128454,221.489388 95.9181288,211.152661 101.65585,202.925809 C107.393571,194.698957 116.055214,198.801466 127.640779,215.233335 C111.372193,245.652562 96.7411937,259.740072 83.7477801,257.495868 C70.7543664,255.251663 61.3184397,247.398371 55.44,233.93599 Z" id="Path-33" fill="#C3CFD7"></path>
                <path d="M68.9293493,198.227286 C77.0633789,244.105365 99.9864589,301.556368 83.117924,326.5997 C63.1657646,326.5997 45.5759772,326.11823 30.3485616,325.155289 C23.5561872,232.344358 36.4164498,190.035024 68.9293493,198.227286 Z" id="Path-34" fill="#C3CFD7"></path>
                <path d="M24.3673862,506.36 C43.6870356,516.922175 55.7969479,522.203262 60.6971232,522.203262 C60.6971232,526.01844 60.6971232,527.612221 60.6971232,526.984607 L20.9053011,526.984607 L11.8703074,524.054267 L11.8703074,526.984607 L0,526.984607 L0,506.36 L24.3673862,506.36 Z" id="Path-36" fill="#1A174A"></path>
                <path d="M130.207386,506.36 C149.527036,516.922175 161.636948,522.203262 166.537123,522.203262 C166.537123,526.01844 166.537123,527.612221 166.537123,526.984607 L126.745301,526.984607 L117.710307,524.054267 L117.710307,526.984607 L105.84,526.984607 L105.84,506.36 L130.207386,506.36 Z" id="Path-36" fill="#1A174A"></path>
            </g>
        </g>
    </g>
</svg>