<?xml version="1.0" encoding="UTF-8"?>
<svg width="707px" height="489px" viewBox="0 0 707 489" version="1.1" xmlns="http://www.w3.org/2000/svg" xmlns:xlink="http://www.w3.org/1999/xlink">
    <!-- Generator: Sketch 53.2 (72643) - https://sketchapp.com -->
    <title>Group 5</title>
    <desc>Created with Sketch.</desc>
    <defs>
        <rect id="path-1" x="0" y="0" width="707" height="515"></rect>
    </defs>
    <g id="Extension" stroke="none" stroke-width="1" fill="none" fill-rule="evenodd">
        <g id="Group-5">
            <mask id="mask-2" fill="white">
                <use xlink:href="#path-1"></use>
            </mask>
            <use id="Mask" fill-opacity="0" fill="#F5F8FA" xlink:href="#path-1"></use>
            <g mask="url(#mask-2)" fill="#FFFFFF" id="Fill-1">
                <g transform="translate(-219.000000, -8.000000)">
                    <path d="M210.302334,153 C141.448901,153 76.9466704,122.239542 18.4839095,61.5573829 L0,42.3754022 L36.6545324,3.61029675 L55.1558467,22.8105113 C103.837104,73.3546657 156.034133,99.3013944 211.520671,98.4444047 C306.951251,97.806221 380.886889,20.2030747 381.635296,19.4007866 L399.840728,0 L437,38.0539864 L418.864187,57.5277083 C415.278796,61.3932785 329.664529,151.942438 212.373506,153 C211.694719,153 210.998526,153 210.302334,153" transform="translate(218.500000, 76.500000) scale(1, -1) translate(-218.500000, -76.500000) "></path>
                    <path d="M908.302334,497 C839.448901,497 774.94667,466.239542 716.48391,405.557383 L698,386.375402 L734.654532,347.610297 L753.155847,366.810511 C801.837104,417.354666 854.034133,443.301394 909.520671,442.444405 C1004.95125,441.806221 1078.88689,364.203075 1079.6353,363.400787 L1097.84073,344 L1135,382.053986 L1116.86419,401.527708 C1113.2788,405.393279 1027.66453,495.942438 910.373506,497 C909.694719,497 908.998526,497 908.302334,497"></path>
                </g>
            </g>
        </g>
    </g>
</svg>