<?xml version="1.0" encoding="UTF-8"?>
<svg width="317px" height="29px" viewBox="0 0 317 29" version="1.1" xmlns="http://www.w3.org/2000/svg" xmlns:xlink="http://www.w3.org/1999/xlink">
    <title>Group 7</title>
    <g id="Widget-2.0" stroke="none" stroke-width="1" fill="none" fill-rule="evenodd">
        <g id="Group-7">
            <g id="Super-Simple-Feedbac" transform="translate(0.113000, 0.670000)" fill-rule="nonzero">
                <path d="M6.006,15.54 C6.734,15.54 7.406,15.442 8.022,15.246 C8.638,15.05 9.1665,14.77 9.6075,14.406 C10.0485,14.042 10.395,13.6045 10.647,13.0935 C10.899,12.5825 11.025,12.012 11.025,11.382 L11.025,11.382 L11.025,11.34 C11.025,10.22 10.6365,9.3345 9.8595,8.6835 C9.0825,8.0325 7.875,7.532 6.237,7.182 C5.425,7.014 4.76,6.8355 4.242,6.6465 C3.724,6.4575 3.318,6.2475 3.024,6.0165 C2.73,5.7855 2.527,5.5335 2.415,5.2605 C2.303,4.9875 2.247,4.676 2.247,4.326 L2.247,4.326 L2.247,4.284 C2.247,3.612 2.527,3.0485 3.087,2.5935 C3.647,2.1385 4.41,1.911 5.376,1.911 C6.132,1.911 6.8565,2.037 7.5495,2.289 C8.2425,2.541 8.932,2.947 9.618,3.507 L9.618,3.507 L10.584,2.226 C9.828,1.624 9.0475,1.1725 8.2425,0.8715 C7.4375,0.5705 6.496,0.42 5.418,0.42 C4.718,0.42 4.074,0.5215 3.486,0.7245 C2.898,0.9275 2.387,1.2075 1.953,1.5645 C1.519,1.9215 1.183,2.345 0.945,2.835 C0.707,3.325 0.588,3.857 0.588,4.431 L0.588,4.431 L0.588,4.473 C0.588,5.075 0.686,5.6 0.882,6.048 C1.078,6.496 1.379,6.888 1.785,7.224 C2.191,7.56 2.7055,7.847 3.3285,8.085 C3.9515,8.323 4.683,8.533 5.523,8.715 C6.293,8.883 6.9265,9.058 7.4235,9.24 C7.9205,9.422 8.309,9.625 8.589,9.849 C8.869,10.073 9.065,10.3215 9.177,10.5945 C9.289,10.8675 9.345,11.172 9.345,11.508 L9.345,11.508 L9.345,11.55 C9.345,12.278 9.0475,12.8765 8.4525,13.3455 C7.8575,13.8145 7.063,14.049 6.069,14.049 C5.047,14.049 4.144,13.8775 3.36,13.5345 C2.576,13.1915 1.799,12.67 1.029,11.97 L1.029,11.97 L-7.10542736e-15,13.188 C0.882,13.986 1.8095,14.5775 2.7825,14.9625 C3.7555,15.3475 4.83,15.54 6.006,15.54 Z M16.9855,15.561 C17.9235,15.561 18.6865,15.3545 19.2745,14.9415 C19.8625,14.5285 20.3385,14.028 20.7025,13.44 L20.7025,13.44 L20.7025,15.33 L22.2985,15.33 L22.2985,4.473 L20.7025,4.473 L20.7025,10.689 C20.7025,11.193 20.6185,11.655 20.4505,12.075 C20.2825,12.495 20.055,12.8555 19.768,13.1565 C19.481,13.4575 19.138,13.6885 18.739,13.8495 C18.34,14.0105 17.9095,14.091 17.4475,14.091 C16.4815,14.091 15.7395,13.797 15.2215,13.209 C14.7035,12.621 14.4445,11.823 14.4445,10.815 L14.4445,10.815 L14.4445,4.473 L12.8275,4.473 L12.8275,11.214 C12.8275,11.858 12.922,12.446 13.111,12.978 C13.3,13.51 13.573,13.9685 13.93,14.3535 C14.287,14.7385 14.721,15.036 15.232,15.246 C15.743,15.456 16.3275,15.561 16.9855,15.561 Z M26.411,18.69 L26.411,13.251 C26.621,13.559 26.8625,13.853 27.1355,14.133 C27.4085,14.413 27.713,14.658 28.049,14.868 C28.385,15.078 28.763,15.246 29.183,15.372 C29.603,15.498 30.065,15.561 30.569,15.561 C31.227,15.561 31.8675,15.4315 32.4905,15.1725 C33.1135,14.9135 33.6665,14.5425 34.1495,14.0595 C34.6325,13.5765 35.021,12.985 35.315,12.285 C35.609,11.585 35.756,10.794 35.756,9.912 L35.756,9.912 L35.756,9.87 C35.756,8.974 35.609,8.1795 35.315,7.4865 C35.021,6.7935 34.629,6.2055 34.139,5.7225 C33.649,5.2395 33.096,4.872 32.48,4.62 C31.864,4.368 31.227,4.242 30.569,4.242 C30.065,4.242 29.6065,4.305 29.1935,4.431 C28.7805,4.557 28.406,4.732 28.07,4.956 C27.734,5.18 27.4295,5.439 27.1565,5.733 C26.8835,6.027 26.635,6.335 26.411,6.657 L26.411,6.657 L26.411,4.473 L24.794,4.473 L24.794,18.69 L26.411,18.69 Z M30.275,14.112 C29.771,14.112 29.2845,14.0105 28.8155,13.8075 C28.3465,13.6045 27.9265,13.321 27.5555,12.957 C27.1845,12.593 26.8905,12.152 26.6735,11.634 C26.4565,11.116 26.348,10.542 26.348,9.912 L26.348,9.912 L26.348,9.87 C26.348,9.254 26.4565,8.687 26.6735,8.169 C26.8905,7.651 27.1845,7.21 27.5555,6.846 C27.9265,6.482 28.3465,6.1985 28.8155,5.9955 C29.2845,5.7925 29.771,5.691 30.275,5.691 C30.793,5.691 31.283,5.789 31.745,5.985 C32.207,6.181 32.613,6.461 32.963,6.825 C33.313,7.189 33.5895,7.63 33.7925,8.148 C33.9955,8.666 34.097,9.247 34.097,9.891 L34.097,9.891 L34.097,9.933 C34.097,10.591 33.9955,11.179 33.7925,11.697 C33.5895,12.215 33.3165,12.6525 32.9735,13.0095 C32.6305,13.3665 32.228,13.6395 31.766,13.8285 C31.304,14.0175 30.807,14.112 30.275,14.112 Z M42.3465,15.582 C43.3825,15.582 44.2505,15.3965 44.9505,15.0255 C45.6505,14.6545 46.2735,14.161 46.8195,13.545 L46.8195,13.545 L45.8115,12.642 C45.3635,13.104 44.87,13.475 44.331,13.755 C43.792,14.035 43.1445,14.175 42.3885,14.175 C41.9125,14.175 41.4575,14.0945 41.0235,13.9335 C40.5895,13.7725 40.1975,13.538 39.8475,13.23 C39.4975,12.922 39.2105,12.544 38.9865,12.096 C38.7625,11.648 38.6225,11.137 38.5665,10.563 L38.5665,10.563 L47.1765,10.563 C47.1905,10.437 47.1975,10.332 47.1975,10.248 L47.1975,10.248 L47.1975,9.996 C47.1975,9.198 47.0855,8.449 46.8615,7.749 C46.6375,7.049 46.3085,6.44 45.8745,5.922 C45.4405,5.404 44.9085,4.9945 44.2785,4.6935 C43.6485,4.3925 42.9345,4.242 42.1365,4.242 C41.3805,4.242 40.684,4.389 40.047,4.683 C39.41,4.977 38.8605,5.3795 38.3985,5.8905 C37.9365,6.4015 37.576,7.0035 37.317,7.6965 C37.058,8.3895 36.9285,9.128 36.9285,9.912 C36.9285,10.752 37.072,11.522 37.359,12.222 C37.646,12.922 38.0345,13.5205 38.5245,14.0175 C39.0145,14.5145 39.5885,14.8995 40.2465,15.1725 C40.9045,15.4455 41.6045,15.582 42.3465,15.582 Z M45.5595,9.261 L38.5665,9.261 C38.6225,8.729 38.752,8.2425 38.955,7.8015 C39.158,7.3605 39.4135,6.9755 39.7215,6.6465 C40.0295,6.3175 40.3865,6.062 40.7925,5.88 C41.1985,5.698 41.6325,5.607 42.0945,5.607 C42.6265,5.607 43.099,5.705 43.512,5.901 C43.925,6.097 44.275,6.363 44.562,6.699 C44.849,7.035 45.0765,7.4235 45.2445,7.8645 C45.4125,8.3055 45.5175,8.771 45.5595,9.261 L45.5595,9.261 Z M50.512,15.33 L50.512,11.004 C50.512,10.178 50.624,9.457 50.848,8.841 C51.072,8.225 51.38,7.707 51.772,7.287 C52.164,6.867 52.6225,6.552 53.1475,6.342 C53.6725,6.132 54.229,6.027 54.817,6.027 L54.817,6.027 L54.943,6.027 L54.943,4.284 C54.425,4.256 53.942,4.3155 53.494,4.4625 C53.046,4.6095 52.633,4.8195 52.255,5.0925 C51.877,5.3655 51.541,5.691 51.247,6.069 C50.953,6.447 50.708,6.86 50.512,7.308 L50.512,7.308 L50.512,4.473 L48.895,4.473 L48.895,15.33 L50.512,15.33 Z M66.738,15.54 C67.466,15.54 68.138,15.442 68.754,15.246 C69.37,15.05 69.8985,14.77 70.3395,14.406 C70.7805,14.042 71.127,13.6045 71.379,13.0935 C71.631,12.5825 71.757,12.012 71.757,11.382 L71.757,11.382 L71.757,11.34 C71.757,10.22 71.3685,9.3345 70.5915,8.6835 C69.8145,8.0325 68.607,7.532 66.969,7.182 C66.157,7.014 65.492,6.8355 64.974,6.6465 C64.456,6.4575 64.05,6.2475 63.756,6.0165 C63.462,5.7855 63.259,5.5335 63.147,5.2605 C63.035,4.9875 62.979,4.676 62.979,4.326 L62.979,4.326 L62.979,4.284 C62.979,3.612 63.259,3.0485 63.819,2.5935 C64.379,2.1385 65.142,1.911 66.108,1.911 C66.864,1.911 67.5885,2.037 68.2815,2.289 C68.9745,2.541 69.664,2.947 70.35,3.507 L70.35,3.507 L71.316,2.226 C70.56,1.624 69.7795,1.1725 68.9745,0.8715 C68.1695,0.5705 67.228,0.42 66.15,0.42 C65.45,0.42 64.806,0.5215 64.218,0.7245 C63.63,0.9275 63.119,1.2075 62.685,1.5645 C62.251,1.9215 61.915,2.345 61.677,2.835 C61.439,3.325 61.32,3.857 61.32,4.431 L61.32,4.431 L61.32,4.473 C61.32,5.075 61.418,5.6 61.614,6.048 C61.81,6.496 62.111,6.888 62.517,7.224 C62.923,7.56 63.4375,7.847 64.0605,8.085 C64.6835,8.323 65.415,8.533 66.255,8.715 C67.025,8.883 67.6585,9.058 68.1555,9.24 C68.6525,9.422 69.041,9.625 69.321,9.849 C69.601,10.073 69.797,10.3215 69.909,10.5945 C70.021,10.8675 70.077,11.172 70.077,11.508 L70.077,11.508 L70.077,11.55 C70.077,12.278 69.7795,12.8765 69.1845,13.3455 C68.5895,13.8145 67.795,14.049 66.801,14.049 C65.779,14.049 64.876,13.8775 64.092,13.5345 C63.308,13.1915 62.531,12.67 61.761,11.97 L61.761,11.97 L60.732,13.188 C61.614,13.986 62.5415,14.5775 63.5145,14.9625 C64.4875,15.3475 65.562,15.54 66.738,15.54 Z M75.6175,2.1 L75.6175,0.315 L73.7695,0.315 L73.7695,2.1 L75.6175,2.1 Z M75.4915,15.33 L75.4915,4.473 L73.8745,4.473 L73.8745,15.33 L75.4915,15.33 Z M79.73,15.33 L79.73,9.135 C79.73,8.631 79.807,8.1725 79.961,7.7595 C80.115,7.3465 80.3285,6.986 80.6015,6.678 C80.8745,6.37 81.193,6.132 81.557,5.964 C81.921,5.796 82.32,5.712 82.754,5.712 C83.622,5.712 84.3045,5.9955 84.8015,6.5625 C85.2985,7.1295 85.547,7.924 85.547,8.946 L85.547,8.946 L85.547,15.33 L87.143,15.33 L87.143,9.072 C87.143,8.54 87.2235,8.064 87.3845,7.644 C87.5455,7.224 87.7625,6.8705 88.0355,6.5835 C88.3085,6.2965 88.627,6.0795 88.991,5.9325 C89.355,5.7855 89.74,5.712 90.146,5.712 C91.028,5.712 91.7175,5.9955 92.2145,6.5625 C92.7115,7.1295 92.96,7.938 92.96,8.988 L92.96,8.988 L92.96,15.33 L94.577,15.33 L94.577,8.61 C94.577,7.252 94.22,6.1845 93.506,5.4075 C92.792,4.6305 91.805,4.242 90.545,4.242 C89.607,4.242 88.8335,4.452 88.2245,4.872 C87.6155,5.292 87.115,5.803 86.723,6.405 C86.429,5.789 85.995,5.2745 85.421,4.8615 C84.847,4.4485 84.119,4.242 83.237,4.242 C82.775,4.242 82.369,4.298 82.019,4.41 C81.669,4.522 81.354,4.6725 81.074,4.8615 C80.794,5.0505 80.5455,5.271 80.3285,5.523 C80.1115,5.775 79.912,6.034 79.73,6.3 L79.73,6.3 L79.73,4.473 L78.113,4.473 L78.113,15.33 L79.73,15.33 Z M98.5635,18.69 L98.5635,13.251 C98.7735,13.559 99.015,13.853 99.288,14.133 C99.561,14.413 99.8655,14.658 100.2015,14.868 C100.5375,15.078 100.9155,15.246 101.3355,15.372 C101.7555,15.498 102.2175,15.561 102.7215,15.561 C103.3795,15.561 104.02,15.4315 104.643,15.1725 C105.266,14.9135 105.819,14.5425 106.302,14.0595 C106.785,13.5765 107.1735,12.985 107.4675,12.285 C107.7615,11.585 107.9085,10.794 107.9085,9.912 L107.9085,9.912 L107.9085,9.87 C107.9085,8.974 107.7615,8.1795 107.4675,7.4865 C107.1735,6.7935 106.7815,6.2055 106.2915,5.7225 C105.8015,5.2395 105.2485,4.872 104.6325,4.62 C104.0165,4.368 103.3795,4.242 102.7215,4.242 C102.2175,4.242 101.759,4.305 101.346,4.431 C100.933,4.557 100.5585,4.732 100.2225,4.956 C99.8865,5.18 99.582,5.439 99.309,5.733 C99.036,6.027 98.7875,6.335 98.5635,6.657 L98.5635,6.657 L98.5635,4.473 L96.9465,4.473 L96.9465,18.69 L98.5635,18.69 Z M102.4275,14.112 C101.9235,14.112 101.437,14.0105 100.968,13.8075 C100.499,13.6045 100.079,13.321 99.708,12.957 C99.337,12.593 99.043,12.152 98.826,11.634 C98.609,11.116 98.5005,10.542 98.5005,9.912 L98.5005,9.912 L98.5005,9.87 C98.5005,9.254 98.609,8.687 98.826,8.169 C99.043,7.651 99.337,7.21 99.708,6.846 C100.079,6.482 100.499,6.1985 100.968,5.9955 C101.437,5.7925 101.9235,5.691 102.4275,5.691 C102.9455,5.691 103.4355,5.789 103.8975,5.985 C104.3595,6.181 104.7655,6.461 105.1155,6.825 C105.4655,7.189 105.742,7.63 105.945,8.148 C106.148,8.666 106.2495,9.247 106.2495,9.891 L106.2495,9.891 L106.2495,9.933 C106.2495,10.591 106.148,11.179 105.945,11.697 C105.742,12.215 105.469,12.6525 105.126,13.0095 C104.783,13.3665 104.3805,13.6395 103.9185,13.8285 C103.4565,14.0175 102.9595,14.112 102.4275,14.112 Z M111.517,15.33 L111.517,2.84217094e-14 L109.9,2.84217094e-14 L109.9,15.33 L111.517,15.33 Z M118.8845,15.582 C119.9205,15.582 120.7885,15.3965 121.4885,15.0255 C122.1885,14.6545 122.8115,14.161 123.3575,13.545 L123.3575,13.545 L122.3495,12.642 C121.9015,13.104 121.408,13.475 120.869,13.755 C120.33,14.035 119.6825,14.175 118.9265,14.175 C118.4505,14.175 117.9955,14.0945 117.5615,13.9335 C117.1275,13.7725 116.7355,13.538 116.3855,13.23 C116.0355,12.922 115.7485,12.544 115.5245,12.096 C115.3005,11.648 115.1605,11.137 115.1045,10.563 L115.1045,10.563 L123.7145,10.563 C123.7285,10.437 123.7355,10.332 123.7355,10.248 L123.7355,10.248 L123.7355,9.996 C123.7355,9.198 123.6235,8.449 123.3995,7.749 C123.1755,7.049 122.8465,6.44 122.4125,5.922 C121.9785,5.404 121.4465,4.9945 120.8165,4.6935 C120.1865,4.3925 119.4725,4.242 118.6745,4.242 C117.9185,4.242 117.222,4.389 116.585,4.683 C115.948,4.977 115.3985,5.3795 114.9365,5.8905 C114.4745,6.4015 114.114,7.0035 113.855,7.6965 C113.596,8.3895 113.4665,9.128 113.4665,9.912 C113.4665,10.752 113.61,11.522 113.897,12.222 C114.184,12.922 114.5725,13.5205 115.0625,14.0175 C115.5525,14.5145 116.1265,14.8995 116.7845,15.1725 C117.4425,15.4455 118.1425,15.582 118.8845,15.582 Z M122.0975,9.261 L115.1045,9.261 C115.1605,8.729 115.29,8.2425 115.493,7.8015 C115.696,7.3605 115.9515,6.9755 116.2595,6.6465 C116.5675,6.3175 116.9245,6.062 117.3305,5.88 C117.7365,5.698 118.1705,5.607 118.6325,5.607 C119.1645,5.607 119.637,5.705 120.05,5.901 C120.463,6.097 120.813,6.363 121.1,6.699 C121.387,7.035 121.6145,7.4235 121.7825,7.8645 C121.9505,8.3055 122.0555,8.771 122.0975,9.261 L122.0975,9.261 Z" id="SuperSimple" fill="#000000"></path>
                <path d="M133.7875,15.33 L133.7875,9.639 L140.8015,9.639 L140.8015,6.699 L133.7875,6.699 L133.7875,3.57 L141.7465,3.57 L141.7465,0.63 L130.5535,0.63 L130.5535,15.33 L133.7875,15.33 Z M147.875,15.582 C148.897,15.582 149.786,15.3965 150.542,15.0255 C151.298,14.6545 151.942,14.14 152.474,13.482 L152.474,13.482 L150.647,11.865 C150.199,12.271 149.765,12.565 149.345,12.747 C148.925,12.929 148.449,13.02 147.917,13.02 C147.203,13.02 146.6045,12.8345 146.1215,12.4635 C145.6385,12.0925 145.32,11.543 145.166,10.815 L145.166,10.815 L152.999,10.815 C153.013,10.661 153.0235,10.514 153.0305,10.374 C153.0375,10.234 153.041,10.101 153.041,9.975 C153.041,9.177 152.9325,8.4105 152.7155,7.6755 C152.4985,6.9405 152.1625,6.2895 151.7075,5.7225 C151.2525,5.1555 150.682,4.704 149.996,4.368 C149.31,4.032 148.498,3.864 147.56,3.864 C146.748,3.864 145.999,4.018 145.313,4.326 C144.627,4.634 144.039,5.054 143.549,5.586 C143.059,6.118 142.6775,6.741 142.4045,7.455 C142.1315,8.169 141.995,8.925 141.995,9.723 L141.995,9.723 L141.995,9.765 C141.995,10.619 142.142,11.403 142.436,12.117 C142.73,12.831 143.1395,13.447 143.6645,13.965 C144.1895,14.483 144.8125,14.882 145.5335,15.162 C146.2545,15.442 147.035,15.582 147.875,15.582 Z M149.933,8.82 L145.124,8.82 C145.25,8.092 145.5195,7.511 145.9325,7.077 C146.3455,6.643 146.888,6.426 147.56,6.426 C148.232,6.426 148.771,6.6465 149.177,7.0875 C149.583,7.5285 149.835,8.106 149.933,8.82 L149.933,8.82 Z M159.6105,15.582 C160.6325,15.582 161.5215,15.3965 162.2775,15.0255 C163.0335,14.6545 163.6775,14.14 164.2095,13.482 L164.2095,13.482 L162.3825,11.865 C161.9345,12.271 161.5005,12.565 161.0805,12.747 C160.6605,12.929 160.1845,13.02 159.6525,13.02 C158.9385,13.02 158.34,12.8345 157.857,12.4635 C157.374,12.0925 157.0555,11.543 156.9015,10.815 L156.9015,10.815 L164.7345,10.815 C164.7485,10.661 164.759,10.514 164.766,10.374 C164.773,10.234 164.7765,10.101 164.7765,9.975 C164.7765,9.177 164.668,8.4105 164.451,7.6755 C164.234,6.9405 163.898,6.2895 163.443,5.7225 C162.988,5.1555 162.4175,4.704 161.7315,4.368 C161.0455,4.032 160.2335,3.864 159.2955,3.864 C158.4835,3.864 157.7345,4.018 157.0485,4.326 C156.3625,4.634 155.7745,5.054 155.2845,5.586 C154.7945,6.118 154.413,6.741 154.14,7.455 C153.867,8.169 153.7305,8.925 153.7305,9.723 L153.7305,9.723 L153.7305,9.765 C153.7305,10.619 153.8775,11.403 154.1715,12.117 C154.4655,12.831 154.875,13.447 155.4,13.965 C155.925,14.483 156.548,14.882 157.269,15.162 C157.99,15.442 158.7705,15.582 159.6105,15.582 Z M161.6685,8.82 L156.8595,8.82 C156.9855,8.092 157.255,7.511 157.668,7.077 C158.081,6.643 158.6235,6.426 159.2955,6.426 C159.9675,6.426 160.5065,6.6465 160.9125,7.0875 C161.3185,7.5285 161.5705,8.106 161.6685,8.82 L161.6685,8.82 Z M170.632,15.54 C171.472,15.54 172.1685,15.3685 172.7215,15.0255 C173.2745,14.6825 173.747,14.245 174.139,13.713 L174.139,13.713 L174.139,15.33 L177.331,15.33 L177.331,-1.42108547e-14 L174.139,-1.42108547e-14 L174.139,5.544 C173.761,5.096 173.2955,4.704 172.7425,4.368 C172.1895,4.032 171.486,3.864 170.632,3.864 C169.96,3.864 169.316,3.99 168.7,4.242 C168.084,4.494 167.5415,4.8685 167.0725,5.3655 C166.6035,5.8625 166.2255,6.4715 165.9385,7.1925 C165.6515,7.9135 165.508,8.743 165.508,9.681 L165.508,9.681 L165.508,9.723 C165.508,10.661 165.6515,11.4905 165.9385,12.2115 C166.2255,12.9325 166.607,13.5415 167.083,14.0385 C167.559,14.5355 168.105,14.91 168.721,15.162 C169.337,15.414 169.974,15.54 170.632,15.54 Z M171.451,12.831 C171.073,12.831 170.7195,12.7575 170.3905,12.6105 C170.0615,12.4635 169.771,12.2535 169.519,11.9805 C169.267,11.7075 169.0675,11.3785 168.9205,10.9935 C168.7735,10.6085 168.7,10.185 168.7,9.723 L168.7,9.723 L168.7,9.681 C168.7,9.205 168.7735,8.778 168.9205,8.4 C169.0675,8.022 169.267,7.6965 169.519,7.4235 C169.771,7.1505 170.0615,6.9405 170.3905,6.7935 C170.7195,6.6465 171.073,6.573 171.451,6.573 C171.829,6.573 172.1825,6.6465 172.5115,6.7935 C172.8405,6.9405 173.1275,7.1505 173.3725,7.4235 C173.6175,7.6965 173.8135,8.0255 173.9605,8.4105 C174.1075,8.7955 174.181,9.219 174.181,9.681 L174.181,9.681 L174.181,9.723 C174.181,10.185 174.1075,10.6085 173.9605,10.9935 C173.8135,11.3785 173.6175,11.7075 173.3725,11.9805 C173.1275,12.2535 172.8405,12.4635 172.5115,12.6105 C172.1825,12.7575 171.829,12.831 171.451,12.831 Z M185.7485,15.54 C186.4205,15.54 187.0645,15.414 187.6805,15.162 C188.2965,14.91 188.839,14.5355 189.308,14.0385 C189.777,13.5415 190.155,12.9325 190.442,12.2115 C190.729,11.4905 190.8725,10.661 190.8725,9.723 L190.8725,9.723 L190.8725,9.681 C190.8725,8.743 190.729,7.9135 190.442,7.1925 C190.155,6.4715 189.7735,5.8625 189.2975,5.3655 C188.8215,4.8685 188.2755,4.494 187.6595,4.242 C187.0435,3.99 186.4065,3.864 185.7485,3.864 C184.9085,3.864 184.212,4.0355 183.659,4.3785 C183.106,4.7215 182.6335,5.159 182.2415,5.691 L182.2415,5.691 L182.2415,-1.42108547e-14 L179.0495,-1.42108547e-14 L179.0495,15.33 L182.2415,15.33 L182.2415,13.86 C182.6195,14.308 183.085,14.7 183.638,15.036 C184.191,15.372 184.8945,15.54 185.7485,15.54 Z M184.9295,12.831 C184.5515,12.831 184.198,12.7575 183.869,12.6105 C183.54,12.4635 183.253,12.2535 183.008,11.9805 C182.763,11.7075 182.567,11.3785 182.42,10.9935 C182.273,10.6085 182.1995,10.185 182.1995,9.723 L182.1995,9.723 L182.1995,9.681 C182.1995,9.219 182.273,8.7955 182.42,8.4105 C182.567,8.0255 182.763,7.6965 183.008,7.4235 C183.253,7.1505 183.54,6.9405 183.869,6.7935 C184.198,6.6465 184.5515,6.573 184.9295,6.573 C185.3075,6.573 185.661,6.6465 185.99,6.7935 C186.319,6.9405 186.6095,7.1505 186.8615,7.4235 C187.1135,7.6965 187.313,8.0255 187.46,8.4105 C187.607,8.7955 187.6805,9.219 187.6805,9.681 L187.6805,9.681 L187.6805,9.723 C187.6805,10.199 187.607,10.626 187.46,11.004 C187.313,11.382 187.1135,11.7075 186.8615,11.9805 C186.6095,12.2535 186.319,12.4635 185.99,12.6105 C185.661,12.7575 185.3075,12.831 184.9295,12.831 Z M195.279,15.54 C196.063,15.54 196.728,15.4105 197.274,15.1515 C197.82,14.8925 198.289,14.546 198.681,14.112 L198.681,14.112 L198.681,15.33 L201.768,15.33 L201.768,8.799 C201.768,8.043 201.67,7.3605 201.474,6.7515 C201.278,6.1425 200.97,5.628 200.55,5.208 C200.144,4.802 199.6295,4.4905 199.0065,4.2735 C198.3835,4.0565 197.631,3.948 196.749,3.948 C195.797,3.948 194.985,4.0285 194.313,4.1895 C193.641,4.3505 192.997,4.571 192.381,4.851 L192.381,4.851 L193.179,7.287 C193.697,7.091 194.1905,6.9405 194.6595,6.8355 C195.1285,6.7305 195.671,6.678 196.287,6.678 C197.085,6.678 197.687,6.853 198.093,7.203 C198.499,7.553 198.702,8.064 198.702,8.736 L198.702,8.736 L198.702,8.925 C198.296,8.785 197.8795,8.673 197.4525,8.589 C197.0255,8.505 196.525,8.463 195.951,8.463 C195.279,8.463 194.6665,8.5365 194.1135,8.6835 C193.5605,8.8305 193.0845,9.051 192.6855,9.345 C192.2865,9.639 191.975,10.01 191.751,10.458 C191.527,10.906 191.415,11.438 191.415,12.054 L191.415,12.054 L191.415,12.096 C191.415,12.656 191.5165,13.1495 191.7195,13.5765 C191.9225,14.0035 192.199,14.364 192.549,14.658 C192.899,14.952 193.3085,15.1725 193.7775,15.3195 C194.2465,15.4665 194.747,15.54 195.279,15.54 Z M196.245,13.335 C195.727,13.335 195.307,13.216 194.985,12.978 C194.663,12.74 194.502,12.404 194.502,11.97 L194.502,11.97 L194.502,11.928 C194.502,11.424 194.698,11.039 195.09,10.773 C195.482,10.507 196.021,10.374 196.707,10.374 C197.099,10.374 197.4665,10.4125 197.8095,10.4895 C198.1525,10.5665 198.464,10.668 198.744,10.794 L198.744,10.794 L198.744,11.361 C198.744,11.949 198.5165,12.425 198.0615,12.789 C197.6065,13.153 197.001,13.335 196.245,13.335 Z M208.6945,15.582 C209.8145,15.582 210.7245,15.3895 211.4245,15.0045 C212.1245,14.6195 212.7475,14.126 213.2935,13.524 L213.2935,13.524 L211.4245,11.634 C211.0325,11.998 210.637,12.2885 210.238,12.5055 C209.839,12.7225 209.3735,12.831 208.8415,12.831 C208.4075,12.831 208.0155,12.7505 207.6655,12.5895 C207.3155,12.4285 207.0145,12.208 206.7625,11.928 C206.5105,11.648 206.318,11.319 206.185,10.941 C206.052,10.563 205.9855,10.157 205.9855,9.723 L205.9855,9.723 L205.9855,9.681 C205.9855,9.261 206.052,8.8655 206.185,8.4945 C206.318,8.1235 206.507,7.798 206.752,7.518 C206.997,7.238 207.2875,7.0175 207.6235,6.8565 C207.9595,6.6955 208.3235,6.615 208.7155,6.615 C209.2895,6.615 209.769,6.727 210.154,6.951 C210.539,7.175 210.9135,7.476 211.2775,7.854 L211.2775,7.854 L213.2305,5.754 C212.6985,5.166 212.0825,4.704 211.3825,4.368 C210.6825,4.032 209.8005,3.864 208.7365,3.864 C207.8825,3.864 207.0915,4.018 206.3635,4.326 C205.6355,4.634 205.0125,5.054 204.4945,5.586 C203.9765,6.118 203.5705,6.741 203.2765,7.455 C202.9825,8.169 202.8355,8.925 202.8355,9.723 L202.8355,9.723 L202.8355,9.765 C202.8355,10.563 202.9825,11.3155 203.2765,12.0225 C203.5705,12.7295 203.9765,13.3455 204.4945,13.8705 C205.0125,14.3955 205.632,14.812 206.353,15.12 C207.074,15.428 207.8545,15.582 208.6945,15.582 Z M217.427,15.33 L217.427,11.907 L218.54,10.731 L221.48,15.33 L225.134,15.33 L220.703,8.505 L224.987,4.074 L221.165,4.074 L217.427,8.169 L217.427,-1.42108547e-14 L214.235,-1.42108547e-14 L214.235,15.33 L217.427,15.33 Z M237.727,15.435 L241.045,5.817 L244.363,15.435 L247.177,15.435 L252.196,0.63 L248.815,0.63 L245.77,10.584 L242.473,0.588 L239.701,0.588 L236.404,10.584 L233.359,0.63 L229.894,0.63 L234.913,15.435 L237.727,15.435 Z M256.2245,2.835 L256.2245,-1.42108547e-14 L252.8645,-1.42108547e-14 L252.8645,2.835 L256.2245,2.835 Z M256.1405,15.33 L256.1405,4.074 L252.9485,4.074 L252.9485,15.33 L256.1405,15.33 Z M262.626,15.54 C263.466,15.54 264.1625,15.3685 264.7155,15.0255 C265.2685,14.6825 265.741,14.245 266.133,13.713 L266.133,13.713 L266.133,15.33 L269.325,15.33 L269.325,-1.42108547e-14 L266.133,-1.42108547e-14 L266.133,5.544 C265.755,5.096 265.2895,4.704 264.7365,4.368 C264.1835,4.032 263.48,3.864 262.626,3.864 C261.954,3.864 261.31,3.99 260.694,4.242 C260.078,4.494 259.5355,4.8685 259.0665,5.3655 C258.5975,5.8625 258.2195,6.4715 257.9325,7.1925 C257.6455,7.9135 257.502,8.743 257.502,9.681 L257.502,9.681 L257.502,9.723 C257.502,10.661 257.6455,11.4905 257.9325,12.2115 C258.2195,12.9325 258.601,13.5415 259.077,14.0385 C259.553,14.5355 260.099,14.91 260.715,15.162 C261.331,15.414 261.968,15.54 262.626,15.54 Z M263.445,12.831 C263.067,12.831 262.7135,12.7575 262.3845,12.6105 C262.0555,12.4635 261.765,12.2535 261.513,11.9805 C261.261,11.7075 261.0615,11.3785 260.9145,10.9935 C260.7675,10.6085 260.694,10.185 260.694,9.723 L260.694,9.723 L260.694,9.681 C260.694,9.205 260.7675,8.778 260.9145,8.4 C261.0615,8.022 261.261,7.6965 261.513,7.4235 C261.765,7.1505 262.0555,6.9405 262.3845,6.7935 C262.7135,6.6465 263.067,6.573 263.445,6.573 C263.823,6.573 264.1765,6.6465 264.5055,6.7935 C264.8345,6.9405 265.1215,7.1505 265.3665,7.4235 C265.6115,7.6965 265.8075,8.0255 265.9545,8.4105 C266.1015,8.7955 266.175,9.219 266.175,9.681 L266.175,9.681 L266.175,9.723 C266.175,10.185 266.1015,10.6085 265.9545,10.9935 C265.8075,11.3785 265.6115,11.7075 265.3665,11.9805 C265.1215,12.2535 264.8345,12.4635 264.5055,12.6105 C264.1765,12.7575 263.823,12.831 263.445,12.831 Z M276.0835,18.732 C277.1755,18.732 278.124,18.613 278.929,18.375 C279.734,18.137 280.4025,17.752 280.9345,17.22 C281.8865,16.268 282.3625,14.791 282.3625,12.789 L282.3625,12.789 L282.3625,4.074 L279.1705,4.074 L279.1705,5.544 C278.7365,5.068 278.2395,4.669 277.6795,4.347 C277.1195,4.025 276.4055,3.864 275.5375,3.864 C274.8935,3.864 274.2705,3.9795 273.6685,4.2105 C273.0665,4.4415 272.5345,4.781 272.0725,5.229 C271.6105,5.677 271.2395,6.2265 270.9595,6.8775 C270.6795,7.5285 270.5395,8.274 270.5395,9.114 L270.5395,9.114 L270.5395,9.156 C270.5395,9.996 270.676,10.7415 270.949,11.3925 C271.222,12.0435 271.5895,12.593 272.0515,13.041 C272.5135,13.489 273.0455,13.8285 273.6475,14.0595 C274.2495,14.2905 274.8795,14.406 275.5375,14.406 C276.3915,14.406 277.0985,14.245 277.6585,13.923 C278.2185,13.601 278.7365,13.153 279.2125,12.579 L279.2125,12.579 L279.2125,13.125 C279.2125,14.133 278.95,14.896 278.425,15.414 C277.9,15.932 277.0915,16.191 275.9995,16.191 C275.2435,16.191 274.568,16.1 273.973,15.918 C273.378,15.736 272.7865,15.484 272.1985,15.162 L272.1985,15.162 L271.1065,17.556 C271.8205,17.934 272.5975,18.2245 273.4375,18.4275 C274.2775,18.6305 275.1595,18.732 276.0835,18.732 Z M276.4615,11.76 C275.6775,11.76 275.0265,11.522 274.5085,11.046 C273.9905,10.57 273.7315,9.94 273.7315,9.156 L273.7315,9.156 L273.7315,9.114 C273.7315,8.736 273.8015,8.386 273.9415,8.064 C274.0815,7.742 274.274,7.4655 274.519,7.2345 C274.764,7.0035 275.051,6.825 275.38,6.699 C275.709,6.573 276.0695,6.51 276.4615,6.51 C276.8535,6.51 277.2175,6.573 277.5535,6.699 C277.8895,6.825 278.18,7.0035 278.425,7.2345 C278.67,7.4655 278.8625,7.742 279.0025,8.064 C279.1425,8.386 279.2125,8.736 279.2125,9.114 L279.2125,9.114 L279.2125,9.156 C279.2125,9.534 279.1425,9.884 279.0025,10.206 C278.8625,10.528 278.67,10.8045 278.425,11.0355 C278.18,11.2665 277.8895,11.445 277.5535,11.571 C277.2175,11.697 276.8535,11.76 276.4615,11.76 Z M289.415,15.582 C290.437,15.582 291.326,15.3965 292.082,15.0255 C292.838,14.6545 293.482,14.14 294.014,13.482 L294.014,13.482 L292.187,11.865 C291.739,12.271 291.305,12.565 290.885,12.747 C290.465,12.929 289.989,13.02 289.457,13.02 C288.743,13.02 288.1445,12.8345 287.6615,12.4635 C287.1785,12.0925 286.86,11.543 286.706,10.815 L286.706,10.815 L294.539,10.815 C294.553,10.661 294.5635,10.514 294.5705,10.374 C294.5775,10.234 294.581,10.101 294.581,9.975 C294.581,9.177 294.4725,8.4105 294.2555,7.6755 C294.0385,6.9405 293.7025,6.2895 293.2475,5.7225 C292.7925,5.1555 292.222,4.704 291.536,4.368 C290.85,4.032 290.038,3.864 289.1,3.864 C288.288,3.864 287.539,4.018 286.853,4.326 C286.167,4.634 285.579,5.054 285.089,5.586 C284.599,6.118 284.2175,6.741 283.9445,7.455 C283.6715,8.169 283.535,8.925 283.535,9.723 L283.535,9.723 L283.535,9.765 C283.535,10.619 283.682,11.403 283.976,12.117 C284.27,12.831 284.6795,13.447 285.2045,13.965 C285.7295,14.483 286.3525,14.882 287.0735,15.162 C287.7945,15.442 288.575,15.582 289.415,15.582 Z M291.473,8.82 L286.664,8.82 C286.79,8.092 287.0595,7.511 287.4725,7.077 C287.8855,6.643 288.428,6.426 289.1,6.426 C289.772,6.426 290.311,6.6465 290.717,7.0875 C291.123,7.5285 291.375,8.106 291.473,8.82 L291.473,8.82 Z M299.6175,15.519 C300.1495,15.519 300.6185,15.4595 301.0245,15.3405 C301.4305,15.2215 301.8015,15.064 302.1375,14.868 L302.1375,14.868 L302.1375,12.306 C301.6475,12.572 301.1225,12.705 300.5625,12.705 C299.8765,12.705 299.5335,12.341 299.5335,11.613 L299.5335,11.613 L299.5335,6.804 L302.1795,6.804 L302.1795,4.074 L299.5335,4.074 L299.5335,1.197 L296.3415,1.197 L296.3415,4.074 L294.9975,4.074 L294.9975,6.804 L296.3415,6.804 L296.3415,12.138 C296.3415,12.782 296.422,13.321 296.583,13.755 C296.744,14.189 296.968,14.539 297.255,14.805 C297.542,15.071 297.885,15.2565 298.284,15.3615 C298.683,15.4665 299.1275,15.519 299.6175,15.519 Z M310.597,7.098 L310.597,2.73 L312.382,5.565 L312.508,5.565 L314.293,2.73 L314.293,7.098 L315.679,7.098 L315.679,0.63 L314.167,0.63 L312.466,3.36 L310.765,0.63 L309.211,0.63 L309.211,7.098 L310.597,7.098 Z M305.914,7.098 L305.914,1.932 L307.846,1.932 L307.846,0.63 L302.512,0.63 L302.512,1.932 L304.444,1.932 L304.444,7.098 L305.914,7.098 Z" id="FeedbackWidget™" fill="#0042FF"></path>
            </g>
            <path d="M275.918472,29 C271.034133,29 266.458459,26.7884638 262.311216,22.4256942 L261,21.0465975 L263.600207,18.2595638 L264.912657,19.6399714 C268.366019,23.2738649 272.068783,25.1393159 276.004899,25.0777023 C282.774574,25.0318198 288.019436,19.4525086 288.072527,19.3948278 L289.363988,18 L292,20.7359075 L290.713478,22.135979 C290.459137,22.4138958 284.385813,28.9239662 276.065397,29 C276.017245,29 275.967859,29 275.918472,29" id="Fill-1" fill="#0042FF"></path>
        </g>
    </g>
</svg>