<?xml version="1.0" encoding="UTF-8"?>
<svg width="337px" height="278px" viewBox="0 0 337 278" version="1.1" xmlns="http://www.w3.org/2000/svg" xmlns:xlink="http://www.w3.org/1999/xlink">
    <title>Group 16</title>
    <defs>
        <rect id="path-1" x="0" y="0" width="281" height="222" rx="8"></rect>
        <filter x="-16.7%" y="-16.7%" width="133.5%" height="142.3%" filterUnits="objectBoundingBox" id="filter-2">
            <feOffset dx="0" dy="10" in="SourceAlpha" result="shadowOffsetOuter1"></feOffset>
            <feGaussianBlur stdDeviation="14" in="shadowOffsetOuter1" result="shadowBlurOuter1"></feGaussianBlur>
            <feComposite in="shadowBlurOuter1" in2="SourceAlpha" operator="out" result="shadowBlurOuter1"></feComposite>
            <feColorMatrix values="0 0 0 0 0   0 0 0 0 0   0 0 0 0 0  0 0 0 0.16176792 0" type="matrix" in="shadowBlurOuter1"></feColorMatrix>
        </filter>
    </defs>
    <g id="Widget-2.0" stroke="none" stroke-width="1" fill="none" fill-rule="evenodd">
        <g id="Group-16" transform="translate(28.000000, 18.000000)">
            <g id="Group-4">
                <g id="Group-12">
                    <g id="Group-14">
                        <g id="Rectangle">
                            <use fill="black" fill-opacity="1" filter="url(#filter-2)" xlink:href="#path-1"></use>
                            <rect stroke="#DFE4F1" stroke-width="1" stroke-linejoin="square" fill="#FFFFFF" fill-rule="evenodd" x="0.5" y="0.5" width="280" height="221" rx="8"></rect>
                        </g>
                        <g id="Group-2" opacity="0.62125651" transform="translate(78.000000, 182.000000)" fill="#7F8FA4">
                            <path d="M2.5074,12 L2.5074,8.976 L3.8178,8.976 C4.263,8.976 4.6767,8.9235 5.0589,8.8185 C5.4411,8.7135 5.7729,8.5497 6.0543,8.3271 C6.3357,8.1045 6.5562,7.8252 6.7158,7.4892 C6.8754,7.1532 6.9552,6.7584 6.9552,6.3048 C6.9552,5.826 6.8754,5.4249 6.7158,5.1015 C6.5562,4.7781 6.3378,4.5156 6.0606,4.314 C5.7834,4.1124 5.4537,3.9696 5.0715,3.8856 C4.6893,3.8016 4.2714,3.7596 3.8178,3.7596 L3.8178,3.7596 L1.0458,3.7596 L1.0458,12 L2.5074,12 Z M3.7044,7.8042 L2.5074,7.8042 L2.5074,4.9314 L3.7044,4.9314 C4.3092,4.9314 4.7628,5.0301 5.0652,5.2275 C5.3676,5.4249 5.5188,5.784 5.5188,6.3048 C5.5188,7.3044 4.914,7.8042 3.7044,7.8042 L3.7044,7.8042 Z M10.9116,12.1512 C11.298,12.1512 11.6697,12.0798 12.0267,11.937 C12.3837,11.7942 12.6966,11.5842 12.9654,11.307 C13.2342,11.0298 13.4505,10.6896 13.6143,10.2864 C13.7781,9.8832 13.86,9.4254 13.86,8.913 C13.86,8.4006 13.7781,7.9428 13.6143,7.5396 C13.4505,7.1364 13.2342,6.7962 12.9654,6.519 C12.6966,6.2418 12.3837,6.0297 12.0267,5.8827 C11.6697,5.7357 11.298,5.6622 10.9116,5.6622 C10.5252,5.6622 10.1556,5.7357 9.8028,5.8827 C9.45,6.0297 9.1371,6.2418 8.8641,6.519 C8.5911,6.7962 8.3748,7.1364 8.2152,7.5396 C8.0556,7.9428 7.9758,8.4006 7.9758,8.913 C7.9758,9.4254 8.0556,9.8832 8.2152,10.2864 C8.3748,10.6896 8.5911,11.0298 8.8641,11.307 C9.1371,11.5842 9.45,11.7942 9.8028,11.937 C10.1556,12.0798 10.5252,12.1512 10.9116,12.1512 Z M10.9116,10.9668 C10.458,10.9668 10.1031,10.7799 9.8469,10.4061 C9.5907,10.0323 9.4626,9.5346 9.4626,8.913 C9.4626,8.283 9.5907,7.7811 9.8469,7.4073 C10.1031,7.0335 10.458,6.8466 10.9116,6.8466 C11.3652,6.8466 11.7222,7.0335 11.9826,7.4073 C12.243,7.7811 12.3732,8.283 12.3732,8.913 C12.3732,9.5346 12.243,10.0323 11.9826,10.4061 C11.7222,10.7799 11.3652,10.9668 10.9116,10.9668 Z M17.9802,12 L18.6858,9.1272 C18.753,8.8332 18.816,8.5392 18.8748,8.2452 C18.9336,7.9512 18.9924,7.6404 19.0512,7.3128 L19.0512,7.3128 L19.1016,7.3128 C19.1688,7.6404 19.2318,7.9491 19.2906,8.2389 C19.3494,8.5287 19.4124,8.8206 19.4796,9.1146 L19.4796,9.1146 L20.1978,12 L21.924,12 L23.499,5.8134 L22.1382,5.8134 L21.3948,9.0264 C21.336,9.3204 21.2814,9.6144 21.231,9.9084 C21.1806,10.2024 21.126,10.5006 21.0672,10.803 L21.0672,10.803 L21.0168,10.803 C20.9496,10.5006 20.8824,10.2024 20.8152,9.9084 C20.748,9.6144 20.6766,9.3204 20.601,9.0264 L20.601,9.0264 L19.782,5.8134 L18.459,5.8134 L17.6526,9.0264 C17.577,9.3204 17.5077,9.6144 17.4447,9.9084 C17.3817,10.2024 17.3208,10.5006 17.262,10.803 L17.262,10.803 L17.2116,10.803 C17.1528,10.5006 17.1003,10.2024 17.0541,9.9084 C17.0079,9.6144 16.9512,9.3204 16.884,9.0264 L16.884,9.0264 L16.1406,5.8134 L14.679,5.8134 L16.317,12 L17.9802,12 Z M27.3672,12.1512 C27.762,12.1512 28.14,12.0882 28.5012,11.9622 C28.8624,11.8362 29.19,11.6766 29.484,11.4834 L29.484,11.4834 L28.9926,10.5762 C28.7658,10.719 28.5369,10.8303 28.3059,10.9101 C28.0749,10.9899 27.825,11.0298 27.5562,11.0298 C27.0522,11.0298 26.6385,10.8786 26.3151,10.5762 C25.9917,10.2738 25.7964,9.8412 25.7292,9.2784 L25.7292,9.2784 L29.6604,9.2784 C29.7024,9.1104 29.7234,8.8836 29.7234,8.598 C29.7234,8.1696 29.6688,7.7748 29.5596,7.4136 C29.4504,7.0524 29.2887,6.7416 29.0745,6.4812 C28.8603,6.2208 28.5936,6.0192 28.2744,5.8764 C27.9552,5.7336 27.5856,5.6622 27.1656,5.6622 C26.8044,5.6622 26.4516,5.7378 26.1072,5.889 C25.7628,6.0402 25.4583,6.2544 25.1937,6.5316 C24.9291,6.8088 24.717,7.149 24.5574,7.5522 C24.3978,7.9554 24.318,8.409 24.318,8.913 C24.318,9.4254 24.3957,9.8811 24.5511,10.2801 C24.7065,10.6791 24.9228,11.0172 25.2,11.2944 C25.4772,11.5716 25.8006,11.7837 26.1702,11.9307 C26.5398,12.0777 26.9388,12.1512 27.3672,12.1512 Z M28.4634,8.3586 L25.7166,8.3586 C25.7838,7.8378 25.956,7.4451 26.2332,7.1805 C26.5104,6.9159 26.8338,6.7836 27.2034,6.7836 C27.6318,6.7836 27.9489,6.9222 28.1547,7.1994 C28.3605,7.4766 28.4634,7.863 28.4634,8.3586 L28.4634,8.3586 Z M32.5584,12 L32.5584,8.22 C32.7516,7.7496 32.9826,7.4199 33.2514,7.2309 C33.5202,7.0419 33.7764,6.9474 34.02,6.9474 C34.1544,6.9474 34.2678,6.9558 34.3602,6.9726 C34.4526,6.9894 34.5534,7.0146 34.6626,7.0482 L34.6626,7.0482 L34.9146,5.7882 C34.7382,5.7042 34.503,5.6622 34.209,5.6622 C33.8814,5.6622 33.5622,5.7693 33.2514,5.9835 C32.9406,6.1977 32.676,6.5064 32.4576,6.9096 L32.4576,6.9096 L32.4072,6.9096 L32.3064,5.8134 L31.1094,5.8134 L31.1094,12 L32.5584,12 Z M38.4552,12.1512 C38.85,12.1512 39.228,12.0882 39.5892,11.9622 C39.9504,11.8362 40.278,11.6766 40.572,11.4834 L40.572,11.4834 L40.0806,10.5762 C39.8538,10.719 39.6249,10.8303 39.3939,10.9101 C39.1629,10.9899 38.913,11.0298 38.6442,11.0298 C38.1402,11.0298 37.7265,10.8786 37.4031,10.5762 C37.0797,10.2738 36.8844,9.8412 36.8172,9.2784 L36.8172,9.2784 L40.7484,9.2784 C40.7904,9.1104 40.8114,8.8836 40.8114,8.598 C40.8114,8.1696 40.7568,7.7748 40.6476,7.4136 C40.5384,7.0524 40.3767,6.7416 40.1625,6.4812 C39.9483,6.2208 39.6816,6.0192 39.3624,5.8764 C39.0432,5.7336 38.6736,5.6622 38.2536,5.6622 C37.8924,5.6622 37.5396,5.7378 37.1952,5.889 C36.8508,6.0402 36.5463,6.2544 36.2817,6.5316 C36.0171,6.8088 35.805,7.149 35.6454,7.5522 C35.4858,7.9554 35.406,8.409 35.406,8.913 C35.406,9.4254 35.4837,9.8811 35.6391,10.2801 C35.7945,10.6791 36.0108,11.0172 36.288,11.2944 C36.5652,11.5716 36.8886,11.7837 37.2582,11.9307 C37.6278,12.0777 38.0268,12.1512 38.4552,12.1512 Z M39.5514,8.3586 L36.8046,8.3586 C36.8718,7.8378 37.044,7.4451 37.3212,7.1805 C37.5984,6.9159 37.9218,6.7836 38.2914,6.7836 C38.7198,6.7836 39.0369,6.9222 39.2427,7.1994 C39.4485,7.4766 39.5514,7.863 39.5514,8.3586 L39.5514,8.3586 Z M44.3646,12.1512 C44.7006,12.1512 45.0198,12.0714 45.3222,11.9118 C45.6246,11.7522 45.8892,11.559 46.116,11.3322 L46.116,11.3322 L46.1664,11.3322 L46.2672,12 L47.4642,12 L47.4642,3.1044 L46.0152,3.1044 L46.0152,5.3472 L46.0656,6.3426 C45.822,6.1326 45.5784,5.9667 45.3348,5.8449 C45.0912,5.7231 44.793,5.6622 44.4402,5.6622 C44.1042,5.6622 43.7787,5.7378 43.4637,5.889 C43.1487,6.0402 42.8694,6.2544 42.6258,6.5316 C42.3822,6.8088 42.1869,7.149 42.0399,7.5522 C41.8929,7.9554 41.8194,8.409 41.8194,8.913 C41.8194,9.9378 42.0483,10.7337 42.5061,11.3007 C42.9639,11.8677 43.5834,12.1512 44.3646,12.1512 Z M44.7174,10.9542 C44.2638,10.9542 43.9173,10.7799 43.6779,10.4313 C43.4385,10.0827 43.3188,9.5724 43.3188,8.9004 C43.3188,8.2452 43.4574,7.7412 43.7346,7.3884 C44.0118,7.0356 44.352,6.8592 44.7552,6.8592 C44.9652,6.8592 45.1731,6.897 45.3789,6.9726 C45.5847,7.0482 45.7968,7.1826 46.0152,7.3758 L46.0152,7.3758 L46.0152,10.2612 C45.612,10.7232 45.1794,10.9542 44.7174,10.9542 Z M54.8856,12.1512 C55.23,12.1512 55.5618,12.0756 55.881,11.9244 C56.2002,11.7732 56.4816,11.5548 56.7252,11.2692 C56.9688,10.9836 57.1641,10.6329 57.3111,10.2171 C57.4581,9.8013 57.5316,9.3288 57.5316,8.7996 C57.5316,8.3208 57.477,7.8882 57.3678,7.5018 C57.2586,7.1154 57.099,6.7857 56.889,6.5127 C56.679,6.2397 56.4228,6.0297 56.1204,5.8827 C55.818,5.7357 55.4736,5.6622 55.0872,5.6622 C54.768,5.6622 54.4551,5.7336 54.1485,5.8764 C53.8419,6.0192 53.5584,6.204 53.298,6.4308 L53.298,6.4308 L53.3358,5.3976 L53.3358,3.1044 L51.8868,3.1044 L51.8868,12 L53.0334,12 L53.1594,11.37 L53.1972,11.37 C53.4576,11.622 53.7327,11.8152 54.0225,11.9496 C54.3123,12.084 54.6,12.1512 54.8856,12.1512 Z M54.5832,10.9542 C54.3984,10.9542 54.1989,10.9164 53.9847,10.8408 C53.7705,10.7652 53.5542,10.6308 53.3358,10.4376 L53.3358,10.4376 L53.3358,7.5522 C53.8062,7.0902 54.2598,6.8592 54.6966,6.8592 C55.167,6.8592 55.5072,7.0314 55.7172,7.3758 C55.9272,7.7202 56.0322,8.2032 56.0322,8.8248 C56.0322,9.5304 55.8936,10.0617 55.6164,10.4187 C55.3392,10.7757 54.9948,10.9542 54.5832,10.9542 Z M59.409,14.5452 C59.745,14.5452 60.0411,14.4927 60.2973,14.3877 C60.5535,14.2827 60.7803,14.1315 60.9777,13.9341 C61.1751,13.7367 61.3494,13.4994 61.5006,13.2222 C61.6518,12.945 61.7904,12.63 61.9164,12.2772 L61.9164,12.2772 L64.1592,5.8134 L62.7606,5.8134 L61.8282,8.85 C61.7526,9.1272 61.6749,9.4149 61.5951,9.7131 C61.5153,10.0113 61.4376,10.3032 61.362,10.5888 L61.362,10.5888 L61.3116,10.5888 C61.2192,10.2948 61.1289,9.9987 61.0407,9.7005 C60.9525,9.4023 60.8622,9.1188 60.7698,8.85 L60.7698,8.85 L59.6988,5.8134 L58.2246,5.8134 L60.6564,11.9244 L60.543,12.315 C60.4422,12.6258 60.2931,12.8799 60.0957,13.0773 C59.8983,13.2747 59.6358,13.3734 59.3082,13.3734 C59.2326,13.3734 59.1549,13.3629 59.0751,13.3419 C58.9953,13.3209 58.926,13.302 58.8672,13.2852 L58.8672,13.2852 L58.6026,14.4192 C58.7202,14.4612 58.842,14.4927 58.968,14.5137 C59.094,14.5347 59.241,14.5452 59.409,14.5452 Z" id="Poweredby" fill-rule="nonzero"></path>
                            <g id="Group" transform="translate(67.500000, 3.600000)">
                                <path d="M43.8570684,2.66112 L46.304973,6.30211628 C47.8377731,4.75114453 48.9137589,3.40240949 49.4679875,2.66112 L49.4679875,2.66112 L52.157952,2.66112 L51.7527969,3.27003636 C51.3970869,3.80614751 42.8703791,16.4139521 28.8855155,17.4913222 C28.2567502,17.5391236 27.6272468,17.563392 26.9977435,17.563392 C20.8414516,17.563392 14.6578541,15.2490686 8.515584,10.657192 L8.515584,10.657192 L9.89119274,8.91501465 C16.205414,13.6216146 22.5122553,15.7682654 28.7143024,15.2909867 C35.5008357,14.7688483 40.981131,11.1756534 44.6681167,7.86411913 L44.6681167,7.86411913 L41.1700558,2.66112 L43.8570684,2.66112 Z M17.3114749,2.66112 C17.879999,2.66112 18.4077583,2.7640237 18.8940248,2.96907446 C18.9457088,2.99026052 18.9879295,3.02279625 19.0381577,3.04625224 C19.4603651,3.24373655 19.83744,3.49267271 20.1533676,3.81273349 C20.5071483,4.17062651 20.7844949,4.59056441 20.9861354,5.07179055 C21.1885038,5.55377333 21.28896,6.07131842 21.28896,6.62442582 L21.28896,6.62442582 L21.28896,6.65317832 C21.28896,7.20628572 21.1885038,7.72383081 20.9861354,8.20505695 C20.7844949,8.68703973 20.5049645,9.10924756 20.1468161,9.47168045 C19.7886678,9.83411335 19.3664603,10.1201251 18.8801939,10.3297157 C18.3939274,10.5393064 17.8618004,10.64448 17.283813,10.64448 C16.714561,10.64448 16.1868017,10.5423329 15.7012631,10.3372822 C15.2142687,10.1322314 14.7949731,9.85075953 14.4419203,9.49286651 C14.0881396,9.13497349 13.8100651,8.71579223 13.6091526,8.23380945 C13.4067842,7.75258332 13.3056,7.23503823 13.3056,6.68193083 L13.3056,6.68193083 L13.3056,6.65317832 C13.3056,6.10007092 13.4067842,5.58252583 13.6091526,5.10054305 C13.8100651,4.61931692 14.0903235,4.19710908 14.4477439,3.83391955 C14.7724068,3.50629232 15.1567612,3.24903306 15.586248,3.04625224 C15.6306526,3.02506618 15.6685057,2.99631368 15.7143661,2.97588426 C16.2013606,2.76629364 16.7334875,2.66112 17.3114749,2.66112 Z M26.078976,0 L26.078976,10.64448 L23.95008,10.64448 L23.95008,0 L26.078976,0 Z M30.868992,0 L30.868992,10.64448 L28.740096,10.64448 L28.740096,0 L30.868992,0 Z M36.4834334,2.66112 C37.0713148,2.66112 37.5798844,2.77537338 38.0098379,3.00463677 C38.0314052,3.01598644 38.0481024,3.03414592 38.0703654,3.04625224 C38.470403,3.27097576 38.8113047,3.56077075 39.0819388,3.92698686 C39.3664873,4.31363239 39.5772898,4.75702628 39.7129547,5.25792519 C39.8486197,5.75882409 39.9168,6.28090905 39.9168,6.82418006 C39.9168,6.91043758 39.9147128,7.00123496 39.9105385,7.09657221 C39.9056685,7.19190947 39.8994071,7.29178659 39.8910584,7.39696023 L39.8910584,7.39696023 L34.9841619,7.39696023 C35.0801709,7.89256262 35.2798419,8.26710183 35.5817833,8.51982121 C35.8851162,8.7725406 36.260108,8.89890029 36.7074545,8.89890029 C37.0407032,8.89890029 37.3384704,8.83685541 37.6014517,8.71276565 C37.8644329,8.58867589 38.1364585,8.38892165 38.4175285,8.11198963 L38.4175285,8.11198963 L39.561984,9.21366456 C39.2280395,9.66235496 38.825219,10.0126815 38.3514353,10.2654009 C37.8776516,10.5181203 37.3210775,10.64448 36.6810172,10.64448 C36.1550547,10.64448 35.6659652,10.5491427 35.2137487,10.3584682 C34.762228,10.1677937 34.3719304,9.89540158 34.0435516,9.54280507 C33.7144772,9.19020856 33.4577574,8.77027066 33.2740879,8.28374801 C33.089027,7.79722536 32.997888,7.26303409 32.997888,6.68117418 L32.997888,6.68117418 L32.997888,6.65242168 C32.997888,6.10915066 33.0834613,5.59387551 33.2539121,5.10735286 C33.4250586,4.62083021 33.6636898,4.19710908 33.971197,3.83391955 C34.2487883,3.50629232 34.5841242,3.24903306 34.9632904,3.04625224 C35.0022505,3.02506618 35.035645,2.99555703 35.0759966,2.97588426 C35.5052544,2.76629364 35.9748638,2.66112 36.4834334,2.66112 Z M3.05679999,2.66112 C4.35973494,3.8957139 5.663414,5.04293861 6.96783717,6.08128787 L6.96783717,6.08128787 L9.69202041,2.66112 L12.773376,2.66112 L10.4644056,5.43139549 L8.36973863,7.91200849 L7.41207027,9.047808 C5.02943309,7.31924212 2.65349288,5.29160478 0.289458422,2.9480942 L0.289458422,2.9480942 L0,2.66112 Z M17.283813,4.53532934 C16.9809884,4.53532934 16.7123771,4.59056441 16.4779792,4.70027792 C16.2443092,4.80999142 16.0448526,4.95980711 15.8796094,5.15048162 C15.7143661,5.34191277 15.5884319,5.56360971 15.5010786,5.8163291 C15.4137253,6.06904848 15.3707766,6.33841406 15.3707766,6.62442582 L15.3707766,6.62442582 L15.3707766,6.65317832 C15.3707766,6.93919008 15.4166371,7.20855566 15.5076301,7.46127504 C15.599351,7.71399443 15.7332927,7.93796131 15.9072713,8.13393233 C16.0819778,8.3291467 16.2879859,8.4842589 16.5267515,8.59851228 C16.765517,8.7135223 17.0268489,8.77027066 17.3114749,8.77027066 C17.6142995,8.77027066 17.8829108,8.71579223 18.1165808,8.60607873 C18.3509787,8.49636522 18.5497074,8.34579289 18.7156786,8.15511838 C18.8801939,7.96444388 19.0061281,7.74274693 19.0934814,7.49002755 C19.1808347,7.23730816 19.2245113,6.96794259 19.2245113,6.68193083 L19.2245113,6.68193083 L19.2245113,6.65317832 C19.2245113,6.36640992 19.1779229,6.09780099 19.0869299,5.84432496 C18.995209,5.59160557 18.8619953,5.36763869 18.6880167,5.17242432 C18.5133102,4.9764533 18.3094859,4.82209774 18.075088,4.70708772 C17.841418,4.59283435 17.5771744,4.53532934 17.283813,4.53532934 Z M36.4834334,4.40669971 C36.0625242,4.40669971 35.723014,4.55424546 35.4642071,4.8500936 C35.2047044,5.14594175 35.0363407,5.54166701 34.9570289,6.0372694 L34.9570289,6.0372694 L37.970182,6.0372694 C37.9082632,5.55150339 37.751031,5.15804806 37.4963983,4.85690341 C37.2417656,4.55651539 36.9043426,4.40669971 36.4834334,4.40669971 Z" id="Combined-Shape"></path>
                            </g>
                        </g>
                    </g>
                    <g id="Group-10" transform="translate(18.666667, 96.533333)" fill-rule="nonzero">
                        <g id="Group-5" transform="translate(27.800000, 0.000000)" fill="#0042FF">
                            <path d="M24.4,0.933333333 L0.933333333,0.933333333 L0.933333333,15.814633 L10.894,15.814 L10.894855,22.7731195 L17.615,15.814 L24.4,15.814633 L24.4,0.933333333 Z M22.266,3.066 L22.266,13.681 L16.710227,13.6812997 L13.028,17.493 L13.0281883,13.6812997 L3.066,13.681 L3.066,3.066 L22.266,3.066 Z" id="Path-2"></path>
                        </g>
                        <path d="M6.8192,47.0997333 C7.4016,47.0997333 7.91928889,46.9841778 8.37226667,46.7530667 C8.82524444,46.5219556 9.232,46.1984 9.59253333,45.7824 L9.59253333,45.7824 L8.9408,45.0752 C8.64497778,45.3987556 8.33297778,45.6483556 8.0048,45.824 C7.67662222,45.9996444 7.29066667,46.0874667 6.84693333,46.0874667 C6.41244444,46.0874667 6.02186667,45.9996444 5.6752,45.824 C5.32853333,45.6483556 5.03502222,45.3987556 4.79466667,45.0752 C4.55431111,44.7516444 4.36711111,44.3610667 4.23306667,43.9034667 C4.09902222,43.4458667 4.032,42.9304889 4.032,42.3573333 C4.032,41.7934222 4.10133333,41.2849778 4.24,40.832 C4.37866667,40.3790222 4.5728,39.9930667 4.8224,39.6741333 C5.072,39.3552 5.37244444,39.1102222 5.72373333,38.9392 C6.07502222,38.7681778 6.46791111,38.6826667 6.9024,38.6826667 C7.29066667,38.6826667 7.6304,38.7589333 7.9216,38.9114667 C8.2128,39.064 8.47857778,39.2696889 8.71893333,39.5285333 L8.71893333,39.5285333 L9.37066667,38.7936 C9.10257778,38.4977778 8.76053333,38.2366222 8.34453333,38.0101333 C7.92853333,37.7836444 7.4432,37.6704 6.88853333,37.6704 C6.30613333,37.6704 5.76764444,37.7790222 5.27306667,37.9962667 C4.77848889,38.2135111 4.35093333,38.5255111 3.9904,38.9322667 C3.62986667,39.3390222 3.34791111,39.8336 3.14453333,40.416 C2.94115556,40.9984 2.83946667,41.6547556 2.83946667,42.3850667 C2.83946667,43.1246222 2.93884444,43.7879111 3.1376,44.3749333 C3.33635556,44.9619556 3.61368889,45.4565333 3.9696,45.8586667 C4.32551111,46.2608 4.74613333,46.5681778 5.23146667,46.7808 C5.7168,46.9934222 6.24604444,47.0997333 6.8192,47.0997333 Z M13.7941333,47.0997333 C14.2101333,47.0997333 14.6053333,47.0211556 14.9797333,46.864 C15.3541333,46.7068444 15.6846222,46.4780444 15.9712,46.1776 C16.2577778,45.8771556 16.4865778,45.5073778 16.6576,45.0682667 C16.8286222,44.6291556 16.9141333,44.1322667 16.9141333,43.5776 C16.9141333,43.0136889 16.8286222,42.5121778 16.6576,42.0730667 C16.4865778,41.6339556 16.2577778,41.2618667 15.9712,40.9568 C15.6846222,40.6517333 15.3541333,40.4206222 14.9797333,40.2634667 C14.6053333,40.1063111 14.2101333,40.0277333 13.7941333,40.0277333 C13.3781333,40.0277333 12.9829333,40.1063111 12.6085333,40.2634667 C12.2341333,40.4206222 11.9036444,40.6517333 11.6170667,40.9568 C11.3304889,41.2618667 11.1016889,41.6339556 10.9306667,42.0730667 C10.7596444,42.5121778 10.6741333,43.0136889 10.6741333,43.5776 C10.6741333,44.1322667 10.7596444,44.6291556 10.9306667,45.0682667 C11.1016889,45.5073778 11.3304889,45.8771556 11.6170667,46.1776 C11.9036444,46.4780444 12.2341333,46.7068444 12.6085333,46.864 C12.9829333,47.0211556 13.3781333,47.0997333 13.7941333,47.0997333 Z M13.7941333,46.1568 C13.5075556,46.1568 13.2440889,46.0944 13.0037333,45.9696 C12.7633778,45.8448 12.5576889,45.6691556 12.3866667,45.4426667 C12.2156444,45.2161778 12.0839111,44.9457778 11.9914667,44.6314667 C11.8990222,44.3171556 11.8528,43.9658667 11.8528,43.5776 C11.8528,43.1893333 11.8990222,42.8357333 11.9914667,42.5168 C12.0839111,42.1978667 12.2156444,41.9228444 12.3866667,41.6917333 C12.5576889,41.4606222 12.7633778,41.2826667 13.0037333,41.1578667 C13.2440889,41.0330667 13.5075556,40.9706667 13.7941333,40.9706667 C14.0807111,40.9706667 14.3441778,41.0330667 14.5845333,41.1578667 C14.8248889,41.2826667 15.0305778,41.4606222 15.2016,41.6917333 C15.3726222,41.9228444 15.5043556,42.1978667 15.5968,42.5168 C15.6892444,42.8357333 15.7354667,43.1893333 15.7354667,43.5776 C15.7354667,43.9658667 15.6892444,44.3171556 15.5968,44.6314667 C15.5043556,44.9457778 15.3726222,45.2161778 15.2016,45.4426667 C15.0305778,45.6691556 14.8248889,45.8448 14.5845333,45.9696 C14.3441778,46.0944 14.0807111,46.1568 13.7941333,46.1568 Z M19.8261333,46.9333333 L19.8261333,42.0522667 C20.4455111,41.3589333 21.0094222,41.0122667 21.5178667,41.0122667 C21.9523556,41.0122667 22.2712889,41.1532444 22.4746667,41.4352 C22.6780444,41.7171556 22.7797333,42.1770667 22.7797333,42.8149333 L22.7797333,42.8149333 L22.7797333,46.9333333 L23.9168,46.9333333 L23.9168,42.0522667 C24.5361778,41.3589333 25.1000889,41.0122667 25.6085333,41.0122667 C26.0337778,41.0122667 26.3480889,41.1532444 26.5514667,41.4352 C26.7548444,41.7171556 26.8565333,42.1770667 26.8565333,42.8149333 L26.8565333,42.8149333 L26.8565333,46.9333333 L27.9936,46.9333333 L27.9936,42.6624 C27.9936,41.7934222 27.8248889,41.1370667 27.4874667,40.6933333 C27.1500444,40.2496 26.6346667,40.0277333 25.9413333,40.0277333 C25.5253333,40.0277333 25.1393778,40.1456 24.7834667,40.3813333 C24.4275556,40.6170667 24.0739556,40.9290667 23.7226667,41.3173333 C23.584,40.9105778 23.3690667,40.5939556 23.0778667,40.3674667 C22.7866667,40.1409778 22.3822222,40.0277333 21.8645333,40.0277333 C21.4577778,40.0277333 21.0810667,40.1363556 20.7344,40.3536 C20.3877333,40.5708444 20.0664889,40.8412444 19.7706667,41.1648 L19.7706667,41.1648 L19.7290667,41.1648 L19.632,40.1941333 L18.6890667,40.1941333 L18.6890667,46.9333333 L19.8261333,46.9333333 Z M31.3216,46.9333333 L31.3216,42.0522667 C31.9409778,41.3589333 32.5048889,41.0122667 33.0133333,41.0122667 C33.4478222,41.0122667 33.7667556,41.1532444 33.9701333,41.4352 C34.1735111,41.7171556 34.2752,42.1770667 34.2752,42.8149333 L34.2752,42.8149333 L34.2752,46.9333333 L35.4122667,46.9333333 L35.4122667,42.0522667 C36.0316444,41.3589333 36.5955556,41.0122667 37.104,41.0122667 C37.5292444,41.0122667 37.8435556,41.1532444 38.0469333,41.4352 C38.2503111,41.7171556 38.352,42.1770667 38.352,42.8149333 L38.352,42.8149333 L38.352,46.9333333 L39.4890667,46.9333333 L39.4890667,42.6624 C39.4890667,41.7934222 39.3203556,41.1370667 38.9829333,40.6933333 C38.6455111,40.2496 38.1301333,40.0277333 37.4368,40.0277333 C37.0208,40.0277333 36.6348444,40.1456 36.2789333,40.3813333 C35.9230222,40.6170667 35.5694222,40.9290667 35.2181333,41.3173333 C35.0794667,40.9105778 34.8645333,40.5939556 34.5733333,40.3674667 C34.2821333,40.1409778 33.8776889,40.0277333 33.36,40.0277333 C32.9532444,40.0277333 32.5765333,40.1363556 32.2298667,40.3536 C31.8832,40.5708444 31.5619556,40.8412444 31.2661333,41.1648 L31.2661333,41.1648 L31.2245333,41.1648 L31.1274667,40.1941333 L30.1845333,40.1941333 L30.1845333,46.9333333 L31.3216,46.9333333 Z M44.4117333,47.0997333 C44.8739556,47.0997333 45.2853333,47.0304 45.6458667,46.8917333 C46.0064,46.7530667 46.3345778,46.5912889 46.6304,46.4064 L46.6304,46.4064 L46.2282667,45.6576 C45.9786667,45.8147556 45.7175111,45.9418667 45.4448,46.0389333 C45.1720889,46.136 44.8739556,46.1845333 44.5504,46.1845333 C43.9032889,46.1845333 43.3786667,45.9719111 42.9765333,45.5466667 C42.5744,45.1214222 42.3502222,44.5436444 42.304,43.8133333 L42.304,43.8133333 L46.8522667,43.8133333 C46.88,43.6469333 46.8938667,43.4389333 46.8938667,43.1893333 C46.8938667,42.7086222 46.8337778,42.2741333 46.7136,41.8858667 C46.5934222,41.4976 46.4200889,41.1648 46.1936,40.8874667 C45.9671111,40.6101333 45.6851556,40.3975111 45.3477333,40.2496 C45.0103111,40.1016889 44.6289778,40.0277333 44.2037333,40.0277333 C43.8154667,40.0277333 43.4410667,40.1086222 43.0805333,40.2704 C42.72,40.4321778 42.3987556,40.6656 42.1168,40.9706667 C41.8348444,41.2757333 41.6083556,41.6478222 41.4373333,42.0869333 C41.2663111,42.5260444 41.1808,43.0229333 41.1808,43.5776 C41.1808,44.1322667 41.264,44.6268444 41.4304,45.0613333 C41.5968,45.4958222 41.8256,45.8632889 42.1168,46.1637333 C42.408,46.4641778 42.7500444,46.6952889 43.1429333,46.8570667 C43.5358222,47.0188444 43.9587556,47.0997333 44.4117333,47.0997333 Z M45.8954667,43.0645333 L42.2901333,43.0645333 C42.3271111,42.7224889 42.4033778,42.4197333 42.5189333,42.1562667 C42.6344889,41.8928 42.7800889,41.6709333 42.9557333,41.4906667 C43.1313778,41.3104 43.3278222,41.1717333 43.5450667,41.0746667 C43.7623111,40.9776 43.9911111,40.9290667 44.2314667,40.9290667 C44.7584,40.9290667 45.1674667,41.1116444 45.4586667,41.4768 C45.7498667,41.8419556 45.8954667,42.3712 45.8954667,43.0645333 L45.8954667,43.0645333 Z M49.6949333,46.9333333 L49.6949333,42.0522667 C50.0369778,41.7102222 50.3420444,41.4513778 50.6101333,41.2757333 C50.8782222,41.1000889 51.1879111,41.0122667 51.5392,41.0122667 C51.9829333,41.0122667 52.3064889,41.1532444 52.5098667,41.4352 C52.7132444,41.7171556 52.8149333,42.1770667 52.8149333,42.8149333 L52.8149333,42.8149333 L52.8149333,46.9333333 L53.952,46.9333333 L53.952,42.6624 C53.952,41.7934222 53.7879111,41.1370667 53.4597333,40.6933333 C53.1315556,40.2496 52.6115556,40.0277333 51.8997333,40.0277333 C51.4282667,40.0277333 51.0145778,40.1363556 50.6586667,40.3536 C50.3027556,40.5708444 49.9630222,40.8412444 49.6394667,41.1648 L49.6394667,41.1648 L49.5978667,41.1648 L49.5008,40.1941333 L48.5578667,40.1941333 L48.5578667,46.9333333 L49.6949333,46.9333333 Z M58.2645333,47.0997333 C58.4771556,47.0997333 58.6920889,47.0743111 58.9093333,47.0234667 C59.1265778,46.9726222 59.3276444,46.9148444 59.5125333,46.8501333 L59.5125333,46.8501333 L59.2906667,45.9904 C59.1797333,46.0366222 59.0549333,46.0782222 58.9162667,46.1152 C58.7776,46.1521778 58.6481778,46.1706667 58.528,46.1706667 C58.1397333,46.1706667 57.8693333,46.0574222 57.7168,45.8309333 C57.5642667,45.6044444 57.488,45.2832 57.488,44.8672 L57.488,44.8672 L57.488,41.1232 L59.3045333,41.1232 L59.3045333,40.1941333 L57.488,40.1941333 L57.488,38.3082667 L56.5312,38.3082667 L56.3925333,40.1941333 L55.3386667,40.2634667 L55.3386667,41.1232 L56.3370667,41.1232 L56.3370667,44.8533333 C56.3370667,45.1861333 56.3694222,45.4912 56.4341333,45.7685333 C56.4988444,46.0458667 56.6074667,46.2816 56.76,46.4757333 C56.9125333,46.6698667 57.1112889,46.8224 57.3562667,46.9333333 C57.6012444,47.0442667 57.904,47.0997333 58.2645333,47.0997333 Z M65.4613333,49.3738667 L66.1685333,49.0410667 C65.6323556,48.1536 65.2325333,47.2037333 64.9690667,46.1914667 C64.7056,45.1792 64.5738667,44.1415111 64.5738667,43.0784 C64.5738667,42.0152889 64.7056,40.9776 64.9690667,39.9653333 C65.2325333,38.9530667 65.6323556,38.0032 66.1685333,37.1157333 L66.1685333,37.1157333 L65.4613333,36.7829333 C64.8881778,37.7166222 64.4398222,38.6942222 64.1162667,39.7157333 C63.7927111,40.7372444 63.6309333,41.8581333 63.6309333,43.0784 C63.6309333,44.2986667 63.7927111,45.4218667 64.1162667,46.448 C64.4398222,47.4741333 64.8881778,48.4494222 65.4613333,49.3738667 L65.4613333,49.3738667 Z M71.3962667,47.0997333 C71.9786667,47.0997333 72.4963556,46.9841778 72.9493333,46.7530667 C73.4023111,46.5219556 73.8090667,46.1984 74.1696,45.7824 L74.1696,45.7824 L73.5178667,45.0752 C73.2220444,45.3987556 72.9100444,45.6483556 72.5818667,45.824 C72.2536889,45.9996444 71.8677333,46.0874667 71.424,46.0874667 C70.9895111,46.0874667 70.5989333,45.9996444 70.2522667,45.824 C69.9056,45.6483556 69.6120889,45.3987556 69.3717333,45.0752 C69.1313778,44.7516444 68.9441778,44.3610667 68.8101333,43.9034667 C68.6760889,43.4458667 68.6090667,42.9304889 68.6090667,42.3573333 C68.6090667,41.7934222 68.6784,41.2849778 68.8170667,40.832 C68.9557333,40.3790222 69.1498667,39.9930667 69.3994667,39.6741333 C69.6490667,39.3552 69.9495111,39.1102222 70.3008,38.9392 C70.6520889,38.7681778 71.0449778,38.6826667 71.4794667,38.6826667 C71.8677333,38.6826667 72.2074667,38.7589333 72.4986667,38.9114667 C72.7898667,39.064 73.0556444,39.2696889 73.296,39.5285333 L73.296,39.5285333 L73.9477333,38.7936 C73.6796444,38.4977778 73.3376,38.2366222 72.9216,38.0101333 C72.5056,37.7836444 72.0202667,37.6704 71.4656,37.6704 C70.8832,37.6704 70.3447111,37.7790222 69.8501333,37.9962667 C69.3555556,38.2135111 68.928,38.5255111 68.5674667,38.9322667 C68.2069333,39.3390222 67.9249778,39.8336 67.7216,40.416 C67.5182222,40.9984 67.4165333,41.6547556 67.4165333,42.3850667 C67.4165333,43.1246222 67.5159111,43.7879111 67.7146667,44.3749333 C67.9134222,44.9619556 68.1907556,45.4565333 68.5466667,45.8586667 C68.9025778,46.2608 69.3232,46.5681778 69.8085333,46.7808 C70.2938667,46.9934222 70.8231111,47.0997333 71.3962667,47.0997333 Z M75.8474667,49.3738667 C76.4206222,48.4494222 76.8689778,47.4741333 77.1925333,46.448 C77.5160889,45.4218667 77.6778667,44.2986667 77.6778667,43.0784 C77.6778667,41.8581333 77.5160889,40.7372444 77.1925333,39.7157333 C76.8689778,38.6942222 76.4206222,37.7166222 75.8474667,36.7829333 L75.8474667,36.7829333 L75.1402667,37.1157333 C75.6764444,38.0032 76.0762667,38.9530667 76.3397333,39.9653333 C76.6032,40.9776 76.7349333,42.0152889 76.7349333,43.0784 C76.7349333,44.1415111 76.6032,45.1792 76.3397333,46.1914667 C76.0762667,47.2037333 75.6764444,48.1536 75.1402667,49.0410667 L75.1402667,49.0410667 L75.8474667,49.3738667 Z" id="Comment(C)" fill="#393C3E"></path>
                        <polygon id="Line-2" fill="#0042FF" points="79.4 54.8 79.4 56.9333333 0.404166667 56.9333333 0.404166667 54.8"></polygon>
                    </g>
                    <g id="Group-9" transform="translate(181.933333, 97.466667)" fill-rule="nonzero">
                        <g id="comment-active" transform="translate(19.133333, 0.000000)" fill="#C5D0DE">
                            <path d="M2.77247547,-0.294647618 C2.18866795,0.415430323 2.10665406,1.41575336 2.2337001,2.68525503 C2.24502206,2.80027438 2.26302067,2.93684737 2.28583209,3.08642167 L2.36684097,3.56559623 C2.3974142,3.73262085 2.43093642,3.90409448 2.4655438,4.07146478 L2.5707576,4.55271343 L2.76218944,5.3897315 C2.80249356,5.56476414 2.83963771,5.71971834 2.87880859,5.87430829 L3.034,6.459 L2.99019443,6.43149623 C2.5988462,6.19344434 2.22923754,6.06498536 1.77065231,6.01990282 C0.429273696,5.88571802 -0.825120419,6.85791417 -1.01486982,8.17790791 C-1.11873095,8.89820408 -1.07828982,9.29893729 -0.745541405,9.96081902 C-0.692935784,10.0635704 -0.632511347,10.1684071 -0.560312181,10.2820454 L-0.399042091,10.5230474 L-0.199339994,10.7994602 L0.0458268414,11.1232237 L0.896066879,12.2279836 L0.992891601,12.3693224 L1.14729478,12.6132105 L1.55526259,13.2955391 L2.09572384,14.2138436 L2.34583824,14.6255115 C2.39021515,14.6957064 2.4258667,14.7492907 2.45028096,14.7814258 L3.44289526,15.9289856 L3.5709307,16.0560026 L3.84405982,16.3187961 L4.56393661,17.0258148 L4.78218851,17.2300838 C4.80408144,17.2499137 4.8255307,17.2691071 4.84687833,17.2879831 C4.79508946,17.2425729 4.78104726,17.2362966 4.78002193,17.2638039 L4.78515537,17.3297338 C4.79436571,17.4247902 4.79512028,17.533072 4.78922692,17.6438634 L4.76975728,17.8607133 L4.76179363,17.9171138 L4.54423911,19.1550755 L7.69059873,19.1980543 L8.46921074,19.1980543 L8.92867745,19.1853811 L9.18955343,19.1700588 L9.4226971,19.1487037 C9.45965363,19.1446166 9.49576236,19.1402592 9.53117714,19.1356221 L9.69180722,19.1060426 C10.1651689,18.9930838 10.5633976,18.664748 10.9303425,18.1913932 L10.958,18.153 L11.0478158,18.2701542 C11.4046919,18.7109761 11.8274088,19.0319826 12.333451,19.1168831 C12.5564972,19.1539796 12.8045252,19.1645594 13.0862787,19.1578106 C13.2848949,19.1530532 13.491932,19.1396261 13.7001563,19.1202537 L13.9929505,19.0890526 L15.256962,18.9188265 L14.925997,17.6550066 L14.895859,17.5055515 C14.8798429,17.4190353 14.866879,17.334529 14.8578132,17.2555715 L14.8441533,17.0831541 L14.8444542,16.9874377 L14.8592976,16.5404256 C14.8606298,16.5050542 14.8629268,16.4698875 14.8669499,16.4306465 L14.8849594,16.2964212 L14.9178951,16.1120748 C14.924882,16.0757472 14.9326813,16.0362615 14.9413881,15.9930827 L14.9497595,15.9670275 L14.993784,15.8713688 L15.0713855,15.7268491 L15.1792058,15.5445132 C15.1995075,15.5115861 15.2209284,15.4775435 15.2433985,15.4426155 L15.4433955,15.1453207 C15.5818058,14.947294 15.7317804,14.7458491 15.8818827,14.552992 L16.0769538,14.3078976 L16.1425465,14.2194795 C16.49144,13.6945847 16.8777218,12.809872 17.0265316,12.2675472 C17.1520835,11.8094615 17.2484881,11.0659522 17.3143649,10.2882961 L17.3514794,9.78930537 L17.3716221,9.38965015 C17.3741941,9.32264926 17.3763913,9.2548455 17.3782403,9.18532834 L17.3853699,8.74038029 L17.3843777,7.87849455 L17.3626711,7.18602625 C17.3156025,5.93668399 16.5975683,5.05461198 15.5337665,4.88355856 L15.3658218,4.86310685 C15.0851093,4.83969179 14.801509,4.8692103 14.5320539,4.94533144 L14.372,4.996 L14.3581667,4.96476459 L14.2765702,4.81667129 C14.0007434,4.36847577 13.3730859,3.86380728 12.8073247,3.74787896 C12.3331669,3.65200688 11.7954691,3.66214817 11.300474,3.75331073 L11.1608429,3.78612615 C10.972323,3.83923441 10.7758643,3.92890301 10.5887662,4.04484574 L10.513,4.094 L10.4771915,4.05998456 C10.1497842,3.75926585 9.72181757,3.53248268 9.29659156,3.44194797 L9.07608162,3.40418932 C8.70397623,3.35621086 8.31147148,3.38223889 7.93673955,3.47092412 L7.736,3.525 L7.68077666,3.20519532 C7.55303293,2.51340793 7.40560491,1.95854148 7.20998102,1.45661924 L6.97623557,0.90149678 C6.89539315,0.72006753 6.81377478,0.553981604 6.72260611,0.391646757 C6.45751872,-0.0803676026 6.15012065,-0.458419917 5.75023763,-0.717891398 L5.57305057,-0.821761635 C4.68462419,-1.29021843 3.41237587,-1.07240543 2.77247547,-0.294647618 Z M3.28415714,9.65930888 L3.62338542,10.1508198 L3.83630035,10.4411099 C3.88566377,10.505476 3.93024381,10.5605357 3.95774169,10.5878667 L4.01730987,10.6442948 L4.08480588,10.694525 L4.21808344,10.7816119 L4.35250571,10.8455725 C4.51024454,10.9151872 4.6023632,10.9218433 4.87298138,10.8620101 L5.26560481,10.7664614 L5.53832037,10.4952423 C5.68176203,10.3466162 5.72762568,10.2767524 5.75606773,10.1706797 L5.78696584,10.0186538 L5.80360592,9.84659749 L5.80335151,9.78177482 L5.79249569,9.65473529 L5.77859489,9.56805827 L5.745,9.417 L5.56268873,8.14860442 L5.48103501,7.66571159 L5.41700469,7.31779676 L5.29806908,6.74399968 L5.18315683,6.24623203 L5.0004181,5.55640042 C4.96286599,5.41575247 4.92916663,5.28255862 4.89448442,5.13821862 L4.64797379,4.066643 C4.61811646,3.93783441 4.58712155,3.79570965 4.55688781,3.64953089 L4.47036877,3.20809478 L4.39980905,2.79790766 C4.38021485,2.67256157 4.36517927,2.56168581 4.35660104,2.47454256 C4.34587727,2.36738362 4.33800065,2.2621067 4.33264987,2.16030303 L4.32385372,1.86690297 C4.32354351,1.82027 4.32378442,1.77490313 4.32453631,1.73100129 L4.33485788,1.48676173 L4.35551474,1.28723001 C4.37230265,1.17123311 4.39469548,1.09140635 4.42012271,1.06047952 C4.4119304,1.07043678 4.43315662,1.07193561 4.46256327,1.07066947 L4.55408639,1.06426956 C4.56635109,1.06371824 4.57535137,1.06389904 4.57843246,1.06552364 C4.63155248,1.09350364 4.74254764,1.22262486 4.86253702,1.43627784 C4.89949483,1.50208488 4.93565119,1.57252685 4.97223881,1.64940766 L5.16324398,2.08714675 C5.35748541,2.53904947 5.50122907,3.08682969 5.63354223,3.8816864 L5.73749767,4.5354592 L5.89386197,5.4462737 L6.20025424,7.20921189 L6.20848155,7.31024406 L8.33919754,7.34272615 L8.34657337,7.13426676 L8.34514843,6.97169398 L8.31317462,6.1004226 L8.31041598,5.90417982 L8.31312871,5.76348852 L8.32098657,5.6772123 L8.33060005,5.6501049 L8.35943369,5.59005285 C8.36573048,5.5734221 8.36508005,5.56330046 8.34658392,5.56905546 C8.52470227,5.51393525 8.71977161,5.49997189 8.84994627,5.52800001 L8.89271913,5.5427496 L9.01104975,5.60180048 C9.01741776,5.60409853 9.02003894,5.60360136 9.01742642,5.5989348 C9.07482979,5.70197167 9.13889816,5.90630286 9.19033591,6.17159228 C9.236077,6.40750127 9.26828802,6.66648561 9.29109559,6.94473441 L9.32446919,7.37991665 L9.33771431,7.46416462 L9.38561999,7.63310554 L9.40869935,7.69086815 L9.44781287,7.75906578 L9.57845457,7.95399677 L9.74853874,8.09281965 C10.0013533,8.29240003 10.1238263,8.33596955 10.46026,8.26769732 L10.6905499,8.21366632 L10.9887168,8.13491343 L11.3231675,7.71174009 L11.3861422,7.62425916 L11.4202265,7.56616063 L11.4331336,7.52587526 C11.4339486,7.52000272 11.4342026,7.51439035 11.4340562,7.50879712 L11.4296602,7.47353919 L11.4470482,7.38784882 L11.4763198,7.19922867 L11.5170039,6.81176966 L11.552299,6.43610217 L11.5909257,6.13109128 L11.6139994,5.99366111 L11.6342925,5.90377646 C11.622085,5.92502388 11.7448096,5.84056608 11.6890615,5.85095367 C11.9305182,5.8064873 12.1991906,5.80141998 12.381818,5.83834479 C12.3104339,5.82372143 12.4706858,5.95257208 12.4569813,5.93030468 C12.4742883,5.95874743 12.4948871,6.0203079 12.517172,6.10620185 L12.5635142,6.30783163 L12.6114981,6.55873426 L12.6582691,6.8432933 L12.7009726,7.14589233 L12.7367539,7.45091492 L12.7255238,7.48242478 C12.7230902,7.49262713 12.7223071,7.50313905 12.7241967,7.51579209 L12.7389054,7.56200607 L12.7757831,7.63205596 L12.8409628,7.73693099 L13.1679807,8.22359542 C13.5579831,8.42076049 13.6359836,8.46019351 13.9332632,8.4101524 L14.2056391,8.3569117 L14.3834666,8.25213247 L14.4920152,8.1826668 C14.5199322,8.16290555 14.5412234,8.14529245 14.5608098,8.12609009 L14.6540488,8.016338 L14.7563489,7.85421296 L14.795467,7.77523831 L14.8360549,7.66624615 L14.9117763,7.38098725 L14.9622136,7.21106291 L15.007959,7.0907128 L15.0419207,7.0226503 L15.0795906,7.00783578 C15.1125707,6.99670419 15.1604892,6.98427348 15.1950887,6.98983689 C15.2030673,6.99111982 15.2086729,6.99268189 15.2130929,7.00819511 L15.2207041,7.06187407 L15.25235,7.97411241 L15.252141,8.71908394 L15.2400528,9.30318007 L15.2222554,9.65724912 L15.1924474,10.0613255 L15.1511723,10.5028562 L15.1033869,10.9216069 L15.0511815,11.2923618 C15.0243222,11.4615376 14.9965894,11.6032589 14.9691588,11.7033417 L14.9259125,11.8428431 C14.8224743,12.14871 14.6240107,12.5994443 14.4501908,12.901355 L14.385,13.006 L14.1983639,13.242696 C14.0273247,13.4624537 13.856158,13.6923635 13.6948363,13.9231703 C13.6077177,14.0478129 13.5256042,14.1697443 13.4492679,14.288403 C13.1317682,14.7819308 12.926776,15.1874318 12.8497302,15.5734707 L12.7915257,15.8817832 L12.7539315,16.1323779 L12.7329665,16.3527212 L12.713,16.905 L12.6720546,16.8526947 C12.5626219,16.7101062 12.4492279,16.5334253 12.3721196,16.3968305 L12.3217208,16.3030596 C11.7383793,15.1447408 10.2458185,15.2040028 9.66376536,16.2296586 C9.53693803,16.4544478 9.3692854,16.7065496 9.21689076,16.8926269 L9.16232377,16.9571517 L9.08665884,17.0380143 L8.86753488,17.0521572 L8.45334314,17.0642079 L7.91943175,17.0660909 L6.899,17.053 L6.90854443,17.1239913 C6.85244208,16.5449806 6.67334688,16.0522843 6.25675171,15.6869368 L6.02395001,15.4700707 L5.12403847,14.5879968 L5.017,14.487 L4.10533597,13.4371367 L3.35702903,12.148045 L3.00038262,11.5528879 L2.77137693,11.1911458 L2.61434326,10.9623535 L2.31508551,10.566954 L1.74398916,9.83176274 L1.52638273,9.54429771 L1.35774868,9.31174793 L1.2354626,9.1301497 C1.21879811,9.10390909 1.20395544,9.0796263 1.19087991,9.05721876 L1.15690006,8.99553933 C1.07478805,8.83215832 1.05579422,8.80651532 1.07106632,8.66771869 L1.0966918,8.4819119 C1.12329578,8.29684171 1.34924136,8.12172655 1.56012079,8.14282162 C1.72621896,8.15915164 1.922094,8.26233931 2.24886292,8.52025964 L2.52006217,8.74377282 C2.55955523,8.77732605 2.61803461,8.83646187 2.68919869,8.91645407 L2.87309988,9.13470977 L3.28415714,9.65930888 Z" id="cursor"></path>
                        </g>
                        <path d="M5.3712,46 C5.87964444,46 6.34648889,45.9445333 6.77173333,45.8336 C7.19697778,45.7226667 7.56213333,45.5562667 7.8672,45.3344 C8.17226667,45.1125333 8.408,44.8352 8.5744,44.5024 C8.7408,44.1696 8.824,43.7813333 8.824,43.3376 C8.824,42.7089778 8.63911111,42.2144 8.26933333,41.8538667 C7.89955556,41.4933333 7.38186667,41.2622222 6.71626667,41.1605333 L6.71626667,41.1605333 L6.71626667,41.1050667 C7.25244444,40.9664 7.64995556,40.7144889 7.9088,40.3493333 C8.16764444,39.9841778 8.29706667,39.5751111 8.29706667,39.1221333 C8.29706667,38.7246222 8.2208,38.3848889 8.06826667,38.1029333 C7.91573333,37.8209778 7.70311111,37.5921778 7.4304,37.4165333 C7.15768889,37.2408889 6.82951111,37.1114667 6.44586667,37.0282667 C6.06222222,36.9450667 5.63928889,36.9034667 5.17706667,36.9034667 L5.17706667,36.9034667 L2.47306667,36.9034667 L2.47306667,46 L5.3712,46 Z M4.96906667,40.7861333 L3.624,40.7861333 L3.624,37.8186667 L5.02453333,37.8186667 C5.73635556,37.8186667 6.27022222,37.9272889 6.62613333,38.1445333 C6.98204444,38.3617778 7.16,38.72 7.16,39.2192 C7.16,39.7276444 6.99128889,40.1159111 6.65386667,40.384 C6.31644444,40.6520889 5.75484444,40.7861333 4.96906667,40.7861333 L4.96906667,40.7861333 Z M5.2048,45.0848 L3.624,45.0848 L3.624,41.6458667 L5.2048,41.6458667 C6.00906667,41.6458667 6.62382222,41.7776 7.04906667,42.0410667 C7.47431111,42.3045333 7.68693333,42.7182222 7.68693333,43.2821333 C7.68693333,43.9015111 7.46968889,44.3568 7.0352,44.648 C6.60071111,44.9392 5.99057778,45.0848 5.2048,45.0848 L5.2048,45.0848 Z M11.6528,46 L11.6528,41.6736 C11.8839111,41.1004444 12.1543111,40.6983111 12.464,40.4672 C12.7736889,40.2360889 13.0718222,40.1205333 13.3584,40.1205333 C13.4970667,40.1205333 13.6126222,40.1297778 13.7050667,40.1482667 C13.7975111,40.1667556 13.8992,40.1944889 14.0101333,40.2314667 L14.0101333,40.2314667 L14.232,39.2330667 C14.0193778,39.1406222 13.7790222,39.0944 13.5109333,39.0944 C13.1226667,39.0944 12.7644444,39.2192 12.4362667,39.4688 C12.1080889,39.7184 11.8284444,40.0558222 11.5973333,40.4810667 L11.5973333,40.4810667 L11.5557333,40.4810667 L11.4586667,39.2608 L10.5157333,39.2608 L10.5157333,46 L11.6528,46 Z M17.9482667,46.1664 C18.3642667,46.1664 18.7594667,46.0878222 19.1338667,45.9306667 C19.5082667,45.7735111 19.8387556,45.5447111 20.1253333,45.2442667 C20.4119111,44.9438222 20.6407111,44.5740444 20.8117333,44.1349333 C20.9827556,43.6958222 21.0682667,43.1989333 21.0682667,42.6442667 C21.0682667,42.0803556 20.9827556,41.5788444 20.8117333,41.1397333 C20.6407111,40.7006222 20.4119111,40.3285333 20.1253333,40.0234667 C19.8387556,39.7184 19.5082667,39.4872889 19.1338667,39.3301333 C18.7594667,39.1729778 18.3642667,39.0944 17.9482667,39.0944 C17.5322667,39.0944 17.1370667,39.1729778 16.7626667,39.3301333 C16.3882667,39.4872889 16.0577778,39.7184 15.7712,40.0234667 C15.4846222,40.3285333 15.2558222,40.7006222 15.0848,41.1397333 C14.9137778,41.5788444 14.8282667,42.0803556 14.8282667,42.6442667 C14.8282667,43.1989333 14.9137778,43.6958222 15.0848,44.1349333 C15.2558222,44.5740444 15.4846222,44.9438222 15.7712,45.2442667 C16.0577778,45.5447111 16.3882667,45.7735111 16.7626667,45.9306667 C17.1370667,46.0878222 17.5322667,46.1664 17.9482667,46.1664 Z M17.9482667,45.2234667 C17.6616889,45.2234667 17.3982222,45.1610667 17.1578667,45.0362667 C16.9175111,44.9114667 16.7118222,44.7358222 16.5408,44.5093333 C16.3697778,44.2828444 16.2380444,44.0124444 16.1456,43.6981333 C16.0531556,43.3838222 16.0069333,43.0325333 16.0069333,42.6442667 C16.0069333,42.256 16.0531556,41.9024 16.1456,41.5834667 C16.2380444,41.2645333 16.3697778,40.9895111 16.5408,40.7584 C16.7118222,40.5272889 16.9175111,40.3493333 17.1578667,40.2245333 C17.3982222,40.0997333 17.6616889,40.0373333 17.9482667,40.0373333 C18.2348444,40.0373333 18.4983111,40.0997333 18.7386667,40.2245333 C18.9790222,40.3493333 19.1847111,40.5272889 19.3557333,40.7584 C19.5267556,40.9895111 19.6584889,41.2645333 19.7509333,41.5834667 C19.8433778,41.9024 19.8896,42.256 19.8896,42.6442667 C19.8896,43.0325333 19.8433778,43.3838222 19.7509333,43.6981333 C19.6584889,44.0124444 19.5267556,44.2828444 19.3557333,44.5093333 C19.1847111,44.7358222 18.9790222,44.9114667 18.7386667,45.0362667 C18.4983111,45.1610667 18.2348444,45.2234667 17.9482667,45.2234667 Z M25.2421333,46 L26.1850667,42.3946667 C26.2775111,42.0711111 26.3607111,41.7498667 26.4346667,41.4309333 C26.5086222,41.112 26.5825778,40.7815111 26.6565333,40.4394667 L26.6565333,40.4394667 L26.712,40.4394667 C26.7952,40.7815111 26.8714667,41.1096889 26.9408,41.424 C27.0101333,41.7383111 27.0864,42.0572444 27.1696,42.3808 L27.1696,42.3808 L28.1402667,46 L29.5269333,46 L31.3296,39.2608 L30.248,39.2608 L29.2634667,43.1573333 C29.1895111,43.4808889 29.1201778,43.7952 29.0554667,44.1002667 C28.9907556,44.4053333 28.9214222,44.7150222 28.8474667,45.0293333 L28.8474667,45.0293333 L28.792,45.0293333 C28.7180444,44.7150222 28.6417778,44.4053333 28.5632,44.1002667 C28.4846222,43.7952 28.4037333,43.4808889 28.3205333,43.1573333 L28.3205333,43.1573333 L27.2666667,39.2608 L26.1573333,39.2608 L25.1173333,43.1573333 C25.0341333,43.4716444 24.9555556,43.7836444 24.8816,44.0933333 C24.8076444,44.4030222 24.7336889,44.7150222 24.6597333,45.0293333 L24.6597333,45.0293333 L24.6042667,45.0293333 C24.5395556,44.7150222 24.4748444,44.4053333 24.4101333,44.1002667 C24.3454222,43.7952 24.2760889,43.4808889 24.2021333,43.1573333 L24.2021333,43.1573333 L23.2037333,39.2608 L22.0389333,39.2608 L23.9109333,46 L25.2421333,46 Z M34.5605333,46.1664 C34.9580444,46.1664 35.3116444,46.1132444 35.6213333,46.0069333 C35.9310222,45.9006222 36.1898667,45.7550222 36.3978667,45.5701333 C36.6058667,45.3852444 36.7630222,45.1726222 36.8693333,44.9322667 C36.9756444,44.6919111 37.0288,44.4330667 37.0288,44.1557333 C37.0288,43.8414222 36.9664,43.5733333 36.8416,43.3514667 C36.7168,43.1296 36.5573333,42.9424 36.3632,42.7898667 C36.1690667,42.6373333 35.9495111,42.5102222 35.7045333,42.4085333 C35.4595556,42.3068444 35.2168889,42.2097778 34.9765333,42.1173333 C34.7824,42.0433778 34.5952,41.9717333 34.4149333,41.9024 C34.2346667,41.8330667 34.0752,41.7544889 33.9365333,41.6666667 C33.7978667,41.5788444 33.6869333,41.4771556 33.6037333,41.3616 C33.5205333,41.2460444 33.4789333,41.1096889 33.4789333,40.9525333 C33.4789333,40.6936889 33.5783111,40.4672 33.7770667,40.2730667 C33.9758222,40.0789333 34.2878222,39.9818667 34.7130667,39.9818667 C35.0088889,39.9818667 35.2816,40.0373333 35.5312,40.1482667 C35.7808,40.2592 36.0211556,40.4024889 36.2522667,40.5781333 L36.2522667,40.5781333 L36.7930667,39.8570667 C36.5342222,39.6444444 36.2268444,39.4641778 35.8709333,39.3162667 C35.5150222,39.1683556 35.1244444,39.0944 34.6992,39.0944 C34.3386667,39.0944 34.0151111,39.1429333 33.7285333,39.24 C33.4419556,39.3370667 33.1992889,39.4711111 33.0005333,39.6421333 C32.8017778,39.8131556 32.6492444,40.0165333 32.5429333,40.2522667 C32.4366222,40.488 32.3834667,40.7399111 32.3834667,41.008 C32.3834667,41.2945778 32.4435556,41.5395556 32.5637333,41.7429333 C32.6839111,41.9463111 32.8387556,42.1242667 33.0282667,42.2768 C33.2177778,42.4293333 33.4327111,42.5587556 33.6730667,42.6650667 C33.9134222,42.7713778 34.1537778,42.8661333 34.3941333,42.9493333 C34.5790222,43.0232889 34.7639111,43.0972444 34.9488,43.1712 C35.1336889,43.2451556 35.2977778,43.3306667 35.4410667,43.4277333 C35.5843556,43.5248 35.7022222,43.6380444 35.7946667,43.7674667 C35.8871111,43.8968889 35.9333333,44.0494222 35.9333333,44.2250667 C35.9333333,44.5208889 35.8224,44.7704889 35.6005333,44.9738667 C35.3786667,45.1772444 35.0458667,45.2789333 34.6021333,45.2789333 C34.1953778,45.2789333 33.8371556,45.2049778 33.5274667,45.0570667 C33.2177778,44.9091556 32.9150222,44.7150222 32.6192,44.4746667 L32.6192,44.4746667 L32.0506667,45.2373333 C32.3742222,45.5054222 32.7532444,45.7272889 33.1877333,45.9029333 C33.6222222,46.0785778 34.0798222,46.1664 34.5605333,46.1664 Z M41.3413333,46.1664 C41.8035556,46.1664 42.2149333,46.0970667 42.5754667,45.9584 C42.936,45.8197333 43.2641778,45.6579556 43.56,45.4730667 L43.56,45.4730667 L43.1578667,44.7242667 C42.9082667,44.8814222 42.6471111,45.0085333 42.3744,45.1056 C42.1016889,45.2026667 41.8035556,45.2512 41.48,45.2512 C40.8328889,45.2512 40.3082667,45.0385778 39.9061333,44.6133333 C39.504,44.1880889 39.2798222,43.6103111 39.2336,42.88 L39.2336,42.88 L43.7818667,42.88 C43.8096,42.7136 43.8234667,42.5056 43.8234667,42.256 C43.8234667,41.7752889 43.7633778,41.3408 43.6432,40.9525333 C43.5230222,40.5642667 43.3496889,40.2314667 43.1232,39.9541333 C42.8967111,39.6768 42.6147556,39.4641778 42.2773333,39.3162667 C41.9399111,39.1683556 41.5585778,39.0944 41.1333333,39.0944 C40.7450667,39.0944 40.3706667,39.1752889 40.0101333,39.3370667 C39.6496,39.4988444 39.3283556,39.7322667 39.0464,40.0373333 C38.7644444,40.3424 38.5379556,40.7144889 38.3669333,41.1536 C38.1959111,41.5927111 38.1104,42.0896 38.1104,42.6442667 C38.1104,43.1989333 38.1936,43.6935111 38.36,44.128 C38.5264,44.5624889 38.7552,44.9299556 39.0464,45.2304 C39.3376,45.5308444 39.6796444,45.7619556 40.0725333,45.9237333 C40.4654222,46.0855111 40.8883556,46.1664 41.3413333,46.1664 Z M42.8250667,42.1312 L39.2197333,42.1312 C39.2567111,41.7891556 39.3329778,41.4864 39.4485333,41.2229333 C39.5640889,40.9594667 39.7096889,40.7376 39.8853333,40.5573333 C40.0609778,40.3770667 40.2574222,40.2384 40.4746667,40.1413333 C40.6919111,40.0442667 40.9207111,39.9957333 41.1610667,39.9957333 C41.688,39.9957333 42.0970667,40.1783111 42.3882667,40.5434667 C42.6794667,40.9086222 42.8250667,41.4378667 42.8250667,42.1312 L42.8250667,42.1312 Z M50.1189333,48.4405333 L50.8261333,48.1077333 C50.2899556,47.2202667 49.8901333,46.2704 49.6266667,45.2581333 C49.3632,44.2458667 49.2314667,43.2081778 49.2314667,42.1450667 C49.2314667,41.0819556 49.3632,40.0442667 49.6266667,39.032 C49.8901333,38.0197333 50.2899556,37.0698667 50.8261333,36.1824 L50.8261333,36.1824 L50.1189333,35.8496 C49.5457778,36.7832889 49.0974222,37.7608889 48.7738667,38.7824 C48.4503111,39.8039111 48.2885333,40.9248 48.2885333,42.1450667 C48.2885333,43.3653333 48.4503111,44.4885333 48.7738667,45.5146667 C49.0974222,46.5408 49.5457778,47.5160889 50.1189333,48.4405333 L50.1189333,48.4405333 Z M55.4992,46 C56.0076444,46 56.4744889,45.9445333 56.8997333,45.8336 C57.3249778,45.7226667 57.6901333,45.5562667 57.9952,45.3344 C58.3002667,45.1125333 58.536,44.8352 58.7024,44.5024 C58.8688,44.1696 58.952,43.7813333 58.952,43.3376 C58.952,42.7089778 58.7671111,42.2144 58.3973333,41.8538667 C58.0275556,41.4933333 57.5098667,41.2622222 56.8442667,41.1605333 L56.8442667,41.1605333 L56.8442667,41.1050667 C57.3804444,40.9664 57.7779556,40.7144889 58.0368,40.3493333 C58.2956444,39.9841778 58.4250667,39.5751111 58.4250667,39.1221333 C58.4250667,38.7246222 58.3488,38.3848889 58.1962667,38.1029333 C58.0437333,37.8209778 57.8311111,37.5921778 57.5584,37.4165333 C57.2856889,37.2408889 56.9575111,37.1114667 56.5738667,37.0282667 C56.1902222,36.9450667 55.7672889,36.9034667 55.3050667,36.9034667 L55.3050667,36.9034667 L52.6010667,36.9034667 L52.6010667,46 L55.4992,46 Z M55.0970667,40.7861333 L53.752,40.7861333 L53.752,37.8186667 L55.1525333,37.8186667 C55.8643556,37.8186667 56.3982222,37.9272889 56.7541333,38.1445333 C57.1100444,38.3617778 57.288,38.72 57.288,39.2192 C57.288,39.7276444 57.1192889,40.1159111 56.7818667,40.384 C56.4444444,40.6520889 55.8828444,40.7861333 55.0970667,40.7861333 L55.0970667,40.7861333 Z M55.3328,45.0848 L53.752,45.0848 L53.752,41.6458667 L55.3328,41.6458667 C56.1370667,41.6458667 56.7518222,41.7776 57.1770667,42.0410667 C57.6023111,42.3045333 57.8149333,42.7182222 57.8149333,43.2821333 C57.8149333,43.9015111 57.5976889,44.3568 57.1632,44.648 C56.7287111,44.9392 56.1185778,45.0848 55.3328,45.0848 L55.3328,45.0848 Z M60.7408,48.4405333 C61.3139556,47.5160889 61.7623111,46.5408 62.0858667,45.5146667 C62.4094222,44.4885333 62.5712,43.3653333 62.5712,42.1450667 C62.5712,40.9248 62.4094222,39.8039111 62.0858667,38.7824 C61.7623111,37.7608889 61.3139556,36.7832889 60.7408,35.8496 L60.7408,35.8496 L60.0336,36.1824 C60.5697778,37.0698667 60.9696,38.0197333 61.2330667,39.032 C61.4965333,40.0442667 61.6282667,41.0819556 61.6282667,42.1450667 C61.6282667,43.2081778 61.4965333,44.2458667 61.2330667,45.2581333 C60.9696,46.2704 60.5697778,47.2202667 60.0336,48.1077333 L60.0336,48.1077333 L60.7408,48.4405333 Z" id="Browse(B)" fill="#393C3E"></path>
                    </g>
                </g>
                <g id="Group-18" transform="translate(113.900000, 98.000000)">
                    <path d="M4.0136,45.4666667 C4.69768889,45.4666667 5.3032,45.3626667 5.83013333,45.1546667 C6.35706667,44.9466667 6.8008,44.6462222 7.16133333,44.2533333 C7.52186667,43.8604444 7.79457778,43.3797333 7.97946667,42.8112 C8.16435556,42.2426667 8.2568,41.5978667 8.2568,40.8768 C8.2568,39.4254222 7.89164444,38.3114667 7.16133333,37.5349333 C6.43102222,36.7584 5.36328889,36.3701333 3.95813333,36.3701333 L3.95813333,36.3701333 L1.684,36.3701333 L1.684,45.4666667 L4.0136,45.4666667 Z M3.87493333,44.5237333 L2.83493333,44.5237333 L2.83493333,37.3130667 L3.87493333,37.3130667 C4.93804444,37.3130667 5.73537778,37.6181333 6.26693333,38.2282667 C6.79848889,38.8384 7.06426667,39.7212444 7.06426667,40.8768 C7.06426667,42.0323556 6.79848889,42.9290667 6.26693333,43.5669333 C5.73537778,44.2048 4.93804444,44.5237333 3.87493333,44.5237333 L3.87493333,44.5237333 Z M11.2381333,45.4666667 L11.2381333,41.1402667 C11.4692444,40.5671111 11.7396444,40.1649778 12.0493333,39.9338667 C12.3590222,39.7027556 12.6571556,39.5872 12.9437333,39.5872 C13.0824,39.5872 13.1979556,39.5964444 13.2904,39.6149333 C13.3828444,39.6334222 13.4845333,39.6611556 13.5954667,39.6981333 L13.5954667,39.6981333 L13.8173333,38.6997333 C13.6047111,38.6072889 13.3643556,38.5610667 13.0962667,38.5610667 C12.708,38.5610667 12.3497778,38.6858667 12.0216,38.9354667 C11.6934222,39.1850667 11.4137778,39.5224889 11.1826667,39.9477333 L11.1826667,39.9477333 L11.1410667,39.9477333 L11.044,38.7274667 L10.1010667,38.7274667 L10.1010667,45.4666667 L11.2381333,45.4666667 Z M16.5629333,45.6330667 C16.9789333,45.6330667 17.3741333,45.5383111 17.7485333,45.3488 C18.1229333,45.1592889 18.4719111,44.9304889 18.7954667,44.6624 L18.7954667,44.6624 L18.8232,44.6624 L18.9202667,45.4666667 L19.8632,45.4666667 L19.8632,41.3344 C19.8632,40.4931556 19.6783111,39.8206222 19.3085333,39.3168 C18.9387556,38.8129778 18.3424889,38.5610667 17.5197333,38.5610667 C16.9743111,38.5610667 16.4751111,38.6558222 16.0221333,38.8453333 C15.5691556,39.0348444 15.1855111,39.2312889 14.8712,39.4346667 L14.8712,39.4346667 L15.3288,40.2250667 C15.5968889,40.0401778 15.8996444,39.8737778 16.2370667,39.7258667 C16.5744889,39.5779556 16.9419556,39.504 17.3394667,39.504 C17.6168,39.504 17.8432889,39.5525333 18.0189333,39.6496 C18.1945778,39.7466667 18.3355556,39.8737778 18.4418667,40.0309333 C18.5481778,40.1880889 18.6221333,40.3683556 18.6637333,40.5717333 C18.7053333,40.7751111 18.7261333,40.9831111 18.7261333,41.1957333 C17.284,41.3528889 16.2324444,41.6279111 15.5714667,42.0208 C14.9104889,42.4136889 14.58,42.9799111 14.58,43.7194667 C14.58,44.3296 14.7672,44.8010667 15.1416,45.1338667 C15.516,45.4666667 15.9897778,45.6330667 16.5629333,45.6330667 Z M16.8818667,44.7178667 C16.5490667,44.7178667 16.2694222,44.6346667 16.0429333,44.4682667 C15.8164444,44.3018667 15.7032,44.0245333 15.7032,43.6362667 C15.7032,43.4236444 15.7540444,43.2272 15.8557333,43.0469333 C15.9574222,42.8666667 16.1261333,42.7072 16.3618667,42.5685333 C16.5976,42.4298667 16.9096,42.3096889 17.2978667,42.208 C17.6861333,42.1063111 18.1622222,42.0184889 18.7261333,41.9445333 L18.7261333,41.9445333 L18.7261333,43.8165333 C18.4025778,44.1123556 18.0952,44.3365333 17.804,44.4890667 C17.5128,44.6416 17.2054222,44.7178667 16.8818667,44.7178667 Z M24.4114667,45.4666667 L25.3544,41.8613333 C25.4468444,41.5377778 25.5300444,41.2165333 25.604,40.8976 C25.6779556,40.5786667 25.7519111,40.2481778 25.8258667,39.9061333 L25.8258667,39.9061333 L25.8813333,39.9061333 C25.9645333,40.2481778 26.0408,40.5763556 26.1101333,40.8906667 C26.1794667,41.2049778 26.2557333,41.5239111 26.3389333,41.8474667 L26.3389333,41.8474667 L27.3096,45.4666667 L28.6962667,45.4666667 L30.4989333,38.7274667 L29.4173333,38.7274667 L28.4328,42.624 C28.3588444,42.9475556 28.2895111,43.2618667 28.2248,43.5669333 C28.1600889,43.872 28.0907556,44.1816889 28.0168,44.496 L28.0168,44.496 L27.9613333,44.496 C27.8873778,44.1816889 27.8111111,43.872 27.7325333,43.5669333 C27.6539556,43.2618667 27.5730667,42.9475556 27.4898667,42.624 L27.4898667,42.624 L26.436,38.7274667 L25.3266667,38.7274667 L24.2866667,42.624 C24.2034667,42.9383111 24.1248889,43.2503111 24.0509333,43.56 C23.9769778,43.8696889 23.9030222,44.1816889 23.8290667,44.496 L23.8290667,44.496 L23.7736,44.496 C23.7088889,44.1816889 23.6441778,43.872 23.5794667,43.5669333 C23.5147556,43.2618667 23.4454222,42.9475556 23.3714667,42.624 L23.3714667,42.624 L22.3730667,38.7274667 L21.2082667,38.7274667 L23.0802667,45.4666667 L24.4114667,45.4666667 Z M36.6002667,47.9072 L37.3074667,47.5744 C36.7712889,46.6869333 36.3714667,45.7370667 36.108,44.7248 C35.8445333,43.7125333 35.7128,42.6748444 35.7128,41.6117333 C35.7128,40.5486222 35.8445333,39.5109333 36.108,38.4986667 C36.3714667,37.4864 36.7712889,36.5365333 37.3074667,35.6490667 L37.3074667,35.6490667 L36.6002667,35.3162667 C36.0271111,36.2499556 35.5787556,37.2275556 35.2552,38.2490667 C34.9316444,39.2705778 34.7698667,40.3914667 34.7698667,41.6117333 C34.7698667,42.832 34.9316444,43.9552 35.2552,44.9813333 C35.5787556,46.0074667 36.0271111,46.9827556 36.6002667,47.9072 L36.6002667,47.9072 Z M41.412,45.4666667 C42.0960889,45.4666667 42.7016,45.3626667 43.2285333,45.1546667 C43.7554667,44.9466667 44.1992,44.6462222 44.5597333,44.2533333 C44.9202667,43.8604444 45.1929778,43.3797333 45.3778667,42.8112 C45.5627556,42.2426667 45.6552,41.5978667 45.6552,40.8768 C45.6552,39.4254222 45.2900444,38.3114667 44.5597333,37.5349333 C43.8294222,36.7584 42.7616889,36.3701333 41.3565333,36.3701333 L41.3565333,36.3701333 L39.0824,36.3701333 L39.0824,45.4666667 L41.412,45.4666667 Z M41.2733333,44.5237333 L40.2333333,44.5237333 L40.2333333,37.3130667 L41.2733333,37.3130667 C42.3364444,37.3130667 43.1337778,37.6181333 43.6653333,38.2282667 C44.1968889,38.8384 44.4626667,39.7212444 44.4626667,40.8768 C44.4626667,42.0323556 44.1968889,42.9290667 43.6653333,43.5669333 C43.1337778,44.2048 42.3364444,44.5237333 41.2733333,44.5237333 L41.2733333,44.5237333 Z M47.5965333,47.9072 C48.1696889,46.9827556 48.6180444,46.0074667 48.9416,44.9813333 C49.2651556,43.9552 49.4269333,42.832 49.4269333,41.6117333 C49.4269333,40.3914667 49.2651556,39.2705778 48.9416,38.2490667 C48.6180444,37.2275556 48.1696889,36.2499556 47.5965333,35.3162667 L47.5965333,35.3162667 L46.8893333,35.6490667 C47.4255111,36.5365333 47.8253333,37.4864 48.0888,38.4986667 C48.3522667,39.5109333 48.484,40.5486222 48.484,41.6117333 C48.484,42.6748444 48.3522667,43.7125333 48.0888,44.7248 C47.8253333,45.7370667 47.4255111,46.6869333 46.8893333,47.5744 L46.8893333,47.5744 L47.5965333,47.9072 Z" id="Draw(D)" fill="#393C3E" fill-rule="nonzero"></path>
                    <g id="brush-24px" transform="translate(9.100000, 0.000000)">
                        <polygon id="Path" points="0 0 24 0 24 24 0 24"></polygon>
                        <path d="M7,16 C7.55,16 8,16.45 8,17 C8,18.1 7.1,19 6,19 C5.83,19 5.67,18.98 5.5,18.95 C5.81,18.4 6,17.74 6,17 C6,16.45 6.45,16 7,16 M18.67,3 C18.41,3 18.16,3.1 17.96,3.29 L9,12.25 L11.75,15 L20.71,6.04 C21.1,5.65 21.1,5.02 20.71,4.63 L19.37,3.29 C19.17,3.09 18.92,3 18.67,3 Z M7,14 C5.34,14 4,15.34 4,17 C4,18.31 2.84,19 2,19 C2.92,20.22 4.49,21 6,21 C8.21,21 10,19.21 10,17 C10,15.34 8.66,14 7,14 Z" id="Shape" fill="#C5D0DE" fill-rule="nonzero"></path>
                    </g>
                </g>
                <g id="baseline-drag_indicator-24px-(1)" transform="translate(12.000000, 13.000000)" fill="#7F8FA4" fill-rule="nonzero">
                    <path d="M3.2,10.5 C3.2,11.325 2.48,12 1.6,12 C0.72,12 0,11.325 0,10.5 C0,9.675 0.72,9 1.6,9 C2.48,9 3.2,9.675 3.2,10.5 Z M1.6,4.5 C0.72,4.5 0,5.175 0,6 C0,6.825 0.72,7.5 1.6,7.5 C2.48,7.5 3.2,6.825 3.2,6 C3.2,5.175 2.48,4.5 1.6,4.5 Z M1.6,0 C0.72,0 0,0.675 0,1.5 C0,2.325 0.72,3 1.6,3 C2.48,3 3.2,2.325 3.2,1.5 C3.2,0.675 2.48,0 1.6,0 Z M6.4,3 C7.28,3 8,2.325 8,1.5 C8,0.675 7.28,0 6.4,0 C5.52,0 4.8,0.675 4.8,1.5 C4.8,2.325 5.52,3 6.4,3 Z M6.4,4.5 C5.52,4.5 4.8,5.175 4.8,6 C4.8,6.825 5.52,7.5 6.4,7.5 C7.28,7.5 8,6.825 8,6 C8,5.175 7.28,4.5 6.4,4.5 Z M6.4,9 C5.52,9 4.8,9.675 4.8,10.5 C4.8,11.325 5.52,12 6.4,12 C7.28,12 8,11.325 8,10.5 C8,9.675 7.28,9 6.4,9 Z" id="Shape"></path>
                </g>
                <path d="M263.791992,23.6353516 L264.735352,22.6919922 L260.993359,18.95 L264.735352,15.2080078 L263.791992,14.2646484 L260.05,18.0066406 L256.308008,14.2646484 L255.364648,15.2080078 L259.106641,18.95 L255.364648,22.6919922 L256.308008,23.6353516 L260.05,19.8933594 L263.791992,23.6353516 Z M263.791992,23.6353516 L264.735352,22.6919922 L260.993359,18.95 L264.735352,15.2080078 L263.791992,14.2646484 L260.05,18.0066406 L256.308008,14.2646484 L255.364648,15.2080078 L259.106641,18.95 L255.364648,22.6919922 L256.308008,23.6353516 L260.05,19.8933594 L263.791992,23.6353516 Z" id="cclear" fill="#7F8FA4" fill-rule="nonzero"></path>
            </g>
            <path d="M179.112384,33.8461538 L184.387386,41.7021395 C187.690424,38.3556895 190.009072,35.4455951 191.203382,33.8461538 L191.203382,33.8461538 L197,33.8461538 L196.126929,35.1599806 C195.360408,36.3167193 176.986162,63.5199141 146.850108,65.8444988 C145.495178,65.9476373 144.138658,66 142.782138,66 C129.515914,66 116.190848,61.0065064 102.954839,51.0988566 L102.954839,51.0988566 L105.919145,47.3398524 C119.525693,57.4950348 133.116337,62.12675 146.48116,61.096951 C161.105495,59.9703605 172.915011,52.2175134 180.860116,45.0723906 L180.860116,45.0723906 L173.322126,33.8461538 L179.112384,33.8461538 Z M121.940788,33.1153846 C123.186797,33.1153846 124.343463,33.3414514 125.409192,33.7919227 C125.522465,33.8384659 125.614999,33.9099429 125.725081,33.9614728 C126.650415,34.3953216 127.476833,34.9422038 128.169237,35.645338 C128.944603,36.431585 129.552451,37.354137 129.994377,38.4113318 C130.437899,39.4701888 130.658065,40.6071718 130.658065,41.8222808 L130.658065,41.8222808 L130.658065,41.8854465 C130.658065,43.1005555 130.437899,44.2375385 129.994377,45.2947333 C129.552451,46.3535903 128.939817,47.281129 128.154879,48.0773496 C127.369941,48.8735701 126.444608,49.5019028 125.378879,49.9623477 C124.313151,50.4227926 123.146912,50.6538462 121.880162,50.6538462 C120.632558,50.6538462 119.475892,50.4294416 118.411758,49.9789703 C117.344434,49.5284989 116.425483,48.9101398 115.651713,48.1238927 C114.876348,47.3376457 114.266904,46.416756 113.826573,45.357899 C113.383051,44.3007043 113.16129,43.1637213 113.16129,41.9486122 L113.16129,41.9486122 L113.16129,41.8854465 C113.16129,40.6703375 113.383051,39.5333545 113.826573,38.4744975 C114.266904,37.4173028 114.881134,36.489764 115.664476,35.6918812 C116.376025,34.9721244 117.218398,34.4069574 118.159685,33.9614728 C118.257004,33.9149297 118.339965,33.851764 118.440476,33.8068831 C119.5078,33.3464382 120.674039,33.1153846 121.940788,33.1153846 Z M140.864516,28 L140.864516,50.6538462 L136.490323,50.6538462 L136.490323,28 L140.864516,28 Z M150.341935,28 L150.341935,50.6538462 L145.967742,50.6538462 L145.967742,28 L150.341935,28 Z M163.157729,33.1153846 C164.458551,33.1153846 165.583878,33.3663852 166.535248,33.8700488 C166.582971,33.8949826 166.619917,33.9348768 166.669179,33.9614728 C167.554354,34.4551628 168.308677,35.0918068 168.907517,35.8963387 C169.537146,36.7457514 170.003595,37.7198333 170.303784,38.8202467 C170.603974,39.9206601 170.754839,41.0676166 170.754839,42.2611163 C170.754839,42.4506135 170.75022,42.6500842 170.740984,42.8595284 C170.730208,43.0689727 170.716353,43.2883905 170.69788,43.519444 L170.69788,43.519444 L159.840247,43.519444 C160.052689,44.6082216 160.494507,45.4310383 161.162622,45.9862317 C161.833815,46.5414252 162.66357,46.8190219 163.653427,46.8190219 C164.390816,46.8190219 165.049694,46.6827169 165.6316,46.410107 C166.213507,46.137497 166.815425,45.6986614 167.437357,45.0902758 L167.437357,45.0902758 L169.969727,47.5105203 C169.230798,48.4962381 168.339466,49.2658625 167.291111,49.821056 C166.242756,50.3762494 165.011208,50.6538462 163.594928,50.6538462 C162.431116,50.6538462 161.348893,50.4444019 160.348261,50.0255134 C159.349168,49.606625 158.485545,49.0082129 157.758932,48.2336016 C157.030779,47.4589904 156.462728,46.5364384 156.056317,45.4676079 C155.646827,44.3987774 155.445161,43.2252247 155.445161,41.94695 L155.445161,41.94695 L155.445161,41.8837843 C155.445161,40.6902846 155.634512,39.5582883 156.011673,38.4894578 C156.390374,37.4206273 156.9184,36.489764 157.59883,35.6918812 C158.213065,34.9721244 158.955072,34.4069574 159.794064,33.9614728 C159.880272,33.9149297 159.954165,33.8501017 160.043453,33.8068831 C160.993284,33.3464382 162.032402,33.1153846 163.157729,33.1153846 Z M90.6296663,33.8461538 C93.4555051,36.6714155 96.2829577,39.2967403 99.1120241,41.672913 L99.1120241,41.672913 L105.020303,33.8461538 L111.703226,33.8461538 L106.695472,40.1856903 L102.152504,45.8623593 L100.075488,48.4615385 C94.9079636,44.5058645 89.7549635,39.8657914 84.6277849,34.5028695 L84.6277849,34.5028695 L84,33.8461538 Z M121.880162,37.2327924 C121.216475,37.2327924 120.627772,37.354137 120.114052,37.5951641 C119.601928,37.8361912 119.164788,38.1653179 118.802632,38.5842064 C118.440476,39.0047571 118.164471,39.4917981 117.973023,40.0469915 C117.781575,40.602185 117.687446,41.1939481 117.687446,41.8222808 L117.687446,41.8222808 L117.687446,41.8854465 C117.687446,42.5137792 117.787956,43.1055423 117.987381,43.6607358 C118.188402,44.2159292 118.481956,44.707957 118.863257,45.1384812 C119.246154,45.5673432 119.697652,45.9081057 120.220944,46.1591063 C120.744236,46.4117692 121.316986,46.5364384 121.940788,46.5364384 C122.604475,46.5364384 123.193178,46.416756 123.705302,46.1757289 C124.219022,45.9347018 124.654567,45.6039129 125.018318,45.1850244 C125.378879,44.7661359 125.654884,44.2790949 125.846332,43.7239015 C126.03778,43.168708 126.133504,42.5769449 126.133504,41.9486122 L126.133504,41.9486122 L126.133504,41.8854465 C126.133504,41.2554515 126.031399,40.6653507 125.831973,40.108495 C125.630953,39.5533015 125.338994,39.0612738 124.957693,38.6324118 C124.574797,38.2018875 124.128084,37.8627873 123.614365,37.6101245 C123.10224,37.3591238 122.52311,37.2327924 121.880162,37.2327924 Z M163.157729,36.9502089 C162.226371,36.9502089 161.475127,37.2743488 160.902457,37.9242908 C160.328248,38.5742328 159.955705,39.4435927 159.780209,40.5323702 L159.780209,40.5323702 L166.447501,40.5323702 C166.310491,39.465202 165.962579,38.6008289 165.399146,37.9392511 C164.835713,37.2793355 164.089087,36.9502089 163.157729,36.9502089 Z" id="Combined-Shape" fill="#0042FF"></path>
        </g>
    </g>
</svg>