<?xml version="1.0" encoding="UTF-8"?>
<svg width="203px" height="53px" viewBox="0 0 203 53" version="1.1" xmlns="http://www.w3.org/2000/svg" xmlns:xlink="http://www.w3.org/1999/xlink">
    <!-- Generator: Sketch 55.2 (78181) - https://sketchapp.com -->
    <title>Group 15</title>
    <desc>Created with Sketch.</desc>
    <g id="Product" stroke="none" stroke-width="1" fill="none" fill-rule="evenodd">
        <g id="project-zero---added" transform="translate(-884.000000, -499.000000)">
            <g id="Group-15" transform="translate(885.000000, 501.000000)">
                <g id="Group-14">
                    <path d="M0,6 L195,6 C198.313708,6 201,8.6862915 201,12 L201,41 L0,41 L0,6 Z" id="Rectangle" stroke="#C5D0DE" stroke-width="0.5" fill="#E6EAEE"></path>
                    <path d="M0,13 L127.5,13 C133.29899,13 138,17.7010101 138,23.5 C138,29.2989899 133.29899,34 127.5,34 L0,34 L0,13 Z" id="Rectangle" fill="#FFFFFF"></path>
                    <path d="M6.588,28.608 L6.804,28.662 C6.8840004,28.6820001 6.95999964,28.692 7.032,28.692 C7.36800168,28.692 7.64199894,28.5740012 7.854,28.338 C8.06600106,28.1019988 8.2319994,27.8040018 8.352,27.444 L8.484,27.012 L6.144,21.168 L7.164,21.168 L8.352,24.396 C8.44000044,24.6520013 8.5339995,24.9219986 8.634,25.206 C8.7340005,25.4900014 8.82799956,25.7679986 8.916,26.04 L8.964,26.04 C9.05200044,25.7759987 9.1359996,25.5000014 9.216,25.212 C9.2960004,24.9239986 9.3759996,24.6520013 9.456,24.396 L10.5,21.168 L11.46,21.168 L9.264,27.48 C9.15999948,27.7680014 9.04400064,28.0359988 8.916,28.284 C8.78799936,28.5320012 8.63600088,28.7459991 8.46,28.926 C8.28399912,29.1060009 8.08400112,29.2479995 7.86,29.352 C7.63599888,29.4560005 7.37600148,29.508 7.08,29.508 C6.94399932,29.508 6.82000056,29.4980001 6.708,29.478 C6.59599944,29.4579999 6.49200048,29.4280002 6.396,29.388 L6.588,28.608 Z M12.108,24.096 C12.108,23.6079976 12.1819993,23.1740019 12.33,22.794 C12.4780007,22.4139981 12.6759988,22.0920013 12.924,21.828 C13.1720012,21.5639987 13.4579984,21.3640007 13.782,21.228 C14.1060016,21.0919993 14.4479982,21.024 14.808,21.024 C15.1680018,21.024 15.5099984,21.0919993 15.834,21.228 C16.1580016,21.3640007 16.4439988,21.5639987 16.692,21.828 C16.9400012,22.0920013 17.1379993,22.4139981 17.286,22.794 C17.4340007,23.1740019 17.508,23.6079976 17.508,24.096 C17.508,24.5760024 17.4340007,25.0059981 17.286,25.386 C17.1379993,25.7660019 16.9400012,26.0859987 16.692,26.346 C16.4439988,26.6060013 16.1580016,26.8039993 15.834,26.94 C15.5099984,27.0760007 15.1680018,27.144 14.808,27.144 C14.4479982,27.144 14.1060016,27.0760007 13.782,26.94 C13.4579984,26.8039993 13.1720012,26.6060013 12.924,26.346 C12.6759988,26.0859987 12.4780007,25.7660019 12.33,25.386 C12.1819993,25.0059981 12.108,24.5760024 12.108,24.096 Z M13.128,24.096 C13.128,24.4320017 13.1679996,24.7359986 13.248,25.008 C13.3280004,25.2800014 13.4419993,25.513999 13.59,25.71 C13.7380007,25.906001 13.915999,26.0579995 14.124,26.166 C14.332001,26.2740005 14.5599988,26.328 14.808,26.328 C15.0560012,26.328 15.283999,26.2740005 15.492,26.166 C15.700001,26.0579995 15.8779993,25.906001 16.026,25.71 C16.1740007,25.513999 16.2879996,25.2800014 16.368,25.008 C16.4480004,24.7359986 16.488,24.4320017 16.488,24.096 C16.488,23.7599983 16.4480004,23.4540014 16.368,23.178 C16.2879996,22.9019986 16.1740007,22.664001 16.026,22.464 C15.8779993,22.263999 15.700001,22.1100005 15.492,22.002 C15.283999,21.8939995 15.0560012,21.84 14.808,21.84 C14.5599988,21.84 14.332001,21.8939995 14.124,22.002 C13.915999,22.1100005 13.7380007,22.263999 13.59,22.464 C13.4419993,22.664001 13.3280004,22.9019986 13.248,23.178 C13.1679996,23.4540014 13.128,23.7599983 13.128,24.096 Z M18.96,21.168 L19.956,21.168 L19.956,24.732 C19.956,25.2840028 20.0419991,25.6819988 20.214,25.926 C20.3860009,26.1700012 20.6639981,26.292 21.048,26.292 C21.3520015,26.292 21.6199988,26.2140008 21.852,26.058 C22.0840012,25.9019992 22.3399986,25.6520017 22.62,25.308 L22.62,21.168 L23.604,21.168 L23.604,27 L22.788,27 L22.704,26.088 L22.668,26.088 C22.3959986,26.4080016 22.1100015,26.663999 21.81,26.856 C21.5099985,27.048001 21.156002,27.144 20.748,27.144 C20.1239969,27.144 19.6700014,26.9520019 19.386,26.568 C19.1019986,26.1839981 18.96,25.6160038 18.96,24.864 L18.96,21.168 Z M25.572,21.168 L26.388,21.168 L26.472,22.224 L26.508,22.224 C26.708001,21.8559982 26.9499986,21.5640011 27.234,21.348 C27.5180014,21.1319989 27.8279983,21.024 28.164,21.024 C28.3960012,21.024 28.6039991,21.0639996 28.788,21.144 L28.596,22.008 C28.4999995,21.9759998 28.4120004,21.9520001 28.332,21.936 C28.2519996,21.9199999 28.1520006,21.912 28.032,21.912 C27.7839988,21.912 27.5260013,22.011999 27.258,22.212 C26.9899987,22.412001 26.756001,22.7599975 26.556,23.256 L26.556,27 L25.572,27 L25.572,21.168 Z M29.196,21.168 L30.204,21.168 L31.068,24.54 C31.1320003,24.8200014 31.1919997,25.0919987 31.248,25.356 C31.3040003,25.6200013 31.3599997,25.8879986 31.416,26.16 L31.464,26.16 C31.5280003,25.8879986 31.5919997,25.6180013 31.656,25.35 C31.7200003,25.0819987 31.7879996,24.8120014 31.86,24.54 L32.76,21.168 L33.72,21.168 L34.632,24.54 C34.7040004,24.8200014 34.7739997,25.0919987 34.842,25.356 C34.9100003,25.6200013 34.9759997,25.8879986 35.04,26.16 L35.088,26.16 C35.1520003,25.8879986 35.2119997,25.6200013 35.268,25.356 C35.3240003,25.0919987 35.3839997,24.8200014 35.448,24.54 L36.3,21.168 L37.236,21.168 L35.676,27 L34.476,27 L33.636,23.868 C33.5639996,23.5879986 33.4980003,23.3120014 33.438,23.04 C33.3779997,22.7679986 33.3120004,22.4840015 33.24,22.188 L33.192,22.188 C33.1279997,22.4840015 33.0640003,22.7699986 33,23.046 C32.9359997,23.3220014 32.8640004,23.5999986 32.784,23.88 L31.968,27 L30.816,27 L29.196,21.168 Z M38.028,24.096 C38.028,23.6159976 38.1019993,23.1860019 38.25,22.806 C38.3980007,22.4259981 38.5939988,22.1040013 38.838,21.84 C39.0820012,21.5759987 39.3599984,21.3740007 39.672,21.234 C39.9840016,21.0939993 40.3079983,21.024 40.644,21.024 C41.0120018,21.024 41.3419985,21.0879994 41.634,21.216 C41.9260015,21.3440006 42.169999,21.5279988 42.366,21.768 C42.562001,22.0080012 42.7119995,22.2959983 42.816,22.632 C42.9200005,22.9680017 42.972,23.3439979 42.972,23.76 C42.972,23.9760011 42.9600001,24.1559993 42.936,24.3 L39,24.3 C39.0400002,24.9320032 39.2339983,25.4319982 39.582,25.8 C39.9300017,26.1680018 40.3839972,26.352 40.944,26.352 C41.2240014,26.352 41.4819988,26.3100004 41.718,26.226 C41.9540012,26.1419996 42.1799989,26.0320007 42.396,25.896 L42.744,26.544 C42.4879987,26.7040008 42.2040016,26.8439994 41.892,26.964 C41.5799984,27.0840006 41.224002,27.144 40.824,27.144 C40.431998,27.144 40.0660017,27.0740007 39.726,26.934 C39.3859983,26.7939993 39.0900013,26.5940013 38.838,26.334 C38.5859987,26.0739987 38.3880007,25.7560019 38.244,25.38 C38.0999993,25.0039981 38.028,24.5760024 38.028,24.096 Z M42.108,23.652 C42.108,23.051997 41.9820013,22.5940016 41.73,22.278 C41.4779987,21.9619984 41.1240023,21.804 40.668,21.804 C40.459999,21.804 40.2620009,21.8459996 40.074,21.93 C39.8859991,22.0140004 39.7160008,22.1339992 39.564,22.29 C39.4119992,22.4460008 39.2860005,22.6379989 39.186,22.866 C39.0859995,23.0940011 39.0200002,23.3559985 38.988,23.652 L42.108,23.652 Z M44.412,18.456 L45.396,18.456 L45.396,20.784 L45.372,21.84 C45.6360013,21.6079988 45.9239984,21.4140008 46.236,21.258 C46.5480016,21.1019992 46.8679984,21.024 47.196,21.024 C47.5720019,21.024 47.9039986,21.0939993 48.192,21.234 C48.4800014,21.3740007 48.721999,21.5739987 48.918,21.834 C49.114001,22.0940013 49.2619995,22.4059982 49.362,22.77 C49.4620005,23.1340018 49.512,23.5399978 49.512,23.988 C49.512,24.4840025 49.4440007,24.927998 49.308,25.32 C49.1719993,25.712002 48.9880012,26.0439986 48.756,26.316 C48.5239988,26.5880014 48.2560015,26.7939993 47.952,26.934 C47.6479985,27.0740007 47.3280017,27.144 46.992,27.144 C46.7199986,27.144 46.4380015,27.0820006 46.146,26.958 C45.8539985,26.8339994 45.5800013,26.6560012 45.324,26.424 L45.288,26.424 L45.204,27 L44.412,27 L44.412,18.456 Z M45.396,25.704 C45.6520013,25.9280011 45.9059987,26.0859995 46.158,26.178 C46.4100013,26.2700005 46.631999,26.316 46.824,26.316 C47.0640012,26.316 47.285999,26.2620005 47.49,26.154 C47.694001,26.0459995 47.8699993,25.894001 48.018,25.698 C48.1660007,25.501999 48.2819996,25.2600014 48.366,24.972 C48.4500004,24.6839986 48.492,24.3600018 48.492,24 C48.492,23.6799984 48.4640003,23.3880013 48.408,23.124 C48.3519997,22.8599987 48.2620006,22.6340009 48.138,22.446 C48.0139994,22.2579991 47.854001,22.1120005 47.658,22.008 C47.461999,21.9039995 47.2280014,21.852 46.956,21.852 C46.4839976,21.852 45.9640028,22.1159974 45.396,22.644 L45.396,25.704 Z M50.916,25.68 C51.1720013,25.888001 51.4339987,26.0559994 51.702,26.184 C51.9700013,26.3120006 52.2799982,26.376 52.632,26.376 C53.0160019,26.376 53.303999,26.2880009 53.496,26.112 C53.688001,25.9359991 53.784,25.7200013 53.784,25.464 C53.784,25.3119992 53.7440004,25.1800006 53.664,25.068 C53.5839996,24.9559994 53.4820006,24.8580004 53.358,24.774 C53.2339994,24.6899996 53.0920008,24.6160003 52.932,24.552 L52.452,24.36 C52.243999,24.2879996 52.036001,24.2060005 51.828,24.114 C51.619999,24.0219995 51.4340008,23.9100007 51.27,23.778 C51.1059992,23.6459993 50.9720005,23.4920009 50.868,23.316 C50.7639995,23.1399991 50.712,22.9280012 50.712,22.68 C50.712,22.4479988 50.7579995,22.230001 50.85,22.026 C50.9420005,21.821999 51.0739991,21.6460007 51.246,21.498 C51.4180009,21.3499993 51.6279988,21.2340004 51.876,21.15 C52.1240012,21.0659996 52.4039984,21.024 52.716,21.024 C53.0840018,21.024 53.4219985,21.0879994 53.73,21.216 C54.0380015,21.3440006 54.3039989,21.4999991 54.528,21.684 L54.06,22.308 C53.859999,22.1559992 53.6520011,22.0320005 53.436,21.936 C53.2199989,21.8399995 52.9840013,21.792 52.728,21.792 C52.3599982,21.792 52.0900009,21.8759992 51.918,22.044 C51.7459991,22.2120008 51.66,22.4079989 51.66,22.632 C51.66,22.7680007 51.6959996,22.8859995 51.768,22.986 C51.8400004,23.0860005 51.9359994,23.1739996 52.056,23.25 C52.1760006,23.3260004 52.3139992,23.3939997 52.47,23.454 C52.6260008,23.5140003 52.7879992,23.5759997 52.956,23.64 C53.164001,23.7200004 53.3739989,23.8039996 53.586,23.892 C53.7980011,23.9800004 53.9879992,24.0899993 54.156,24.222 C54.3240008,24.3540007 54.4619995,24.515999 54.57,24.708 C54.6780005,24.900001 54.732,25.1319986 54.732,25.404 C54.732,25.6440012 54.6860005,25.867999 54.594,26.076 C54.5019995,26.284001 54.3660009,26.4679992 54.186,26.628 C54.0059991,26.7880008 53.7820013,26.9139995 53.514,27.006 C53.2459987,27.0980005 52.9400017,27.144 52.596,27.144 C52.1799979,27.144 51.7840019,27.0680008 51.408,26.916 C51.0319981,26.7639992 50.7040014,26.5720012 50.424,26.34 L50.916,25.68 Z M56.604,19.968 C56.411999,19.968 56.2500007,19.9080006 56.118,19.788 C55.9859993,19.6679994 55.92,19.5160009 55.92,19.332 C55.92,19.139999 55.9859993,18.9860006 56.118,18.87 C56.2500007,18.7539994 56.411999,18.696 56.604,18.696 C56.796001,18.696 56.9579993,18.7539994 57.09,18.87 C57.2220007,18.9860006 57.288,19.139999 57.288,19.332 C57.288,19.5160009 57.2220007,19.6679994 57.09,19.788 C56.9579993,19.9080006 56.796001,19.968 56.604,19.968 Z M56.1,21.168 L57.084,21.168 L57.084,27 L56.1,27 L56.1,21.168 Z M59.22,21.972 L58.356,21.972 L58.356,21.228 L59.268,21.168 L59.388,19.536 L60.216,19.536 L60.216,21.168 L61.788,21.168 L61.788,21.972 L60.216,21.972 L60.216,25.212 C60.216,25.5720018 60.2819993,25.849999 60.414,26.046 C60.5460007,26.242001 60.7799983,26.34 61.116,26.34 C61.2200005,26.34 61.3319994,26.3240002 61.452,26.292 C61.5720006,26.2599998 61.6799995,26.2240002 61.776,26.184 L61.968,26.928 C61.8079992,26.9840003 61.6340009,27.0339998 61.446,27.078 C61.2579991,27.1220002 61.0720009,27.144 60.888,27.144 C60.5759984,27.144 60.3140011,27.0960005 60.102,27 C59.8899989,26.9039995 59.7180007,26.7720008 59.586,26.604 C59.4539993,26.4359992 59.3600003,26.2320012 59.304,25.992 C59.2479997,25.7519988 59.22,25.4880014 59.22,25.2 L59.22,21.972 Z M62.556,24.096 C62.556,23.6159976 62.6299993,23.1860019 62.778,22.806 C62.9260007,22.4259981 63.1219988,22.1040013 63.366,21.84 C63.6100012,21.5759987 63.8879984,21.3740007 64.2,21.234 C64.5120016,21.0939993 64.8359983,21.024 65.172,21.024 C65.5400018,21.024 65.8699985,21.0879994 66.162,21.216 C66.4540015,21.3440006 66.697999,21.5279988 66.894,21.768 C67.090001,22.0080012 67.2399995,22.2959983 67.344,22.632 C67.4480005,22.9680017 67.5,23.3439979 67.5,23.76 C67.5,23.9760011 67.4880001,24.1559993 67.464,24.3 L63.528,24.3 C63.5680002,24.9320032 63.7619983,25.4319982 64.11,25.8 C64.4580017,26.1680018 64.9119972,26.352 65.472,26.352 C65.7520014,26.352 66.0099988,26.3100004 66.246,26.226 C66.4820012,26.1419996 66.7079989,26.0320007 66.924,25.896 L67.272,26.544 C67.0159987,26.7040008 66.7320016,26.8439994 66.42,26.964 C66.1079984,27.0840006 65.752002,27.144 65.352,27.144 C64.959998,27.144 64.5940017,27.0740007 64.254,26.934 C63.9139983,26.7939993 63.6180013,26.5940013 63.366,26.334 C63.1139987,26.0739987 62.9160007,25.7560019 62.772,25.38 C62.6279993,25.0039981 62.556,24.5760024 62.556,24.096 Z M66.636,23.652 C66.636,23.051997 66.5100013,22.5940016 66.258,22.278 C66.0059987,21.9619984 65.6520023,21.804 65.196,21.804 C64.987999,21.804 64.7900009,21.8459996 64.602,21.93 C64.4139991,22.0140004 64.2440008,22.1339992 64.092,22.29 C63.9399992,22.4460008 63.8140005,22.6379989 63.714,22.866 C63.6139995,23.0940011 63.5480002,23.3559985 63.516,23.652 L66.636,23.652 Z M68.736,26.4 C68.736,26.1679988 68.8059993,25.9820007 68.946,25.842 C69.0860007,25.7019993 69.255999,25.632 69.456,25.632 C69.648001,25.632 69.8139993,25.7019993 69.954,25.842 C70.0940007,25.9820007 70.164,26.1679988 70.164,26.4 C70.164,26.6160011 70.0940007,26.7939993 69.954,26.934 C69.8139993,27.0740007 69.648001,27.144 69.456,27.144 C69.255999,27.144 69.0860007,27.0740007 68.946,26.934 C68.8059993,26.7939993 68.736,26.6160011 68.736,26.4 Z M71.4,24.096 C71.4,23.6079976 71.4759992,23.1740019 71.628,22.794 C71.7800008,22.4139981 71.9839987,22.0920013 72.24,21.828 C72.4960013,21.5639987 72.7939983,21.3640007 73.134,21.228 C73.4740017,21.0919993 73.8319981,21.024 74.208,21.024 C74.5920019,21.024 74.9219986,21.0939993 75.198,21.234 C75.4740014,21.3740007 75.711999,21.5359991 75.912,21.72 L75.42,22.356 C75.2439991,22.2039992 75.0620009,22.0800005 74.874,21.984 C74.6859991,21.8879995 74.4760012,21.84 74.244,21.84 C73.9799987,21.84 73.7360011,21.8939995 73.512,22.002 C73.2879989,22.1100005 73.0960008,22.263999 72.936,22.464 C72.7759992,22.664001 72.6500005,22.9019986 72.558,23.178 C72.4659995,23.4540014 72.42,23.7599983 72.42,24.096 C72.42,24.4320017 72.4639996,24.7359986 72.552,25.008 C72.6400004,25.2800014 72.7619992,25.513999 72.918,25.71 C73.0740008,25.906001 73.2639989,26.0579995 73.488,26.166 C73.7120011,26.2740005 73.9559987,26.328 74.22,26.328 C74.5000014,26.328 74.7539989,26.2700006 74.982,26.154 C75.2100011,26.0379994 75.4119991,25.9000008 75.588,25.74 L76.032,26.388 C75.7679987,26.6200012 75.4740016,26.8039993 75.15,26.94 C74.8259984,27.0760007 74.4880018,27.144 74.136,27.144 C73.7519981,27.144 73.3920017,27.0760007 73.056,26.94 C72.7199983,26.8039993 72.4300012,26.6060013 72.186,26.346 C71.9419988,26.0859987 71.7500007,25.7660019 71.61,25.386 C71.4699993,25.0059981 71.4,24.5760024 71.4,24.096 Z M76.62,24.096 C76.62,23.6079976 76.6939993,23.1740019 76.842,22.794 C76.9900007,22.4139981 77.1879988,22.0920013 77.436,21.828 C77.6840012,21.5639987 77.9699984,21.3640007 78.294,21.228 C78.6180016,21.0919993 78.9599982,21.024 79.32,21.024 C79.6800018,21.024 80.0219984,21.0919993 80.346,21.228 C80.6700016,21.3640007 80.9559988,21.5639987 81.204,21.828 C81.4520012,22.0920013 81.6499993,22.4139981 81.798,22.794 C81.9460007,23.1740019 82.02,23.6079976 82.02,24.096 C82.02,24.5760024 81.9460007,25.0059981 81.798,25.386 C81.6499993,25.7660019 81.4520012,26.0859987 81.204,26.346 C80.9559988,26.6060013 80.6700016,26.8039993 80.346,26.94 C80.0219984,27.0760007 79.6800018,27.144 79.32,27.144 C78.9599982,27.144 78.6180016,27.0760007 78.294,26.94 C77.9699984,26.8039993 77.6840012,26.6060013 77.436,26.346 C77.1879988,26.0859987 76.9900007,25.7660019 76.842,25.386 C76.6939993,25.0059981 76.62,24.5760024 76.62,24.096 Z M77.64,24.096 C77.64,24.4320017 77.6799996,24.7359986 77.76,25.008 C77.8400004,25.2800014 77.9539993,25.513999 78.102,25.71 C78.2500007,25.906001 78.427999,26.0579995 78.636,26.166 C78.844001,26.2740005 79.0719988,26.328 79.32,26.328 C79.5680012,26.328 79.795999,26.2740005 80.004,26.166 C80.212001,26.0579995 80.3899993,25.906001 80.538,25.71 C80.6860007,25.513999 80.7999996,25.2800014 80.88,25.008 C80.9600004,24.7359986 81,24.4320017 81,24.096 C81,23.7599983 80.9600004,23.4540014 80.88,23.178 C80.7999996,22.9019986 80.6860007,22.664001 80.538,22.464 C80.3899993,22.263999 80.212001,22.1100005 80.004,22.002 C79.795999,21.8939995 79.5680012,21.84 79.32,21.84 C79.0719988,21.84 78.844001,21.8939995 78.636,22.002 C78.427999,22.1100005 78.2500007,22.263999 78.102,22.464 C77.9539993,22.664001 77.8400004,22.9019986 77.76,23.178 C77.6799996,23.4540014 77.64,23.7599983 77.64,24.096 Z M83.556,21.168 L84.372,21.168 L84.456,22.008 L84.492,22.008 C84.7480013,21.7279986 85.0259985,21.4940009 85.326,21.306 C85.6260015,21.1179991 85.9519982,21.024 86.304,21.024 C86.7520022,21.024 87.1019987,21.121999 87.354,21.318 C87.6060013,21.514001 87.7919994,21.7879982 87.912,22.14 C88.2160015,21.8039983 88.5219985,21.534001 88.83,21.33 C89.1380015,21.125999 89.4719982,21.024 89.832,21.024 C90.432003,21.024 90.8779985,21.2159981 91.17,21.6 C91.4620015,21.9840019 91.608,22.5519962 91.608,23.304 L91.608,27 L90.624,27 L90.624,23.436 C90.624,22.8839972 90.5360009,22.4860012 90.36,22.242 C90.1839991,21.9979988 89.9120018,21.876 89.544,21.876 C89.1039978,21.876 88.6160027,22.175997 88.08,22.776 L88.08,27 L87.096,27 L87.096,23.436 C87.096,22.8839972 87.0080009,22.4860012 86.832,22.242 C86.6559991,21.9979988 86.3800019,21.876 86.004,21.876 C85.5639978,21.876 85.0760027,22.175997 84.54,22.776 L84.54,27 L83.556,27 L83.556,21.168 Z" id="yourwebsite.com" fill="#354052" fill-rule="nonzero"></path>
                    <circle id="Oval" stroke="#0042FF" stroke-width="1.44" fill-opacity="0" fill="#FFFFFF" cx="153.5" cy="23.5" r="8.5"></circle>
                    <path d="M153.654853,28.4583333 C151.980785,28.4583333 150.41251,27.6988159 148.991075,26.2004909 L148.541667,25.7268618 L149.432867,24.7696987 L149.882698,25.2437781 C151.06631,26.4917819 152.335403,27.1324418 153.684475,27.1112816 C156.004726,27.095524 157.80236,25.1793969 157.820557,25.1595873 L158.263195,24.6805556 L159.166667,25.6201602 L158.725722,26.1009928 C158.638548,26.196439 156.556966,28.4322207 153.70521,28.4583333 C153.688706,28.4583333 153.67178,28.4583333 153.654853,28.4583333" id="Fill-1" fill="#0042FF"></path>
                    <polygon id="Fill-4" fill="#0042FF" points="153.411458 24.6805556 153.411458 20.315331 153.411458 18.5416667 152.083333 18.5416667 152.083333 20.315331 152.083333 24.6805556"></polygon>
                    <polygon id="Fill-6" fill="#0042FF" points="155.625 24.6805556 155.625 20.315331 155.625 18.5416667 154.296875 18.5416667 154.296875 20.315331 154.296875 24.6805556"></polygon>
                    <rect id="Rectangle" fill="#AEB3B9" x="173" y="17" width="14" height="3.33333333" rx="1.6"></rect>
                    <rect id="Rectangle" fill="#AEB3B9" x="173" y="22.3333333" width="14" height="3.33333333" rx="1.6"></rect>
                    <rect id="Rectangle" fill="#AEB3B9" x="173" y="27.6666667" width="14" height="3.33333333" rx="1.6"></rect>
                    <circle id="Oval" stroke="#0042FF" stroke-width="3" fill-opacity="0" fill="#D8D8D8" cx="153.5" cy="24.5" r="24.5"></circle>
                </g>
                <g id="Group-6" transform="translate(145.000000, 15.000000)">
                    <g id="Group" transform="translate(3.541667, 3.541667)"></g>
                </g>
                <g id="Group-13" transform="translate(173.000000, 17.000000)"></g>
            </g>
        </g>
    </g>
</svg>